<svg xmlns="http://www.w3.org/2000/svg" viewBox="0 0 272.7 193.52"><defs><style>.cls-1{fill:#24a2dc;}</style></defs><title>Element 2</title><g id="Ebene_2" data-name="Ebene 2"><g id="Ebene_1-2" data-name="Ebene 1"><circle class="cls-1" cx="184.03" cy="65.42" r="11.99"/><circle class="cls-1" cx="136.97" cy="35.66" r="11.99"/><path class="cls-1" d="M160.64,8.7C146.43-4.07,124.28-2.61,111.18,12a35.43,35.43,0,0,0-7.37,34.9,8.19,8.19,0,0,0,2.41,2.05c.76.12,4.12,9.55,4.12,9.55L119,49.1c.15-.35.32-.67.1-1a22.23,22.23,0,0,1,1.57-27.64c8.29-9.22,21.65-9.73,31-2.07,7.26,5.94,11.36,19,2.56,30.8-.15.2,9.2,10.26,9.22,9.59.09-3.24,5.42-10.73,5.59-11.15C174.53,34.27,171.79,18.71,160.64,8.7Z"/><path class="cls-1" d="M118.71,47.49C109.42,31.6,91.13,25,74,33.37S49.83,62.85,58.45,80.46C66.36,96.65,88.66,103.92,101,99.32c-.42-1.56-2.59-9.61-2.7-12.43-15.43,0-22-1.57-28.44-12-5.92-9.59-1.06-24.48,9.8-29.79a21.67,21.67,0,0,1,29.2,10.24,31.07,31.07,0,0,1,1.34,3.5l.24.93s.33-.4.34-.4c1.13-1.1,5.65-6.15,10.8-8.36A41.14,41.14,0,0,1,118.71,47.49Z"/><path class="cls-1" d="M199.89,33.45c-19.74-8.66-35.55-1-44.81,14.51a14.4,14.4,0,0,1-2.52,3,37.61,37.61,0,0,1,10.07,7.58c.15.14.7.75.71.76a1.39,1.39,0,0,1,.09-.36,23.51,23.51,0,0,1,1.19-3.21c5.45-11.13,18.67-15.85,29.54-10.54S209.41,63.82,204,75c-5.26,10.75-17.42,12.15-28.42,11.87A19.56,19.56,0,0,1,175,90.7h0c-.08,1.38-.21,2.75-.41,4.11v0a.3.3,0,0,0,0,.13,42.28,42.28,0,0,1-.82,4.18c10.22,4.76,33.41-1.5,41.68-18.62C223.92,62.89,216.31,40.65,199.89,33.45Z"/><path class="cls-1" d="M153.56,86.84c-2.16,4.69-8.8,9.64-16.74,9.64-7.21,0-14.08-5-16.23-9.64l-24.65,0-3.2,13.8,89.77,0-.2-13.87Z"/><path class="cls-1" d="M139.21,47.11l-.1,17.15a13.45,13.45,0,0,0-2.39-.23,13,13,0,0,0-2,.17l.07-17.09Z"/><path class="cls-1" d="M172.26,66.19,149,72.07a13.16,13.16,0,0,1,1.07,4.24l23.36-5.9c-.23-.55-.48-1.1-.75-1.63A12.48,12.48,0,0,1,172.26,66.19Z"/><circle class="cls-1" cx="89.25" cy="65.28" r="11.99"/><path class="cls-1" d="M150.35,77A13.39,13.39,0,1,1,137.4,64,13.39,13.39,0,0,1,150.35,77Z"/><path class="cls-1" d="M100.46,68.75c-.27.54-.49,1-.72,1.58l24.17,6a13,13,0,0,1,.86-4.2l-23.91-5.92A12.88,12.88,0,0,1,100.46,68.75Z"/><path class="cls-1" d="M26.9,177.84a40.84,40.84,0,0,1-9.72,1c-9.79,0-17.18-6-17.18-18.31v-7c0-12.28,7.39-18.31,17.18-18.31a41.38,41.38,0,0,1,9.72,1c1.29.3,1.59.75,1.59,2V143c0,.75-.61,1.13-1.36,1.13H26.9a64.23,64.23,0,0,0-9.72-.53c-3.54,0-7.23,2-7.23,9.87v7c0,7.84,3.69,9.87,7.23,9.87a65.84,65.84,0,0,0,9.72-.52h.23c.75,0,1.36.37,1.36,1.13v4.89C28.49,177.09,28.19,177.54,26.9,177.84Z"/><path class="cls-1" d="M39.63,178.22h-7a1.58,1.58,0,0,1-1.51-1.58V122.38a1.52,1.52,0,0,1,1.51-1.51h7a1.45,1.45,0,0,1,1.43,1.51v54.26A1.52,1.52,0,0,1,39.63,178.22Z"/><path class="cls-1" d="M62.39,178.82c-11.83,0-18-8-18-18.76V154c0-10.77,6.18-18.76,18-18.76s18,8,18,18.76v6.11C80.4,170.83,74.22,178.82,62.39,178.82ZM70.46,154c0-6.18-2.79-10.17-8.07-10.17s-8.06,4-8.06,10.17v6.11c0,6.18,2.79,10.17,8.06,10.17s8.07-4,8.07-10.17Z"/><path class="cls-1" d="M116.84,178.22H109.9a1.52,1.52,0,0,1-1.51-1.51V175c-3.91,2.56-7,3.77-11.83,3.77-3.77,0-7.08-1-9.27-3.17-2.79-2.79-3.77-7.46-3.77-13.71V137.3A1.58,1.58,0,0,1,85,135.72H92a1.58,1.58,0,0,1,1.5,1.58v24.57c0,3.77.3,5.95,1.74,7.23,1.05.91,2.33,1.36,4.67,1.36,2.79,0,6.4-1.89,8.51-3V137.3a1.58,1.58,0,0,1,1.51-1.58h6.94a1.58,1.58,0,0,1,1.5,1.58v39.41A1.51,1.51,0,0,1,116.84,178.22Z"/><path class="cls-1" d="M154.74,176.87a64.46,64.46,0,0,1-15.14,1.95c-12.14,0-18-7.16-18-18.91V154.1c0-11.75,5.88-18.91,18-18.91a56.56,56.56,0,0,1,7.23.53V122.38a1.52,1.52,0,0,1,1.51-1.51h6.93a1.52,1.52,0,0,1,1.51,1.51v52.45C156.78,176,156.48,176.41,154.74,176.87Zm-7.91-33a61.13,61.13,0,0,0-7.23-.53c-6.49,0-8.07,4.6-8.07,10.77v5.81c0,6.18,1.58,10.77,8.07,10.77a44.11,44.11,0,0,0,7.23-.52Z"/><path class="cls-1" d="M178,178.82c-11.83,0-18-8-18-18.76V154c0-10.77,6.18-18.76,18-18.76s18,8,18,18.76v6.11C196,170.83,189.86,178.82,178,178.82ZM186.09,154c0-6.18-2.79-10.17-8.07-10.17S170,147.77,170,154v6.11c0,6.18,2.79,10.17,8.06,10.17s8.07-4,8.07-10.17Z"/><path class="cls-1" d="M234.77,142.57l-2.49,1a9.64,9.64,0,0,1,1.88,6v.53c0,9.42-6.48,13.72-17.86,13.72a22.69,22.69,0,0,1-8.21-1.28,2.38,2.38,0,0,0-1.28,1.95c0,1.51.82,2.11,2.56,2.49l8.89,2.11c10.25,2.41,16.88,4,16.88,12.06v.53c0,7.69-5.65,11.83-18.46,11.83-12.21,0-18.69-4.6-18.69-12.51v-.68a11.33,11.33,0,0,1,3.84-8.29,8.74,8.74,0,0,1-3.39-6.93V165a7.37,7.37,0,0,1,3-6.1c-2.26-2.34-3.09-5.05-3.09-8.82v-.53c0-7.53,4.9-13.86,17.94-13.86h17.64a2,2,0,0,1,2,2v3.17C236,142.05,235.67,142.2,234.77,142.57Zm-9.58,38.59c0-1.66-1-2.64-8.89-4.52l-6.71-1.58a7.44,7.44,0,0,0-1.88,5.27V181c0,3.09,1.88,5,9,5s8.51-1.58,8.51-4.29Zm-.83-31.43c0-3.61-1.58-6.4-8.06-6.4s-8.14,2.86-8.14,6.4v.61c0,2.78,1.13,5.95,8.14,5.95,6.26,0,8.06-2.19,8.06-5.95Z"/><path class="cls-1" d="M271.2,178.22h-6.94a1.51,1.51,0,0,1-1.5-1.51V175c-3.92,2.56-7,3.77-11.84,3.77-3.76,0-7.08-1-9.27-3.17-2.78-2.79-3.76-7.46-3.76-13.71V137.3a1.57,1.57,0,0,1,1.5-1.58h6.94a1.57,1.57,0,0,1,1.5,1.58v24.57c0,3.77.31,5.95,1.74,7.23,1.05.91,2.33,1.36,4.67,1.36,2.79,0,6.41-1.89,8.52-3V137.3a1.58,1.58,0,0,1,1.5-1.58h6.94a1.57,1.57,0,0,1,1.5,1.58v39.41A1.51,1.51,0,0,1,271.2,178.22Z"/></g></g></svg>