<svg viewBox="0 0 71 40" xmlns="http://www.w3.org/2000/svg" focusable="false" aria-hidden="true" title="DKB: Das kann Bank" class="logo logo--claim icon__container__svg" data-v-0d859278="" data-v-6391325d=""><g clip-path="url(#clip0)" data-v-0d859278=""><path fill-rule="evenodd" clip-rule="evenodd" d="M10.3 0H0V26.5H10.3C16.2 26.5 23.2 21.35 23.2 13.25C23.2 4.425 16.2 0 10.3 0ZM7.35 6.625C11.4 6.625 15.825 7.725 15.825 13.25C15.825 18.775 11.4 19.875 7.35 19.875V6.625ZM33.475 0H26.125V26.525H33.5V15.1H33.575L40.125 26.525H48.6L40.125 12.15L47.85 0H39.375L33.55 9.95H33.475V0ZM50.6 0H61.275C66.075 0 69.375 2.875 69.375 6.625C69.375 9.125 68.5 11.275 66.5 11.9V11.975C68.15 12.6 70.85 14.85 70.85 18.425C70.85 23.725 66.8 26.525 62.375 26.525H50.6V0ZM60.225 10.6C61.475 10.6 62.55 9.8 62.55 8.275C62.55 6.85 61.475 5.95 60.225 5.95H57.975V10.6H60.225ZM60.875 20.2C62.35 20.2 63.2 19.025 63.2 17.55C63.2 16.075 62.025 14.9 60.55 14.9H57.975V20.2H60.875ZM0 39.975H2.55C4.4 39.975 6.575 38.6 6.575 35.9C6.575 33.175 4.425 31.825 2.5 31.825H0V39.975ZM1.525 33.225H2.15C3.5 33.225 4.975 34.075 4.975 35.875C4.975 37.7 3.5 38.55 2.15 38.55H1.525V33.225ZM10.95 39.975V39.525H10.925C10.55 39.975 9.97502 40.15 9.30002 40.15C8.17502 40.15 7.15002 39.175 7.15002 37.6C7.15002 36.025 8.17502 35.05 9.30002 35.05C9.97502 35.05 10.55 35.225 10.925 35.675H10.95V35.225H12.375V39.975H10.95ZM9.75002 36.35C9.17502 36.35 8.62502 36.8 8.62502 37.6C8.62502 38.4 9.20002 38.85 9.75002 38.85C10.425 38.85 10.95 38.4 10.95 37.6C10.95 36.8 10.45 36.35 9.75002 36.35ZM13.2 39.375C13.625 39.775 14.2 40.15 15.025 40.15C16.15 40.15 17.05 39.825 17.025 38.675C17.025 37.5713 16.1002 37.2034 15.4171 36.9318C15.0171 36.7727 14.7 36.6466 14.7 36.425C14.7 36.125 14.95 36.075 15.2 36.075C15.6 36.075 16.025 36.225 16.325 36.425L16.925 35.6C16.425 35.2 15.925 35.05 15.1 35.05C14.2 35.05 13.4 35.475 13.4 36.4C13.4 37.4198 14.1776 37.7318 14.8134 37.987C15.2531 38.1635 15.625 38.3127 15.625 38.65C15.625 38.9 15.45 39.05 15.025 39.05C14.625 39.05 14.1 38.75 13.8 38.45L13.2 39.375ZM23.85 39.975L22.35 37.925H22.325V39.975H20.9V31.7H22.325V36.925H22.35L23.625 35.225H25.325L23.5 37.5L25.55 40H23.85V39.975ZM29.425 39.525V39.975H30.85V35.225H29.425V35.675H29.4C29.025 35.225 28.45 35.05 27.775 35.05C26.65 35.05 25.625 36.025 25.625 37.6C25.625 39.175 26.65 40.15 27.775 40.15C28.45 40.15 29.025 39.975 29.4 39.525H29.425ZM27.1 37.6C27.1 36.8 27.65 36.35 28.225 36.35C28.925 36.35 29.425 36.8 29.425 37.6C29.425 38.4 28.9 38.85 28.225 38.85C27.675 38.85 27.1 38.4 27.1 37.6ZM35.275 37.375C35.275 36.7 35.05 36.35 34.375 36.35C33.8 36.35 33.4 36.8 33.4 37.375V39.975H31.975V35.225H33.4V35.675H33.425C33.8 35.225 34.375 35.05 34.95 35.05C36.05 35.05 36.675 35.675 36.675 36.925V39.975H35.275V37.375ZM40.225 36.35C40.9 36.35 41.125 36.7 41.125 37.375V39.975H42.525V36.925C42.525 35.675 41.9 35.05 40.8 35.05C40.225 35.05 39.65 35.225 39.275 35.675H39.25V35.225H37.825V39.975H39.25V37.375C39.25 36.8 39.65 36.35 40.225 36.35ZM49.375 39.975H46.65V31.825H49.15C50.5 31.825 51.65 32.65 51.65 33.875C51.65 34.775 51.2 35.45 50.625 35.7C51.2 35.925 51.975 36.5 51.975 37.625C52 39.075 50.85 39.975 49.375 39.975ZM49.05 33.125H48.2V35.05H49.05C49.625 35.05 50.175 34.775 50.175 34.075C50.175 33.4 49.625 33.125 49.05 33.125ZM49.15 36.35H48.175V38.625H49.15C49.95 38.625 50.4 38.175 50.4 37.5C50.4 36.8 49.95 36.35 49.15 36.35ZM56.575 39.525V39.975H58V35.225H56.575V35.675H56.55C56.175 35.225 55.6 35.05 54.925 35.05C53.8 35.05 52.775 36.025 52.775 37.6C52.775 39.175 53.8 40.15 54.925 40.15C55.6 40.15 56.175 39.975 56.55 39.525H56.575ZM54.25 37.6C54.25 36.8 54.8 36.35 55.375 36.35C56.05 36.35 56.575 36.8 56.575 37.6C56.575 38.4 56.05 38.85 55.375 38.85C54.825 38.85 54.25 38.4 54.25 37.6ZM62.425 37.375C62.425 36.7 62.2 36.35 61.525 36.35C60.95 36.35 60.55 36.8 60.55 37.375V39.975H59.125V35.225H60.55V35.675H60.575C60.95 35.225 61.525 35.05 62.1 35.05C63.2 35.05 63.825 35.675 63.825 36.925V39.975H62.425V37.375ZM66.425 37.925L67.925 39.975V40H69.6L67.55 37.5L69.375 35.225H67.675L66.4 36.925H66.375V31.7H64.95V39.975H66.375V37.925H66.425Z" fill="#148DEA" data-v-0d859278=""></path></g><defs data-v-0d859278=""><clipPath id="clip0" data-v-0d859278=""><rect width="71" height="40" fill="white" data-v-0d859278=""></rect></clipPath></defs></svg>