<?xml version="1.0" encoding="UTF-8"?>
<svg width="201px" height="32px" viewBox="0 0 201 32" version="1.1" xmlns="http://www.w3.org/2000/svg" xmlns:xlink="http://www.w3.org/1999/xlink">
    <title>Global/Logo/Full</title>
    <g id="Symbols" stroke="none" stroke-width="1" fill="none" fill-rule="evenodd">
        <g id="Global/Modal" transform="translate(-72.000000, -24.000000)" fill="#171214">
            <g id="Global/Logo/Full" transform="translate(72.000000, 24.000000)">
                <path d="M18.9354563,0.000290625 C19.0775091,0.000290625 19.2205284,0.016759375 19.3616149,0.049696875 C22.7699178,0.864415625 25.8622255,2.83388437 28.0693601,5.59579062 C30.3412399,8.44100937 31.5433745,11.8703844 31.5433745,15.5138531 C31.5433745,19.1563531 30.3412399,22.5866969 28.0693601,25.4309469 C25.8622255,28.1938219 22.7699178,30.1642594 19.3616149,30.9770406 C19.2205284,31.0109469 19.0775091,31.0283844 18.9354563,31.0283844 C17.9246582,31.0283844 17.1003649,30.1962281 17.1003649,29.1732281 C17.1003649,28.2887594 17.6830716,27.5321656 18.516062,27.3316344 C21.5639178,26.5992594 24.2745188,24.6452906 25.9588601,21.9628219 L25.9588601,21.9628219 L25.9714226,21.9424781 C26.2149418,21.5356031 26.2207399,21.0473531 25.9888168,20.6366031 C25.7462639,20.2074469 25.2959466,19.9410406 24.8118072,19.9410406 C24.6146726,19.9410406 24.4233361,19.9846344 24.2406966,20.0698844 C23.5729514,20.3847281 22.8588216,20.5445719 22.1166678,20.5445719 C19.4650139,20.5445719 17.2675428,18.4627281 17.1148601,15.8054469 L17.1148601,15.8054469 L17.1138938,15.7909156 L17.1119611,15.7763844 C17.1042303,15.7027594 17.1003649,15.6368844 17.1003649,15.5758531 L17.1003649,15.5758531 L17.1003649,15.4518531 C17.1003649,15.3898531 17.1042303,15.3249469 17.1119611,15.2513219 L17.1119611,15.2513219 L17.1138938,15.2367906 L17.1148601,15.2212906 C17.2675428,12.5649781 19.4650139,10.4841031 22.1166678,10.4841031 C22.8588216,10.4841031 23.5729514,10.6420094 24.2406966,10.9568531 C24.4233361,11.0430719 24.6146726,11.0866656 24.8118072,11.0866656 C25.2959466,11.0866656 25.7462639,10.8202594 25.9888168,10.3920719 C26.2207399,9.98132187 26.2149418,9.49307187 25.9733553,9.08910312 L25.9733553,9.08910312 L25.9540284,9.05713437 C24.2745188,6.38241562 21.5639178,4.42844687 18.516062,3.69510312 C17.6830716,3.49554062 17.1003649,2.73797812 17.1003649,1.85447812 C17.1003649,0.832446875 17.9246582,0.000290625 18.9354563,0.000290625 Z M12.6069519,-0.000290625 C13.6187163,-0.000290625 14.4420433,0.831865625 14.4420433,1.85486562 C14.4420433,2.73836562 13.8603029,3.49592813 13.0273125,3.69549063 C9.97945673,4.42883437 7.26788942,6.38280312 5.58837981,9.05849062 L5.58837981,9.05849062 L5.57775,9.07495938 L5.57291827,9.08270937 C5.32843269,9.49249062 5.32070192,9.98074062 5.55359135,10.3914906 C5.79614423,10.8206469 6.24742788,11.0870531 6.73156731,11.0870531 C6.92773558,11.0870531 7.11907212,11.0434594 7.30171154,10.9572406 C7.96945673,10.6433656 8.68358654,10.4835219 9.42574038,10.4835219 C12.0783606,10.4835219 14.2758317,12.5643969 14.4275481,15.2226469 L14.4275481,15.2226469 L14.4285144,15.2371781 L14.4304471,15.2517094 C14.4381779,15.3243656 14.4420433,15.3892719 14.4420433,15.4522406 L14.4420433,15.4522406 L14.4425264,15.5060062 L14.4425264,15.5060062 C14.4430096,15.5219906 14.4420433,15.5287719 14.4420433,15.5384594 L14.4420433,15.5762406 C14.4420433,15.6382406 14.4381779,15.7031469 14.4304471,15.7758031 L14.4304471,15.7758031 L14.4285144,15.7903344 L14.4275481,15.8058344 C14.2758317,18.4631156 12.0783606,20.5439906 9.42574038,20.5439906 C8.68358654,20.5439906 7.96945673,20.3841469 7.30171154,20.0702719 C7.11907212,19.9850219 6.92773558,19.9404594 6.73060096,19.9404594 C6.24742788,19.9404594 5.79614423,20.2078344 5.55359135,20.6360219 C5.32070192,21.0467719 5.32843269,21.5350219 5.57291827,21.9438344 L5.57291827,21.9438344 L5.58934615,21.9699906 C7.26885577,24.6447094 9.97945673,26.5996469 13.0273125,27.3320219 C13.8603029,27.5325531 14.4420433,28.2901156 14.4420433,29.1726469 C14.4420433,30.1956469 13.6187163,31.0278031 12.6069519,31.0278031 C12.464899,31.0278031 12.3218798,31.0103656 12.1807933,30.9764594 C8.77249038,30.1636781 5.68018269,28.1942094 3.47401442,25.4313344 C1.20116827,22.5861156 0,19.1567406 0,15.5142406 C0,11.8707719 1.20116827,8.44139687 3.47401442,5.59520937 C5.68018269,2.83330313 8.77249038,0.863834375 12.1807933,0.050084375 C12.3218798,0.017146875 12.464899,-0.000290625 12.6069519,-0.000290625 Z M99.2322505,9.2042875 L102.789371,18.2378813 L106.38901,9.2042875 L108.433799,9.2042875 L101.617193,25.8571 L99.6149236,25.8571 L101.681938,20.7324125 L97.058938,9.2042875 L99.2322505,9.2042875 Z M73.8202457,8.93400625 C76.9512072,8.93400625 79.5931976,11.5631937 79.5931976,14.9344437 C79.5931976,18.6195687 76.8236495,21.1819125 73.7352072,21.1819125 C71.8170101,21.1819125 70.4119428,20.3284437 69.6021447,19.1146 L69.6021447,19.1146 L69.5596255,19.1146 L69.5596255,25.8571 L67.6423947,25.8571 L67.6423947,9.2042875 L69.5596255,9.2042875 L69.5596255,11.04685 L69.6021447,11.04685 C70.5182409,9.6537875 72.1793899,8.93400625 73.8202457,8.93400625 Z M90.8820534,8.93400625 C94.3753947,8.93400625 96.8888611,11.7656625 96.8888611,15.0691 C96.8888611,18.4180687 94.5029524,21.1819125 90.8820534,21.1819125 C87.260188,21.1819125 84.8752457,18.4180687 84.8752457,15.0691 C84.8752457,11.7656625 87.388712,8.93400625 90.8820534,8.93400625 Z M42.1453514,8.93400625 C45.5749139,8.93400625 47.9608226,11.6988187 47.9608226,15.8334437 L47.9608226,15.8334437 L38.4606736,15.8334437 C38.7583082,17.8339125 40.2918995,19.2947875 42.4429861,19.2947875 C43.8065005,19.2947875 45.0211976,18.6195687 46.0010726,17.4066937 L46.0010726,17.4066937 L47.4708851,18.6428187 C45.979813,20.3952875 44.4037024,21.1819125 42.4642457,21.1819125 C38.5234861,21.1819125 36.4158851,18.1710375 36.4158851,15.0468187 C36.4158851,11.7211 38.6732697,8.93400625 42.1453514,8.93400625 Z M194.761366,8.93400625 C198.254707,8.93400625 200.768174,11.7656625 200.768174,15.0691 C200.768174,18.4180687 198.382265,21.1819125 194.761366,21.1819125 C191.1395,21.1819125 188.754558,18.4180687 188.754558,15.0691 C188.754558,11.7656625 191.268025,8.93400625 194.761366,8.93400625 Z M175.760101,8.93400625 C179.189664,8.93400625 181.575573,11.6988187 181.575573,15.8334437 L181.575573,15.8334437 L172.075424,15.8334437 C172.373058,17.8339125 173.907616,19.2947875 176.058702,19.2947875 C177.422217,19.2947875 178.635948,18.6195687 179.616789,17.4066937 L179.616789,17.4066937 L181.085635,18.6428187 C179.595529,20.3952875 178.018452,21.1819125 176.079962,21.1819125 C172.139202,21.1819125 170.030635,18.1710375 170.030635,15.0468187 C170.030635,11.7211 172.28802,8.93400625 175.760101,8.93400625 Z M132.972226,8.93400625 C136.401789,8.93400625 138.787698,11.6988187 138.787698,15.8334437 L138.787698,15.8334437 L129.287549,15.8334437 C129.58615,17.8339125 131.119741,19.2947875 133.271794,19.2947875 C134.634342,19.2947875 135.849039,18.6195687 136.828914,17.4066937 L136.828914,17.4066937 L138.29776,18.6428187 C136.806688,20.3952875 135.230577,21.1819125 133.292087,21.1819125 C129.351327,21.1819125 127.24276,18.1710375 127.24276,15.0468187 C127.24276,11.7211 129.501111,8.93400625 132.972226,8.93400625 Z M121.533587,8.93400625 C123.920462,8.93400625 125.795174,10.4404125 125.795174,13.5191 L125.795174,13.5191 L125.795174,20.9126 L123.876976,20.9126 L123.876976,13.74385 C123.876976,11.7211 122.769544,10.8221 121.448549,10.8221 C119.851178,10.8221 118.658707,11.8780375 118.658707,13.832975 L118.658707,13.832975 L118.658707,20.9126 L116.741476,20.9126 L116.741476,13.74385 C116.741476,11.7211 115.634044,10.8221 114.313049,10.8221 C112.715678,10.8221 111.523207,11.8780375 111.523207,13.832975 L111.523207,13.832975 L111.523207,20.9126 L109.60501,20.9126 L109.60501,9.2042875 L111.523207,9.2042875 L111.523207,10.59735 L111.56476,10.59735 C112.075957,9.4057875 113.460731,8.93400625 114.632909,8.93400625 C115.760635,8.93400625 116.997558,9.24885 117.913654,10.9567562 C118.594928,9.4736 120.064741,8.93400625 121.533587,8.93400625 Z M145.114366,8.93400625 C147.266419,8.93400625 149.396246,10.1701312 149.396246,13.3398812 L149.396246,13.3398812 L149.396246,20.9126 L147.479015,20.9126 L147.479015,14.1032562 C147.479015,12.3498187 146.797741,10.8221 144.90177,10.8221 C143.112097,10.8221 142.025924,12.1027875 142.025924,14.3280062 L142.025924,14.3280062 L142.025924,20.9126 L140.108693,20.9126 L140.108693,9.2042875 L142.025924,9.2042875 L142.025924,10.5750687 L142.068443,10.5750687 C142.643419,9.51913125 143.878409,8.93400625 145.114366,8.93400625 Z M153.6559,6.37263125 L153.6559,9.2042875 L155.423347,9.2042875 L155.423347,10.9790375 L153.6559,10.9790375 L153.6559,18.1710375 C153.6559,18.7997562 153.847236,19.0245062 154.593255,19.0245062 L154.593255,19.0245062 L155.466832,19.0245062 L155.466832,20.8903187 C155.281938,20.9051729 155.021454,20.9101243 154.735773,20.9117748 L154.294654,20.9126 C152.334904,20.9126 151.738669,20.1937875 151.738669,18.3957875 L151.738669,18.3957875 L151.738669,10.9790375 L150.205077,10.9790375 L150.205077,9.2042875 L151.738669,9.2042875 L151.738669,6.37263125 L153.6559,6.37263125 Z M188.477217,8.93400625 L188.477217,11.0691312 C188.200842,11.0022875 187.902241,10.9567562 187.60364,10.9567562 C186.00627,10.9567562 184.941356,12.1250687 184.941356,14.2611625 L184.941356,14.2611625 L184.941356,20.9126 L183.023159,20.9126 L183.023159,9.2042875 L184.941356,9.2042875 L184.941356,10.8666625 L184.983875,10.8666625 C185.942491,9.04638125 186.858587,8.93400625 188.477217,8.93400625 L188.477217,8.93400625 Z M82.8091976,5.17138125 L82.8091976,17.2497562 C82.8091976,18.5750062 83.4266928,19.0245062 84.044188,19.0245062 L84.044188,19.0245062 L84.6191639,19.0245062 L84.6191639,20.9126 L83.8306255,20.9126 C82.0631784,20.9126 80.8919668,19.8556937 80.8919668,17.4066937 L80.8919668,17.4066937 L80.8919668,5.17138125 L82.8091976,5.17138125 Z M61.2954332,8.93400625 C63.6813418,8.93400625 65.555087,10.4404125 65.555087,13.5191 L65.555087,13.5191 L65.555087,20.9126 L63.6378562,20.9126 L63.6378562,13.74385 C63.6378562,11.7211 62.5294572,10.8221 61.2094284,10.8221 C59.6120582,10.8221 58.419587,11.8780375 58.419587,13.832975 L58.419587,13.832975 L58.419587,20.9126 L56.5023562,20.9126 L56.5023562,13.74385 C56.5023562,11.7211 55.3939572,10.8221 54.0739284,10.8221 C52.4765582,10.8221 51.2831207,11.8780375 51.2831207,13.832975 L51.2831207,13.832975 L51.2831207,20.9126 L49.3658899,20.9126 L49.3658899,9.2042875 L51.2831207,9.2042875 L51.2831207,10.59735 L51.3256399,10.59735 C51.8378034,9.4057875 53.2216111,8.93400625 54.3937889,8.93400625 C55.5224812,8.93400625 56.7574716,9.24885 57.6735678,10.9567562 C58.3548418,9.4736 59.8256207,8.93400625 61.2954332,8.93400625 Z M161.297765,5.17138125 L161.297765,10.5750687 L161.339318,10.5750687 C161.91526,9.51913125 163.15025,8.93400625 164.385241,8.93400625 C166.537294,8.93400625 168.667121,10.1701312 168.667121,13.3398812 L168.667121,13.3398812 L168.667121,20.9126 L166.750856,20.9126 L166.750856,14.1032562 C166.750856,12.3498187 166.069582,10.8221 164.173611,10.8221 C162.383938,10.8221 161.297765,12.1027875 161.297765,14.3280062 L161.297765,14.3280062 L161.297765,20.9126 L159.379568,20.9126 L159.379568,5.17138125 L161.297765,5.17138125 Z M73.4791255,10.8221 C71.3918178,10.8221 69.5596255,12.7101937 69.5596255,15.0691 C69.5596255,17.4066937 71.3483322,19.2947875 73.5429043,19.2947875 C75.5664332,19.2947875 77.5484091,17.653725 77.5484091,14.9576937 C77.5484091,13.0017875 76.0785966,10.8221 73.4791255,10.8221 Z M194.761366,10.8221 C192.630573,10.8221 190.799347,12.6423812 190.799347,15.0691 C190.799347,17.3166 192.630573,19.2947875 194.761366,19.2947875 C196.891193,19.2947875 198.723385,17.3166 198.723385,15.0691 C198.723385,12.6423812 196.891193,10.8221 194.761366,10.8221 Z M90.8820534,10.8221 C88.7522264,10.8221 86.9200341,12.6423812 86.9200341,15.0691 C86.9200341,17.3166 88.7522264,19.2947875 90.8820534,19.2947875 C93.0118803,19.2947875 94.8431062,17.3166 94.8431062,15.0691 C94.8431062,12.6423812 93.0118803,10.8221 90.8820534,10.8221 Z M42.1240918,10.8221 C39.7807024,10.8221 38.6520101,12.5745687 38.4606736,14.1710687 L38.4606736,14.1710687 L45.7875101,14.1710687 C45.5961736,12.2384125 44.1051014,10.8221 42.1240918,10.8221 Z M132.951933,10.8221 C130.608544,10.8221 129.479851,12.5745687 129.287549,14.1710687 L129.287549,14.1710687 L136.615351,14.1710687 C136.423049,12.2384125 134.932943,10.8221 132.951933,10.8221 Z M175.739808,10.8221 C173.396419,10.8221 172.267726,12.5745687 172.075424,14.1710687 L172.075424,14.1710687 L179.403226,14.1710687 C179.210924,12.2384125 177.720818,10.8221 175.739808,10.8221 Z" id="Logo"></path>
            </g>
        </g>
    </g>
</svg>