<?xml version="1.0" encoding="UTF-8" standalone="no"?>
<svg xmlns:dc="http://purl.org/dc/elements/1.1/" xmlns:cc="http://creativecommons.org/ns#" xmlns:rdf="http://www.w3.org/1999/02/22-rdf-syntax-ns#" xmlns:svg="http://www.w3.org/2000/svg" xmlns="http://www.w3.org/2000/svg" xmlns:sodipodi="http://sodipodi.sourceforge.net/DTD/sodipodi-0.dtd" xmlns:inkscape="http://www.inkscape.org/namespaces/inkscape" id="Ebene_1" data-name="Ebene 1" viewBox="0 0 930.41811 192.69139" version="1.1" sodipodi:docname="logo_bildwort_groesser.svg" width="930.41809" height="192.69139" inkscape:version="0.92.2 5c3e80d, 2017-08-06">
  <metadata id="metadata100">
    <rdf:RDF>
      <cc:Work rdf:about="">
        <dc:format>image/svg+xml</dc:format>
        <dc:type rdf:resource="http://purl.org/dc/dcmitype/StillImage"/>
        <dc:title>Zeichenfläche 1</dc:title>
      </cc:Work>
    </rdf:RDF>
  </metadata>
  <sodipodi:namedview pagecolor="#ffffff" bordercolor="#666666" borderopacity="1" objecttolerance="10" gridtolerance="10" guidetolerance="10" inkscape:pageopacity="0" inkscape:pageshadow="2" inkscape:window-width="1440" inkscape:window-height="851" id="namedview98" showgrid="false" inkscape:zoom="0.70710678" inkscape:cx="402.8512" inkscape:cy="15.93863" inkscape:window-x="0" inkscape:window-y="0" inkscape:window-maximized="1" inkscape:current-layer="Ebene_1"/>
  <defs id="defs16">
    <style id="style2">.cls-1,.cls-16,.cls-8,.cls-9{fill:none;}.cls-2{fill:#e8e8e8;}.cls-3{clip-path:url(#clip-path);}.cls-4{fill:#f4f4f4;}.cls-5{clip-path:url(#clip-path-2);}.cls-6{fill:#eee;}.cls-7{fill:#e2e2e2;}.cls-16,.cls-8,.cls-9{stroke:#dcdcdc;}.cls-16,.cls-8{stroke-miterlimit:10;}.cls-8,.cls-9{stroke-width:0.25px;}.cls-16,.cls-9{stroke-linecap:round;}.cls-9{stroke-linejoin:round;}.cls-10{fill:#007ea1;}.cls-11{clip-path:url(#clip-path-3);}.cls-12{fill:#145870;}.cls-13{fill:#196c8a;}.cls-14{fill:#48494d;}.cls-15{fill:#323437;}.cls-17{clip-path:url(#clip-path-4);}</style>
    <clipPath id="clip-path-4">
      <path class="cls-1" d="m 99.59,43.12 19.15,11.05 a 0.67,0.67 0 0 1 0.32,0.56 v 7 a 0.51,0.51 0 0 1 -0.26,0.44 l -6.41,3.67 6.41,3.68 a 0.5,0.5 0 0 1 0.26,0.44 v 7 a 0.51,0.51 0 0 1 -0.26,0.44 l -19.08,11 a 1,1 0 0 1 -1,0 l -19.08,-11 a 0.52,0.52 0 0 1 -0.25,-0.44 v -7 a 0.51,0.51 0 0 1 0.25,-0.44 L 86,65.81 79.65,62.14 A 0.52,0.52 0 0 1 79.4,61.7 v -7 a 0.65,0.65 0 0 1 0.32,-0.56 L 98.83,43.12 a 0.79,0.79 0 0 1 0.76,0 z" id="path13" inkscape:connector-curvature="0" style="fill:none"/>
    </clipPath>
  </defs>
  <title id="title18">Zeichenfläche 1</title>
  <g id="g857" transform="matrix(2.4360106,0,0,2.4360106,-376.48684,-137.23477)">
    <path class="cls-13" d="m 265.76576,84.46083 a 3.5604987,3.5604987 0 0 1 -0.84773,1.017285 2.1617313,2.1617313 0 0 1 -1.18684,0.296708 2.8823085,2.8823085 0 0 1 -1.35638,-0.381482 l -1.65309,-0.932511 a 11.783555,11.783555 0 0 0 -2.07695,-0.890125 8.9436336,8.9436336 0 0 0 -2.71276,-0.381482 5.5950693,5.5950693 0 0 0 -3.85721,1.102059 3.7724331,3.7724331 0 0 0 -1.27161,3.009469 2.7975347,2.7975347 0 0 0 0.76297,1.992184 7.1633842,7.1633842 0 0 0 1.99218,1.35638 18.777392,18.777392 0 0 0 2.88231,1.059673 l 3.26379,1.059672 c 1.10206,0.423869 2.20412,0.890124 3.26379,1.398767 a 12.716067,12.716067 0 0 1 2.88231,2.034571 9.53705,9.53705 0 0 1 1.99218,3.009469 10.723883,10.723883 0 0 1 0.76297,4.238693 13.987673,13.987673 0 0 1 -0.93252,5.1712 11.783555,11.783555 0 0 1 -2.79753,4.23869 12.716067,12.716067 0 0 1 -4.49301,2.83992 16.954756,16.954756 0 0 1 -6.10371,1.01728 19.328421,19.328421 0 0 1 -3.77244,-0.38148 22.592212,22.592212 0 0 1 -3.77243,-1.05967 19.497969,19.497969 0 0 1 -3.39095,-1.69548 14.326768,14.326768 0 0 1 -2.75515,-2.11934 l 2.71276,-4.23869 a 2.3312789,2.3312789 0 0 1 0.89013,-0.80535 2.1193444,2.1193444 0 0 1 1.14444,-0.29671 3.3909511,3.3909511 0 0 1 1.69548,0.50864 l 1.86502,1.14445 a 15.979857,15.979857 0 0 0 2.41606,1.14444 8.4773778,8.4773778 0 0 0 3.26379,0.55103 6.1884858,6.1884858 0 0 0 3.89959,-1.10206 4.2386889,4.2386889 0 0 0 1.39877,-3.56049 3.2214036,3.2214036 0 0 0 -0.76297,-2.24651 5.9765513,5.9765513 0 0 0 -1.99218,-1.48354 20.048998,20.048998 0 0 0 -2.83992,-1.01729 c -1.05967,-0.296704 -2.16173,-0.593412 -3.26379,-0.974894 a 18.099202,18.099202 0 0 1 -3.26379,-1.313993 9.6642107,9.6642107 0 0 1 -2.83992,-2.034571 9.3251156,9.3251156 0 0 1 -2.03458,-3.179017 12.716067,12.716067 0 0 1 -0.76296,-4.704944 11.359686,11.359686 0 0 1 0.89013,-4.238689 11.953103,11.953103 0 0 1 2.67037,-3.81482 13.818126,13.818126 0 0 1 4.23869,-2.670374 15.683149,15.683149 0 0 1 5.84939,-1.017286 24.711556,24.711556 0 0 1 3.5605,0.296709 18.862166,18.862166 0 0 1 3.30617,0.847737 18.565457,18.565457 0 0 1 2.9247,1.356381 11.486847,11.486847 0 0 1 2.41605,1.780249 z" id="path63" inkscape:connector-curvature="0" style="fill:#196c8a;stroke-width:4.23868895"/>
    <path class="cls-13" d="m 298.9547,76.322547 v 7.120997 h -16.40373 v 9.494663 h 12.71607 v 6.866676 h -12.71607 v 9.537047 h 16.40373 v 7.121 H 273.22586 V 76.322547 Z" id="path65" inkscape:connector-curvature="0" style="fill:#196c8a;stroke-width:4.23868895"/>
    <path class="cls-13" d="m 310.14484,76.364934 h 0.72057 a 2.7551478,2.7551478 0 0 1 0.63581,0.423869 5.7646169,5.7646169 0 0 1 0.67819,0.720577 l 18.98932,24.03337 c 0,-0.76297 0,-1.52593 0,-2.246509 0,-0.720577 0,-1.398768 0,-2.034571 V 76.068226 h 8.18067 v 39.970834 h -4.8321 a 4.6625578,4.6625578 0 0 1 -1.82264,-0.33909 4.2386889,4.2386889 0 0 1 -1.44115,-1.18684 L 312.43373,90.691702 v 2.034571 c 0,0.67819 0,1.313993 0,1.865023 v 21.447764 h -8.18067 V 76.322547 h 5.93416 z" id="path67" inkscape:connector-curvature="0" style="fill:#196c8a;stroke-width:4.23868895"/>
    <path class="cls-13" d="m 368.00294,84.46083 a 3.6452725,3.6452725 0 0 1 -0.89012,1.017285 1.90741,1.90741 0 0 1 -1.14445,0.296708 2.8823085,2.8823085 0 0 1 -1.35638,-0.381482 l -1.73786,-0.932511 a 12.249811,12.249811 0 0 0 -2.11935,-0.890125 8.4773778,8.4773778 0 0 0 -2.67037,-0.381482 5.72223,5.72223 0 0 0 -3.68766,1.271607 3.7724331,3.7724331 0 0 0 -1.27161,3.009469 2.7975347,2.7975347 0 0 0 0.76297,1.992183 6.8242891,6.8242891 0 0 0 2.03457,1.356381 19.964225,19.964225 0 0 0 2.83992,1.059672 l 3.30618,1.059672 c 1.10206,0.423869 2.20411,0.890125 3.26379,1.398768 a 11.529234,11.529234 0 0 1 2.83992,2.03457 8.9860205,8.9860205 0 0 1 2.03457,3.009469 10.723883,10.723883 0 0 1 0.76296,4.238686 14.03006,14.03006 0 0 1 -0.9749,5.1712 12.12265,12.12265 0 0 1 -7.29054,7.03623 16.954756,16.954756 0 0 1 -6.06133,1.01728 20.048998,20.048998 0 0 1 -3.81482,-0.38148 23.312789,23.312789 0 0 1 -3.73004,-1.05967 19.497969,19.497969 0 0 1 -3.39095,-1.69548 16.149405,16.149405 0 0 1 -2.79754,-2.11934 l 2.75515,-4.23869 a 2.5856002,2.5856002 0 0 1 0.84774,-0.80535 2.3312789,2.3312789 0 0 1 1.18683,-0.29671 3.1366298,3.1366298 0 0 1 1.65309,0.50864 l 1.90741,1.14445 a 15.979857,15.979857 0 0 0 2.41605,1.14445 8.4773778,8.4773778 0 0 0 3.26379,0.55102 6.2732596,6.2732596 0 0 0 3.8996,-1.10205 4.2386889,4.2386889 0 0 0 1.39876,-3.5605 3.2214036,3.2214036 0 0 0 -0.76296,-2.24651 5.7646169,5.7646169 0 0 0 -2.03457,-1.48354 18.311136,18.311136 0 0 0 -2.83992,-1.01728 l -3.26379,-0.974903 a 19.455582,19.455582 0 0 1 -3.26379,-1.313994 10.257627,10.257627 0 0 1 -2.83992,-2.03457 9.918532,9.918532 0 0 1 -1.99219,-3.179017 12.716067,12.716067 0 0 1 -0.76296,-4.704945 11.359686,11.359686 0 0 1 0.89012,-4.238689 10.76627,10.76627 0 0 1 2.67038,-3.81482 13.606191,13.606191 0 0 1 4.23868,-2.670374 15.979857,15.979857 0 0 1 5.8494,-1.017285 25.432133,25.432133 0 0 1 3.60288,0.296708 21.193444,21.193444 0 0 1 3.30618,0.847738 22.973694,22.973694 0 0 1 2.92469,1.356381 12.716067,12.716067 0 0 1 2.41606,1.780249 z" id="path69" inkscape:connector-curvature="0" style="fill:#196c8a;stroke-width:4.23868895"/>
    <path class="cls-13" d="m 401.02233,76.322547 v 7.120997 H 384.6186 v 9.494663 h 12.71607 v 6.866676 H 384.6186 v 9.537047 h 16.40373 v 7.121 H 375.59019 V 76.322547 Z" id="path71" inkscape:connector-curvature="0" style="fill:#196c8a;stroke-width:4.23868895"/>
    <path class="cls-15" d="m 415.73058,108.87568 h 14.96257 v 7.4177 H 406.6174 V 76.322547 h 9.28273 z" id="path73" inkscape:connector-curvature="0" style="fill:#323437;stroke-width:4.23868895"/>
    <path class="cls-15" d="m 472.14753,116.29338 h -7.20577 a 3.5604987,3.5604987 0 0 1 -1.99219,-0.55103 2.9246953,2.9246953 0 0 1 -1.05967,-1.44115 l -2.37367,-6.99384 h -15.21689 l -2.33128,6.82429 a 3.0094691,3.0094691 0 0 1 -1.10206,1.35638 2.9246953,2.9246953 0 0 1 -1.94979,0.63581 h -7.20578 l 15.47122,-39.970841 h 9.49466 z m -25.68646,-15.30166 h 10.89343 l -3.64527,-10.935821 c -0.25432,-0.67819 -0.55103,-1.525928 -0.84774,-2.45844 -0.29671,-0.932511 -0.6358,-1.949797 -0.93251,-3.051856 -0.29671,1.102059 -0.59342,2.161732 -0.93251,3.094243 -0.3391,0.932512 -0.59342,1.78025 -0.84774,2.45844 z" id="path75" inkscape:connector-curvature="0" style="fill:#323437;stroke-width:4.23868895"/>
    <path class="cls-15" d="M 475.36893,116.29338 V 76.322547 h 14.66586 a 27.890573,27.890573 0 0 1 7.03623,0.762964 13.309483,13.309483 0 0 1 4.74733,2.161731 8.2230565,8.2230565 0 0 1 2.67037,3.390951 11.783555,11.783555 0 0 1 0.84774,4.493011 8.9012467,8.9012467 0 0 1 -0.38148,2.5856 8.0958958,8.0958958 0 0 1 -1.18683,2.331279 8.4773778,8.4773778 0 0 1 -2.11935,1.992183 16.234178,16.234178 0 0 1 -3.09424,1.568315 10.723883,10.723883 0 0 1 5.807,3.094243 8.0958958,8.0958958 0 0 1 1.90741,5.552686 11.868329,11.868329 0 0 1 -0.9749,4.74733 10.978204,10.978204 0 0 1 -2.92469,3.81482 12.970388,12.970388 0 0 1 -4.66256,2.54321 19.921838,19.921838 0 0 1 -6.40042,0.93251 z m 9.28273,-23.143238 h 4.8321 a 13.563804,13.563804 0 0 0 2.75515,-0.254322 5.4679087,5.4679087 0 0 0 2.11935,-0.762964 3.433338,3.433338 0 0 0 1.31399,-1.483541 5.72223,5.72223 0 0 0 0.42387,-2.416052 7.4177056,7.4177056 0 0 0 -0.3391,-2.373666 3.3909511,3.3909511 0 0 0 -1.10206,-1.525928 4.7473316,4.7473316 0 0 0 -1.86502,-0.847738 12.716067,12.716067 0 0 0 -2.71276,-0.211934 h -5.42552 z m 0,6.188486 v 9.960922 h 6.52758 a 8.4773778,8.4773778 0 0 0 3.00947,-0.46626 5.2983611,5.2983611 0 0 0 1.82264,-1.22922 4.2386889,4.2386889 0 0 0 0.89012,-1.65309 7.3753187,7.3753187 0 0 0 0.25432,-1.90741 5.5526825,5.5526825 0 0 0 -0.29671,-1.94979 2.9670822,2.9670822 0 0 0 -0.9749,-1.48355 4.5353971,4.5353971 0 0 0 -1.86502,-0.932507 9.4098894,9.4098894 0 0 0 -2.88231,-0.339095 z" id="path77" inkscape:connector-curvature="0" style="fill:#323437;stroke-width:4.23868895"/>
    <path class="cls-15" d="m 533.6509,84.46083 a 3.6452725,3.6452725 0 0 1 -0.89012,1.017285 1.90741,1.90741 0 0 1 -1.14445,0.296708 2.8823085,2.8823085 0 0 1 -1.35638,-0.381482 l -1.65309,-0.932511 a 11.783555,11.783555 0 0 0 -2.07695,-0.890125 8.9436336,8.9436336 0 0 0 -2.71277,-0.381482 5.8070038,5.8070038 0 0 0 -3.89959,1.102059 3.7724331,3.7724331 0 0 0 -1.27161,3.009469 2.670374,2.670374 0 0 0 0.80536,1.992184 6.5699678,6.5699678 0 0 0 1.99218,1.35638 19.964225,19.964225 0 0 0 2.83992,1.059673 l 3.30618,1.059672 c 1.10206,0.423869 2.20412,0.890124 3.26379,1.398767 a 11.529234,11.529234 0 0 1 2.83992,2.034571 8.9860205,8.9860205 0 0 1 2.03457,3.009469 10.723883,10.723883 0 0 1 0.76296,4.238693 14.03006,14.03006 0 0 1 -0.97489,5.1712 12.249811,12.249811 0 0 1 -2.75515,4.23869 12.716067,12.716067 0 0 1 -4.49301,2.83992 16.954756,16.954756 0 0 1 -6.10371,1.01728 19.328421,19.328421 0 0 1 -3.77244,-0.38148 22.592212,22.592212 0 0 1 -3.77243,-1.05967 19.497969,19.497969 0 0 1 -3.39095,-1.69548 14.326768,14.326768 0 0 1 -2.75515,-2.11934 l 2.71276,-4.23869 a 2.5856002,2.5856002 0 0 1 0.84774,-0.80535 2.3312789,2.3312789 0 0 1 1.18683,-0.29671 3.1366298,3.1366298 0 0 1 1.65309,0.50864 l 1.90741,1.14445 a 15.979857,15.979857 0 0 0 2.41605,1.14444 8.4773778,8.4773778 0 0 0 3.26379,0.55103 6.2732596,6.2732596 0 0 0 3.8996,-1.10206 4.2386889,4.2386889 0 0 0 1.39877,-3.56049 3.2214036,3.2214036 0 0 0 -0.76297,-2.24651 5.9765513,5.9765513 0 0 0 -1.99218,-1.48354 20.048998,20.048998 0 0 0 -2.83992,-1.01729 c -1.05968,-0.296704 -2.16174,-0.593412 -3.26379,-0.974894 a 18.099202,18.099202 0 0 1 -3.26379,-1.313993 9.6642107,9.6642107 0 0 1 -2.83993,-2.034571 9.3251156,9.3251156 0 0 1 -2.03457,-3.179017 12.716067,12.716067 0 0 1 -0.76296,-4.704944 11.359686,11.359686 0 0 1 0.89012,-4.238689 10.76627,10.76627 0 0 1 2.67038,-3.81482 13.35187,13.35187 0 0 1 4.23869,-2.670374 15.598375,15.598375 0 0 1 5.807,-1.017286 24.79633,24.79633 0 0 1 3.60289,0.296709 21.193444,21.193444 0 0 1 3.30617,0.847737 18.565457,18.565457 0 0 1 2.9247,1.356381 12.716067,12.716067 0 0 1 2.41605,1.780249 z" id="path79" inkscape:connector-curvature="0" style="fill:#323437;stroke-width:4.23868895"/>
  </g>
  <g data-name="bildmarke_rounded" id="bildmarke_rounded-2" transform="matrix(4.2386889,0,0,4.2386889,-336.50951,-182.57658)">
    <path style="fill:#007ea1" inkscape:connector-curvature="0" id="path83" d="m 99.72,43.2 19.08,11 a 0.51,0.51 0 0 1 0.26,0.44 v 7.06 a 0.51,0.51 0 0 1 -0.26,0.44 l -6.41,3.67 6.41,3.68 a 0.5,0.5 0 0 1 0.26,0.44 v 7 a 0.51,0.51 0 0 1 -0.26,0.44 l -19.08,11 a 1,1 0 0 1 -1,0 l -19.08,-11 a 0.52,0.52 0 0 1 -0.25,-0.44 v -7 a 0.51,0.51 0 0 1 0.25,-0.44 L 86,65.81 79.65,62.14 A 0.52,0.52 0 0 1 79.4,61.7 v -7.05 a 0.52,0.52 0 0 1 0.25,-0.44 l 19.08,-11 a 1,1 0 0 1 0.99,-0.01 z" class="cls-10"/>
    <g id="g93" clip-path="url(#clip-path-4)" class="cls-17">
      <path style="fill:#145870" inkscape:connector-curvature="0" id="path85" d="m 118.67,54.58 -19,10.94 a 1,1 0 0 0 -0.51,0.88 v 22.33 l 19.85,-11.46 v -7.2 a 0.26,0.26 0 0 0 -0.39,-0.22 L 106,77.16 a 0.12,0.12 0 0 1 -0.19,-0.11 v -7.27 a 0.26,0.26 0 0 1 0.12,-0.22 L 119.06,62 v -7.2 a 0.26,0.26 0 0 0 -0.39,-0.22 z" class="cls-12"/>
      <path style="fill:#196c8a" inkscape:connector-curvature="0" id="path87" d="m 79.75,54.58 19,10.94 a 1,1 0 0 1 0.51,0.88 V 88.73 L 79.37,77.27 v -7.2 a 0.25,0.25 0 0 1 0.38,-0.22 l 12.66,7.31 A 0.13,0.13 0 0 0 92.6,77.05 V 69.78 A 0.25,0.25 0 0 0 92.47,69.56 L 79.37,62 v -7.2 a 0.25,0.25 0 0 1 0.38,-0.22 z" class="cls-13"/>
      <path style="fill:#48494d" inkscape:connector-curvature="0" id="path89" d="m 92.79,54.25 6.3,-3.64 a 0.28,0.28 0 0 1 0.25,0 l 13.1,7.57 v 7.63 l 6.67,3.82 v 7.64 l -13.23,7.64 V 62 l -13,-7.53 a 0.12,0.12 0 0 1 -0.09,-0.22 z" class="cls-14"/>
      <path style="fill:#323437" inkscape:connector-curvature="0" id="path91" d="m 119.06,77.27 -13.23,7.64 V 62 l 6.61,-3.82 v 15.05 a 0.13,0.13 0 0 0 0.19,0.11 l 6,-3.49 a 0.26,0.26 0 0 1 0.39,0.22 z" class="cls-15"/>
    </g>
  </g>
</svg>