<?xml version="1.0" encoding="UTF-8" standalone="no"?>
<!DOCTYPE svg PUBLIC "-//W3C//DTD SVG 1.1//EN" "http://www.w3.org/Graphics/SVG/1.1/DTD/svg11.dtd">
<svg width="100%" height="100%" viewBox="0 0 1000 1001" version="1.1" xmlns="http://www.w3.org/2000/svg" xmlns:xlink="http://www.w3.org/1999/xlink" xml:space="preserve" xmlns:serif="http://www.serif.com/" style="fill-rule:evenodd;clip-rule:evenodd;stroke-linejoin:round;stroke-miterlimit:2;">
    <g transform="matrix(1,0,0,1,0,-833)">
        <g id="square" transform="matrix(2,0,0,2,8.0947e-07,833.333)">
            <rect x="0" y="0" width="500" height="500" style="fill:none;"/>
            <g transform="matrix(0.687145,5.55112e-17,-1.66533e-16,0.687145,-284.312,20.7137)">
                <path d="M752.512,462.963C772.967,483.418 806.131,483.418 826.586,462.963L789.549,425.926L752.512,462.963ZM891.401,324.074L789.549,425.926L826.586,462.963L928.438,361.111L891.401,324.074ZM707.942,361.352C695.44,381.551 697.951,408.402 715.475,425.926L835.845,305.556L835.845,305.556C856.3,285.101 856.3,251.936 835.845,231.481L798.808,268.519L798.808,268.519L780.288,287.038C749.607,317.72 699.861,317.72 669.179,287.037C638.496,256.355 638.496,206.608 669.179,175.926L632.142,138.889C581.004,190.026 581.004,272.937 632.142,324.074C653.43,345.363 680.225,357.789 707.942,361.352ZM845.105,74.074L724.734,194.444L761.771,231.481L780.291,212.962C810.972,182.28 860.718,182.28 891.401,212.963C922.083,243.645 922.083,293.392 891.401,324.074L928.438,361.111C979.575,309.974 979.575,227.063 928.438,175.926C907.149,154.637 880.354,142.211 852.637,138.648C865.139,118.449 862.628,91.598 845.105,74.074ZM724.734,194.444C704.279,214.899 704.279,248.064 724.734,268.519L761.771,231.481L724.734,194.444ZM733.993,37.037L632.142,138.889L669.179,175.926L771.03,74.074L733.993,37.037ZM808.067,37.037C787.612,16.582 754.448,16.582 733.993,37.037L771.03,74.074L808.067,37.037Z" style="fill:rgb(0,0,92);"/>
            </g>
            <g transform="matrix(1.00573,0,0,1.00573,-333.524,-262.095)">
                <path d="M434.51,701.564C428.479,701.564 423.156,700.484 418.539,698.325C413.923,696.166 410.312,693.076 407.706,689.055C405.1,685.034 403.797,680.195 403.797,674.536L403.797,671.409L418.316,671.409L418.316,674.536C418.316,679.227 419.768,682.745 422.672,685.09C425.576,687.436 429.522,688.608 434.51,688.608C439.573,688.608 443.352,687.603 445.846,685.593C448.34,683.582 449.588,681.014 449.588,677.887C449.588,675.727 448.973,673.978 447.745,672.637C446.516,671.297 444.729,670.199 442.384,669.343C440.039,668.487 437.191,667.686 433.84,666.942L431.271,666.383C425.911,665.192 421.313,663.684 417.479,661.86C413.644,660.036 410.703,657.635 408.655,654.656C406.608,651.678 405.584,647.806 405.584,643.041C405.584,638.276 406.72,634.2 408.991,630.812C411.261,627.424 414.463,624.818 418.595,622.994C422.728,621.17 427.586,620.258 433.17,620.258C438.754,620.258 443.724,621.207 448.08,623.106C452.436,625.004 455.86,627.834 458.355,631.594C460.849,635.354 462.096,640.063 462.096,645.722L462.096,649.072L447.577,649.072L447.577,645.722C447.577,642.743 447,640.342 445.846,638.518C444.692,636.694 443.035,635.354 440.876,634.498C438.717,633.641 436.148,633.213 433.17,633.213C428.703,633.213 425.408,634.051 423.286,635.726C421.164,637.401 420.103,639.691 420.103,642.595C420.103,644.53 420.606,646.168 421.611,647.509C422.616,648.849 424.124,649.966 426.134,650.859C428.144,651.753 430.713,652.534 433.84,653.205L436.409,653.763C441.993,654.954 446.851,656.481 450.984,658.342C455.116,660.203 458.336,662.66 460.644,665.713C462.952,668.766 464.106,672.675 464.106,677.44C464.106,682.205 462.897,686.393 460.477,690.004C458.057,693.615 454.632,696.445 450.202,698.492C445.772,700.54 440.541,701.564 434.51,701.564Z" style="fill:rgb(0,0,92);fill-rule:nonzero;"/>
                <path d="M481.529,722.337L481.529,710.052L511.684,710.052C513.768,710.052 514.811,708.935 514.811,706.701L514.811,692.741L512.801,692.741C512.205,694.006 511.274,695.272 510.008,696.538C508.743,697.804 507.03,698.846 504.871,699.665C502.712,700.484 499.957,700.893 496.606,700.893C492.288,700.893 488.509,699.907 485.271,697.934C482.032,695.961 479.519,693.225 477.732,689.725C475.945,686.226 475.051,682.205 475.051,677.663L475.051,644.605L489.124,644.605L489.124,676.546C489.124,680.716 490.147,683.843 492.195,685.928C494.242,688.013 497.165,689.055 500.962,689.055C505.281,689.055 508.631,687.622 511.014,684.755C513.396,681.889 514.587,677.887 514.587,672.749L514.587,644.605L528.66,644.605L528.66,709.828C528.66,713.625 527.543,716.659 525.309,718.93C523.075,721.201 520.097,722.337 516.374,722.337L481.529,722.337Z" style="fill:rgb(0,0,92);fill-rule:nonzero;"/>
                <path d="M544.295,700L544.295,644.605L558.144,644.605L558.144,651.864L560.154,651.864C561.048,649.928 562.723,648.086 565.18,646.336C567.637,644.586 571.36,643.711 576.349,643.711C580.667,643.711 584.446,644.698 587.684,646.671C590.923,648.644 593.436,651.362 595.223,654.824C597.01,658.286 597.904,662.325 597.904,666.942L597.904,700L583.831,700L583.831,668.058C583.831,663.889 582.808,660.762 580.76,658.677C578.713,656.592 575.79,655.55 571.993,655.55C567.674,655.55 564.324,656.983 561.941,659.85C559.559,662.716 558.367,666.718 558.367,671.856L558.367,700L544.295,700Z" style="fill:rgb(0,0,92);fill-rule:nonzero;"/>
                <path d="M638.333,701.564C632.823,701.564 627.965,700.391 623.758,698.046C619.552,695.7 616.276,692.387 613.93,688.106C611.585,683.824 610.412,678.78 610.412,672.973L610.412,671.632C610.412,665.825 611.566,660.78 613.874,656.499C616.182,652.218 619.421,648.905 623.591,646.559C627.76,644.214 632.6,643.041 638.11,643.041C643.545,643.041 648.273,644.251 652.293,646.671C656.314,649.091 659.441,652.441 661.675,656.723C663.909,661.004 665.025,665.974 665.025,671.632L665.025,676.435L624.708,676.435C624.857,680.232 626.271,683.322 628.952,685.704C631.632,688.087 634.908,689.278 638.78,689.278C642.726,689.278 645.63,688.422 647.491,686.71C649.352,684.997 650.767,683.099 651.735,681.014L663.239,687.045C662.196,688.981 660.688,691.084 658.715,693.355C656.742,695.626 654.118,697.562 650.842,699.162C647.566,700.763 643.396,701.564 638.333,701.564ZM624.819,665.936L650.73,665.936C650.432,662.735 649.148,660.166 646.877,658.23C644.606,656.294 641.646,655.327 637.998,655.327C634.201,655.327 631.185,656.294 628.952,658.23C626.718,660.166 625.34,662.735 624.819,665.936Z" style="fill:rgb(0,0,92);fill-rule:nonzero;"/>
                <path d="M677.534,700L677.534,621.821L691.606,621.821L691.606,665.043L693.616,665.043L711.933,644.605L730.249,644.605L704.673,671.409L731.142,700L713.049,700L693.616,677.998L691.606,677.998L691.606,700L677.534,700Z" style="fill:rgb(0,0,92);fill-rule:nonzero;"/>
                <path d="M740.524,700L740.524,644.605L754.596,644.605L754.596,700L740.524,700ZM747.56,638.127C745.028,638.127 742.888,637.308 741.138,635.67C739.388,634.032 738.513,631.873 738.513,629.193C738.513,626.512 739.388,624.353 741.138,622.715C742.888,621.077 745.028,620.258 747.56,620.258C750.166,620.258 752.325,621.077 754.037,622.715C755.75,624.353 756.606,626.512 756.606,629.193C756.606,631.873 755.75,634.032 754.037,635.67C752.325,637.308 750.166,638.127 747.56,638.127Z" style="fill:rgb(0,0,92);fill-rule:nonzero;"/>
            </g>
        </g>
    </g>
</svg>
