<?xml version="1.0" encoding="UTF-8" standalone="no"?>
<!DOCTYPE svg PUBLIC "-//W3C//DTD SVG 1.1//EN" "http://www.w3.org/Graphics/SVG/1.1/DTD/svg11.dtd">
<svg xmlns="http://www.w3.org/2000/svg" version="1.1" viewBox="0 0 1024 1024" width="1024.0pt" height="1024.0pt">
<path d="M 0.00 0.00 L 451.75 0.00 C 447.96 10.04 445.04 20.16 445.15 31.00 C 444.60 45.31 448.09 59.49 454.96 72.02 C 458.16 77.97 462.43 83.22 465.96 89.03 C 479.20 110.03 486.96 134.20 488.34 158.99 C 487.95 167.27 486.70 176.76 484.65 184.81 C 480.73 199.95 470.60 213.26 456.92 220.89 C 447.87 226.01 437.41 228.67 427.01 228.51 C 369.34 228.52 311.67 228.51 254.00 228.51 C 249.24 228.56 244.38 228.13 239.79 229.60 C 231.97 232.01 225.68 238.56 223.59 246.47 C 222.40 250.71 222.77 254.67 222.73 259.00 C 222.73 295.93 222.74 332.87 222.73 369.80 C 152.82 369.82 82.91 369.81 13.00 369.81 C 8.69 369.77 4.27 369.98 0.00 369.60 L 0.00 0.00 Z" fill="#524da1" />
<path d="M 451.75 0.00 L 601.24 0.00 L 601.16 1.02 C 603.72 8.39 606.19 15.63 606.91 23.47 C 609.39 43.69 603.91 64.49 591.91 80.93 C 575.39 104.13 565.28 131.44 564.24 160.00 C 564.68 168.35 565.83 176.91 567.89 185.02 C 572.05 200.93 583.18 214.74 597.88 222.12 C 606.22 226.38 615.63 228.56 624.99 228.51 C 673.33 228.52 721.66 228.51 770.00 228.51 C 775.54 228.56 780.56 228.05 785.84 230.18 C 794.75 233.63 800.98 242.43 801.25 251.99 C 801.29 268.97 801.24 286.01 801.27 303.00 C 801.17 316.42 796.66 329.68 788.13 340.09 C 779.15 351.29 766.10 358.58 752.00 361.05 C 742.16 362.64 732.98 364.39 723.00 362.68 C 701.52 360.28 680.81 352.93 662.47 341.53 C 656.20 337.77 650.68 333.21 644.22 329.79 C 632.56 323.53 619.25 320.06 606.00 320.22 C 587.82 319.90 569.76 326.30 555.52 337.54 C 543.32 347.11 533.95 360.29 528.94 374.96 C 523.75 390.00 523.11 406.52 527.17 421.91 C 533.90 448.31 554.56 470.26 580.50 478.60 C 601.30 485.45 624.76 483.46 644.04 473.05 C 650.94 469.44 656.82 464.47 663.56 460.55 C 684.53 447.80 708.44 440.23 733.00 439.35 C 745.08 440.24 758.66 441.80 769.50 447.54 C 782.03 453.91 791.99 464.91 797.10 478.00 C 800.27 485.97 801.48 494.45 801.27 503.00 C 801.25 537.20 801.26 571.40 801.27 605.60 C 874.18 605.62 947.09 605.61 1020.00 605.61 C 1021.34 605.59 1022.67 605.54 1024.00 605.45 L 1024.00 654.40 C 1021.00 654.13 1018.01 654.16 1015.00 654.18 C 943.81 654.22 872.47 654.14 801.30 654.23 C 801.22 694.46 801.29 734.76 801.26 775.00 C 801.19 779.77 801.67 784.25 800.46 788.83 C 798.44 796.93 791.99 803.65 783.97 805.98 C 779.25 807.47 773.92 807.07 769.00 807.11 C 720.01 807.13 670.99 807.08 622.00 807.13 C 603.41 807.15 585.61 816.85 574.96 831.98 C 568.19 841.58 564.33 853.24 564.23 865.00 C 565.40 888.68 572.62 911.85 584.82 932.17 C 589.59 940.47 595.72 947.41 599.69 956.20 C 609.87 977.41 609.93 1002.47 600.61 1024.00 L 451.75 1024.00 C 449.42 1017.41 447.05 1010.95 446.03 1003.99 C 444.00 989.67 445.13 975.01 450.52 961.51 C 453.24 954.34 457.15 947.80 461.61 941.58 C 475.58 921.53 484.80 898.34 487.51 874.01 C 490.06 860.13 486.23 845.14 478.54 833.45 C 468.04 817.36 449.27 806.98 430.00 807.12 C 369.34 807.09 308.66 807.13 247.99 807.10 C 242.25 807.10 236.62 805.48 232.09 801.88 C 226.29 797.38 222.84 790.35 222.74 783.01 C 222.72 766.35 222.76 749.65 222.72 733.00 C 222.73 720.49 226.53 708.08 233.93 697.95 C 242.49 686.09 255.50 677.82 269.84 674.93 C 278.27 673.33 287.40 671.72 295.99 672.35 C 318.82 674.15 341.08 681.45 360.58 693.43 C 367.31 697.36 373.21 702.30 380.09 705.91 C 392.86 712.73 407.55 716.00 422.00 715.35 C 437.01 714.62 451.75 709.72 464.12 701.19 C 476.39 692.75 486.31 680.98 492.38 667.37 C 499.44 651.72 501.33 633.77 497.64 617.00 C 494.45 601.93 486.79 587.96 475.98 577.01 C 464.38 565.29 449.23 557.19 432.99 554.25 C 411.02 550.06 387.80 555.57 369.84 568.83 C 346.67 585.19 319.45 595.17 291.01 596.19 C 277.03 595.16 262.41 593.33 250.35 585.64 C 233.57 575.33 223.14 556.65 222.75 537.00 C 222.72 497.48 222.75 457.92 222.73 418.40 C 149.82 418.38 76.91 418.39 4.00 418.39 C 2.66 418.41 1.33 418.46 0.00 418.55 L 0.00 369.60 C 4.27 369.98 8.69 369.77 13.00 369.81 C 82.91 369.81 152.82 369.82 222.73 369.80 C 222.74 332.87 222.73 295.93 222.73 259.00 C 222.77 254.67 222.40 250.71 223.59 246.47 C 225.68 238.56 231.97 232.01 239.79 229.60 C 244.38 228.13 249.24 228.56 254.00 228.51 C 311.67 228.51 369.34 228.52 427.01 228.51 C 437.41 228.67 447.87 226.01 456.92 220.89 C 470.60 213.26 480.73 199.95 484.65 184.81 C 486.70 176.76 487.95 167.27 488.34 158.99 C 486.96 134.20 479.20 110.03 465.96 89.03 C 462.43 83.22 458.16 77.97 454.96 72.02 C 448.09 59.49 444.60 45.31 445.15 31.00 C 445.04 20.16 447.96 10.04 451.75 0.00 Z" fill="#ffffff" />
<path d="M 601.24 0.00 L 1024.00 0.00 L 1024.00 605.45 C 1022.67 605.54 1021.34 605.59 1020.00 605.61 C 947.09 605.61 874.18 605.62 801.27 605.60 C 801.26 571.40 801.25 537.20 801.27 503.00 C 801.48 494.45 800.27 485.97 797.10 478.00 C 791.99 464.91 782.03 453.91 769.50 447.54 C 758.66 441.80 745.08 440.24 733.00 439.35 C 708.44 440.23 684.53 447.80 663.56 460.55 C 656.82 464.47 650.94 469.44 644.04 473.05 C 624.76 483.46 601.30 485.45 580.50 478.60 C 554.56 470.26 533.90 448.31 527.17 421.91 C 523.11 406.52 523.75 390.00 528.94 374.96 C 533.95 360.29 543.32 347.11 555.52 337.54 C 569.76 326.30 587.82 319.90 606.00 320.22 C 619.25 320.06 632.56 323.53 644.22 329.79 C 650.68 333.21 656.20 337.77 662.47 341.53 C 680.81 352.93 701.52 360.28 723.00 362.68 C 732.98 364.39 742.16 362.64 752.00 361.05 C 766.10 358.58 779.15 351.29 788.13 340.09 C 796.66 329.68 801.17 316.42 801.27 303.00 C 801.24 286.01 801.29 268.97 801.25 251.99 C 800.98 242.43 794.75 233.63 785.84 230.18 C 780.56 228.05 775.54 228.56 770.00 228.51 C 721.66 228.51 673.33 228.52 624.99 228.51 C 615.63 228.56 606.22 226.38 597.88 222.12 C 583.18 214.74 572.05 200.93 567.89 185.02 C 565.83 176.91 564.68 168.35 564.24 160.00 C 565.28 131.44 575.39 104.13 591.91 80.93 C 603.91 64.49 609.39 43.69 606.91 23.47 C 606.19 15.63 603.72 8.39 601.16 1.02 L 601.24 0.00 Z" fill="#a726bc" />
<path d="M 0.00 418.55 C 1.33 418.46 2.66 418.41 4.00 418.39 C 76.91 418.39 149.82 418.38 222.73 418.40 C 222.75 457.92 222.72 497.48 222.75 537.00 C 223.14 556.65 233.57 575.33 250.35 585.64 C 262.41 593.33 277.03 595.16 291.01 596.19 C 319.45 595.17 346.67 585.19 369.84 568.83 C 387.80 555.57 411.02 550.06 432.99 554.25 C 449.23 557.19 464.38 565.29 475.98 577.01 C 486.79 587.96 494.45 601.93 497.64 617.00 C 501.33 633.77 499.44 651.72 492.38 667.37 C 486.31 680.98 476.39 692.75 464.12 701.19 C 451.75 709.72 437.01 714.62 422.00 715.35 C 407.55 716.00 392.86 712.73 380.09 705.91 C 373.21 702.30 367.31 697.36 360.58 693.43 C 341.08 681.45 318.82 674.15 295.99 672.35 C 287.40 671.72 278.27 673.33 269.84 674.93 C 255.50 677.82 242.49 686.09 233.93 697.95 C 226.53 708.08 222.73 720.49 222.72 733.00 C 222.76 749.65 222.72 766.35 222.74 783.01 C 222.84 790.35 226.29 797.38 232.09 801.88 C 236.62 805.48 242.25 807.10 247.99 807.10 C 308.66 807.13 369.34 807.09 430.00 807.12 C 449.27 806.98 468.04 817.36 478.54 833.45 C 486.23 845.14 490.06 860.13 487.51 874.01 C 484.80 898.34 475.58 921.53 461.61 941.58 C 457.15 947.80 453.24 954.34 450.52 961.51 C 445.13 975.01 444.00 989.67 446.03 1003.99 C 447.05 1010.95 449.42 1017.41 451.75 1024.00 L 0.00 1024.00 L 0.00 418.55 Z" fill="#a726bc" />
<path d="M 801.30 654.23 C 872.47 654.14 943.81 654.22 1015.00 654.18 C 1018.01 654.16 1021.00 654.13 1024.00 654.40 L 1024.00 1024.00 L 600.61 1024.00 C 609.93 1002.47 609.87 977.41 599.69 956.20 C 595.72 947.41 589.59 940.47 584.82 932.17 C 572.62 911.85 565.40 888.68 564.23 865.00 C 564.33 853.24 568.19 841.58 574.96 831.98 C 585.61 816.85 603.41 807.15 622.00 807.13 C 670.99 807.08 720.01 807.13 769.00 807.11 C 773.92 807.07 779.25 807.47 783.97 805.98 C 791.99 803.65 798.44 796.93 800.46 788.83 C 801.67 784.25 801.19 779.77 801.26 775.00 C 801.29 734.76 801.22 694.46 801.30 654.23 Z" fill="#524da1" />
</svg>