<svg xmlns="http://www.w3.org/2000/svg" width="500" height="106" fill="none"><path fill="#333" d="M426.259 0h-10.791v54.137h10.791V0ZM136.69 0v54.137h44.964V43.3609h-34.172l.257-10.7761h26.721V21.8087l-26.721-.2565-.257-10.7761h32.117V0H136.69ZM0 0v11.0327h18.4995v42.8477h10.7914V11.0327l18.7564-.2566V0H0Zm382.579 0v21.8087h-27.235V0h-10.791v54.137h10.791V32.5848h27.235V54.137h10.792V0h-10.792ZM242.548 0v37.7163L212.23 0h-10.792v54.137h10.792V17.9601l30.318 36.1769h10.792V0h-10.792Zm32.632 0v54.137h22.096c16.444 0 27.493-10.7761 27.493-27.4534C324.769 9.49322 313.72 0 297.276 0H275.18Zm22.096 43.3609h-10.791V10.7761h10.791c10.535 0 16.444 5.6446 16.444 16.1641s-5.909 16.4207-16.444 16.4207Zm-193.987-6.4141-.771-1.0263c6.937-2.5657 11.819-9.4932 11.819-17.1904 0-10.26292-8.222-18.473264-18.4993-18.473264H69.1162V54.1372h11.0483V35.9205h9.7636l15.6729 18.2167h12.333l-14.645-17.1904ZM80.1645 26.4273v-15.651h15.9301c4.3684 0 7.7084 3.5921 7.7084 7.6972 0 4.1052-3.597 7.6972-7.7084 7.6972l-15.9301.2566ZM500 0h-10.534l-15.417 22.835L458.89 0h-10.791v54.137h10.791V18.4733l15.159 21.8087 15.417-21.8087V54.137H500V0ZM114.241 79.2783h3.84l10.242 25.4737h-4.353l-2.304-6.0917h-11.009l-2.561 5.8147H104l10.241-25.1967Zm5.889 15.2287-4.097-9.9679-4.096 9.9679h8.193Zm14.849-2.4934c0-7.199 4.865-13.0136 12.034-13.0136 4.352 0 6.912 1.6613 9.217 3.8764l-2.561 3.3226c-1.792-1.9382-3.84-3.0457-6.4-3.0457-4.353 0-7.681 3.8764-7.681 8.8603s3.328 8.8604 7.681 8.8604c2.816 0 4.608-1.3845 6.656-3.3227l2.561 2.7687c-2.304 2.769-5.121 4.43-9.473 4.43-7.169.277-12.034-5.5374-12.034-12.7364Zm28.675 0c0-7.199 4.865-13.0136 12.034-13.0136 4.352 0 6.912 1.6613 9.217 3.8764l-2.561 3.3226c-1.792-1.9382-3.84-3.0457-6.4-3.0457-4.353 0-7.681 3.8764-7.681 8.8603s3.328 8.8604 7.681 8.8604c2.816 0 4.608-1.3845 6.656-3.3227l2.561 2.7687c-2.305 2.769-5.121 4.43-9.473 4.43-6.913.277-12.034-5.5374-12.034-12.7364Zm30.724-12.7353h17.154v3.8764h-13.058V89.8h11.778v3.8763h-11.778v6.6457h13.314v4.153h-17.41V79.2783Zm25.857 21.5967 2.561-3.0454c2.304 2.2154 4.352 3.3224 7.424 3.3224 2.561 0 4.097-1.3842 4.097-3.3224s-1.024-2.7688-5.377-3.8764c-4.864-1.3844-7.681-2.7688-7.681-7.4759 0-4.4301 3.329-7.199 7.937-7.199 3.329 0 6.145 1.1076 8.449 3.0458l-2.304 3.3226c-2.048-1.6613-4.096-2.492-6.401-2.492-2.304 0-3.84 1.3844-3.84 3.0458 0 1.9381 1.024 2.7688 5.632 3.8763 4.865 1.3845 7.425 3.3227 7.425 7.4759 0 4.7073-3.328 7.4763-8.449 7.4763-3.328 0-6.656-1.385-9.473-4.154Zm26.372 0 2.561-3.0454c2.304 2.2154 4.352 3.3224 7.425 3.3224 2.56 0 4.096-1.3842 4.096-3.3224s-1.024-2.7688-5.377-3.8764c-4.864-1.3844-7.68-2.7688-7.68-7.4759 0-4.4301 3.328-7.199 7.936-7.199 3.329 0 6.145 1.1076 8.449 3.0458l-2.304 3.3226c-2.048-1.6613-4.096-2.492-6.401-2.492-2.304 0-3.84 1.3844-3.84 3.0458 0 1.9381 1.024 2.7688 5.633 3.8763 4.864 1.3845 7.424 3.3227 7.424 7.4759 0 4.7073-3.328 7.4763-8.192 7.4763-3.585 0-6.913-1.385-9.73-4.154Zm26.627-8.8614c0-7.199 5.121-13.0136 12.29-13.0136 7.168 0 12.033 5.8146 12.033 13.0136s-5.121 13.0134-12.289 13.0134c-6.913 0-12.034-5.8144-12.034-13.0134Zm20.227 0c0-4.9839-3.329-8.8603-7.937-8.8603-4.609 0-7.937 3.8764-7.937 8.8603s3.328 8.8604 7.937 8.8604c4.608 0 7.937-3.8765 7.937-8.8604Zm14.337-12.7353h10.497c5.377 0 8.705 3.0458 8.705 8.0297 0 4.1533-2.304 6.6452-5.633 7.7528l6.401 9.4142h-4.865l-5.888-8.8605h-5.121v8.8605h-4.096V79.2783Zm10.241 12.4599c2.816 0 4.864-1.6614 4.864-4.1533 0-2.7689-1.792-4.1533-4.864-4.1533h-5.889v8.5834h5.889v-.2768Zm19.202-12.4599h4.097v25.1967h-4.097V79.2783Zm15.362 0h17.153v3.8764h-13.057V89.8h11.777v3.8763h-11.777v6.6457h13.313v4.153h-17.409V79.2783Zm26.114 21.5967 2.56-3.0454c2.304 2.2154 4.353 3.3224 7.425 3.3224 2.56 0 4.096-1.3842 4.096-3.3224s-1.024-2.7688-5.376-3.8764c-4.865-1.3844-7.681-2.7688-7.681-7.4759 0-4.4301 3.328-7.199 7.937-7.199 3.328 0 6.144 1.1076 8.449 3.0458l-2.305 3.3226c-2.048-1.6613-4.096-2.492-6.4-2.492-2.305 0-3.841 1.3844-3.841 3.0458 0 1.9381 1.024 2.7688 5.633 3.8763 4.864 1.3845 7.425 3.3227 7.425 7.4759 0 4.7073-3.329 7.4763-8.193 7.4763-3.585 0-6.913-1.385-9.729-4.154Z"/></svg>
