<svg width="180" height="182" viewBox="0 0 180 182" fill="none" xmlns="http://www.w3.org/2000/svg">
<mask id="mask0_4247_3448" style="mask-type:luminance" maskUnits="userSpaceOnUse" x="0" y="0" width="180" height="182">
<rect width="180" height="182" rx="22.5" fill="white"/>
</mask>
<g mask="url(#mask0_4247_3448)">
<path fill-rule="evenodd" clip-rule="evenodd" d="M0 70.4C0 45.7577 0 33.4365 4.79571 24.0244C9.01414 15.7453 15.7453 9.01414 24.0244 4.79571C33.4365 0 45.7577 0 70.4 0H109.6C134.242 0 146.563 0 155.976 4.79571C164.255 9.01414 170.986 15.7453 175.204 24.0244C180 33.4365 180 45.7577 180 70.4V109.6C180 134.242 180 146.563 175.204 155.976C170.986 164.255 164.255 170.986 155.976 175.204C146.563 180 134.242 180 109.6 180H70.4C45.7577 180 33.4365 180 24.0244 175.204C15.7453 170.986 9.01414 164.255 4.79571 155.976C0 146.563 0 134.242 0 109.6V70.4Z" fill="#F96F40"/>
<path fill-rule="evenodd" clip-rule="evenodd" d="M75.1233 146.247C106.672 146.247 132.247 120.672 132.247 89.1233C132.247 57.575 106.672 32 75.1233 32C43.575 32 18 57.575 18 89.1233C18 120.672 43.575 146.247 75.1233 146.247ZM56.4588 81.6847C60.9546 81.6847 64.5992 78.0401 64.5992 73.5442C64.5992 69.0484 60.9546 65.4038 56.4588 65.4038C51.9629 65.4038 48.3184 69.0484 48.3184 73.5442C48.3184 78.0401 51.9629 81.6847 56.4588 81.6847ZM95.1952 81.6847C99.691 81.6847 103.336 78.0401 103.336 73.5443C103.336 69.0485 99.691 65.4039 95.1952 65.4039C90.6994 65.4039 87.0548 69.0485 87.0548 73.5443C87.0548 78.0401 90.6994 81.6847 95.1952 81.6847ZM75.7507 135.018C99.8193 135.018 115.597 115.286 116.2 100.09C115.034 90.6327 105.992 93.5523 75.7507 93.5395C45.5091 93.5267 37.2491 90.5488 35.6055 100.09C35.6055 115.029 51.6821 135.018 75.7507 135.018Z" fill="white"/>
<path fill-rule="evenodd" clip-rule="evenodd" d="M157.722 99.2726C158.878 83.4359 160.265 72.2655 161.927 54.4795C163.588 36.6935 136.039 33.9707 134.47 51.1868C132.931 68.0762 131.815 79.0085 130.71 96.8148C129.604 114.621 156.566 115.109 157.722 99.2726ZM125.668 141.47L138.182 142.5L147.961 148.103L152.704 137.609L160.749 129.927L151.942 122.348L147.4 111.856L137.704 118.004L125.992 118.457L129.077 129.385L125.668 141.47Z" fill="white"/>
<circle cx="141" cy="129" r="13" fill="white"/>
</g>
</svg>
