<svg width="1610" height="276" viewBox="0 0 1610 276" fill="none" xmlns="http://www.w3.org/2000/svg">
<g clip-path="url(#clip0_2710_58644)">
<path d="M122.437 232.321C118.731 242.441 109.576 250.45 98.0107 253.693C109.576 256.935 118.731 264.945 122.437 275.064C126.143 264.945 135.294 256.935 146.86 253.693C135.294 250.45 126.143 242.444 122.437 232.321Z" fill="#426AFF"/>
<path d="M183.497 0.28125C175.699 43.6694 141.398 77.9686 98.0107 85.7691C141.398 93.5662 175.699 127.869 183.497 171.254C191.295 127.865 225.596 93.5662 268.983 85.7691C225.596 77.9686 191.295 43.6694 183.497 0.28125Z" fill="#426AFF"/>
<path d="M43.0556 116.302C38.0074 138.879 21.3862 156.69 0.3125 162.098C21.3862 167.506 38.0106 185.317 43.0556 207.894C48.1038 185.317 64.725 167.506 85.7987 162.098C64.725 156.69 48.1038 138.879 43.0556 116.302Z" fill="#426AFF"/>
<path d="M1609.69 54.6455V214.516H1575.89V54.6455H1609.69Z" fill="#426AFF"/>
<path d="M1439.01 214.516H1402.79L1457.97 54.6455H1501.53L1556.64 214.516H1520.42L1480.38 91.1783H1479.13L1439.01 214.516ZM1436.74 151.676H1522.3V178.061H1436.74V151.676Z" fill="#426AFF"/>
<path d="M1220.82 214.516V54.6455H1254.08V114.753H1255.09C1256.55 111.526 1258.66 108.248 1261.42 104.917C1264.23 101.535 1267.87 98.7243 1272.34 96.4865C1276.87 94.1967 1282.49 93.0518 1289.21 93.0518C1297.95 93.0518 1306.02 95.3416 1313.41 99.9212C1320.8 104.449 1326.7 111.292 1331.13 120.451C1335.55 129.559 1337.76 140.982 1337.76 154.721C1337.76 168.095 1335.6 179.388 1331.28 188.599C1327.01 197.758 1321.19 204.706 1313.8 209.442C1306.46 214.125 1298.24 216.467 1289.13 216.467C1282.68 216.467 1277.18 215.4 1272.66 213.267C1268.18 211.133 1264.51 208.453 1261.65 205.226C1258.79 201.948 1256.6 198.643 1255.09 195.313H1253.61V214.516H1220.82ZM1253.38 154.564C1253.38 161.694 1254.36 167.913 1256.34 173.221C1258.32 178.529 1261.18 182.667 1264.93 185.633C1268.68 188.547 1273.23 190.004 1278.59 190.004C1284 190.004 1288.58 188.521 1292.33 185.555C1296.08 182.536 1298.91 178.373 1300.84 173.065C1302.81 167.705 1303.8 161.538 1303.8 154.564C1303.8 147.643 1302.84 141.554 1300.92 136.298C1298.99 131.042 1296.15 126.931 1292.41 123.964C1288.66 120.998 1284.05 119.515 1278.59 119.515C1273.18 119.515 1268.6 120.946 1264.85 123.808C1261.16 126.67 1258.32 130.73 1256.34 135.986C1254.36 141.242 1253.38 147.435 1253.38 154.564Z" fill="#426AFF"/>
<path d="M1160.35 163.47V94.6201H1193.6V214.523H1161.67V192.744H1160.42C1157.72 199.769 1153.22 205.416 1146.92 209.683C1140.67 213.95 1133.05 216.084 1124.05 216.084C1116.03 216.084 1108.98 214.263 1102.89 210.62C1096.8 206.977 1092.04 201.799 1088.61 195.085C1085.22 188.372 1083.51 180.332 1083.46 170.964V94.6201H1116.71V165.032C1116.76 172.109 1118.66 177.704 1122.41 181.815C1126.15 185.926 1131.18 187.982 1137.47 187.982C1141.48 187.982 1145.23 187.071 1148.71 185.25C1152.2 183.376 1155.01 180.618 1157.15 176.975C1159.33 173.332 1160.4 168.831 1160.35 163.47Z" fill="#426AFF"/>
<path d="M1056.82 54.6455V214.516H1023.56V54.6455H1056.82Z" fill="#426AFF"/>
<path d="M999.949 110.619H965.758C965.133 106.195 963.858 102.266 961.933 98.8315C960.007 95.3447 957.535 92.3784 954.517 89.9325C951.498 87.4865 948.012 85.6131 944.056 84.312C940.153 83.011 935.912 82.3605 931.332 82.3605C923.058 82.3605 915.85 84.4161 909.709 88.5274C903.569 92.5866 898.807 98.5193 895.424 106.325C892.041 114.08 890.35 123.499 890.35 134.584C890.35 145.981 892.041 155.556 895.424 163.31C898.859 171.065 903.647 176.919 909.787 180.874C915.928 184.829 923.032 186.807 931.098 186.807C935.626 186.807 939.815 186.208 943.666 185.012C947.569 183.815 951.03 182.071 954.048 179.781C957.067 177.44 959.565 174.603 961.542 171.273C963.572 167.942 964.977 164.143 965.758 159.876L999.949 160.032C999.064 167.37 996.852 174.447 993.313 181.265C989.827 188.03 985.117 194.093 979.184 199.453C973.304 204.761 966.278 208.976 958.108 212.099C949.989 215.169 940.804 216.705 930.552 216.705C916.293 216.705 903.543 213.478 892.302 207.025C881.113 200.572 872.266 191.23 865.761 179.001C859.308 166.771 856.081 151.965 856.081 134.584C856.081 117.15 859.36 102.318 865.917 90.0886C872.474 77.8589 881.373 68.5436 892.614 62.1425C903.855 55.6894 916.501 52.4629 930.552 52.4629C939.815 52.4629 948.402 53.7639 956.312 56.366C964.275 58.968 971.326 62.767 977.467 67.763C983.608 72.7069 988.604 78.7697 992.455 85.9513C996.358 93.133 998.856 101.355 999.949 110.619Z" fill="#426AFF"/>
<path d="M768.32 214.522V94.6197H800.56V115.54H801.809C803.994 108.098 807.663 102.478 812.815 98.6789C817.968 94.8279 823.9 92.9023 830.613 92.9023C832.279 92.9023 834.074 93.0064 836 93.2146C837.925 93.4228 839.617 93.709 841.074 94.0733V123.581C839.513 123.112 837.353 122.696 834.595 122.332C831.836 121.967 829.312 121.785 827.023 121.785C822.131 121.785 817.759 122.852 813.908 124.986C810.109 127.067 807.091 129.982 804.853 133.729C802.667 137.476 801.575 141.795 801.575 146.687V214.522H768.32Z" fill="#426AFF"/>
<path d="M674.997 216.78C667.347 216.78 660.53 215.453 654.545 212.799C648.56 210.093 643.824 206.112 640.338 200.856C636.903 195.548 635.186 188.938 635.186 181.028C635.186 174.367 636.408 168.773 638.854 164.245C641.3 159.717 644.631 156.074 648.846 153.316C653.062 150.558 657.849 148.476 663.21 147.071C668.622 145.666 674.294 144.677 680.227 144.105C687.201 143.376 692.821 142.7 697.088 142.075C701.356 141.399 704.452 140.41 706.378 139.109C708.303 137.808 709.266 135.883 709.266 133.333V132.864C709.266 127.92 707.705 124.095 704.582 121.389C701.512 118.683 697.14 117.33 691.468 117.33C685.483 117.33 680.722 118.657 677.183 121.311C673.644 123.913 671.302 127.192 670.157 131.147L639.401 128.649C640.962 121.363 644.033 115.066 648.612 109.758C653.192 104.398 659.098 100.286 666.332 97.4242C673.618 94.5099 682.049 93.0527 691.624 93.0527C698.285 93.0527 704.66 93.8334 710.749 95.3946C716.89 96.9558 722.328 99.3757 727.064 102.654C731.852 105.933 735.625 110.148 738.383 115.3C741.141 120.4 742.52 126.515 742.52 133.645V214.517H710.983V197.89H710.047C708.121 201.636 705.545 204.941 702.319 207.803C699.092 210.614 695.215 212.825 690.687 214.439C686.16 216 680.93 216.78 674.997 216.78ZM684.52 193.83C689.412 193.83 693.732 192.868 697.479 190.942C701.226 188.964 704.166 186.31 706.3 182.98C708.433 179.649 709.5 175.876 709.5 171.661V158.937C708.459 159.613 707.028 160.238 705.207 160.81C703.437 161.331 701.434 161.825 699.196 162.293C696.958 162.71 694.721 163.1 692.483 163.464C690.245 163.777 688.215 164.063 686.394 164.323C682.491 164.895 679.082 165.806 676.168 167.055C673.254 168.304 670.99 169.995 669.377 172.129C667.763 174.211 666.957 176.813 666.957 179.935C666.957 184.463 668.596 187.924 671.874 190.318C675.205 192.659 679.42 193.83 684.52 193.83Z" fill="#426AFF"/>
<path d="M536.887 145.197V214.516H503.633V54.6455H535.95V115.768H537.355C540.062 108.69 544.433 103.148 550.47 99.1406C556.507 95.0814 564.079 93.0518 573.186 93.0518C581.512 93.0518 588.772 94.8733 594.965 98.5161C601.21 102.107 606.05 107.285 609.484 114.05C612.971 120.764 614.688 128.804 614.636 138.171V214.516H581.382V144.104C581.434 136.714 579.561 130.964 575.762 126.853C572.015 122.741 566.759 120.686 559.993 120.686C555.466 120.686 551.459 121.648 547.972 123.574C544.537 125.499 541.831 128.31 539.853 132.005C537.928 135.647 536.939 140.045 536.887 145.197Z" fill="#426AFF"/>
<path d="M480.019 110.619H445.828C445.203 106.195 443.928 102.266 442.003 98.8315C440.077 95.3447 437.605 92.3784 434.587 89.9325C431.569 87.4865 428.082 85.6131 424.127 84.312C420.224 83.011 415.982 82.3605 411.403 82.3605C403.128 82.3605 395.921 84.4161 389.78 88.5274C383.639 92.5866 378.877 98.5193 375.494 106.325C372.112 114.08 370.42 123.499 370.42 134.584C370.42 145.981 372.112 155.556 375.494 163.31C378.929 171.065 383.717 176.919 389.858 180.874C395.999 184.829 403.102 186.807 411.169 186.807C415.696 186.807 419.885 186.208 423.737 185.012C427.64 183.815 431.1 182.071 434.119 179.781C437.137 177.44 439.635 174.603 441.613 171.273C443.642 167.942 445.047 164.143 445.828 159.876L480.019 160.032C479.134 167.37 476.923 174.447 473.384 181.265C469.897 188.03 465.187 194.093 459.255 199.453C453.374 204.761 446.348 208.976 438.178 212.099C430.06 215.169 420.874 216.705 410.622 216.705C396.363 216.705 383.613 213.478 372.372 207.025C361.183 200.572 352.336 191.23 345.831 179.001C339.378 166.771 336.151 151.965 336.151 134.584C336.151 117.15 339.43 102.318 345.987 90.0886C352.544 77.8589 361.443 68.5436 372.684 62.1425C383.925 55.6894 396.571 52.4629 410.622 52.4629C419.885 52.4629 428.472 53.7639 436.383 56.366C444.345 58.968 451.396 62.767 457.537 67.763C463.678 72.7069 468.674 78.7697 472.525 85.9513C476.428 93.133 478.926 101.355 480.019 110.619Z" fill="#426AFF"/>
</g>
<defs>
<clipPath id="clip0_2710_58644">
<rect width="1610" height="276" fill="white"/>
</clipPath>
</defs>
</svg>
