<svg width="1002" height="287" viewBox="0 0 1002 287" fill="none" xmlns="http://www.w3.org/2000/svg">
<rect y="286.375" width="286.375" height="286.375" rx="37.867" transform="rotate(-90 0 286.375)" fill="#121212"/>
<path d="M89.184 222.358C89.2621 208.277 80.982 199.597 67.3745 199.467C58.0007 199.386 50.9704 195.297 47.0803 186.325C43.4246 177.919 45.4555 169.06 52.314 161.753C61.6877 151.763 61.7815 139.768 52.3296 129.875C45.518 122.746 43.5339 114.615 47.0647 105.288C50.2986 96.7522 57.7664 92.2097 67.8119 92.2097C80.5133 92.2097 89.3402 82.9631 89.2309 69.7721C89.1371 59.798 93.5428 52.2811 101.62 48.66C109.603 45.0875 118.336 46.9788 125.039 53.7198C135.193 63.9363 146.614 64.0495 156.534 53.833C163.315 46.8495 171.282 45.0713 179.906 48.6762C188.468 52.2487 192.498 59.41 192.592 69.0446C192.748 83.9168 200.856 92.1289 215.198 92.1935C224.135 92.242 231.79 97.3341 234.821 105.53C238.117 114.486 236.414 122.488 229.931 129.309C219.916 139.865 219.854 151.618 229.915 162.271C236.399 169.141 238.242 177.127 234.774 186.002C231.274 194.925 224.385 199.176 215.214 199.435C200.247 199.871 192.858 207.469 192.576 223.02C192.404 232.429 188.155 239.137 179.922 242.952C172.188 246.541 163.362 244.537 156.909 238.054C146.348 227.45 135.397 227.498 124.757 238.216C118.43 244.585 109.65 246.379 101.667 242.92C93.8709 239.558 89.1371 231.75 89.184 222.358ZM141.427 215.988C146.645 216.134 151.644 213.903 155.613 209.506C160.628 203.945 166.611 201.617 173.954 201.666C185.921 201.747 194.873 192.662 194.873 180.311C194.873 172.536 197.216 166.344 202.559 160.848C211.152 152.022 211.089 139.429 202.45 130.57C197.232 125.219 194.873 119.157 194.889 111.56C194.904 98.9022 186.046 89.8172 173.766 89.9142C166.377 89.9627 160.628 87.3116 155.472 81.9608C146.989 73.1506 134.553 73.1991 126.163 82.0416C121.164 87.3277 115.524 89.9304 108.338 89.898C95.73 89.8334 86.9656 98.692 86.8874 111.738C86.8406 119.335 84.4503 125.316 79.201 130.667C70.7334 139.283 70.6396 151.909 79.0135 160.589C84.4503 166.231 86.8718 172.503 86.9343 180.489C87.0124 192.904 95.98 201.763 108.01 201.65C115.181 201.585 121.039 203.864 125.929 209.28C129.882 213.693 134.834 216.021 141.427 215.988Z" fill="#00E6A0"/>
<mask id="path-3-outside-1_305_23" maskUnits="userSpaceOnUse" x="384.238" y="73.8491" width="618" height="186" fill="black">
<rect fill="white" x="384.238" y="73.8491" width="618" height="186"/>
<path d="M443.923 211.283C434.894 211.283 426.784 209.695 419.595 206.518C412.405 203.341 406.302 198.827 401.286 192.974C396.437 187.122 392.675 180.016 390 171.656C387.492 163.296 386.238 153.933 386.238 143.566C386.238 133.2 387.492 123.836 390 115.476C392.675 107.116 396.437 100.01 401.286 94.1578C406.302 88.3057 412.405 83.7912 419.595 80.6144C426.784 77.4375 434.894 75.8491 443.923 75.8491C456.797 75.8491 467.08 78.6916 474.772 84.3764C482.63 89.8941 488.482 97.1674 492.328 106.196L475.524 114.724C473.183 108.036 469.337 102.852 463.987 99.1739C458.636 95.4954 451.948 93.6562 443.923 93.6562C437.903 93.6562 432.636 94.6594 428.122 96.6658C423.608 98.5051 419.846 101.18 416.836 104.692C413.826 108.036 411.569 112.132 410.064 116.981C408.559 121.663 407.807 126.846 407.807 132.531V154.602C407.807 165.971 410.817 175.335 416.836 182.692C423.022 189.881 432.051 193.476 443.923 193.476C460.141 193.476 471.845 185.952 479.035 170.904L493.582 180.685C489.402 190.048 483.132 197.489 474.772 203.007C466.579 208.524 456.296 211.283 443.923 211.283Z"/>
<path d="M606.677 78.8588H626.49L568.555 238.37C567.05 242.216 565.545 245.392 564.04 247.901C562.535 250.576 560.696 252.666 558.522 254.171C556.349 255.675 553.59 256.762 550.246 257.431C547.069 258.1 543.14 258.434 538.458 258.434H528.175V240.878H548.49L558.272 213.29L509.866 78.8588H529.931L561.03 166.891L567.05 187.958H568.304L575.326 166.891L606.677 78.8588Z"/>
<path d="M704.525 211.283C695.664 211.283 687.638 209.695 680.448 206.518C673.426 203.341 667.323 198.827 662.14 192.974C657.124 186.955 653.194 179.849 650.352 171.656C647.677 163.296 646.339 153.933 646.339 143.566C646.339 133.367 647.677 124.087 650.352 115.727C653.194 107.367 657.124 100.261 662.14 94.4086C667.323 88.3893 673.426 83.7912 680.448 80.6144C687.638 77.4375 695.664 75.8491 704.525 75.8491C713.22 75.8491 720.995 77.4375 727.85 80.6144C734.706 83.7912 740.558 88.2221 745.406 93.907C750.255 99.4247 753.934 106.029 756.442 113.72C759.117 121.412 760.455 129.856 760.455 139.052V148.582H667.406V154.602C667.406 160.119 668.243 165.302 669.915 170.151C671.754 174.833 674.262 178.929 677.439 182.441C680.783 185.952 684.796 188.711 689.477 190.717C694.326 192.724 699.76 193.727 705.779 193.727C713.972 193.727 721.078 191.804 727.098 187.958C733.284 184.113 738.05 178.595 741.394 171.405L755.689 181.688C751.509 190.55 744.988 197.74 736.127 203.257C727.265 208.608 716.731 211.283 704.525 211.283ZM704.525 92.653C699.008 92.653 693.992 93.6562 689.477 95.6626C684.963 97.5018 681.033 100.177 677.689 103.688C674.513 107.2 672.005 111.38 670.165 116.229C668.326 120.91 667.406 126.093 667.406 131.778V133.534H738.886V130.775C738.886 119.238 735.709 110.042 729.355 103.187C723.169 96.1642 714.892 92.653 704.525 92.653Z"/>
<path d="M798.534 208.274V78.8588H818.598V102.685H819.852C822.193 96.4986 826.373 90.9809 832.392 86.1321C838.412 81.2832 846.688 78.8588 857.222 78.8588H864.997V98.9231H853.209C842.341 98.9231 833.813 101.013 827.627 105.193C821.608 109.206 818.598 114.306 818.598 120.492V208.274H798.534Z"/>
<path d="M988.714 208.274C981.189 208.274 975.755 206.267 972.411 202.254C969.235 198.241 967.228 193.225 966.392 187.206H965.138C962.296 195.232 957.614 201.251 951.093 205.264C944.572 209.277 936.797 211.283 927.768 211.283C914.058 211.283 903.357 207.772 895.665 200.749C888.141 193.727 884.379 184.196 884.379 172.158C884.379 159.952 888.81 150.589 897.672 144.068C906.701 137.547 920.662 134.286 939.556 134.286H965.138V121.495C965.138 112.299 962.63 105.277 957.614 100.428C952.598 95.579 944.907 93.1546 934.54 93.1546C926.681 93.1546 920.077 94.9102 914.726 98.4215C909.543 101.933 905.196 106.614 901.685 112.466L889.646 101.18C893.157 94.1578 898.759 88.2221 906.45 83.3732C914.141 78.3572 923.839 75.8491 935.543 75.8491C951.26 75.8491 963.466 79.6948 972.161 87.3861C980.855 95.0774 985.202 105.778 985.202 119.489V190.717H1000V208.274H988.714ZM931.029 194.229C936.045 194.229 940.643 193.643 944.823 192.473C949.003 191.302 952.598 189.63 955.608 187.457C958.617 185.283 960.958 182.775 962.63 179.933C964.302 177.09 965.138 173.997 965.138 170.653V149.335H938.553C927.016 149.335 918.572 151.007 913.222 154.351C908.038 157.695 905.447 162.544 905.447 168.897V174.164C905.447 180.518 907.704 185.45 912.218 188.962C916.9 192.473 923.17 194.229 931.029 194.229Z"/>
</mask>
<path d="M443.923 211.283C434.894 211.283 426.784 209.695 419.595 206.518C412.405 203.341 406.302 198.827 401.286 192.974C396.437 187.122 392.675 180.016 390 171.656C387.492 163.296 386.238 153.933 386.238 143.566C386.238 133.2 387.492 123.836 390 115.476C392.675 107.116 396.437 100.01 401.286 94.1578C406.302 88.3057 412.405 83.7912 419.595 80.6144C426.784 77.4375 434.894 75.8491 443.923 75.8491C456.797 75.8491 467.08 78.6916 474.772 84.3764C482.63 89.8941 488.482 97.1674 492.328 106.196L475.524 114.724C473.183 108.036 469.337 102.852 463.987 99.1739C458.636 95.4954 451.948 93.6562 443.923 93.6562C437.903 93.6562 432.636 94.6594 428.122 96.6658C423.608 98.5051 419.846 101.18 416.836 104.692C413.826 108.036 411.569 112.132 410.064 116.981C408.559 121.663 407.807 126.846 407.807 132.531V154.602C407.807 165.971 410.817 175.335 416.836 182.692C423.022 189.881 432.051 193.476 443.923 193.476C460.141 193.476 471.845 185.952 479.035 170.904L493.582 180.685C489.402 190.048 483.132 197.489 474.772 203.007C466.579 208.524 456.296 211.283 443.923 211.283Z" fill="#121212"/>
<path d="M606.677 78.8588H626.49L568.555 238.37C567.05 242.216 565.545 245.392 564.04 247.901C562.535 250.576 560.696 252.666 558.522 254.171C556.349 255.675 553.59 256.762 550.246 257.431C547.069 258.1 543.14 258.434 538.458 258.434H528.175V240.878H548.49L558.272 213.29L509.866 78.8588H529.931L561.03 166.891L567.05 187.958H568.304L575.326 166.891L606.677 78.8588Z" fill="#121212"/>
<path d="M704.525 211.283C695.664 211.283 687.638 209.695 680.448 206.518C673.426 203.341 667.323 198.827 662.14 192.974C657.124 186.955 653.194 179.849 650.352 171.656C647.677 163.296 646.339 153.933 646.339 143.566C646.339 133.367 647.677 124.087 650.352 115.727C653.194 107.367 657.124 100.261 662.14 94.4086C667.323 88.3893 673.426 83.7912 680.448 80.6144C687.638 77.4375 695.664 75.8491 704.525 75.8491C713.22 75.8491 720.995 77.4375 727.85 80.6144C734.706 83.7912 740.558 88.2221 745.406 93.907C750.255 99.4247 753.934 106.029 756.442 113.72C759.117 121.412 760.455 129.856 760.455 139.052V148.582H667.406V154.602C667.406 160.119 668.243 165.302 669.915 170.151C671.754 174.833 674.262 178.929 677.439 182.441C680.783 185.952 684.796 188.711 689.477 190.717C694.326 192.724 699.76 193.727 705.779 193.727C713.972 193.727 721.078 191.804 727.098 187.958C733.284 184.113 738.05 178.595 741.394 171.405L755.689 181.688C751.509 190.55 744.988 197.74 736.127 203.257C727.265 208.608 716.731 211.283 704.525 211.283ZM704.525 92.653C699.008 92.653 693.992 93.6562 689.477 95.6626C684.963 97.5018 681.033 100.177 677.689 103.688C674.513 107.2 672.005 111.38 670.165 116.229C668.326 120.91 667.406 126.093 667.406 131.778V133.534H738.886V130.775C738.886 119.238 735.709 110.042 729.355 103.187C723.169 96.1642 714.892 92.653 704.525 92.653Z" fill="#121212"/>
<path d="M798.534 208.274V78.8588H818.598V102.685H819.852C822.193 96.4986 826.373 90.9809 832.392 86.1321C838.412 81.2832 846.688 78.8588 857.222 78.8588H864.997V98.9231H853.209C842.341 98.9231 833.813 101.013 827.627 105.193C821.608 109.206 818.598 114.306 818.598 120.492V208.274H798.534Z" fill="#121212"/>
<path d="M988.714 208.274C981.189 208.274 975.755 206.267 972.411 202.254C969.235 198.241 967.228 193.225 966.392 187.206H965.138C962.296 195.232 957.614 201.251 951.093 205.264C944.572 209.277 936.797 211.283 927.768 211.283C914.058 211.283 903.357 207.772 895.665 200.749C888.141 193.727 884.379 184.196 884.379 172.158C884.379 159.952 888.81 150.589 897.672 144.068C906.701 137.547 920.662 134.286 939.556 134.286H965.138V121.495C965.138 112.299 962.63 105.277 957.614 100.428C952.598 95.579 944.907 93.1546 934.54 93.1546C926.681 93.1546 920.077 94.9102 914.726 98.4215C909.543 101.933 905.196 106.614 901.685 112.466L889.646 101.18C893.157 94.1578 898.759 88.2221 906.45 83.3732C914.141 78.3572 923.839 75.8491 935.543 75.8491C951.26 75.8491 963.466 79.6948 972.161 87.3861C980.855 95.0774 985.202 105.778 985.202 119.489V190.717H1000V208.274H988.714ZM931.029 194.229C936.045 194.229 940.643 193.643 944.823 192.473C949.003 191.302 952.598 189.63 955.608 187.457C958.617 185.283 960.958 182.775 962.63 179.933C964.302 177.09 965.138 173.997 965.138 170.653V149.335H938.553C927.016 149.335 918.572 151.007 913.222 154.351C908.038 157.695 905.447 162.544 905.447 168.897V174.164C905.447 180.518 907.704 185.45 912.218 188.962C916.9 192.473 923.17 194.229 931.029 194.229Z" fill="#121212"/>
<path d="M443.923 211.283C434.894 211.283 426.784 209.695 419.595 206.518C412.405 203.341 406.302 198.827 401.286 192.974C396.437 187.122 392.675 180.016 390 171.656C387.492 163.296 386.238 153.933 386.238 143.566C386.238 133.2 387.492 123.836 390 115.476C392.675 107.116 396.437 100.01 401.286 94.1578C406.302 88.3057 412.405 83.7912 419.595 80.6144C426.784 77.4375 434.894 75.8491 443.923 75.8491C456.797 75.8491 467.08 78.6916 474.772 84.3764C482.63 89.8941 488.482 97.1674 492.328 106.196L475.524 114.724C473.183 108.036 469.337 102.852 463.987 99.1739C458.636 95.4954 451.948 93.6562 443.923 93.6562C437.903 93.6562 432.636 94.6594 428.122 96.6658C423.608 98.5051 419.846 101.18 416.836 104.692C413.826 108.036 411.569 112.132 410.064 116.981C408.559 121.663 407.807 126.846 407.807 132.531V154.602C407.807 165.971 410.817 175.335 416.836 182.692C423.022 189.881 432.051 193.476 443.923 193.476C460.141 193.476 471.845 185.952 479.035 170.904L493.582 180.685C489.402 190.048 483.132 197.489 474.772 203.007C466.579 208.524 456.296 211.283 443.923 211.283Z" stroke="#121212" stroke-width="2.51055" mask="url(#path-3-outside-1_305_23)"/>
<path d="M606.677 78.8588H626.49L568.555 238.37C567.05 242.216 565.545 245.392 564.04 247.901C562.535 250.576 560.696 252.666 558.522 254.171C556.349 255.675 553.59 256.762 550.246 257.431C547.069 258.1 543.14 258.434 538.458 258.434H528.175V240.878H548.49L558.272 213.29L509.866 78.8588H529.931L561.03 166.891L567.05 187.958H568.304L575.326 166.891L606.677 78.8588Z" stroke="#121212" stroke-width="2.51055" mask="url(#path-3-outside-1_305_23)"/>
<path d="M704.525 211.283C695.664 211.283 687.638 209.695 680.448 206.518C673.426 203.341 667.323 198.827 662.14 192.974C657.124 186.955 653.194 179.849 650.352 171.656C647.677 163.296 646.339 153.933 646.339 143.566C646.339 133.367 647.677 124.087 650.352 115.727C653.194 107.367 657.124 100.261 662.14 94.4086C667.323 88.3893 673.426 83.7912 680.448 80.6144C687.638 77.4375 695.664 75.8491 704.525 75.8491C713.22 75.8491 720.995 77.4375 727.85 80.6144C734.706 83.7912 740.558 88.2221 745.406 93.907C750.255 99.4247 753.934 106.029 756.442 113.72C759.117 121.412 760.455 129.856 760.455 139.052V148.582H667.406V154.602C667.406 160.119 668.243 165.302 669.915 170.151C671.754 174.833 674.262 178.929 677.439 182.441C680.783 185.952 684.796 188.711 689.477 190.717C694.326 192.724 699.76 193.727 705.779 193.727C713.972 193.727 721.078 191.804 727.098 187.958C733.284 184.113 738.05 178.595 741.394 171.405L755.689 181.688C751.509 190.55 744.988 197.74 736.127 203.257C727.265 208.608 716.731 211.283 704.525 211.283ZM704.525 92.653C699.008 92.653 693.992 93.6562 689.477 95.6626C684.963 97.5018 681.033 100.177 677.689 103.688C674.513 107.2 672.005 111.38 670.165 116.229C668.326 120.91 667.406 126.093 667.406 131.778V133.534H738.886V130.775C738.886 119.238 735.709 110.042 729.355 103.187C723.169 96.1642 714.892 92.653 704.525 92.653Z" stroke="#121212" stroke-width="2.51055" mask="url(#path-3-outside-1_305_23)"/>
<path d="M798.534 208.274V78.8588H818.598V102.685H819.852C822.193 96.4986 826.373 90.9809 832.392 86.1321C838.412 81.2832 846.688 78.8588 857.222 78.8588H864.997V98.9231H853.209C842.341 98.9231 833.813 101.013 827.627 105.193C821.608 109.206 818.598 114.306 818.598 120.492V208.274H798.534Z" stroke="#121212" stroke-width="2.51055" mask="url(#path-3-outside-1_305_23)"/>
<path d="M988.714 208.274C981.189 208.274 975.755 206.267 972.411 202.254C969.235 198.241 967.228 193.225 966.392 187.206H965.138C962.296 195.232 957.614 201.251 951.093 205.264C944.572 209.277 936.797 211.283 927.768 211.283C914.058 211.283 903.357 207.772 895.665 200.749C888.141 193.727 884.379 184.196 884.379 172.158C884.379 159.952 888.81 150.589 897.672 144.068C906.701 137.547 920.662 134.286 939.556 134.286H965.138V121.495C965.138 112.299 962.63 105.277 957.614 100.428C952.598 95.579 944.907 93.1546 934.54 93.1546C926.681 93.1546 920.077 94.9102 914.726 98.4215C909.543 101.933 905.196 106.614 901.685 112.466L889.646 101.18C893.157 94.1578 898.759 88.2221 906.45 83.3732C914.141 78.3572 923.839 75.8491 935.543 75.8491C951.26 75.8491 963.466 79.6948 972.161 87.3861C980.855 95.0774 985.202 105.778 985.202 119.489V190.717H1000V208.274H988.714ZM931.029 194.229C936.045 194.229 940.643 193.643 944.823 192.473C949.003 191.302 952.598 189.63 955.608 187.457C958.617 185.283 960.958 182.775 962.63 179.933C964.302 177.09 965.138 173.997 965.138 170.653V149.335H938.553C927.016 149.335 918.572 151.007 913.222 154.351C908.038 157.695 905.447 162.544 905.447 168.897V174.164C905.447 180.518 907.704 185.45 912.218 188.962C916.9 192.473 923.17 194.229 931.029 194.229Z" stroke="#121212" stroke-width="2.51055" mask="url(#path-3-outside-1_305_23)"/>
</svg>
