<svg width="248" height="248" viewBox="0 0 248 248" fill="none" xmlns="http://www.w3.org/2000/svg">
<g clip-path="url(#clip0_26338_99801)">
<path d="M0.376953 108.589H8.79419V114.28H0.376953V108.589ZM0.376953 116.89H8.79419V138.709H0.376953V116.89ZM13.6188 116.89H21.457V120.444C22.6289 118.992 23.8147 117.954 25.0142 117.331C26.2137 116.708 27.6751 116.396 29.3986 116.396C31.7287 116.396 33.552 117.085 34.8687 118.461C36.1855 119.838 36.8438 121.964 36.8438 124.841V138.709H28.3852V126.71C28.3852 125.34 28.1301 124.371 27.62 123.803C27.1099 123.235 26.3929 122.95 25.4692 122.95C24.4489 122.95 23.6216 123.334 22.9874 124.101C22.3532 124.868 22.0361 126.244 22.0361 128.231V138.709H13.6188V116.89ZM50.6854 116.89H54.6976V123.012H50.6854V138.709H42.2475V123.012H39.104V116.89H42.2475V115.903C42.2475 115.013 42.344 114.034 42.5371 112.965C42.7301 111.897 43.092 111.024 43.6228 110.346C44.1536 109.668 44.8982 109.12 45.8564 108.702C46.8146 108.285 48.2175 108.076 50.065 108.076L50.7934 108.088C52.2158 108.132 54.1169 108.3 56.4968 108.589L55.5662 113.643C54.5597 113.479 53.7463 113.397 53.1258 113.397C52.3675 113.397 51.8229 113.524 51.492 113.777C51.1611 114.03 50.9267 114.431 50.7888 114.979C50.7199 115.28 50.6854 115.917 50.6854 116.89ZM55.4894 127.861C55.4894 124.532 56.62 121.79 58.8811 119.632C61.1423 117.475 64.1962 116.396 68.0429 116.396C72.4411 116.396 75.7638 117.663 78.0112 120.197C79.8174 122.238 80.7204 124.752 80.7204 127.737C80.7204 131.093 79.6002 133.843 77.3597 135.986C75.1193 138.13 72.0206 139.202 68.0636 139.202C64.534 139.202 61.68 138.311 59.5016 136.531C56.8268 134.326 55.4894 131.436 55.4894 127.861ZM63.9273 127.84C63.9273 129.785 64.3237 131.223 65.1165 132.155C65.9093 133.086 66.9054 133.552 68.1049 133.552C69.3182 133.552 70.3144 133.093 71.0934 132.175C71.8723 131.258 72.2618 129.785 72.2618 127.758C72.2618 125.868 71.8689 124.46 71.083 123.536C70.2971 122.611 69.3251 122.149 68.167 122.149C66.9399 122.149 65.9265 122.618 65.1268 123.556C64.3272 124.495 63.9273 125.923 63.9273 127.84ZM84.2835 116.89H92.1424V120.074C93.273 118.745 94.4139 117.8 95.5651 117.239C96.7164 116.677 98.1054 116.396 99.7324 116.396C101.483 116.396 102.869 116.705 103.889 117.321C104.91 117.937 105.744 118.855 106.392 120.074C107.715 118.65 108.922 117.681 110.011 117.167C111.1 116.653 112.444 116.396 114.044 116.396C116.401 116.396 118.242 117.092 119.566 118.482C120.889 119.872 121.551 122.046 121.551 125.005V138.709H113.113V126.279C113.113 125.293 112.92 124.56 112.534 124.08C111.969 123.327 111.266 122.95 110.425 122.95C109.432 122.95 108.632 123.307 108.026 124.019C107.419 124.731 107.116 125.875 107.116 127.45V138.709H98.6776V126.69C98.6776 125.731 98.6225 125.08 98.5122 124.738C98.3329 124.19 98.0227 123.748 97.5815 123.413C97.1403 123.077 96.6233 122.909 96.0304 122.909C95.0653 122.909 94.2725 123.272 93.6521 123.998C93.0317 124.724 92.7215 125.916 92.7215 127.573V138.709H84.2835V116.89ZM133.697 123.957L125.652 123.115C125.955 121.718 126.393 120.619 126.965 119.817C127.537 119.016 128.361 118.321 129.436 117.732C130.209 117.307 131.27 116.979 132.621 116.746C133.973 116.513 135.434 116.396 137.006 116.396C139.529 116.396 141.556 116.537 143.086 116.818C144.616 117.098 145.892 117.684 146.912 118.574C147.629 119.191 148.194 120.064 148.608 121.194C149.022 122.324 149.228 123.402 149.228 124.43V134.065C149.228 135.093 149.294 135.897 149.425 136.479C149.556 137.062 149.842 137.805 150.283 138.709H142.383C142.066 138.147 141.859 137.719 141.762 137.424C141.666 137.13 141.569 136.668 141.473 136.038C140.37 137.092 139.274 137.846 138.185 138.298C136.696 138.9 134.965 139.202 132.994 139.202C130.374 139.202 128.385 138.599 127.027 137.394C125.669 136.188 124.99 134.702 124.99 132.935C124.99 131.278 125.479 129.915 126.458 128.847C127.367 127.855 128.99 127.099 131.325 126.579L135.78 125.66C136.804 125.439 137.55 125.265 138.019 125.138C138.957 124.885 139.949 124.553 140.997 124.142C140.997 123.115 140.784 122.396 140.356 121.985C139.929 121.574 139.177 121.368 138.102 121.368C136.723 121.368 135.689 121.588 135 122.026C134.462 122.368 134.028 123.012 133.697 123.957ZM140.997 128.354C140.129 128.662 139.233 128.943 138.31 129.197L137.378 129.443C135.668 129.895 134.586 130.34 134.131 130.778C133.662 131.23 133.428 131.744 133.428 132.319C133.428 132.976 133.659 133.514 134.121 133.932C134.583 134.35 135.262 134.558 136.158 134.558C137.095 134.558 137.967 134.332 138.774 133.88C139.581 133.428 140.153 132.877 140.491 132.227C140.828 131.576 140.997 130.73 140.997 129.689V128.354ZM153.722 116.89H161.56V120.444C162.732 118.992 163.918 117.954 165.117 117.331C166.317 116.708 167.778 116.396 169.502 116.396C171.832 116.396 173.655 117.085 174.972 118.461C176.289 119.838 176.947 121.964 176.947 124.841V138.709H168.488V126.71C168.488 125.34 168.233 124.371 167.723 123.803C167.213 123.235 166.496 122.95 165.572 122.95C164.552 122.95 163.725 123.334 163.091 124.101C162.456 124.868 162.139 126.244 162.139 128.231V138.709H153.722V116.89ZM181.73 108.589H190.148V114.28H181.73V108.589ZM181.73 116.89H190.148V138.709H181.73V116.89ZM202.645 123.957L194.6 123.115C194.903 121.718 195.341 120.619 195.913 119.817C196.485 119.016 197.309 118.321 198.385 117.732C199.157 117.307 200.218 116.979 201.57 116.746C202.921 116.513 204.382 116.396 205.954 116.396C208.477 116.396 210.504 116.537 212.034 116.818C213.565 117.098 214.84 117.684 215.86 118.574C216.577 119.191 217.142 120.064 217.556 121.194C217.97 122.324 218.177 123.402 218.177 124.43V134.065C218.177 135.093 218.242 135.897 218.373 136.479C218.504 137.062 218.79 137.805 219.231 138.709H211.331L211.051 138.192C210.888 137.876 210.775 137.621 210.711 137.424C210.614 137.13 210.518 136.668 210.421 136.038C209.318 137.092 208.222 137.846 207.133 138.298C205.644 138.9 203.913 139.202 201.942 139.202C199.322 139.202 197.333 138.599 195.975 137.394C194.617 136.188 193.938 134.702 193.938 132.935C193.938 131.278 194.428 129.915 195.407 128.847C196.316 127.855 197.938 127.099 200.273 126.579L204.729 125.66C205.752 125.439 206.499 125.265 206.967 125.138C207.905 124.885 208.898 124.553 209.945 124.142C209.945 123.115 209.732 122.396 209.304 121.985C208.877 121.574 208.125 121.368 207.05 121.368C205.671 121.368 204.637 121.588 203.948 122.026C203.41 122.368 202.976 123.012 202.645 123.957ZM209.945 128.354C209.077 128.662 208.181 128.943 207.258 129.197L206.326 129.443C204.617 129.895 203.534 130.34 203.079 130.778C202.61 131.23 202.376 131.744 202.376 132.319C202.376 132.976 202.607 133.514 203.069 133.932C203.531 134.35 204.21 134.558 205.106 134.558C206.044 134.558 206.916 134.332 207.722 133.88C208.529 133.428 209.101 132.877 209.439 132.227C209.776 131.576 209.945 130.73 209.945 129.689V128.354ZM222.67 108.589H231.274V124.121L237.561 116.89H247.922L240.042 124.532L248.377 138.709H238.884L234.438 129.956L231.274 133.038V138.709H222.67V108.589Z" fill="#0098FF"/>
</g>
<defs>
<clipPath id="clip0_26338_99801">
<rect width="248" height="248" fill="white"/>
</clipPath>
</defs>
</svg>
