<svg id="Luma Health logo" xmlns="http://www.w3.org/2000/svg" viewBox="0 0 1200.02 276.26"><path d="M487.31,205.68V99.85h47.48v101.1c0,26.12,11.54,38,30.19,38,19.68,0,33.92-15.6,33.92-46.81V99.85h47.49v172.31h-44.43v-21.71h-.68c-11.2,15.27-28.49,25.78-50.54,25.78-38.67,0-63.43-23.74-63.43-70.55Z"/><path d="M463.62,272.09c-7.25,2.78-14.95,4.19-22.72,4.15-38.67,0-63.43-23.74-63.43-70.56V24.55h47.49V195.42c0,26.12,7.9,33.81,30.19,33.81,2.91-.09,5.78-.7,8.47-1.82v44.68Z"/><path d="M944.59,166.33v105.83h-47.49v-101.08c0-26.12-10.51-38-27.13-38-20.35,0-31.54,18-31.54,50.54v88.53h-47.49v-104.12c0-22.05-9.5-34.94-27.14-34.94-20.69,0-31.55,18.31-31.55,50.54v88.53h-47.48V99.85h44.77v19.67h.68c12.55-16.28,27.14-23.74,47.83-23.74,24.08,0,41.72,10.17,51.22,29.51,12.89-18.32,28.49-29.51,55-29.51,36.95,0,60.32,23.74,60.32,70.55Z"/><path d="M1124.22,162.61v62.41c0,21.71,1.69,35.62,4.74,47.15h-42.74c-1.7-7.57-2.5-15.31-2.38-23.07h-.68c-12.89,18.32-32.22,27.14-56,27.14-36.63,0-58.68-22.39-58.68-52.24,0-28.15,17-47.14,66.83-54.95,12.89-2,32.22-4.07,43.07-4.75v-6.1c0-21.71-11.53-30.53-28.15-30.53-17.64,0-27.81,9.84-28.49,26.12h-46.13c1.69-32.9,25.44-59.36,74.62-59.36,48.83,0,73.99,23.07,73.99,68.18Zm-45.8,30.53c-10.17,.67-24.42,2-34.6,3.73-19.67,3.39-27.81,9.83-27.81,23.74,0,12.89,8.82,21.71,25.44,21.71,9.84,0,20.35-3.05,27.14-9.84,8.14-8.14,9.83-17.3,9.83-32.9v-6.44Z"/><path d="M288.43,131.09h-67.8l47.94-47.93c10.24-10.24,10.24-26.84,0-37.08h0c-10.24-10.24-26.84-10.24-37.08,0l-47.94,47.94V26.22c0-14.48-11.72-26.21-26.2-26.22h-.01c-14.48,0-26.22,11.74-26.22,26.22h0V94.02l-47.9-47.94c-10.24-10.24-26.84-10.24-37.08,0h0c-10.24,10.24-10.24,26.84,0,37.08l47.94,47.93H26.22c-14.48,0-26.22,11.74-26.22,26.22H0c0,14.48,11.74,26.22,26.22,26.22H94.02l26.2-26.22,18.42-18.36c10.32-10.32,27.05-10.33,37.38-.01h.01l18.38,18.39,26.22,26.22h67.8c14.48,0,26.22-11.74,26.22-26.22h0c.01-14.48-11.72-26.23-26.2-26.24h-.02Z" style="fill:#ffc24d;"/><path d="M268.57,231.47l-74.16-74.16-18.38-18.36c-10.32-10.32-27.05-10.33-37.38-.01h-.01l-18.42,18.37L46.06,231.47c-10.24,10.26-10.22,26.88,.04,37.12,10.26,10.24,26.88,10.22,37.12-.04h0l55.46-55.46c10.32-10.32,27.05-10.33,37.38-.01h.01l55.46,55.47c10.3,10.18,26.9,10.08,37.08-.23,10.09-10.21,10.09-26.64,0-36.85h-.04Z" style="fill:#f60;"/><path d="M1160.53,102.87v23.18h-3.42v-23.18h-8.89v-3h21.31v3h-9Z"/><path d="M1196.71,126.05v-13.32c0-3.31,0-6.66,.07-10h-.07c-1.14,3.35-2.35,6.66-3.57,10l-4.86,13.32h-3.9l-4.86-13.32c-1.21-3.35-2.43-6.66-3.57-10h-.07c0,3.35,.07,6.7,.07,10v13.32h-3.31v-26.2h5.45l4.74,12.92c1.18,3.31,2.36,6.73,3.46,10h.08c1.1-3.31,2.28-6.73,3.46-10l4.71-12.92h5.48v26.2h-3.31Z"/></svg>