<?xml version="1.0" encoding="UTF-8" standalone="no"?>
<svg
   xmlns:dc="http://purl.org/dc/elements/1.1/"
   xmlns:cc="http://creativecommons.org/ns#"
   xmlns:rdf="http://www.w3.org/1999/02/22-rdf-syntax-ns#"
   xmlns:svg="http://www.w3.org/2000/svg"
   xmlns="http://www.w3.org/2000/svg"
   viewBox="0 0 308 122.66667"
   height="122.66667"
   width="308"
   xml:space="preserve"
   id="svg2"
   version="1.1"><metadata
     id="metadata8"><rdf:RDF><cc:Work
         rdf:about=""><dc:format>image/svg+xml</dc:format><dc:type
           rdf:resource="http://purl.org/dc/dcmitype/StillImage" /></cc:Work></rdf:RDF></metadata><defs
     id="defs6" /><g
     transform="matrix(1.3333333,0,0,-1.3333333,0,122.66667)"
     id="g10"><g
       transform="scale(0.1)"
       id="g12"><path
         id="path14"
         style="fill:#231f20;fill-opacity:1;fill-rule:nonzero;stroke:none"
         d="M 343.129,410.988 V 396.789 H 306.723 V 276.191 h -16.196 v 120.598 h -36.402 v 14.199 h 89.004" /><path
         id="path16"
         style="fill:#231f20;fill-opacity:1;fill-rule:evenodd;stroke:none"
         d="m 412.926,275.191 c -15.336,0 -27.735,4.664 -37.199,13.993 -9.336,9.468 -14,22.07 -14,37.804 0,15.867 4.199,28.465 12.597,37.801 8.403,9.332 19.067,13.996 32,13.996 12.934,0 23.133,-4.066 30.602,-12.199 7.469,-8.129 11.199,-19.668 11.199,-34.602 0,-4.265 -0.332,-8.195 -1,-11.796 h -69.199 c 1.199,-10 5,-17.668 11.402,-23 6.399,-5.333 15,-8.004 25.797,-8.004 10.934,0 19.801,2.339 26.602,7.004 v -14.801 c -7.868,-4.133 -17.469,-6.196 -28.801,-6.196 z m 19.402,58.196 v 4 c 0,8.398 -2.269,15.066 -6.801,20 -4.535,5.066 -10.738,7.597 -18.601,7.597 -7.731,0 -14.266,-2.73 -19.602,-8.195 -5.328,-5.469 -8.465,-13.269 -9.398,-23.402 h 54.402" /><path
         id="path18"
         style="fill:#231f20;fill-opacity:1;fill-rule:nonzero;stroke:none"
         d="m 526.523,288.188 c 7.735,0 14.934,2.203 21.602,6.597 v -15 c -6.398,-3.863 -14.266,-5.793 -23.602,-5.793 -15.996,0 -28.734,5.063 -38.199,15.192 -9.332,10.269 -13.996,22.671 -13.996,37.203 0,14.531 4.664,26.996 13.996,37.402 9.465,10.399 22.332,15.598 38.602,15.598 8.664,0 16.398,-1.867 23.199,-5.598 v -15 c -6.133,4.133 -13.332,6.195 -21.602,6.195 -11.464,0 -20.664,-3.73 -27.597,-11.199 -6.801,-7.332 -10.199,-16.461 -10.199,-27.398 0.128,-10.934 3.464,-20.067 9.996,-27.399 6.535,-7.203 15.804,-10.8 27.8,-10.8" /><path
         id="path20"
         style="fill:#231f20;fill-opacity:1;fill-rule:nonzero;stroke:none"
         d="m 594.324,417.586 v -57.602 c 6,12.672 16.668,19.004 32,19.004 9.735,0 17.535,-3 23.403,-9 5.996,-6 8.996,-14.133 8.996,-24.402 v -69.395 h -15.797 v 65.594 c 0,7.336 -1.938,13 -5.801,17.004 -3.734,4 -9,6 -15.801,6 -6.797,0 -13,-2.867 -18.601,-8.601 -5.598,-5.735 -8.399,-13.938 -8.399,-24.602 v -55.395 h -15.597 v 141.395 h 15.597" /><path
         id="path22"
         style="fill:#231f20;fill-opacity:1;fill-rule:nonzero;stroke:none"
         d="m 708.523,377.586 v -17.602 c 6.004,12.672 16.668,19.004 32,19.004 9.868,0 17.735,-3 23.602,-9 5.867,-6 8.801,-14.004 8.801,-24 v -69.797 h -15.801 v 65.594 c 0,7.469 -1.934,13.137 -5.801,17.004 -3.734,4 -9.066,6 -16,6 -6.801,0 -13,-2.934 -18.601,-8.805 -5.465,-5.863 -8.2,-13.996 -8.2,-24.398 v -55.395 h -15.597 v 101.395 h 15.597" /><path
         id="path24"
         style="fill:#231f20;fill-opacity:1;fill-rule:evenodd;stroke:none"
         d="m 879.926,326.586 c 0,11.07 -2.602,20.203 -7.801,27.402 -5.203,7.332 -12.867,10.996 -23,10.996 -10.133,0 -17.934,-3.73 -23.402,-11.199 -5.465,-7.465 -8.2,-16.531 -8.2,-27.199 0,-10.668 2.801,-19.731 8.399,-27.199 5.601,-7.332 13.269,-11 23.004,-11 9.73,0 17.328,3.601 22.797,10.801 5.468,7.332 8.203,16.464 8.203,27.398 z m 16.398,0 c 0,-15.063 -4.265,-27.531 -12.801,-37.402 -8.535,-9.864 -20.199,-14.793 -35,-14.793 -14.664,0 -26.265,4.863 -34.8,14.597 -8.399,9.864 -12.598,22.266 -12.598,37.203 0,15.063 4.332,27.594 13,37.598 8.801,10.133 20.531,15.199 35.199,15.199 14.668,0 26.133,-4.933 34.399,-14.804 8.398,-9.864 12.601,-22.399 12.601,-37.598" /><path
         id="path26"
         style="fill:#231f20;fill-opacity:1;fill-rule:nonzero;stroke:none"
         d="m 926.523,276.191 v 141.395 h 15.801 V 276.191 h -15.801" /><path
         id="path28"
         style="fill:#231f20;fill-opacity:1;fill-rule:evenodd;stroke:none"
         d="m 1051.32,326.586 c 0,11.07 -2.6,20.203 -7.8,27.402 -5.2,7.332 -12.86,10.996 -23,10.996 -10.13,0 -17.93,-3.73 -23.399,-11.199 -5.465,-7.465 -8.195,-16.531 -8.195,-27.199 0,-10.668 2.797,-19.731 8.398,-27.199 5.596,-7.332 13.266,-11 22.996,-11 9.73,0 17.34,3.601 22.81,10.801 5.46,7.332 8.19,16.464 8.19,27.398 z m 16.4,0 c 0,-15.063 -4.26,-27.531 -12.8,-37.402 -8.53,-9.864 -20.2,-14.793 -34.99,-14.793 -14.67,0 -26.274,4.863 -34.809,14.597 -8.398,9.864 -12.598,22.266 -12.598,37.203 0,15.063 4.332,27.594 13,37.598 8.801,10.133 20.537,15.199 35.197,15.199 14.67,0 26.14,-4.933 34.4,-14.804 8.4,-9.864 12.6,-22.399 12.6,-37.598" /><path
         id="path30"
         style="fill:#231f20;fill-opacity:1;fill-rule:evenodd;stroke:none"
         d="m 1163.13,377.586 h 15.8 v -93.199 c 0,-15.465 -4.27,-27.063 -12.8,-34.797 -8.54,-7.867 -19.27,-11.797 -32.21,-11.797 -12.8,0 -23.53,2.062 -32.2,6.195 v 15.801 c 8.54,-4.934 18.14,-7.398 28.8,-7.398 21.74,0 32.61,10.734 32.61,32.195 v 11.402 c -6.67,-11.468 -16.21,-17.203 -28.61,-17.203 -12.39,0 -22.73,4.27 -31,12.801 -8.13,8.535 -12.2,20.336 -12.2,35.402 0,15.2 3.8,27.664 11.4,37.399 7.6,9.734 17.94,14.601 31,14.601 13.07,0 22.87,-6.066 29.41,-18.203 z m -55.41,-50.199 c 0,-11.199 2.8,-19.797 8.41,-25.801 5.59,-5.863 12,-8.801 19.19,-8.801 7.2,0 13.6,2.801 19.2,8.406 5.74,5.727 8.61,14.598 8.61,26.598 0,12.133 -2.74,21.332 -8.2,27.602 -5.47,6.261 -12.21,9.398 -20.21,9.398 -7.86,0 -14.33,-3.469 -19.4,-10.402 -5.06,-6.797 -7.6,-15.801 -7.6,-27" /><path
         id="path32"
         style="fill:#231f20;fill-opacity:1;fill-rule:nonzero;stroke:none"
         d="m 1214.13,241.391 c -3.47,0 -6.27,0.332 -8.41,1 v 14.199 c 2,-0.535 4.27,-0.797 6.8,-0.797 13.47,0 23,7.664 28.61,22.992 l -41,98.801 h 17.79 l 31.01,-79.398 c 1.06,3.73 10.33,30.195 27.79,79.398 h 17.01 l -36.6,-98.801 c -5.2,-13.726 -11.41,-23.394 -18.61,-28.996 -7.06,-5.598 -15.2,-8.398 -24.39,-8.398" /><path
         id="path34"
         style="fill:#231f20;fill-opacity:1;fill-rule:nonzero;stroke:none"
         d="m 1968.5,607.566 v -17.199 c 2.53,5.602 6.43,10.031 11.7,13.301 5.26,3.266 11.56,4.898 18.9,4.898 10.4,0 18.53,-3.097 24.4,-9.3 5.86,-6.2 8.8,-15.301 8.8,-27.297 v -65.801 h -29.2 v 60.398 c 0,6 -1.4,10.567 -4.2,13.7 -2.81,3.132 -6.81,4.699 -12.01,4.699 -5.19,0 -9.57,-2.098 -13.1,-6.297 -3.53,-4.199 -5.29,-10.5 -5.29,-18.898 v -53.602 h -29.2 V 607.566 Z M 260.328,506.168 271.93,640.969 h 33.797 c 16.132,-42.004 25.23,-66.074 27.3,-72.207 2.067,-6.129 3.766,-11.93 5.098,-17.403 2.133,8.809 6.801,22.403 14.004,40.809 l 19,48.801 h 33.797 l 14,-134.801 h -30.801 l -5,52.195 -2.598,39.403 c -2.797,-8.133 -13.937,-38.203 -33.398,-90.203 h -18.203 c -18.399,49.609 -29,79.667 -31.797,90.203 0,-9.469 -0.602,-22.598 -1.801,-39.403 l -4.199,-52.195 z m 263.598,5.801 c -6.934,-4.535 -18.137,-6.797 -33.602,-6.797 -15.469,0 -27.832,4.824 -37.101,14.492 -9.27,9.668 -13.895,22.332 -13.895,37.996 0,15.676 4.496,28.07 13.496,37.207 9.004,9.133 20.199,13.699 33.602,13.699 13.398,0 24.027,-3.968 31.898,-11.902 7.867,-7.934 11.797,-19.766 11.797,-35.496 0,-3.07 -0.531,-8.332 -1.594,-15.801 h -59.601 c 1.996,-5.597 5.465,-9.933 10.402,-13 4.93,-3.066 10.863,-4.601 17.797,-4.601 10.262,0 19.199,2.863 26.801,8.593 z m -21,54.199 v 2.398 c -0.934,11.868 -6.133,17.801 -15.602,17.801 -4.668,0 -8.797,-1.699 -12.402,-5.105 -3.598,-3.395 -5.996,-8.43 -7.195,-15.094 z m 121,81.398 h 29.199 V 506.168 h -29.199 v 15.801 c -6.801,-11.34 -16.871,-17.004 -30.199,-17.004 -13.336,0 -23.973,5.137 -31.899,15.402 -7.937,10.262 -11.902,22.969 -11.902,38.094 0,15.137 4.133,27.305 12.398,36.504 8.266,9.199 18.867,13.797 31.801,13.797 12.93,0 22.867,-5.594 29.801,-16.793 z m -44.399,-90.503 c 0,-8.465 2.129,-15.192 6.395,-20.192 4.269,-5 9.601,-7.5 16,-7.5 6.402,0 11.668,2.598 15.805,7.793 4.128,5.203 6.199,12.066 6.199,20.602 0,8.535 -2.235,15.132 -6.699,19.8 -4.473,4.664 -9.77,6.997 -15.903,6.997 -6.133,0 -11.301,-2.465 -15.5,-7.395 -4.199,-4.938 -6.297,-11.637 -6.297,-20.105 z m 106.196,67.902 c -3.336,3.332 -5,7.336 -5,12.004 0,4.664 1.664,8.668 5,11.996 3.328,3.336 7.328,5 11.996,5 4.668,0 8.668,-1.664 12.004,-5 3.328,-3.328 5,-7.332 5,-11.996 0,-4.668 -1.672,-8.672 -5,-12.004 -3.336,-3.332 -7.336,-5 -12.004,-5 -4.668,0 -8.668,1.668 -11.996,5 z m -2.602,-118.797 v 101.398 h 29.203 V 506.168 Z m 64.996,96.398 c 7.996,4.532 19.363,6.797 34.098,6.797 14.734,0 25.633,-3.101 32.703,-9.297 7.066,-6.199 10.602,-15.836 10.602,-28.898 v -65 h -28.606 v 12.398 c -4.266,-8.671 -12.668,-12.996 -25.199,-12.996 -9.871,0 -17.57,2.793 -23.102,8.399 -5.531,5.594 -8.297,12.929 -8.297,22 0,9.066 3.567,16.301 10.7,21.691 7.129,5.406 17.699,8.106 31.699,8.106 h 12.805 v 7 c 0,8.535 -5.575,12.8 -16.707,12.8 -11.133,0 -21.368,-3.066 -30.696,-9.199 z m 47.403,-54.8 h -9.407 c -4.933,0 -8.73,-1.075 -11.398,-3.203 -2.668,-2.129 -3.996,-4.86 -3.996,-8.204 0,-6.796 3.929,-10.191 11.797,-10.191 4.129,0 7.332,1.266 9.597,3.797 2.266,2.531 3.407,6.004 3.407,10.402 z m 59.39,-41.598 11.602,134.801 h 33.801 c 16.132,-42.004 25.23,-66.074 27.3,-72.207 2.063,-6.129 3.762,-11.93 5.098,-17.403 2.133,8.809 6.801,22.403 14.004,40.809 l 18.996,48.801 h 33.801 l 13.998,-134.801 h -30.799 l -5,52.195 -2.598,39.403 c -2.797,-8.133 -13.937,-38.203 -33.398,-90.203 h -18.203 c -18.399,49.609 -29,79.667 -31.797,90.203 0,-9.469 -0.602,-22.598 -1.805,-39.403 l -4.199,-52.195 z m 187.4,96.398 c 8,4.532 19.37,6.797 34.1,6.797 14.73,0 25.63,-3.101 32.7,-9.297 7.07,-6.199 10.6,-15.836 10.6,-28.898 v -65 h -28.6 v 12.398 c -4.27,-8.671 -12.67,-12.996 -25.2,-12.996 -9.87,0 -17.57,2.793 -23.1,8.399 -5.53,5.594 -8.3,12.929 -8.3,22 0,9.066 3.57,16.301 10.7,21.691 7.13,5.406 17.7,8.106 31.7,8.106 h 12.8 v 7 c 0,8.535 -5.57,12.8 -16.7,12.8 -11.13,0 -21.37,-3.066 -30.7,-9.199 z m 47.4,-54.8 h -9.4 c -4.93,0 -8.73,-1.075 -11.4,-3.203 -2.67,-2.129 -4,-4.86 -4,-8.204 0,-6.796 3.93,-10.191 11.8,-10.191 4.13,0 7.33,1.266 9.6,3.797 2.26,2.531 3.4,6.004 3.4,10.402 z m 88.8,59.8 v -18.804 c 1.87,5.871 4.97,10.57 9.3,14.105 4.33,3.528 9.37,5.301 15.1,5.301 3.2,0 5.73,-0.27 7.6,-0.801 v -27.601 c -3.2,1.464 -6.87,2.203 -11,2.203 -6.27,0 -11.34,-2.301 -15.2,-6.903 -3.87,-4.597 -5.8,-10.703 -5.8,-18.304 v -50.594 h -29.2 l 0.2,101.398 z m 82.6,-101.398 h -29.2 v 137.996 h 29.2 v -81.996 l 32,45.398 h 33.6 l -35.2,-48.597 35.8,-52.801 h -33.81 l -32.39,49.801 z m 122.6,80 v -46.605 c 0,-3.594 1.03,-6.329 3.1,-8.204 2.07,-1.863 5.26,-2.793 9.6,-2.793 4.33,0 8.57,1.329 12.7,3.997 v -24.2 c -4.93,-2.129 -11.6,-3.191 -20,-3.191 -23.07,0 -34.6,11.519 -34.6,34.598 v 46.398 h -14.6 v 21.398 h 14.6 v 24 h 29.2 v -24 h 23.6 v -21.398 z m 99.79,29.398 c -5.2,0 -9.16,-1.07 -11.9,-3.199 -2.73,-2.133 -4.1,-4.867 -4.1,-8.203 0,-3.328 1.67,-6.297 5,-8.898 3.34,-2.598 7.7,-5.098 13.11,-7.5 5.39,-2.399 9.46,-4.297 12.19,-5.703 2.74,-1.395 5.87,-3.333 9.4,-5.801 3.54,-2.461 6.3,-5.032 8.3,-7.696 5.07,-6.668 7.61,-14.402 7.61,-23.199 0,-12.133 -4.48,-21.976 -13.41,-29.504 -8.93,-7.527 -21.07,-11.3 -36.4,-11.3 -15.33,0 -28,2.804 -38,8.402 v 31.004 c 12.14,-8.797 25.07,-13.203 38.8,-13.203 4.67,0 8.54,1.23 11.6,3.703 3.07,2.457 4.6,5.703 4.6,9.695 0,2.93 -0.73,5.137 -2.19,6.602 -1.47,1.464 -2.7,2.57 -3.7,3.3 -1.01,0.735 -2.48,1.602 -4.41,2.598 l -4.9,2.5 c -4.13,2.004 -8.19,3.867 -12.19,5.602 -8.68,3.996 -15.64,8.929 -20.91,14.797 -5.27,5.871 -7.9,14.132 -7.9,24.8 0,10.672 4.27,19.567 12.81,26.703 8.52,7.129 19.93,10.7 34.2,10.7 14.26,0 26.26,-2.27 36,-6.801 v -28.797 c -10.81,6.262 -22.01,9.398 -33.61,9.398 z m 64.41,-13 c 7.99,4.532 19.36,6.797 34.1,6.797 14.73,0 25.63,-3.101 32.7,-9.297 7.06,-6.199 10.6,-15.836 10.6,-28.898 v -65 h -28.61 v 12.398 c -4.26,-8.671 -12.66,-12.996 -25.2,-12.996 -9.86,0 -17.56,2.793 -23.1,8.399 -5.53,5.594 -8.29,12.929 -8.29,22 0,9.066 3.56,16.301 10.69,21.691 7.13,5.406 17.7,8.106 31.7,8.106 h 12.81 v 7 c 0,8.535 -5.57,12.8 -16.7,12.8 -11.14,0 -21.37,-3.066 -30.7,-9.199 z m 47.4,-54.8 h -9.41 c -4.93,0 -8.73,-1.075 -11.39,-3.203 -2.67,-2.129 -4,-4.86 -4,-8.204 0,-6.796 3.93,-10.191 11.79,-10.191 4.14,0 7.34,1.266 9.61,3.797 2.26,2.531 3.4,6.004 3.4,10.402 z m 90.8,38.402 v -46.605 c 0,-3.594 1.02,-6.329 3.09,-8.204 2.07,-1.863 5.27,-2.793 9.6,-2.793 4.33,0 8.57,1.329 12.7,3.997 v -24.2 c -4.93,-2.129 -11.6,-3.191 -20,-3.191 -23.07,0 -34.59,11.519 -34.59,34.598 v 46.398 h -14.61 v 21.398 h 14.61 v 24 h 29.2 v -24 h 23.59 v -21.398 z m 111.19,21.398 h 29.2 V 506.168 h -29.2 v 16.199 c -5.33,-11.34 -15.6,-17 -30.8,-17 -10.4,0 -18.5,2.899 -24.3,8.699 -5.8,5.801 -8.7,14.364 -8.7,25.704 v 67.796 h 29.2 v -61.207 c 0,-11.863 5.2,-17.793 15.6,-17.793 12.66,0 19,8.469 19,25.403 z m 88.8,0 v -18.804 c 1.86,5.871 4.97,10.57 9.29,14.105 4.34,3.528 9.38,5.301 15.11,5.301 3.2,0 5.73,-0.27 7.59,-0.801 v -27.601 c -3.19,1.464 -6.86,2.203 -10.99,2.203 -6.27,0 -11.34,-2.301 -15.2,-6.903 -3.87,-4.597 -5.8,-10.703 -5.8,-18.304 v -50.594 h -29.2 l 0.2,101.398 h 29" /></g></g></svg>