<svg width="270" height="120" viewBox="0 0 90 40" fill="none" xmlns="http://www.w3.org/2000/svg">
<g clip-path="url(#clip0_1001_663)">
<path d="M45.9254 14.8481H44.0174C43.9122 14.8481 43.808 14.8278 43.7108 14.7883C43.6135 14.7488 43.5252 14.691 43.4508 14.618C43.3764 14.5451 43.3173 14.4585 43.2771 14.3632C43.2368 14.2679 43.2161 14.1658 43.2161 14.0627V10.8275C41.183 9.84656 38.9369 9.36521 36.6717 9.42498C34.3861 9.27363 32.1001 9.71196 30.0412 10.6963C27.9824 11.6806 26.2227 13.1766 24.9375 15.0351C25.3335 16.2432 25.5268 17.5063 25.5099 18.7751V27.4708C27.8567 30.2197 31.9208 31.7906 37.4349 31.7906C40.4157 31.6558 43.3784 31.2616 46.2879 30.6124C46.3923 30.5907 46.4909 30.5483 46.5779 30.4878C46.6649 30.4273 46.7383 30.3501 46.7937 30.2607C46.8491 30.1714 46.8853 30.0719 46.9 29.9684C46.9148 29.8649 46.9078 29.7595 46.8794 29.6587L45.9827 25.9187C43.5907 26.5635 41.1174 26.872 38.6369 26.835C34.8209 26.835 31.3865 25.526 31.1194 22.7209H46.7459V15.6522C46.7485 15.5459 46.729 15.4402 46.6887 15.3415C46.6484 15.2427 46.5881 15.1531 46.5114 15.0779C46.4347 15.0027 46.3432 14.9436 46.2425 14.9041C46.1417 14.8646 46.0339 14.8455 45.9254 14.8481ZM31.8444 18.1206C31.75 18.1298 31.6549 18.1142 31.5687 18.0754C31.4825 18.0366 31.4084 17.976 31.354 17.8999C31.2996 17.8237 31.2668 17.7347 31.2592 17.6421C31.2515 17.5494 31.2691 17.4564 31.3102 17.3726C31.697 16.3806 32.3631 15.5166 33.2312 14.881C34.0992 14.2455 35.1335 13.8644 36.2137 13.7822C36.8178 13.7313 37.426 13.807 37.9979 14.0042C38.5698 14.2014 39.0924 14.5156 39.5309 14.9259C39.9694 15.3362 40.3138 15.8333 40.5413 16.3841C40.7688 16.9349 40.874 17.5269 40.8502 18.1206H31.8444Z" fill="#AA182C"/>
<path d="M55.6552 14.8481H59.9672C60.0741 14.8506 60.1803 14.8321 60.2798 14.7938C60.3792 14.7554 60.4698 14.6979 60.5463 14.6248C60.6227 14.5516 60.6834 14.4642 60.7249 14.3676C60.7664 14.2711 60.7877 14.1674 60.7877 14.0627V10.7527C60.7877 10.5395 60.7012 10.3349 60.5474 10.1841C60.3935 10.0333 60.1848 9.94861 59.9672 9.94861H55.6552C55.5483 9.94864 55.4425 9.92772 55.344 9.88708C55.2456 9.84645 55.1564 9.78692 55.0817 9.71199C55.007 9.63707 54.9484 9.54826 54.9093 9.4508C54.8701 9.35334 54.8513 9.2492 54.8538 9.14449V4.91822C54.8576 4.82085 54.8378 4.72399 54.7961 4.63556C54.7543 4.54713 54.6918 4.46965 54.6136 4.40945C54.5355 4.34926 54.4439 4.30806 54.3463 4.28922C54.2488 4.27039 54.1481 4.27446 54.0525 4.30111L47.5271 5.74103C47.3046 5.79715 47.1065 5.92205 46.9622 6.09721C46.8178 6.27237 46.7349 6.48847 46.7258 6.71345V9.14449C46.7283 9.2492 46.7095 9.35334 46.6703 9.4508C46.6312 9.54826 46.5726 9.63707 46.4979 9.71199C46.4233 9.78692 46.334 9.84645 46.2356 9.88708C46.1371 9.92772 46.0313 9.94864 45.9244 9.94861H44.0164C43.9096 9.94858 43.8038 9.9695 43.7053 10.0101C43.6068 10.0508 43.5176 10.1103 43.4429 10.1852C43.3683 10.2601 43.3096 10.349 43.2705 10.4464C43.2314 10.5439 43.2125 10.648 43.2151 10.7527V10.7527C44.912 11.6603 46.3123 13.0199 47.2543 14.6744C48.1962 16.329 48.6414 18.2109 48.5384 20.1029C48.5433 20.7287 48.4986 21.3539 48.4048 21.9729C48.362 22.1879 48.2464 22.3824 48.0767 22.525C47.907 22.6675 47.6932 22.7497 47.4699 22.7583H46.7449V23.7307C46.6225 24.8877 46.7644 26.0569 47.1605 27.1534C47.5565 28.25 48.1966 29.2463 49.0344 30.0702C50.854 31.3652 53.0646 32.0237 55.3117 31.9402C56.8342 31.9217 58.3527 31.7841 59.8528 31.5288C60.0733 31.4786 60.2702 31.3573 60.412 31.1844C60.5538 31.0115 60.6324 30.7969 60.635 30.5751V26.3488C59.8222 26.4838 58.9978 26.5402 58.1737 26.5171C55.7315 26.5171 55.0828 23.525 55.0828 23.525C54.9774 23.0076 54.92 22.4818 54.9111 21.9542V15.6522C54.9056 15.4501 54.98 15.2537 55.1186 15.1039C55.2572 14.9541 55.4494 14.8625 55.6552 14.8481Z" fill="#4D7287"/>
<path d="M88.1688 26.1243C86.8753 26.4347 85.5507 26.6041 84.2192 26.6292C80.1934 26.6292 76.9116 24.5161 76.9116 20.589C76.9116 17.0733 79.6973 14.5862 84.0475 14.5862C85.3333 14.5852 86.6145 14.7359 87.8635 15.035C87.9662 15.0632 88.0737 15.071 88.1795 15.0579C88.2854 15.0448 88.3875 15.0112 88.4799 14.9589C88.5723 14.9067 88.6532 14.8369 88.7177 14.7536C88.7822 14.6703 88.8291 14.5753 88.8557 14.474L89.9623 10.3038C87.9005 9.73841 85.7687 9.45522 83.6277 9.46229C77.6557 9.46229 73.3437 11.3323 70.8633 14.1935V27.5829C73.2674 30.2945 77.3123 31.8279 82.502 31.8279C85.01 31.9004 87.5126 31.559 89.905 30.8181L89.0846 26.704C89.0643 26.6065 89.0243 26.514 88.967 26.4318C88.9097 26.3497 88.8362 26.2795 88.751 26.2256C88.6657 26.1716 88.5702 26.1348 88.4703 26.1174C88.3703 26.1 88.2678 26.1024 88.1688 26.1243V26.1243Z" fill="#4D7287"/>
<path d="M70.9001 14.1935V10.7526C70.9001 10.5393 70.8136 10.3348 70.6598 10.184C70.5059 10.0332 70.2972 9.94849 70.0796 9.94849H63.4207C63.3139 9.94846 63.2081 9.96938 63.1096 10.01C63.0111 10.0506 62.9219 10.1102 62.8472 10.1851C62.7726 10.26 62.7139 10.3488 62.6748 10.4463C62.6357 10.5437 62.6168 10.6479 62.6194 10.7526V30.5562C62.6193 30.7663 62.7031 30.9681 62.8529 31.1183C63.0026 31.2686 63.2065 31.3555 63.4207 31.3604H70.0796C70.2972 31.3604 70.5059 31.2756 70.6598 31.1248C70.8136 30.974 70.9001 30.7695 70.9001 30.5562V27.5829C69.2465 25.72 68.362 23.3193 68.4197 20.8508C68.3969 18.4106 69.2783 16.0451 70.9001 14.1935Z" fill="#4D7287"/>
<path d="M23.1821 20.8508C23.1958 18.7829 23.8042 16.7606 24.9375 15.0163C24.3653 13.4137 23.3002 12.0245 21.889 11.0398C20.4778 10.0552 18.7897 9.52365 17.0575 9.51838C16.9054 9.45693 16.7444 9.41907 16.5805 9.40618C12.6732 9.17383 8.75185 9.35565 4.88446 9.94849H0C0.0953996 11.8185 0.209879 14.1 0.209879 16.7741V30.5563C0.209879 30.7695 0.296318 30.974 0.45018 31.1248C0.604041 31.2756 0.812723 31.3604 1.03032 31.3604H7.76553C7.9798 31.3555 8.18361 31.2686 8.33337 31.1183C8.48313 30.9681 8.56694 30.7663 8.56689 30.5563V18.9994C8.53882 18.4387 8.62978 17.8783 8.834 17.3538C9.21856 16.5765 9.82563 15.9256 10.5812 15.4807C11.3367 15.0357 12.208 14.8159 13.0888 14.848C16.0844 14.848 17.0956 18.7189 17.0956 18.7189C17.2073 19.2359 17.2711 19.7616 17.2864 20.2898V30.5563C17.2864 30.7695 17.3728 30.974 17.5267 31.1248C17.6806 31.2756 17.8893 31.3604 18.1068 31.3604H24.7657C24.98 31.3555 25.1838 31.2686 25.3336 31.1183C25.4833 30.9681 25.5672 30.7663 25.5671 30.5563V27.4707C23.9823 25.6189 23.1351 23.2673 23.1821 20.8508V20.8508Z" fill="#4D7287"/>
<path d="M71.4346 3.68408C71.3143 4.78844 70.7533 5.80136 69.8741 6.50199C68.9948 7.20261 67.8686 7.53409 66.741 7.42415C65.6165 7.52887 64.4952 7.19499 63.6201 6.49489C62.7451 5.79478 62.1868 4.78487 62.0664 3.68408C62.1868 2.58329 62.7451 1.57339 63.6201 0.873282C64.4952 0.173178 65.6165 -0.160703 66.741 -0.0559823C67.8686 -0.165922 68.9948 0.16556 69.8741 0.866181C70.7533 1.5668 71.3143 2.57973 71.4346 3.68408Z" fill="#AA182C"/>
<path d="M1.71645 39.1771L1.27761 39.9626H0.132812L2.47964 35.9607H3.758L6.04759 39.9626H5.09359L4.63567 39.1771H1.71645ZM3.1856 36.6152L2.07896 38.4852H4.29224L3.1856 36.6152Z" fill="#4D7287"/>
<path d="M9.67362 36.7087H7.76562V35.9607H12.5356V36.7087H10.6276V39.9626H9.67362V36.7087Z" fill="#4D7287"/>
<path d="M13.4902 35.9607H16.9437C17.6687 35.9607 17.9931 36.0542 18.203 36.2786C18.414 36.5509 18.5097 36.8926 18.4701 37.2323C18.504 37.5235 18.4439 37.8178 18.2984 38.0738C18.2348 38.1491 18.1564 38.211 18.0679 38.256C17.9794 38.301 17.8826 38.328 17.7832 38.3356C18.2984 38.3356 18.4129 38.5413 18.4129 39.1771V39.9626H17.3062V39.3642C17.3062 38.8218 17.1536 38.7096 16.543 38.7096H14.3488V39.9626H13.4902V35.9607ZM16.6575 37.9803C17.3444 37.9803 17.5161 37.8681 17.5161 37.3819C17.5161 36.8957 17.3825 36.7087 16.6766 36.7087H14.3488V37.9803H16.6575Z" fill="#4D7287"/>
<path d="M19.4434 35.9607H20.3974V39.9626H19.4434V35.9607Z" fill="#4D7287"/>
<path d="M21.541 35.9607H25.7004V36.6713H22.4759V37.6998H25.5287V38.3917H22.4759V39.9626H21.541V35.9607Z" fill="#4D7287"/>
<path d="M31.6336 36.316C31.8262 36.5565 31.9334 36.8519 31.9388 37.1576C31.9388 37.3446 31.9388 37.569 31.9388 38.0178C31.9388 39.0089 31.8434 39.4016 31.5191 39.6634C31.2177 39.8858 30.8466 39.9982 30.4697 39.9813H28.9624C27.7222 39.9813 27.3787 39.9813 27.0544 39.7756C26.9121 39.6858 26.7931 39.5646 26.707 39.4217C26.6209 39.2789 26.5699 39.1183 26.5583 38.9528C26.5274 38.5732 26.5274 38.1917 26.5583 37.8121C26.5583 36.8771 26.5583 36.5031 26.9399 36.2599C27.2482 36.0488 27.6133 35.9317 27.9893 35.9233H29.5539C30.9467 35.9233 31.3283 35.9981 31.6336 36.316ZM27.4741 37.9617C27.4741 38.7471 27.4741 39.0089 27.7603 39.1211C28.0465 39.2333 28.1801 39.252 29.344 39.252C30.5078 39.252 30.6605 39.252 30.8322 39.0276C31.0039 38.8032 31.0039 38.6162 31.0039 37.943C31.0039 36.6901 31.0039 36.6714 29.2295 36.6714C27.4551 36.6714 27.4741 36.6901 27.4741 37.9617V37.9617Z" fill="#4D7287"/>
<path d="M32.9883 35.9607H36.3845C37.0905 35.9607 37.4148 36.0542 37.6438 36.2786C37.8464 36.5549 37.9412 36.8933 37.9109 37.2323C37.9509 37.5261 37.8833 37.8243 37.7201 38.0738C37.6581 38.1508 37.5801 38.2139 37.4912 38.259C37.4024 38.3041 37.3048 38.3303 37.2049 38.3356C37.7201 38.3356 37.8346 38.5413 37.8346 39.1771V39.9626H36.8806V39.3642C36.8806 38.8218 36.747 38.7096 36.1365 38.7096H33.9423V39.9626H32.9883V35.9607ZM36.1746 37.9803C36.8615 37.9803 37.0332 37.8681 37.0332 37.3819C37.0332 36.8957 36.8997 36.7087 36.1937 36.7087H33.9423V37.9803H36.1746Z" fill="#4D7287"/>
<path d="M39.0373 35.9607H39.9722V37.5502H40.6591L42.7388 35.9607H44.0171L41.4222 37.9242L44.227 39.9626H42.8151L40.5637 38.2982H39.8959V39.9626H38.9609L39.0373 35.9607Z" fill="#4D7287"/>
<path d="M51.4579 38.5226C51.5093 38.8837 51.4208 39.2507 51.2099 39.5511C50.9428 39.8503 50.5421 39.9251 49.3019 39.9251C47.661 39.9251 47.3939 39.9251 47.0123 39.7007C46.8926 39.6324 46.7885 39.5407 46.7064 39.4313C46.6244 39.3219 46.5661 39.1972 46.5353 39.0649C46.4934 38.6482 46.4934 38.2286 46.5353 37.8119C46.5353 36.7086 46.6498 36.3346 47.0695 36.0915C47.7329 35.8486 48.4461 35.7652 49.1492 35.8484C50.5612 35.8484 51.0572 35.8484 51.2862 36.2037C51.4928 36.5064 51.5871 36.8695 51.5533 37.2322H50.5039C50.5039 36.6525 50.3704 36.5964 49.0348 36.5964C48.0808 36.5964 47.7946 36.5964 47.6038 36.7273C47.413 36.8582 47.3176 37.0639 47.3176 37.9241C47.3176 39.1023 47.413 39.1771 48.6913 39.1771H49.9506C50.3894 39.1771 50.5421 38.9714 50.5421 38.56V38.4665L51.4579 38.5226Z" fill="#4D7287"/>
<path d="M57.5071 36.3161C57.6997 36.5565 57.8069 36.852 57.8123 37.1576C57.8123 37.3446 57.8123 37.569 57.8123 38.0178C57.8123 39.0089 57.7169 39.4016 57.4117 39.6634C57.1102 39.8858 56.7391 39.9982 56.3623 39.9813H54.855C53.5957 39.9813 53.2713 39.9813 52.947 39.7756C52.8046 39.6858 52.6857 39.5646 52.5996 39.4218C52.5134 39.2789 52.4625 39.1183 52.4509 38.9528C52.42 38.5732 52.42 38.1917 52.4509 37.8121C52.4509 36.8771 52.5463 36.5031 52.8516 36.26C53.1481 36.0402 53.5101 35.922 53.8819 35.9234H55.4655C56.8202 35.9234 57.2018 35.9982 57.5071 36.3161ZM53.3476 37.9617C53.3476 38.7471 53.3476 39.0089 53.6338 39.1211C53.92 39.2333 54.0536 39.252 55.2175 39.252C56.3813 39.252 56.534 39.252 56.7057 39.0276C56.8774 38.8032 56.8965 38.6162 56.8965 37.943C56.8965 36.6901 56.8965 36.6714 55.1221 36.6714C53.3476 36.6714 53.3476 36.6901 53.3476 37.9617Z" fill="#4D7287"/>
<path d="M58.881 35.9607H60.3311L62.2391 38.9714L64.1471 35.9607H65.5971V39.9626H64.6622V36.6713L62.5634 39.9626H61.8193L59.7205 36.6713V39.9626H58.8047L58.881 35.9607Z" fill="#4D7287"/>
<path d="M66.7598 35.9606H69.9461C70.2561 35.9161 70.5711 35.9161 70.881 35.9606C71.3962 36.1102 71.5679 36.4468 71.5679 37.251C71.5679 38.0551 71.5679 38.2047 71.2245 38.4104C70.8831 38.6361 70.4683 38.7294 70.0606 38.6722H67.6947V39.8877H66.7598V35.9606ZM69.7935 37.999C70.4422 37.999 70.6139 37.8681 70.6139 37.3819C70.6139 36.8956 70.4613 36.7086 69.8316 36.7086H67.6947V37.999H69.7935Z" fill="#4D7287"/>
<path d="M73.1905 39.1771L72.7325 39.9626H71.6641L74.0109 35.9607H75.2892L77.5979 39.9626H76.5676L76.0906 39.1771H73.1905ZM74.6405 36.6152L73.553 38.4852H75.7472L74.6405 36.6152Z" fill="#4D7287"/>
<path d="M78.1699 35.9607H79.62L82.6919 39.2893V35.9607H83.5886V39.9626H82.1767L79.1239 36.6526V39.9626H78.1699V35.9607Z" fill="#4D7287"/>
<path d="M88.7414 35.9607H89.9435L87.6157 38.4665V39.9626H86.6808V38.4665L84.334 35.9607H85.536L87.1578 37.7185L88.7414 35.9607Z" fill="#4D7287"/>
</g>
<defs>
<clipPath id="clip0_1001_663">
<rect width="270" height="120" fill="white"/>
</clipPath>
</defs>
</svg>
