<svg width="4441" height="1864" viewBox="0 0 4441 1864" fill="none" xmlns="http://www.w3.org/2000/svg">
<path d="M917.236 1863.83C1423.81 1863.83 1834.47 1446.6 1834.47 931.917C1834.47 417.233 1423.81 0 917.236 0C410.66 0 0 417.233 0 931.917C0 1446.6 410.66 1863.83 917.236 1863.83Z" fill="#EB102D"/>
<path d="M505.137 705.635C454.248 705.635 413.273 724.284 383.166 761.135L379.127 713.766H246.949V1160.82H387.792V847.145C393.621 837.438 401.946 829.53 411.87 824.272C421.795 819.014 432.944 816.606 444.115 817.306C466.145 817.306 481.932 822.23 490.23 832.226C498.528 842.222 502.787 858.111 502.787 879.595V1161.05H643.997V873.701C643.19 818.052 631.293 775.756 608.676 747.931C586.059 720.107 551.032 705.635 505.137 705.635Z" fill="white"/>
<path d="M936.574 705.633C896.784 704.649 857.467 714.57 822.754 734.352C790.784 753.371 765.195 781.731 749.322 815.738C732.134 853.565 723.598 894.854 724.355 936.51V948.296C724.355 1013.49 745.43 1067.2 787.066 1107.93C828.702 1148.66 883.702 1169.33 950.819 1169.33C985.551 1169.55 1019.94 1162.31 1051.72 1148.07C1080.56 1135.82 1105.67 1115.99 1124.49 1090.63L1125.74 1088.91L1060.38 1010.36L1058.32 1012.97C1034.83 1042.81 1001.78 1057.73 960.072 1057.73C937.745 1058.7 915.831 1051.41 898.39 1037.22C882.813 1023.29 872.223 1004.5 868.282 983.804H1136.68V927.558C1136.68 858.332 1118.61 803.504 1082.92 764.713C1047.24 725.923 998.11 705.633 936.574 705.633ZM868.282 891.677C876.066 841.623 898.169 817.08 935.766 817.08C944.419 816.506 953.095 817.747 961.256 820.724C969.417 823.701 976.887 828.352 983.203 834.387C988.939 841.101 993.281 848.922 995.969 857.382C998.656 865.842 999.635 874.767 998.844 883.621V891.453L868.282 891.677Z" fill="white"/>
<path d="M1481.58 931.588L1597.53 713.765H1450.73L1389.35 832.076L1329.94 713.765H1181.53L1297.04 931.588L1175.07 1160.75H1323.55L1388.98 1033.49L1455.51 1160.75H1603.18L1481.58 931.588Z" fill="white"/>
<path d="M2311.62 706.261C2291.03 705.944 2270.64 710.315 2251.93 719.054C2233.23 727.794 2216.69 740.679 2203.53 756.763V529.243H2062.54V1161.45H2203.38V842.923C2214.4 826.288 2233.34 817.933 2259.7 817.933C2281.22 817.933 2296.42 823.155 2305.38 833.449C2314.34 843.743 2318.74 860.677 2318.74 883.28V1161.45H2460.03V879.923C2459.44 823.229 2446.66 779.665 2421.99 750.497C2397.32 721.33 2360.16 706.261 2311.62 706.261Z" fill="black"/>
<path d="M2753.2 706.269C2713.39 705.294 2674.05 715.214 2639.31 734.988C2607.35 754.018 2581.76 782.375 2565.88 816.374C2548.69 854.201 2540.15 895.49 2540.91 937.146V948.932C2540.91 1014.13 2561.98 1067.84 2603.62 1108.57C2645.26 1149.3 2700.26 1169.96 2767.37 1169.96C2802.11 1170.19 2836.49 1162.94 2868.27 1148.7C2897.11 1136.45 2922.23 1116.63 2941.04 1091.26L2942.29 1089.55L2876.94 1011L2874.81 1013.61C2851.38 1043.45 2818.34 1058.37 2776.55 1058.37C2754.25 1059.33 2732.36 1052.04 2714.94 1037.85C2699.37 1023.92 2688.78 1005.14 2684.84 984.44H2953.23V928.194C2953.23 858.968 2935.17 804.214 2899.48 765.349C2863.79 726.484 2814.74 706.269 2753.2 706.269ZM2684.91 892.313C2692.69 842.259 2714.8 817.716 2752.39 817.716C2761.05 817.147 2769.72 818.389 2777.88 821.366C2786.04 824.343 2793.51 828.992 2799.83 835.023C2805.57 841.737 2809.91 849.558 2812.6 858.018C2815.29 866.479 2816.26 875.403 2815.47 884.257V892.089L2684.91 892.313Z" fill="black"/>
<path d="M3394.06 1058.65V863.207C3393.25 814.719 3376.36 776.003 3343.69 748.104C3311.01 720.204 3266.44 706.255 3210.63 706.255C3154.82 706.255 3108.34 719.831 3072.28 746.761C3055.21 758.461 3041.27 774.286 3031.71 792.815C3022.14 811.343 3017.26 831.994 3017.5 852.912V855.672H3158.34V852.912C3158.34 822.253 3173.03 807.334 3203.8 807.334C3236.84 807.334 3252.85 826.356 3252.85 865.594V886.182H3213.86C3147.18 886.182 3095.56 898.715 3060.46 923.481C3025.36 948.247 3007.07 985.62 3007.07 1034.26C3006.79 1052.74 3010.6 1071.06 3018.22 1087.85C3025.85 1104.63 3037.1 1119.46 3051.13 1131.23C3080.67 1156.93 3118.52 1170.61 3157.39 1169.65C3200.64 1169.65 3235.23 1154.73 3260.19 1125.27C3262.67 1137.32 3266.67 1149.01 3272.09 1160.03L3272.82 1161.52H3412.34V1151V1150.4C3400.74 1129.37 3394.65 1098.48 3394.06 1058.65ZM3252.85 965.18V1032.32C3247.32 1041.85 3239.55 1049.85 3230.23 1055.59C3218.03 1063 3203.98 1066.66 3189.77 1066.11C3178.8 1066.54 3168.09 1062.63 3159.89 1055.22C3156.05 1051.65 3153.03 1047.27 3151.03 1042.38C3149.04 1037.5 3148.13 1032.23 3148.36 1026.95C3148.36 985.396 3170.39 965.255 3216.28 965.255L3252.85 965.18Z" fill="black"/>
<path d="M3636.51 529.174H3495.3V1161.38H3636.51V529.174Z" fill="black"/>
<path d="M3943.13 1056.27C3926.61 1056.27 3915.6 1053.28 3910.24 1047.39C3904.88 1041.5 3902.16 1030.38 3902.16 1014.64V815.468H3973.61V714.389H3902.16V604.657H3761.32V714.389H3705.88V815.468H3761.32V1031.8C3761.32 1077.83 3772.77 1112.66 3795.46 1135.41C3818.15 1158.17 3853.47 1169.65 3900.62 1169.65C3926.77 1169.72 3952.78 1165.7 3977.72 1157.72L3979.63 1157.05V1053.36L3976.4 1053.95C3965.39 1055.67 3954.27 1056.44 3943.13 1056.27Z" fill="black"/>
<path d="M4402.4 750.497C4377.58 721.106 4340.42 706.261 4291.88 706.261C4271.29 705.933 4250.89 710.299 4232.19 719.039C4213.48 727.78 4196.94 740.671 4183.79 756.763V529.243H4042.95V1161.45H4183.79V842.923C4194.73 826.288 4213.68 817.933 4240.04 817.933C4261.63 817.933 4276.75 823.155 4285.79 833.449C4294.82 843.743 4299.15 860.677 4299.15 883.28V1161.45H4440.36V879.923C4439.85 823.229 4427 779.665 4402.4 750.497Z" fill="black"/>
</svg>
