<svg width="800" height="800" viewBox="0 0 800 800" fill="none" xmlns="http://www.w3.org/2000/svg">
<g clip-path="url(#clip0_110_35)">
<path fill-rule="evenodd" clip-rule="evenodd" d="M400 800C620.914 800 800 620.914 800 400C800 179.086 620.914 0 400 0C179.086 0 0 179.086 0 400C0 620.914 179.086 800 400 800ZM265.891 594.858C265.891 597.732 263.547 600 260.749 600H193V292.71H212.811C215.684 292.71 217.952 295.054 217.952 297.851V570.284C217.952 573.157 220.296 575.426 223.094 575.426H235.646C238.519 575.426 240.787 573.082 240.787 570.284V205.226C240.863 202.352 243.131 200.008 246.005 200.008H441.312C446.152 199.933 515.186 199.479 562.595 245.83C591.177 273.731 605.619 312.218 605.619 360.307V600H585.808C582.935 600 580.667 597.656 580.667 594.858V360.307C580.667 319.25 568.796 286.812 545.356 263.826C505.252 224.619 443.751 225.023 441.808 225.036L441.766 225.036H271.032C268.159 225.036 265.891 227.38 265.891 230.178V594.858ZM557.68 594.858C557.68 597.732 555.336 600 552.539 600H484.865V355.619C484.941 354.636 485.319 339.968 475.414 329.533C467.852 321.518 455.754 317.51 439.422 317.51H336.589V297.7C336.589 294.827 338.932 292.558 341.73 292.558H439.498C463.089 292.558 481.463 299.363 493.939 312.747C510.271 330.213 510.12 352.822 509.969 356.829V570.435C509.969 573.309 512.313 575.577 515.11 575.577H527.662C530.535 575.577 532.804 573.233 532.804 570.435V353.805C532.804 320.006 517.606 295.961 487.587 282.275C463.694 271.387 438.968 271.235 438.741 271.235H318.971C316.097 271.235 313.829 273.579 313.829 276.377V600H294.019C291.145 600 288.877 597.656 288.877 594.858V251.501C288.877 248.627 291.221 246.359 294.019 246.359H438.666C439.876 246.359 468.306 246.51 497.039 259.364C524.713 271.689 557.68 298.154 557.68 353.956V594.858Z" fill="black"/>
</g>
<defs>
<clipPath id="clip0_110_35">
<rect width="800" height="800" fill="white"/>
</clipPath>
</defs>
</svg>
