<svg width="450" height="74" viewBox="0 0 450 74" fill="none" xmlns="http://www.w3.org/2000/svg">
<g clip-path="url(#clip0_402_7383)">
<path d="M294.26 0C286.416 0 279.911 6.5051 279.911 14.3495H294.26H325.829C333.673 14.3495 340.179 7.84439 340.179 0H325.829H294.26Z" fill="#021E40"/>
<path d="M443.495 0H356.633V14.3495H443.495V0Z" fill="#021E40"/>
<path d="M93.3673 0C83.801 0 76.1479 7.65306 76.1479 17.2194V48.7883C76.1479 58.3546 83.801 66.0077 93.3673 66.0077H130.676V51.6582H93.3673C91.8367 51.6582 90.4974 50.3189 90.4974 48.7883V17.2194C90.4974 15.6888 91.8367 14.3495 93.3673 14.3495H122.066C129.911 14.3495 136.416 7.84439 136.416 0H122.066H93.3673Z" fill="#021E40"/>
<path d="M20.0892 0C12.2448 0 5.73975 6.5051 5.73975 14.3495H20.0892H57.3979C65.2423 14.3495 71.7474 7.84439 71.7474 0H57.3979H20.0892Z" fill="#021E40"/>
<path d="M47.449 66.0077C59.3112 66.0077 69.0689 56.4414 69.0689 44.3878V40.1786C69.0689 32.3342 62.5638 25.8291 54.7194 25.8291H20.2806H5.7398C5.7398 33.6735 12.2449 40.1786 20.0893 40.1786H54.5281V44.5791C54.5281 48.597 51.2755 51.8495 47.2577 51.8495H14.3495C6.5051 51.6582 0 58.1633 0 66.0077H14.3495H47.449Z" fill="#021E40"/>
<path d="M297.13 66.0077H334.439V51.6582H297.13C295.599 51.6582 294.26 50.3189 294.26 48.7883V40.1786H308.61C316.454 40.1786 322.959 33.6735 322.959 25.8291H308.61H294.26H279.911V48.7883C279.911 58.3546 287.755 66.0077 297.13 66.0077Z" fill="#021E40"/>
<path d="M239.732 48.7883V14.3495C239.732 6.5051 233.227 0 225.383 0V14.3495V48.7883C225.383 58.3546 233.036 66.0077 242.602 66.0077H272.832V51.6582H242.602C241.071 51.6582 239.732 50.3189 239.732 48.7883Z" fill="#021E40"/>
<path d="M193.814 0H159.375C151.531 0 145.026 6.5051 145.026 14.3495H159.375H193.814C195.344 14.3495 196.684 15.6888 196.684 17.2194V55.2934C196.684 63.1377 203.189 69.6429 211.033 69.6429V55.2934V17.2194C211.033 7.65306 203.38 0 193.814 0Z" fill="#021E40"/>
<path d="M159.375 40.1786H173.724H188.074C188.074 32.3342 181.569 25.8291 173.724 25.8291H159.375H145.026V66.0077H159.375V40.1786Z" fill="#021E40"/>
<path d="M435.651 56.4414H419.196C416.518 56.4414 414.413 54.3368 414.413 51.6582V36.9261C414.413 34.2475 416.518 32.1429 419.196 32.1429H435.651C438.329 32.1429 440.434 34.2475 440.434 36.9261V51.6582C440.434 54.3368 438.329 56.4414 435.651 56.4414ZM426.658 70.0256L426.849 70.2169C430.867 74.2347 436.99 75.3827 441.199 71.5562L434.885 66.0077C434.885 66.0077 436.225 66.0077 438.138 65.8164C444.452 65.2424 450.191 58.1633 450.191 51.0842V36.9261V36.5434C449.809 28.699 443.304 22.3853 435.268 22.3853H419.962C412.117 22.3853 405.612 28.5077 405.038 36.5434V37.3087V51.0842C405.038 59.3113 411.735 66.0077 419.962 66.0077H422.832L426.658 70.0256Z" fill="#FF5000"/>
<path d="M383.992 22.5765H361.224C356.059 22.5765 351.849 26.7857 351.849 31.9515H361.224H383.992C384.949 31.9515 385.906 32.7168 385.906 33.8647V59.8852C385.906 65.051 390.115 69.2602 395.281 69.2602V59.8852V33.8647C395.472 27.7423 390.306 22.5765 383.992 22.5765Z" fill="#FF5000"/>
<path d="M361.416 48.9797H370.791H380.166C380.166 43.8139 375.957 39.6047 370.791 39.6047H361.416H352.041V66.0077H361.416V48.9797Z" fill="#FF5000"/>
</g>
<defs>
<clipPath id="clip0_402_7383">
<rect width="450" height="73.852" fill="white"/>
</clipPath>
</defs>
</svg>
