<svg width="716" height="240" viewBox="0 0 716 240" fill="none" xmlns="http://www.w3.org/2000/svg">
<path d="M273.656 74.0382H265.63C264.967 74.0382 264.43 73.5009 264.43 72.8382V65.9417C264.43 65.2789 264.967 64.7417 265.63 64.7417H281.763C282.426 64.7417 282.963 65.2789 282.963 65.9417V83.5585C282.963 83.877 282.838 84.1841 282.606 84.4017C280.801 86.0902 278.433 87.4929 275.502 88.544C272.453 89.666 269.564 90.2269 266.676 90.2269C259.375 90.2269 253.678 88.2234 249.587 84.1361C245.495 80.129 243.489 74.6793 243.489 67.787C243.489 61.3756 245.495 56.0862 249.506 51.8386C253.518 47.511 258.894 45.4272 265.473 45.4272C270.775 45.4272 275.243 46.7465 278.877 49.3201C279.347 49.6536 279.481 50.286 279.214 50.7978L276.257 56.4788C275.883 57.1977 274.906 57.3528 274.233 56.9006C273.524 56.4235 272.684 55.9862 271.731 55.6054C270.046 54.9643 268.361 54.6436 266.676 54.6436C262.825 54.6436 259.776 55.7657 257.449 58.0097C255.123 60.2537 253.999 63.5395 253.999 67.7069C253.999 71.714 255.203 74.9197 257.53 77.2439C259.856 79.6482 262.985 80.7702 266.837 80.7702C267.96 80.7702 269.324 80.5297 270.768 80.129C272.132 79.6481 273.095 79.1673 273.656 78.6063V74.0382Z" fill="#E30613"/>
<path d="M296.904 88.6708C296.722 89.127 296.28 89.4264 295.789 89.4264H288.455C287.598 89.4264 287.017 88.5549 287.347 87.7644L304.398 46.8873C304.585 46.4404 305.022 46.1493 305.506 46.1493H312.732C313.216 46.1493 313.653 46.4404 313.84 46.8873L330.891 87.7644C331.22 88.5549 330.64 89.4264 329.783 89.4264H321.807C321.316 89.4264 320.874 89.127 320.692 88.6708L317.383 80.3703H300.213L296.904 88.6708ZM313.692 71.0737L308.878 58.8119L303.984 71.0737H313.692Z" fill="#E30613"/>
<path d="M347.63 89.4264H338.962C338.299 89.4264 337.762 88.8891 337.762 88.2264V47.3493C337.762 46.6866 338.299 46.1493 338.962 46.1493H347.102C347.485 46.1493 347.844 46.3314 348.07 46.6397L361.109 64.4219L373.348 46.6682C373.572 46.3433 373.941 46.1493 374.336 46.1493H381.893C382.555 46.1493 383.093 46.6866 383.093 47.3493V88.2264C383.093 88.8891 382.555 89.4264 381.893 89.4264H374.424C373.761 89.4264 373.224 88.8891 373.224 88.2264V61.8573L361.439 78.4212C360.962 79.091 359.968 79.0942 359.488 78.4275L347.711 62.0977V89.3462C347.711 89.3905 347.675 89.4264 347.63 89.4264Z" fill="#E30613"/>
<path d="M421.203 88.2264C421.203 88.8891 420.666 89.4264 420.003 89.4264H396.087C395.424 89.4264 394.887 88.8891 394.887 88.2264V47.3493C394.887 46.6866 395.424 46.1493 396.087 46.1493H419.361C420.024 46.1493 420.561 46.6866 420.561 47.3493V54.2458C420.561 54.9086 420.024 55.4458 419.361 55.4458H404.755V63.0594H417.516C418.179 63.0594 418.716 63.5967 418.716 64.2594V71.156C418.716 71.8188 418.179 72.356 417.516 72.356H404.755V80.21H420.003C420.666 80.21 421.203 80.7472 421.203 81.41V88.2264Z" fill="#E30613"/>
<path d="M251.327 153.702C251.145 154.158 250.704 154.458 250.213 154.458H242.878C242.021 154.458 241.441 153.586 241.77 152.796L258.822 111.919C259.008 111.472 259.445 111.181 259.929 111.181H267.155C267.64 111.181 268.076 111.472 268.263 111.919L285.314 152.796C285.644 153.586 285.063 154.458 284.206 154.458H276.23C275.739 154.458 275.297 154.158 275.115 153.702L271.806 145.402H254.636L251.327 153.702ZM268.035 136.105L263.221 123.843L258.327 136.105H268.035Z" fill="#E30613"/>
<path d="M317.699 139.069H309.672C309.01 139.069 308.472 138.532 308.472 137.869V130.973C308.472 130.31 309.01 129.773 309.672 129.773H325.806C326.469 129.773 327.006 130.31 327.006 130.973V148.59C327.006 148.908 326.881 149.215 326.648 149.433C324.844 151.121 322.476 152.524 319.544 153.575C316.496 154.697 313.607 155.258 310.719 155.258C303.418 155.258 297.721 153.255 293.629 149.167C289.537 145.16 287.532 139.711 287.532 132.818C287.532 126.407 289.538 121.117 293.549 116.87C297.561 112.542 302.936 110.458 309.515 110.458C314.817 110.458 319.285 111.778 322.919 114.351C323.39 114.685 323.523 115.317 323.257 115.829L320.3 121.51C319.925 122.229 318.949 122.384 318.276 121.932C317.566 121.455 316.726 121.017 315.773 120.637C314.089 119.996 312.404 119.675 310.719 119.675C306.868 119.675 303.819 120.797 301.492 123.041C299.165 125.285 298.042 128.571 298.042 132.738C298.042 136.745 299.246 139.951 301.572 142.275C303.899 144.679 307.028 145.801 310.879 145.801C312.002 145.801 313.366 145.561 314.811 145.16C316.175 144.679 317.137 144.199 317.699 143.638V139.069Z" fill="#E30613"/>
<path d="M363.351 139.069H355.324C354.662 139.069 354.124 138.532 354.124 137.869V130.973C354.124 130.31 354.662 129.773 355.324 129.773H371.458C372.121 129.773 372.658 130.31 372.658 130.973V148.59C372.658 148.908 372.533 149.215 372.3 149.433C370.496 151.121 368.128 152.524 365.196 153.575C362.148 154.697 359.259 155.258 356.371 155.258C349.07 155.258 343.373 153.255 339.281 149.167C335.19 145.16 333.184 139.711 333.184 132.818C333.184 126.407 335.19 121.117 339.201 116.87C343.213 112.542 348.588 110.458 355.167 110.458C360.469 110.458 364.937 111.778 368.571 114.351C369.042 114.685 369.176 115.317 368.909 115.829L365.952 121.51C365.577 122.229 364.601 122.384 363.928 121.932C363.218 121.455 362.379 121.017 361.425 120.637C359.741 119.996 358.056 119.675 356.371 119.675C352.52 119.675 349.471 120.797 347.144 123.041C344.817 125.285 343.694 128.571 343.694 132.738C343.694 136.745 344.898 139.951 347.224 142.275C349.551 144.679 352.68 145.801 356.531 145.801C357.655 145.801 359.019 145.561 360.463 145.16C361.827 144.679 362.789 144.199 363.351 143.638V139.069Z" fill="#E30613"/>
<path d="M391.834 139.31V153.257C391.834 153.92 391.296 154.457 390.633 154.457H383.165C382.502 154.457 381.965 153.92 381.965 153.257V112.38C381.965 111.718 382.502 111.181 383.165 111.18C385.186 111.178 387.411 111.167 389.747 111.1C392.556 111.02 394.882 111.02 396.647 111.02C407.318 111.02 412.694 115.668 412.694 124.885C412.694 130.815 410.287 134.983 405.393 137.387L416.578 152.545C417.163 153.337 416.597 154.457 415.612 154.457H406.582C406.189 154.457 405.821 154.265 405.596 153.942L395.444 139.31H391.834ZM396.166 120.317C396.086 120.317 395.925 120.317 395.604 120.317C395.283 120.317 394.722 120.397 394.08 120.397C393.358 120.397 392.636 120.397 391.834 120.397V130.014H395.444C399.937 130.014 402.183 128.331 402.183 124.965C402.183 121.92 400.178 120.317 396.166 120.317Z" fill="#E30613"/>
<path d="M450.563 153.258C450.563 153.92 450.026 154.458 449.363 154.458H425.447C424.785 154.458 424.247 153.92 424.247 153.258V112.381C424.247 111.718 424.785 111.181 425.447 111.181H448.722C449.384 111.181 449.922 111.718 449.922 112.381V119.277C449.922 119.94 449.384 120.477 448.722 120.477H434.116V128.091H446.876C447.539 128.091 448.076 128.628 448.076 129.291V136.187C448.076 136.85 447.539 137.387 446.876 137.387H434.116V145.241H449.363C450.026 145.241 450.563 145.778 450.563 146.441V153.258Z" fill="#E30613"/>
<path d="M487.47 139.069H479.444C478.781 139.069 478.244 138.532 478.244 137.869V130.973C478.244 130.31 478.781 129.773 479.444 129.773H495.577C496.24 129.773 496.777 130.31 496.777 130.973V148.59C496.777 148.908 496.652 149.215 496.42 149.433C494.615 151.121 492.247 152.524 489.316 153.575C486.267 154.697 483.378 155.258 480.49 155.258C473.189 155.258 467.492 153.255 463.401 149.167C459.309 145.16 457.303 139.711 457.303 132.818C457.303 126.407 459.309 121.117 463.32 116.87C467.332 112.542 472.708 110.458 479.287 110.458C484.589 110.458 489.057 111.778 492.691 114.351C493.161 114.685 493.295 115.317 493.028 115.829L490.071 121.51C489.697 122.229 488.72 122.384 488.047 121.932C487.338 121.455 486.498 121.017 485.545 120.637C483.86 119.996 482.175 119.675 480.49 119.675C476.639 119.675 473.59 120.797 471.263 123.041C468.937 125.285 467.813 128.571 467.813 132.738C467.813 136.745 469.017 139.951 471.344 142.275C473.67 144.679 476.799 145.801 480.651 145.801C481.774 145.801 483.138 145.561 484.582 145.16C485.946 144.679 486.909 144.199 487.47 143.638V139.069Z" fill="#E30613"/>
<path d="M510.798 153.702C510.616 154.158 510.175 154.458 509.683 154.458H502.349C501.492 154.458 500.912 153.586 501.241 152.796L518.292 111.919C518.479 111.472 518.916 111.181 519.4 111.181H526.626C527.11 111.181 527.547 111.472 527.734 111.919L544.785 152.796C545.115 153.586 544.534 154.458 543.677 154.458H535.701C535.21 154.458 534.768 154.158 534.586 153.702L531.277 145.402H514.107L510.798 153.702ZM527.506 136.105L522.692 123.843L517.798 136.105H527.506Z" fill="#E30613"/>
<path d="M556.309 120.477H544.512C543.849 120.477 543.312 119.94 543.312 119.277V112.381C543.312 111.718 543.849 111.181 544.512 111.181H577.976C578.638 111.181 579.176 111.718 579.176 112.381V119.277C579.176 119.94 578.638 120.477 577.976 120.477H566.178V153.258C566.178 153.92 565.641 154.458 564.978 154.458H557.509C556.847 154.458 556.309 153.92 556.309 153.258V120.477Z" fill="#E30613"/>
<path d="M581.021 132.818C581.021 126.407 583.107 121.117 587.359 116.87C591.692 112.542 597.228 110.458 604.048 110.458C610.787 110.458 616.323 112.462 620.575 116.549C624.908 120.637 627.074 126.086 627.074 132.818C627.074 139.31 624.908 144.679 620.495 148.927C616.163 153.094 610.707 155.258 604.048 155.258C597.308 155.258 591.772 153.255 587.44 149.167C583.187 145 581.021 139.55 581.021 132.818ZM591.612 132.818C591.612 136.505 592.815 139.63 595.302 142.195C597.709 144.679 600.678 145.962 604.128 145.962C608.059 145.962 611.188 144.76 613.354 142.275C615.521 139.791 616.644 136.585 616.644 132.818C616.644 128.891 615.441 125.766 613.034 123.362C610.627 120.957 607.658 119.675 604.128 119.675C600.517 119.675 597.469 120.877 595.142 123.362C592.735 125.766 591.612 128.971 591.612 132.818Z" fill="#E30613"/>
<path d="M645.688 139.31V153.257C645.688 153.92 645.151 154.457 644.488 154.457H637.02C636.357 154.457 635.82 153.92 635.82 153.257V112.38C635.82 111.718 636.357 111.181 637.019 111.18C639.041 111.178 641.266 111.167 643.602 111.1C646.41 111.02 648.737 111.02 650.502 111.02C661.173 111.02 666.548 115.668 666.548 124.885C666.548 130.815 664.142 134.983 659.247 137.387L670.432 152.545C671.017 153.337 670.451 154.457 669.467 154.457H660.437C660.044 154.457 659.675 154.265 659.451 153.942L649.299 139.31H645.688ZM650.021 120.317C649.94 120.317 649.78 120.317 649.459 120.317C649.138 120.317 648.576 120.397 647.935 120.397C647.212 120.397 646.49 120.397 645.688 120.397V130.014H649.299C653.792 130.014 656.038 128.331 656.038 124.965C656.038 121.92 654.032 120.317 650.021 120.317Z" fill="#E30613"/>
<path fill-rule="evenodd" clip-rule="evenodd" d="M120.359 84.7766L118.198 81.0351C113.084 72.1852 101.775 69.1633 92.9153 74.2718L54.9549 96.2167C46.0951 101.325 43.0698 112.621 48.184 121.471L70.8017 160.541C75.9159 169.39 87.2248 172.412 96.0846 167.304L116.541 155.504L112.868 153.345C109.987 151.691 107.538 149.604 105.521 147.158L89.8179 156.223C87.0807 157.806 83.4792 156.871 81.8945 154.137L59.2768 115.068C57.6921 112.334 58.6285 108.736 61.3657 107.153L99.326 85.2083C102.063 83.6254 105.665 84.5607 107.249 87.2949L113.084 97.3679L120.359 84.7766Z" fill="#FBBA00"/>
<path d="M99.5419 109.456C103.361 109.456 106.457 106.363 106.457 102.548C106.457 98.7336 103.361 95.6411 99.5419 95.6411C95.7229 95.6411 92.627 98.7336 92.627 102.548C92.627 106.363 95.7229 109.456 99.5419 109.456Z" fill="#FBBA00"/>
<path d="M76.3481 122.479C80.1671 122.479 83.2631 119.386 83.2631 115.571C83.2631 111.757 80.1671 108.664 76.3481 108.664C72.529 108.664 69.4331 111.757 69.4331 115.571C69.4331 119.386 72.529 122.479 76.3481 122.479Z" fill="#FBBA00"/>
<path d="M89.8183 145.719C93.6373 145.719 96.7333 142.626 96.7333 138.811C96.7333 134.997 93.6373 131.904 89.8183 131.904C85.9993 131.904 82.9033 134.997 82.9033 138.811C82.9033 142.626 85.9993 145.719 89.8183 145.719Z" fill="#FBBA00"/>
<path fill-rule="evenodd" clip-rule="evenodd" d="M169.629 154.209L192.246 115.14C193.831 112.406 192.895 108.808 190.157 107.225L152.197 85.2802C149.46 83.6973 145.858 84.6327 144.274 87.3668L121.656 126.436C120.071 129.17 121.008 132.768 123.745 134.351L161.705 156.296C164.514 157.878 168.044 156.943 169.629 154.209ZM203.267 121.471C208.381 112.621 205.356 101.325 196.496 96.2167L158.536 74.2718C149.676 69.1633 138.367 72.1852 133.253 81.0351L110.635 120.104C105.521 128.954 108.546 140.25 117.406 145.359L155.366 167.304C164.226 172.412 175.535 169.39 180.649 160.541L203.267 121.471Z" fill="#E30613"/>
<path d="M178.056 121.687C174.383 122.694 170.565 120.464 169.557 116.795C168.548 113.125 170.781 109.312 174.455 108.304C178.128 107.297 181.946 109.527 182.954 113.197C183.963 116.866 181.73 120.68 178.056 121.687Z" fill="#E30613"/>
<path d="M158.752 127.515C155.078 128.523 151.26 126.292 150.252 122.623C149.243 118.953 151.476 115.14 155.15 114.132C158.824 113.125 162.641 115.356 163.65 119.025C164.586 122.695 162.425 126.508 158.752 127.515Z" fill="#E30613"/>
<path d="M139.376 133.343C135.702 134.351 131.884 132.12 130.876 128.451C129.867 124.781 132.1 120.968 135.774 119.96C139.448 118.953 143.265 121.184 144.274 124.853C145.282 128.594 143.121 132.336 139.376 133.343Z" fill="#E30613"/>
<path d="M273.167 176.939C271.306 175.144 268.804 174.183 265.787 174.183C262.771 174.183 260.268 175.144 258.343 177.067C256.418 178.926 255.52 181.298 255.52 184.183C255.52 187.195 256.482 189.631 258.407 191.426C260.333 193.221 262.771 194.183 265.787 194.183C268.739 194.183 271.178 193.221 273.103 191.362C274.066 190.401 274.836 189.375 275.285 188.157C275.799 186.939 275.991 185.657 275.991 184.183C276.055 181.17 275.093 178.734 273.167 176.939ZM270.087 188.542C269.06 189.695 267.648 190.272 265.787 190.272C264.183 190.272 262.707 189.76 261.616 188.542C260.461 187.388 260.012 185.849 260.012 184.183C260.012 182.388 260.525 180.913 261.616 179.824C262.707 178.67 264.119 178.157 265.787 178.157C267.392 178.157 268.804 178.734 269.895 179.824C270.986 180.913 271.563 182.388 271.563 184.183C271.627 185.913 271.114 187.388 270.087 188.542Z" fill="#1D1D1B"/>
<path d="M288.954 182.837H283.5V178.414H289.789C290.11 178.414 290.366 178.157 290.366 177.837V175.016C290.366 174.696 290.11 174.439 289.789 174.439H279.842C279.521 174.439 279.264 174.696 279.264 175.016V193.221C279.264 193.542 279.521 193.798 279.842 193.798H282.922C283.243 193.798 283.5 193.542 283.5 193.221V186.747H288.954C289.275 186.747 289.532 186.491 289.532 186.17V183.35C289.468 183.093 289.211 182.837 288.954 182.837Z" fill="#1D1D1B"/>
<path d="M298.131 178.414V193.221C298.131 193.542 298.388 193.798 298.709 193.798H301.789C302.11 193.798 302.367 193.542 302.367 193.221V178.414H307.693C308.014 178.414 308.271 178.157 308.271 177.837V175.016C308.271 174.696 308.014 174.439 307.693 174.439H292.869C292.548 174.439 292.292 174.696 292.292 175.016V177.837C292.292 178.157 292.548 178.414 292.869 178.414H298.131Z" fill="#1D1D1B"/>
<path d="M315.587 185.849C316.549 186.298 317.255 186.747 317.768 187.195C318.282 187.644 318.539 188.093 318.539 188.542C318.539 189.054 318.346 189.439 317.961 189.76C317.64 190.016 317.127 190.208 316.549 190.208C315.779 190.208 315.009 190.016 314.175 189.695C313.661 189.439 313.148 189.118 312.763 188.67C312.506 188.477 312.185 188.478 311.993 188.734L310.26 190.785C310.132 190.977 310.068 191.234 310.196 191.426C310.645 192.195 311.415 192.772 312.506 193.285C313.726 193.862 315.073 194.118 316.485 194.118C318.41 194.118 319.95 193.606 321.17 192.516C322.197 191.747 322.902 190.529 323.031 189.247C323.159 187.901 322.967 186.811 322.453 185.913C322.068 185.144 321.555 184.631 320.977 184.183C320.4 183.734 319.758 183.349 319.052 182.965C318.346 182.58 317.704 182.26 317.063 182.067C316.485 181.811 315.907 181.49 315.522 181.042C315.137 180.657 314.881 180.144 314.881 179.631C314.881 179.119 315.073 178.734 315.458 178.478C315.843 178.221 316.357 178.029 316.998 178.029C317.64 178.029 318.154 178.093 318.603 178.349C318.859 178.477 319.18 178.67 319.501 178.926C319.758 179.119 320.079 179.054 320.271 178.798L321.876 176.554C322.068 176.298 322.004 175.977 321.811 175.849C320.528 174.76 318.795 174.183 316.613 174.183C314.752 174.183 313.276 174.695 312.121 175.785C310.966 176.875 310.453 178.157 310.453 179.695C310.453 180.401 310.517 181.042 310.773 181.618C311.03 182.195 311.287 182.708 311.608 183.093C311.929 183.477 312.314 183.862 312.827 184.247C313.34 184.631 313.79 184.888 314.175 185.144C314.56 185.401 315.073 185.593 315.587 185.849Z" fill="#1D1D1B"/>
<path d="M334.454 193.414L338.432 180.914L342.475 193.414C342.54 193.67 342.732 193.798 342.989 193.798H346.262C346.518 193.798 346.711 193.606 346.775 193.414L351.909 175.209C352.037 174.888 351.717 174.504 351.396 174.504H348.508C348.251 174.504 348.059 174.696 347.994 174.888L344.657 187.196L340.871 174.888C340.807 174.632 340.614 174.504 340.358 174.504H336.892C336.636 174.504 336.443 174.632 336.379 174.888L332.721 187.196L329.448 174.888C329.384 174.632 329.191 174.504 328.935 174.504H325.277C324.892 174.504 324.635 174.824 324.763 175.209L330.154 193.414C330.218 193.67 330.411 193.798 330.667 193.798H333.94C334.197 193.798 334.389 193.67 334.454 193.414Z" fill="#1D1D1B"/>
<path d="M355.696 193.798H358.776C359.097 193.798 359.354 193.542 359.354 193.221V175.08C359.354 174.76 359.097 174.504 358.776 174.504H355.696C355.375 174.504 355.118 174.76 355.118 175.08V193.286C355.118 193.542 355.375 193.798 355.696 193.798Z" fill="#1D1D1B"/>
<path d="M368.466 185.849C369.429 186.298 370.135 186.747 370.648 187.195C371.162 187.644 371.418 188.093 371.418 188.542C371.418 189.054 371.226 189.439 370.841 189.76C370.52 190.016 370.007 190.208 369.429 190.208C368.659 190.208 367.889 190.016 367.055 189.695C366.541 189.439 366.028 189.118 365.643 188.67C365.386 188.477 365.065 188.478 364.873 188.734L363.14 190.785C363.012 190.977 362.947 191.234 363.076 191.426C363.525 192.195 364.295 192.772 365.386 193.285C366.605 193.862 367.953 194.118 369.365 194.118C371.29 194.118 372.83 193.606 374.05 192.516L374.242 192.324C375.269 191.362 375.911 189.952 375.911 188.542C375.911 187.516 375.718 186.683 375.333 185.913C374.948 185.144 374.435 184.631 373.857 184.183C373.28 183.734 372.638 183.349 371.932 182.965C371.226 182.58 370.584 182.26 369.942 182.067C369.365 181.811 368.787 181.49 368.402 181.042C368.017 180.657 367.761 180.144 367.761 179.631C367.761 179.119 367.953 178.734 368.338 178.478C368.723 178.221 369.237 178.029 369.878 178.029C370.52 178.029 371.033 178.093 371.483 178.349C371.739 178.477 372.06 178.67 372.381 178.926C372.638 179.119 372.959 179.054 373.151 178.798L374.756 176.554C374.948 176.298 374.884 175.977 374.691 175.849C373.408 174.76 371.675 174.183 369.493 174.183C367.632 174.183 366.156 174.695 365.001 175.785C363.846 176.875 363.333 178.157 363.333 179.695C363.333 180.401 363.397 181.042 363.653 181.618C363.91 182.195 364.167 182.708 364.488 183.093C364.809 183.477 365.194 183.862 365.707 184.247C366.22 184.631 366.67 184.888 367.055 185.144C367.44 185.401 367.889 185.593 368.466 185.849Z" fill="#1D1D1B"/>
<path d="M383.291 185.849C384.253 186.298 384.959 186.747 385.473 187.195C385.986 187.644 386.243 188.093 386.243 188.542C386.243 189.054 386.05 189.439 385.665 189.76C385.344 190.016 384.831 190.208 384.253 190.208C383.483 190.208 382.713 190.016 381.879 189.695C381.365 189.439 380.852 189.118 380.467 188.67C380.21 188.477 379.889 188.478 379.697 188.734L377.964 190.785C377.836 190.977 377.772 191.234 377.9 191.426C378.349 192.195 379.119 192.772 380.21 193.285C381.43 193.862 382.777 194.118 384.189 194.118C386.114 194.118 387.654 193.606 388.874 192.516L389.066 192.324C390.093 191.362 390.735 189.952 390.735 188.542C390.735 187.516 390.542 186.683 390.157 185.913C389.772 185.144 389.259 184.631 388.681 184.183C388.104 183.734 387.462 183.349 386.756 182.965C386.05 182.58 385.408 182.26 384.767 182.067C384.189 181.811 383.612 181.49 383.226 181.042C382.841 180.657 382.585 180.144 382.585 179.631C382.585 179.119 382.777 178.734 383.162 178.478C383.547 178.221 384.061 178.029 384.702 178.029C385.344 178.029 385.858 178.093 386.307 178.349C386.564 178.477 386.884 178.67 387.205 178.926C387.462 179.119 387.783 179.054 387.975 178.798L389.58 176.554C389.772 176.298 389.708 175.977 389.516 175.849C388.232 174.76 386.499 174.183 384.317 174.183C382.456 174.183 380.98 174.695 379.825 175.785C378.67 176.875 378.157 178.157 378.157 179.695C378.157 180.401 378.221 181.042 378.478 181.618C378.734 182.195 378.991 182.708 379.312 183.093C379.633 183.477 380.018 183.862 380.531 184.247C381.045 184.631 381.494 184.888 381.879 185.144C382.264 185.401 382.777 185.593 383.291 185.849Z" fill="#1D1D1B"/>
<path d="M245.573 185.849C246.535 186.298 247.241 186.747 247.755 187.195C248.268 187.644 248.525 188.093 248.525 188.542C248.525 189.054 248.332 189.439 247.947 189.76C247.626 190.016 247.113 190.208 246.535 190.208C245.765 190.208 244.995 190.016 244.161 189.695C243.648 189.439 243.134 189.118 242.749 188.67C242.493 188.477 242.172 188.478 241.979 188.734L240.246 190.785C240.118 190.977 240.054 191.234 240.182 191.426C240.631 192.195 241.402 192.772 242.493 193.285C243.712 193.862 245.06 194.118 246.471 194.118C248.397 194.118 249.937 193.606 251.156 192.516L251.349 192.324C252.375 191.362 253.017 189.952 253.081 188.542C253.081 187.516 252.889 186.619 252.504 185.913C252.119 185.144 251.605 184.631 251.028 184.183C250.45 183.734 249.808 183.349 249.102 182.965C248.397 182.58 247.755 182.26 247.113 182.067C246.536 181.811 245.958 181.49 245.573 181.042C245.188 180.657 244.931 180.144 244.931 179.631C244.931 179.119 245.124 178.734 245.509 178.478C245.894 178.221 246.407 178.029 247.049 178.029C247.691 178.029 248.204 178.093 248.653 178.349C248.91 178.477 249.231 178.67 249.552 178.926C249.808 179.119 250.129 179.054 250.322 178.798L251.926 176.554C252.119 176.298 252.054 175.977 251.862 175.849C250.578 174.76 248.846 174.183 246.664 174.183C244.803 174.183 243.327 174.695 242.172 175.785C241.017 176.875 240.503 178.157 240.503 179.695C240.503 180.401 240.567 181.042 240.824 181.618C241.081 182.195 241.337 182.708 241.658 183.093C241.979 183.477 242.364 183.862 242.878 184.247C243.391 184.631 243.84 184.888 244.225 185.144C244.546 185.401 245.059 185.593 245.573 185.849Z" fill="#1D1D1B"/>
</svg>
