<svg width="151" height="44" viewBox="0 0 151 44" fill="none" xmlns="http://www.w3.org/2000/svg">
<rect width="151" height="44" fill="transparent"/>
<path d="M40.8246 11.7373C37.2206 11.7373 34.89 13.5633 34.89 16.6388C34.89 19.7142 36.8842 20.8915 40.4162 21.6604L40.9688 21.7805C43.1312 22.2611 44.2604 22.7416 44.2604 24.1351C44.2604 25.4806 43.1792 26.4417 41.0168 26.4417C38.8544 26.4417 37.5329 25.4326 37.5329 23.4143V23.1741H34.4094V23.4143C34.4094 27.0664 37.1245 29.2288 41.0168 29.2288C44.9092 29.2288 47.3839 27.1145 47.3839 24.039C47.3839 20.9636 45.1014 19.7142 41.5214 18.9454L40.9688 18.8252C38.9025 18.3687 38.0135 17.7921 38.0135 16.5427C38.0135 15.2933 38.9025 14.5244 40.8246 14.5244C42.7468 14.5244 43.9241 15.2933 43.9241 17.2154V17.5998H47.0476V17.2154C47.0476 13.5633 44.4286 11.7373 40.8246 11.7373ZM47.5746 19.4259H50.554V26.2015C50.554 27.8353 51.6112 28.8925 53.1969 28.8925H56.5607V26.4417H54.2541C53.8216 26.4417 53.5814 26.2015 53.5814 25.7209V19.4259H56.849V16.9752H53.5814V13.275H50.554V16.9752H47.5746V19.4259ZM69.9725 28.8925V16.9752H66.9932V18.5849H66.7529C66.0321 17.5518 64.8788 16.6388 62.8125 16.6388C59.9774 16.6388 57.4305 19.0415 57.4305 22.9338C57.4305 26.8261 59.9774 29.2288 62.8125 29.2288C64.8788 29.2288 66.0321 28.3158 66.7529 27.2827H66.9932V28.8925H69.9725ZM63.7256 26.6339C61.8515 26.6339 60.4579 25.2884 60.4579 22.9338C60.4579 20.5792 61.8515 19.2337 63.7256 19.2337C65.5996 19.2337 66.9932 20.5792 66.9932 22.9338C66.9932 25.2884 65.5996 26.6339 63.7256 26.6339ZM71.4505 22.9338C71.4505 26.6339 74.1896 29.2288 77.6495 29.2288C80.9892 29.2288 82.9354 27.2827 83.6081 24.6637L80.6768 23.967C80.4126 25.5047 79.5236 26.5859 77.6975 26.5859C75.8715 26.5859 74.4779 25.2404 74.4779 22.9338C74.4779 20.6272 75.8715 19.2817 77.6975 19.2817C79.5236 19.2817 80.4126 20.435 80.5807 21.8766L83.512 21.2519C82.9834 18.5849 80.9652 16.6388 77.6495 16.6388C74.1896 16.6388 71.4505 19.2337 71.4505 22.9338ZM97.4406 16.9752H92.9716L88.0221 21.348V12.0737H84.9947V28.8925H88.0221V25.0241L89.68 23.6066L93.6204 28.8925H97.3445L91.8424 21.7565L97.4406 16.9752ZM98.2594 20.3149C98.2594 22.6695 100.23 23.5345 102.728 24.015L103.353 24.1351C104.843 24.4235 105.516 24.7839 105.516 25.5527C105.516 26.3216 104.843 26.9223 103.449 26.9223C102.056 26.9223 100.926 26.3456 100.614 24.6157L97.8269 25.3365C98.2354 27.8353 100.326 29.2288 103.449 29.2288C106.477 29.2288 108.447 27.8112 108.447 25.3125C108.447 22.8137 106.429 22.1409 103.738 21.6123L103.113 21.4922C101.863 21.2519 101.191 20.9156 101.191 20.1227C101.191 19.4019 101.815 18.9454 102.969 18.9454C104.122 18.9454 104.939 19.4259 105.227 20.7233L107.966 19.8824C107.39 17.9603 105.636 16.6388 102.969 16.6388C100.134 16.6388 98.2594 17.9603 98.2594 20.3149ZM109.985 33.6978H113.012V27.3547H113.252C113.925 28.3158 115.078 29.2288 117.145 29.2288C119.98 29.2288 122.527 26.8261 122.527 22.9338C122.527 19.0415 119.98 16.6388 117.145 16.6388C115.078 16.6388 113.925 17.5518 113.204 18.5849H112.964V16.9752H109.985V33.6978ZM116.231 26.6339C114.357 26.6339 112.964 25.2884 112.964 22.9338C112.964 20.5792 114.357 19.2337 116.231 19.2337C118.106 19.2337 119.499 20.5792 119.499 22.9338C119.499 25.2884 118.106 26.6339 116.231 26.6339ZM123.38 13.5153C123.38 14.7407 124.317 15.5816 125.518 15.5816C126.72 15.5816 127.657 14.7407 127.657 13.5153C127.657 12.2899 126.72 11.449 125.518 11.449C124.317 11.449 123.38 12.2899 123.38 13.5153ZM127.032 16.9752H124.005V28.8925H127.032V16.9752ZM129.249 16.9752V28.8925H132.277V22.7416C132.277 20.5311 133.358 19.2337 135.208 19.2337C136.842 19.2337 137.755 20.1227 137.755 21.9247V28.8925H140.782V21.7805C140.782 18.8252 138.932 16.7829 136.145 16.7829C133.958 16.7829 132.949 17.744 132.469 18.7531H132.228V16.9752H129.249Z" fill="#2D535A"/>
<path d="M0 35.1171C0 39.0948 4.18188 41.6853 7.74332 39.9138L22.8687 32.39C24.0424 31.8062 24.7844 30.6083 24.7844 29.2975V20.9534L1.64288 32.4649C0.636359 32.9656 0 33.9929 0 35.1171Z" fill="#2D535A"/>
<path d="M0 22.8091C0 27.6308 5.06914 30.7709 9.38621 28.6235L24.7844 20.9641C24.7844 16.1423 19.7151 13.0021 15.398 15.1496L0 22.8091Z" fill="#54C6CC"/>
<path d="M2.2161 21.7068C0.858395 22.3821 -0.103566 23.8187 0.458285 25.2271C1.79955 28.5895 5.84578 30.3846 9.38621 28.6235L24.7844 20.9641C24.7844 16.1423 19.7151 13.0021 15.398 15.1496L2.2161 21.7068Z" fill="#2D535A"/>
<path d="M2.2161 21.7068C0.858395 22.3821 -0.103566 23.8187 0.458285 25.2271C1.79955 28.5895 5.84578 30.3846 9.38621 28.6235L22.5683 22.0664C23.926 21.3911 24.888 19.9545 24.3261 18.546C22.9848 15.1836 18.9385 13.3884 15.398 15.1496L2.2161 21.7068Z" fill="#1E8290"/>
<path d="M0 22.8121L23.3077 11.2182C24.2124 10.7682 24.7844 9.8448 24.7844 8.83432C24.7844 4.77111 20.5126 2.12495 16.8747 3.93462L2.25625 11.2064C0.873945 11.894 0 13.3048 0 14.8487V22.8121Z" fill="#54C6CC"/>
</svg>
