<?xml version="1.0" encoding="UTF-8" standalone="no"?>
<!-- Created with Inkscape (http://www.inkscape.org/) -->

<svg
   xmlns:dc="http://purl.org/dc/elements/1.1/"
   xmlns:cc="http://creativecommons.org/ns#"
   xmlns:rdf="http://www.w3.org/1999/02/22-rdf-syntax-ns#"
   xmlns:svg="http://www.w3.org/2000/svg"
   xmlns="http://www.w3.org/2000/svg"
   xmlns:sodipodi="http://sodipodi.sourceforge.net/DTD/sodipodi-0.dtd"
   xmlns:inkscape="http://www.inkscape.org/namespaces/inkscape"
   version="1.1"
   id="svg3732"
   xml:space="preserve"
   width="309.28"
   height="341.45334"
   viewBox="0 0 309.28 341.45334"
   sodipodi:docname="william-and-mary.svg"
   inkscape:version="0.92.5 (2060ec1f9f, 2020-04-08)"><metadata
     id="metadata3738"><rdf:RDF><cc:Work
         rdf:about=""><dc:format>image/svg+xml</dc:format><dc:type
           rdf:resource="http://purl.org/dc/dcmitype/StillImage" /><dc:title></dc:title></cc:Work></rdf:RDF></metadata><defs
     id="defs3736" /><sodipodi:namedview
     pagecolor="#ffffff"
     bordercolor="#666666"
     borderopacity="1"
     objecttolerance="10"
     gridtolerance="10"
     guidetolerance="10"
     inkscape:pageopacity="0"
     inkscape:pageshadow="2"
     inkscape:window-width="1862"
     inkscape:window-height="1136"
     id="namedview3734"
     showgrid="false"
     inkscape:zoom="2.8056542"
     inkscape:cx="154.64"
     inkscape:cy="170.72667"
     inkscape:window-x="1978"
     inkscape:window-y="27"
     inkscape:window-maximized="1"
     inkscape:current-layer="g3740" /><g
     id="g3740"
     inkscape:groupmode="layer"
     inkscape:label="ink_ext_XXXXXX"
     transform="matrix(1.3333333,0,0,-1.3333333,0,341.45333)"><g
       id="g3742"
       transform="scale(0.1)"><path
         d="m 403.188,887.422 h -12.844 l -117.848,318.998 -103,-318.998 H 155.797 L 62.4883,1188.73 c -8.375,27.39 -14.4102,45.6 -18.1172,54.64 -3.7109,9.04 -8.5625,15.7 -14.5547,19.97 -5.9883,4.29 -15.9297,6.71 -29.8164,7.28 v 13.13 h 145.238 v -13.13 c -17.504,-1.14 -28.726,-3.66 -33.672,-7.56 -4.949,-3.9 -7.418,-9.37 -7.418,-16.4 0,-6.28 3.993,-22.36 11.985,-48.23 l 69.055,-225.418 101.007,310.738 h 15.977 l 113.57,-310.738 59.063,205.448 c 7.8,27.77 11.699,45.94 11.699,54.5 0,25.11 -13.406,37.66 -40.234,37.66 v 13.13 h 105.574 v -13.13 c -15.594,-1.14 -27.203,-6.9 -34.809,-17.26 -7.609,-10.37 -17.219,-35.24 -28.82,-74.62 z M 1943.53,73.8516 h 6.47 c 3.61,0 7.09,0.4101 10.41,1.2304 3.32,0.8086 6.22,2.1172 8.67,3.9375 2.44,1.8125 4.39,4.1602 5.86,7.0821 1.45,2.9179 2.18,6.4179 2.18,10.5 0,6.6484 -2.01,11.8084 -6.04,15.4884 -4.01,3.672 -9.64,5.512 -16.88,5.512 -5.25,0 -9.86,-1.172 -13.83,-3.5 -3.97,-2.332 -7.23,-5.711 -9.79,-10.141 l -11.02,5.59 c 3.72,6.648 8.48,11.578 14.25,14.789 5.78,3.199 12.45,4.808 20.04,4.808 4.9,0 9.5,-0.687 13.83,-2.097 4.3,-1.403 8.1,-3.481 11.37,-6.211 3.26,-2.75 5.86,-6.129 7.79,-10.16 1.92,-4.008 2.88,-8.59 2.88,-13.7308 0,-3.3789 -0.55,-6.5898 -1.66,-9.6172 -1.11,-3.0429 -2.62,-5.7734 -4.55,-8.2304 -1.92,-2.4532 -4.18,-4.5703 -6.74,-6.3828 -2.56,-1.8204 -5.25,-3.1875 -8.04,-4.1094 l 0.52,-0.3594 c 3.5,-0.6914 6.7,-2.0078 9.62,-3.9414 2.92,-1.918 5.43,-4.2891 7.53,-7.0781 2.1,-2.8086 3.74,-5.961 4.9,-9.4492 1.17,-3.5 1.75,-7.1797 1.75,-11.0196 0,-5.7304 -1.05,-10.8125 -3.15,-15.2422 -2.09,-4.4297 -4.96,-8.1601 -8.58,-11.1875 -3.61,-3.04294 -7.81,-5.33981 -12.59,-6.91012 -4.79,-1.58985 -9.87,-2.3711 -15.23,-2.3711 -9.1,0 -17.04,1.98828 -23.8,5.94922 -6.76,3.9609 -11.84,10.3203 -15.22,19.082 l 13.29,4.0196 c 2.1,-5.9532 5.23,-10.3594 9.36,-13.2227 4.14,-2.8476 9.95,-4.2773 17.42,-4.2773 3.49,0 6.83,0.5898 9.98,1.7578 3.15,1.1601 5.92,2.8203 8.31,4.9804 2.39,2.1602 4.26,4.75 5.6,7.7891 1.33,3.0195 2,6.3633 2,9.9727 0,4.6601 -0.86,8.6093 -2.62,11.8203 -1.75,3.207 -4.08,5.789 -6.99,7.7773 -2.92,1.9805 -6.28,3.4102 -10.06,4.293 -3.8,0.8789 -7.74,1.3164 -11.82,1.3164 h -5.42 z m -74.21,16.9687 c 0,3.9688 -0.67,7.5781 -2,10.8517 -1.34,3.277 -3.25,6.07 -5.69,8.398 -2.45,2.328 -5.37,4.18 -8.75,5.52 -3.38,1.34 -7.12,2.012 -11.21,2.012 -4.07,0 -7.81,-0.672 -11.19,-2.012 -3.38,-1.34 -6.3,-3.192 -8.75,-5.52 -2.46,-2.328 -4.35,-5.121 -5.69,-8.398 -1.34,-3.2736 -2.01,-6.8829 -2.01,-10.8517 0,-3.9609 0.67,-7.5781 2.01,-10.8398 1.34,-3.2696 3.23,-6.1016 5.69,-8.4883 2.45,-2.4024 5.37,-4.2305 8.75,-5.5117 3.38,-1.2891 7.12,-1.9297 11.19,-1.9297 4.09,0 7.83,0.6406 11.21,1.9297 3.38,1.2812 6.3,3.1093 8.75,5.5117 2.44,2.3867 4.35,5.2187 5.69,8.4883 1.33,3.2617 2,6.8789 2,10.8398 z m -12.59,-34.4687 -0.35,0.3476 c -1.99,-1.3984 -4.63,-2.4492 -7.97,-3.1484 -3.32,-0.6992 -6.38,-1.0508 -9.18,-1.0508 -5.37,0 -10.36,0.9688 -14.96,2.8906 -4.62,1.918 -8.61,4.5703 -11.99,7.9688 -3.38,3.3789 -6.04,7.3906 -7.96,12.0703 -1.93,4.6601 -2.89,9.8008 -2.89,15.3906 0,5.7188 0.99,10.9177 2.98,15.5777 1.97,4.661 4.78,8.692 8.4,12.071 3.61,3.402 7.87,6.023 12.76,7.89 4.91,1.852 10.27,2.789 16.1,2.789 5.84,0 11.21,-0.937 16.11,-2.789 4.9,-1.867 9.15,-4.488 12.78,-7.89 3.61,-3.379 6.41,-7.41 8.4,-12.071 1.97,-4.66 2.97,-9.8589 2.97,-15.5777 0,-6.8789 -1.02,-12.8906 -3.06,-18.0195 -2.05,-5.1289 -4.58,-10.211 -7.62,-15.2305 L 1837.83,3.14844 h -14.88 z M 1699.22,39.3789 c 0,-3.9687 0.67,-7.5898 2.01,-10.8476 1.35,-3.2696 3.24,-6.1016 5.69,-8.5 2.46,-2.3907 5.37,-4.2227 8.75,-5.5 3.39,-1.2813 7.12,-1.9297 11.2,-1.9297 4.09,0 7.82,0.6484 11.2,1.9297 3.39,1.2773 6.3,3.1093 8.76,5.5 2.44,2.3984 4.34,5.2304 5.68,8.5 1.34,3.2578 2.01,6.8789 2.01,10.8476 0,3.9609 -0.67,7.582 -2.01,10.8399 -1.34,3.2734 -3.24,6.0703 -5.68,8.4101 -2.46,2.332 -5.37,4.1719 -8.76,5.5117 -3.38,1.3399 -7.11,2.0078 -11.2,2.0078 -4.08,0 -7.81,-0.6679 -11.2,-2.0078 -3.38,-1.3398 -6.29,-3.1797 -8.75,-5.5117 -2.45,-2.3398 -4.34,-5.1367 -5.69,-8.4101 -1.34,-3.2579 -2.01,-6.879 -2.01,-10.8399 z m 12.61,34.4727 0.34,-0.3516 c 1.99,1.3984 4.64,2.4492 7.96,3.1484 3.33,0.7032 6.4,1.0508 9.19,1.0508 5.37,0 10.35,-0.9609 14.97,-2.8789 4.6,-1.9297 8.6,-4.5898 11.98,-7.9687 3.39,-3.3828 6.03,-7.4102 7.96,-12.0703 1.93,-4.6719 2.9,-9.8125 2.9,-15.4024 0,-5.7187 -1,-10.9101 -2.98,-15.5703 -1.99,-4.6797 -4.79,-8.6992 -8.4,-12.0898 -3.63,-3.37896 -7.87,-6.00005 -12.78,-7.86724 -4.9,-1.85937 -10.27,-2.80078 -16.1,-2.80078 -5.84,0 -11.2,0.94141 -16.1,2.80078 -4.9,1.86719 -9.16,4.48828 -12.77,7.86724 -3.62,3.3906 -6.42,7.4101 -8.4,12.0898 -1.99,4.6602 -2.98,9.8516 -2.98,15.5703 0,6.8711 1.03,12.8828 3.07,18.0195 2.03,5.1407 4.57,10.2032 7.61,15.2227 l 33.43,54.4299 h 14.86 z M 1630.18,3.14844 h -12.6 V 111.309 l -22.23,-19.6098 -7.87,9.4488 31.49,25.903 h 11.21 z M 1383.61,14.6992 h 24.5 c 9.44,0 17.65,1.4297 24.58,4.2813 6.95,2.8593 12.72,6.6601 17.33,11.3789 4.61,4.7304 8.02,10.1015 10.23,16.1015 2.23,6.0079 3.34,12.2188 3.34,18.6407 0,6.4101 -1.11,12.6172 -3.34,18.6406 -2.21,6.0078 -5.62,11.3789 -10.23,16.0976 -4.61,4.7302 -10.38,8.5122 -17.33,11.3712 -6.93,2.871 -15.14,4.301 -24.58,4.301 h -24.5 z m -12.6,112.3518 h 41.12 c 7.71,0 15.43,-1.281 23.18,-3.852 7.77,-2.57 14.76,-6.449 21.01,-11.64 6.24,-5.188 11.28,-11.6684 15.14,-19.4184 3.85,-7.7617 5.77,-16.7695 5.77,-27.039 0,-10.3907 -1.92,-19.4219 -5.77,-27.1211 -3.86,-7.6992 -8.9,-14.1485 -15.14,-19.3399 C 1450.07,13.4414 1443.08,9.57031 1435.31,7 1427.56,4.42969 1419.84,3.14844 1412.13,3.14844 h -41.12 z M 1264.07,14.6992 h 66.34 V 3.14844 h -78.93 V 127.051 h 76.83 v -11.539 h -64.24 v -42.18 h 60.04 V 61.7813 h -60.04 z m -121.26,57.5821 h 22.4 c 5.6,0 10.35,0.5703 14.27,1.75 3.91,1.1679 7.03,2.707 9.35,4.6289 2.34,1.9296 4.03,4.1992 5.08,6.8281 1.05,2.6211 1.59,5.4531 1.59,8.4805 0,2.9218 -0.54,5.6914 -1.59,8.3122 -1.05,2.629 -2.74,4.938 -5.08,6.93 -2.32,1.969 -5.44,3.519 -9.35,4.641 -3.92,1.089 -8.67,1.66 -14.27,1.66 h -22.4 z m 0,-69.13286 h -12.6 V 127.051 h 38.15 c 12.61,0 22.55,-2.742 29.85,-8.219 7.27,-5.492 10.93,-13.773 10.93,-24.8632 0,-8.629 -2.71,-15.8868 -8.15,-21.7774 -5.42,-5.8906 -13.26,-9.3125 -23.54,-10.2422 l 35.72,-58.80076 h -15.4 l -33.96,57.58206 h -21 z M 1021.54,14.6992 h 66.33 V 3.14844 h -78.93 V 127.051 h 76.83 v -11.539 h -64.23 v -42.18 h 60.02 V 61.7813 h -60.02 z M 930.715,3.14844 H 918.113 V 115.512 h -41.476 v 11.539 h 95.551 V 115.512 H 930.715 Z M 782.316,72.2813 h 22.403 c 5.597,0 10.351,0.5703 14.261,1.75 3.907,1.1679 7.028,2.707 9.364,4.6289 2.332,1.9296 4.023,4.1992 5.074,6.8281 1.051,2.6211 1.574,5.4531 1.574,8.4805 0,2.9218 -0.523,5.6914 -1.574,8.3122 -1.051,2.629 -2.742,4.938 -5.074,6.93 -2.336,1.969 -5.457,3.519 -9.364,4.641 -3.91,1.089 -8.664,1.66 -14.261,1.66 h -22.403 z m 0,-69.13286 H 769.719 V 127.051 h 38.148 c 12.598,0 22.547,-2.742 29.84,-8.219 7.289,-5.492 10.938,-13.773 10.938,-24.8632 0,-8.629 -2.715,-15.8868 -8.141,-21.7774 -5.422,-5.8906 -13.27,-9.3125 -23.535,-10.2422 L 852.668,3.14844 H 837.27 L 803.32,60.7305 H 782.316 Z M 648.445,47.2617 h 53.723 L 675.391,112.359 Z M 630.066,3.14844 H 615.367 L 669.27,127.051 h 12.25 L 735.418,3.14844 H 720.723 L 707.066,35.6992 H 643.719 Z M 488.324,127.051 h 12.598 V 73.332 h 67.547 v 53.719 h 12.605 V 3.14844 H 568.469 V 61.7813 H 500.922 V 3.14844 H 488.324 Z M 449.645,22.7617 c -2.098,-3.1523 -4.692,-6.1328 -7.786,-8.9414 C 438.77,11.0313 435.234,8.60938 431.273,6.57031 427.309,4.51953 423.016,2.92188 418.406,1.75 413.801,0.589844 408.93,0 403.797,0 c -9.219,0 -17.762,1.64063 -25.637,4.89844 -7.871,3.27344 -14.703,7.79296 -20.476,13.56246 -5.774,5.7696 -10.297,12.6289 -13.563,20.5704 -3.266,7.9296 -4.898,16.6171 -4.898,26.0703 0,9.4492 1.632,18.1406 4.898,26.0781 3.266,7.9297 7.789,14.7813 13.563,20.5503 5.773,5.79 12.605,10.309 20.476,13.579 7.875,3.261 16.418,4.89 25.637,4.89 7.703,0 15.398,-1.508 23.101,-4.551 7.696,-3.027 14.29,-8.046 19.778,-15.046 l -11.024,-8.223 c -1.289,1.98 -3.043,3.961 -5.257,5.953 -2.215,1.969 -4.754,3.727 -7.61,5.25 -2.855,1.508 -5.922,2.727 -9.187,3.668 -3.27,0.93 -6.535,1.398 -9.801,1.398 -7.934,0 -15.051,-1.457 -21.352,-4.378 -6.297,-2.918 -11.632,-6.821 -16.007,-11.719 -4.375,-4.9026 -7.735,-10.5822 -10.067,-17.0627 -2.332,-6.4688 -3.496,-13.2695 -3.496,-20.3867 0,-7.1133 1.164,-13.9102 3.496,-20.3828 2.332,-6.4883 5.692,-12.168 10.067,-17.0704 4.375,-4.8867 9.71,-8.8086 16.007,-11.7187 6.301,-2.918 13.418,-4.3789 21.352,-4.3789 3.266,0 6.508,0.289 9.715,0.8789 3.207,0.582 6.355,1.5703 9.449,2.9805 3.09,1.3906 6.008,3.2812 8.746,5.6718 2.742,2.3985 5.281,5.3985 7.617,9.0196 z m 1665.245,498.6993 65.19,109.621 c 10.74,17.906 16.11,30.598 16.11,38.09 0,6.828 -2.84,13.098 -8.54,18.797 -5.7,5.703 -15.87,8.543 -30.52,8.543 v 11.226 h 108.15 v -11.226 c -14.97,-2.114 -27.06,-7.692 -36.25,-16.723 -9.19,-9.039 -20.96,-25.43 -35.28,-49.199 l -74.22,-123.781 v -43.938 c 0,-28.16 0.86,-46.109 2.56,-53.832 1.71,-7.73 5.38,-13.187 10.99,-16.359 5.62,-3.18 16.64,-4.758 33.08,-4.758 v -11.231 h -141.11 v 11.231 h 5.37 c 14.16,0 23.96,1.789 29.42,5.367 5.46,3.582 8.91,9.152 10.37,16.723 1.47,7.57 2.2,25.187 2.2,52.859 v 40.77 l -82.52,135.5 c -16.76,27.339 -27.91,43.66 -33.44,48.949 -5.53,5.281 -15.47,8.09 -29.79,8.422 v 11.226 h 134.28 v -11.226 c -25.06,0 -37.6,-5.703 -37.6,-17.09 0,-4.551 4.15,-13.672 12.45,-27.34 z m -391.92,26.129 c 12.21,0.32 24.82,0.808 37.85,1.461 13.02,0.648 24.32,2.437 33.93,5.371 9.61,2.93 17.37,7.199 23.32,12.816 5.94,5.614 10.62,12.973 14.03,22.094 3.42,9.117 5.13,20.348 5.13,33.688 0,23.281 -5.82,41.91 -17.45,55.91 -11.64,14 -36.99,21 -76.05,21 -6.02,0 -12.94,-0.328 -20.76,-0.981 z m 250.25,-170.899 h -89.11 c -15.79,11.071 -39.96,40.039 -72.51,86.911 -10.42,14.98 -21.24,29.328 -32.47,43.089 -11.23,13.758 -18.96,22.129 -23.2,25.149 -4.23,3.012 -10.83,4.512 -19.77,4.512 h -13.19 v -73.481 c 0,-26.039 0.61,-43.09 1.83,-51.152 1.23,-8.059 4.48,-14.039 9.77,-17.938 5.29,-3.91 15.42,-5.859 30.4,-5.859 h 15.86 v -11.231 h -158.44 v 11.231 h 10.74 c 14.16,0 23.96,1.789 29.42,5.367 5.46,3.582 8.91,9.152 10.37,16.723 1.47,7.57 2.2,25.187 2.2,52.859 v 162.348 c 0,26.371 -0.73,43.371 -2.2,51.031 -1.46,7.648 -4.72,12.941 -9.76,15.871 -5.04,2.93 -15.96,4.391 -32.72,4.391 h -5.61 v 11.226 l 47.36,2.442 c 31.58,1.468 56.64,2.199 75.2,2.199 31.58,0 57.25,-2.93 77.02,-8.789 19.78,-5.86 35.77,-15.469 47.98,-28.809 12.2,-13.34 18.31,-29.293 18.31,-47.851 0,-21.641 -7.97,-40.121 -23.93,-55.418 -15.95,-15.293 -39.39,-24.821 -70.31,-28.563 13.83,-6.679 36.13,-30.769 66.89,-72.269 25.07,-33.688 44.77,-55.75 59.09,-66.16 14.32,-10.411 31.25,-15.961 50.78,-16.598 z m -510.48,133.051 -58.59,141.117 -58.35,-141.117 z m 4.15,-10.98 h -125.73 l -8.54,-21 c -12.7,-30.43 -19.05,-50.293 -19.05,-59.571 0,-9.921 3.39,-17.461 10.14,-22.582 6.75,-5.129 15.41,-7.687 26,-7.687 v -11.231 h -98.39 v 11.231 c 14.65,2.277 25.55,7.437 32.71,15.5 7.17,8.058 15.79,25.019 25.88,50.898 0.82,2.442 4.73,11.879 11.72,28.321 l 96.19,229.738 h 9.52 l 110.6,-262.938 15.14,-34.671 c 3.41,-7.809 8.02,-13.95 13.79,-18.43 5.77,-4.481 14.44,-7.289 26,-8.418 v -11.231 h -130.13 v 11.231 c 15.96,0 26.74,1.18 32.35,3.539 5.62,2.348 8.43,7.039 8.43,14.039 0,3.57 -3.75,14.242 -11.23,31.98 z M 961.824,445.102 1106.1,772.781 h 121.49 v -13.429 h -14.6 c -19.47,0 -32.23,-1.614 -38.26,-4.821 -6.03,-3.211 -10.08,-9.199 -12.12,-17.961 -2.04,-8.761 -3.06,-29.601 -3.06,-62.5 V 479.859 c 0,-31.16 0.77,-51.55 2.33,-61.187 1.56,-9.633 5.5,-16.793 11.83,-21.461 6.32,-4.68 18.44,-7.012 36.36,-7.012 h 17.52 v -13.437 h -189.25 v 13.437 h 14.02 c 16.74,0 28.38,2.141 34.9,6.422 6.52,4.289 10.71,10.949 12.56,20.008 1.85,9.043 2.77,30.133 2.77,63.23 V 731.898 L 945.766,376.762 h -13.731 l -158,355.136 V 500 c 0,-31.738 0.973,-53.34 2.918,-64.828 1.945,-11.492 7.985,-21.57 18.11,-30.223 10.121,-8.668 24.335,-13.59 42.636,-14.75 v -13.437 h -141.64 v 13.437 c 16.933,0.961 30.711,5.59 41.324,13.871 10.609,8.27 17.086,18.442 19.422,30.512 2.34,12.078 3.504,34.469 3.504,67.18 V 674.07 c 0,31.551 -0.926,51.879 -2.778,61.039 -1.847,9.141 -5.742,15.481 -11.679,18.981 -5.942,3.512 -18.934,5.262 -38.993,5.262 h -10.8 v 13.429 H 816.676 Z M 199.242,617.949 c -8.605,18.539 -12.906,35.852 -12.906,51.91 0,18.172 5.352,35.051 16.062,50.641 10.707,15.57 24.336,28.148 40.875,37.719 16.54,9.562 33.711,14.34 51.497,14.34 19.886,0 36.472,-5.5 49.773,-16.489 13.289,-11 19.934,-24.148 19.934,-39.441 0,-11.481 -3.204,-22.098 -9.606,-31.848 -6.414,-9.75 -13.152,-14.64 -20.226,-14.64 -3.446,0 -5.165,1.82 -5.165,5.461 0,1.328 0.954,4.308 2.868,8.898 3.058,7.449 4.59,15 4.59,22.66 0,11.469 -4.688,20.801 -14.055,27.961 -9.375,7.18 -20.656,10.758 -33.852,10.758 -21.226,0 -41.07,-8.738 -59.527,-26.25 -18.457,-17.488 -27.68,-37.539 -27.68,-60.09 0,-10.148 1.336,-18.707 4.016,-25.68 2.676,-6.98 5.117,-11.519 7.32,-13.621 2.192,-2.109 5.305,-3.156 9.32,-3.156 26.391,0 39.586,-7.652 39.586,-22.953 0,-3.828 -1.39,-7.457 -4.156,-10.899 -2.777,-3.441 -6.844,-5.16 -12.195,-5.16 -5.934,0 -13.481,3.91 -22.66,11.75 -9.754,8.422 -19.321,12.621 -28.688,12.621 -12.051,0 -23.48,-5.972 -34.285,-17.921 -10.801,-11.961 -16.203,-26.161 -16.203,-42.598 0,-31.942 15.867,-62.113 47.617,-90.5 31.746,-28.41 71.234,-42.602 118.477,-42.602 44.75,0 83.047,11.129 114.894,33.422 31.836,22.278 47.758,48.899 47.758,79.879 0,20.66 -7.844,38.59 -23.523,53.801 -15.684,15.199 -36.914,22.797 -63.684,22.797 -21.613,0 -40.875,-5.93 -57.805,-17.789 -16.922,-11.86 -25.386,-26.68 -25.386,-44.45 0,-10.718 3.058,-19.511 9.179,-26.39 6.117,-6.891 12.43,-10.328 18.934,-10.328 7.461,0 11.187,4 11.187,12.027 l -0.285,3.449 c -0.195,2.492 -0.289,4.211 -0.289,5.172 0,8.41 2.297,15.352 6.887,20.789 4.59,5.461 10.418,8.18 17.5,8.18 6.687,0 12.523,-2.34 17.496,-7.027 4.969,-4.692 7.461,-11.231 7.461,-19.641 0,-12.063 -4.164,-22.102 -12.477,-30.129 -8.324,-8.031 -18.988,-12.051 -31.988,-12.051 -15.492,0 -28.828,5.5 -40.019,16.489 -11.184,11 -16.782,24.539 -16.782,40.601 0,23.52 9.848,44.938 29.547,64.258 19.695,19.312 55.457,28.973 107.289,28.973 46.473,0 80.223,6.41 101.262,19.23 21.035,12.617 31.555,31.828 31.555,57.648 0,15.29 -4.688,27.872 -14.055,37.719 -9.375,9.852 -21.227,14.781 -35.57,14.781 -7.082,0 -12.383,-1.011 -15.918,-3.011 -3.547,-2.02 -5.313,-5.129 -5.313,-9.328 0,-2.692 1.723,-6.512 5.164,-11.469 4.395,-6.32 6.598,-12.442 6.598,-18.363 0,-7.079 -2.727,-13.297 -8.172,-18.637 -5.457,-5.363 -12.195,-8.043 -20.227,-8.043 -9.562,0 -16.832,3.062 -21.8,9.18 -4.977,6.121 -7.461,13.293 -7.461,21.511 0,13 6.355,24.668 19.082,35 12.711,10.328 28.918,15.489 48.621,15.489 20.269,0 37.144,-7.411 50.633,-22.227 13.476,-14.832 20.222,-32.66 20.222,-53.5 0,-19.703 -5.789,-37.684 -17.351,-53.934 -11.582,-16.257 -26.211,-27.738 -43.899,-34.429 -17.687,-6.699 -42.504,-10.617 -74.437,-11.758 30.597,-21.609 45.898,-49.34 45.898,-83.18 0,-25.441 -9.375,-50.031 -28.113,-73.73 -18.742,-23.719 -41.457,-41.309 -68.129,-52.789 -26.684,-11.473 -59.238,-17.211 -97.68,-17.211 -31.175,0 -56.422,3.398 -75.73,10.179 -19.32,6.79 -37.723,16.692 -55.227,29.692 -17.492,13.008 -31.261,28.93 -41.308,47.769 -10.035,18.829 -15.059,39.059 -15.059,60.68 0,26.391 7.551,48.57 22.664,66.551 15.106,17.969 37.481,29.07 67.125,33.277 z m 1898.148,326.512 120.6,273.929 h 101.57 v -11.23 h -12.21 c -16.27,0 -26.94,-1.35 -31.98,-4.03 -5.05,-2.69 -8.43,-7.69 -10.14,-15.02 -1.7,-7.32 -2.56,-24.74 -2.56,-52.24 V 973.512 c 0,-26.032 0.65,-43.09 1.95,-51.141 1.31,-8.062 4.61,-14.039 9.89,-17.949 5.29,-3.91 15.42,-5.863 30.4,-5.863 h 14.65 v -11.227 h -158.21 v 11.227 h 11.72 c 14,0 23.72,1.8 29.18,5.371 5.45,3.582 8.94,9.16 10.49,16.73 1.55,7.559 2.32,25.18 2.32,52.852 v 210.698 l -131.1,-296.878 h -11.47 L 1940.41,1184.21 V 990.359 c 0,-26.539 0.81,-44.589 2.44,-54.199 1.62,-9.609 6.67,-18.031 15.13,-25.269 8.46,-7.243 20.35,-11.352 35.65,-12.332 v -11.227 h -118.41 v 11.227 c 14.16,0.82 25.67,4.683 34.55,11.601 8.87,6.922 14.28,15.422 16.23,25.512 1.95,10.098 2.93,28.808 2.93,56.148 v 144.05 c 0,26.36 -0.77,43.37 -2.32,51.02 -1.55,7.65 -4.8,12.94 -9.76,15.87 -4.97,2.93 -15.84,4.4 -32.6,4.4 h -9.03 v 11.23 h 100.83 z m -378.88,75.929 -58.6,141.11 -58.35,-141.11 z m 4.15,-10.99 h -125.74 l -8.54,-20.99 c -12.7,-30.441 -19.04,-50.301 -19.04,-59.57 0,-9.93 3.38,-17.461 10.13,-22.59 6.75,-5.121 15.42,-7.691 26,-7.691 v -11.227 h -98.39 v 11.227 c 14.65,2.281 25.55,7.453 32.71,15.5 7.17,8.062 15.79,25.031 25.88,50.91 0.82,2.441 4.73,11.883 11.72,28.32 l 96.19,229.731 h 9.53 l 110.59,-262.93 15.14,-34.668 c 3.42,-7.82 8.02,-13.961 13.79,-18.442 5.78,-4.48 14.44,-7.281 26,-8.421 v -11.227 h -130.12 v 11.227 c 15.95,0 26.73,1.191 32.34,3.543 5.62,2.359 8.43,7.046 8.43,14.039 0,3.578 -3.75,14.25 -11.23,31.98 z m -389.85,197.76 v 11.23 h 151.37 v -11.23 h -7.08 c -16.27,0 -26.94,-1.35 -31.98,-4.03 -5.04,-2.69 -8.43,-7.69 -10.13,-15.02 -1.71,-7.32 -2.57,-24.74 -2.57,-52.24 V 973.512 c 0,-26.032 0.61,-43.09 1.83,-51.141 1.22,-8.062 4.48,-14.039 9.77,-17.949 5.28,-3.91 15.42,-5.863 30.39,-5.863 h 9.77 v -11.227 h -151.37 v 11.227 h 9.77 c 14.16,0 23.96,1.8 29.42,5.371 5.45,3.582 8.91,9.16 10.37,16.73 1.47,7.559 2.2,25.18 2.2,52.852 v 162.358 c 0,26.36 -0.73,43.37 -2.2,51.02 -1.46,7.65 -4.72,12.94 -9.76,15.87 -5.04,2.93 -15.96,4.4 -32.72,4.4 z m -17.09,-222.422 -2.44,-97.406 h -281.25 v 11.227 h 9.77 c 14.16,0 23.96,1.8 29.42,5.371 5.45,3.582 8.94,9.16 10.49,16.73 1.55,7.559 2.32,25.18 2.32,52.852 v 162.358 c 0,26.36 -0.77,43.37 -2.32,51.02 -1.55,7.65 -4.8,12.94 -9.76,15.87 -4.97,2.93 -15.83,4.4 -32.59,4.4 h -7.33 v 11.23 h 158.94 v -11.23 h -14.65 c -16.28,0 -26.94,-1.35 -31.98,-4.03 -5.05,-2.69 -8.43,-7.69 -10.14,-15.02 -1.7,-7.32 -2.56,-24.74 -2.56,-52.24 V 962.531 c 0,-23.929 0.65,-38.91 1.95,-44.929 1.3,-6.012 4.84,-10.704 10.62,-14.032 5.78,-3.34 18.19,-5.011 37.24,-5.011 h 25.14 c 20.35,0 35.44,1.8 45.29,5.371 9.85,3.582 19.2,11.39 28.08,23.441 8.87,12.051 16.96,31.16 24.29,57.367 z m -302,0 -2.44,-97.406 H 730.027 v 11.227 h 9.77 c 14.156,0 23.961,1.8 29.418,5.371 5.449,3.582 8.945,9.16 10.496,16.73 1.547,7.559 2.32,25.18 2.32,52.852 v 162.358 c 0,26.36 -0.773,43.37 -2.32,51.02 -1.551,7.65 -4.805,12.94 -9.766,15.87 -4.968,2.93 -15.832,4.4 -32.59,4.4 h -7.328 v 11.23 h 158.938 v -11.23 h -14.649 c -16.277,0 -26.941,-1.35 -31.98,-4.03 -5.051,-2.69 -8.426,-7.69 -10.133,-15.02 -1.711,-7.32 -2.562,-24.74 -2.562,-52.24 V 962.531 c 0,-23.929 0.644,-38.91 1.953,-44.929 1.297,-6.012 4.84,-10.704 10.617,-14.032 5.773,-3.34 18.187,-5.011 37.23,-5.011 h 25.149 c 20.344,0 35.437,1.8 45.289,5.371 9.844,3.582 19.199,11.39 28.074,23.441 8.871,12.051 16.969,31.16 24.297,57.367 z M 551.809,1207.16 v 11.23 h 151.367 v -11.23 h -7.082 c -16.278,0 -26.942,-1.35 -31.985,-4.03 -5.046,-2.69 -8.421,-7.69 -10.129,-15.02 -1.71,-7.32 -2.562,-24.74 -2.562,-52.24 V 973.512 c 0,-26.032 0.609,-43.09 1.828,-51.141 1.223,-8.062 4.477,-14.039 9.766,-17.949 5.285,-3.91 15.418,-5.863 30.394,-5.863 h 9.77 V 887.332 H 551.809 v 11.227 h 9.761 c 14.16,0 23.965,1.8 29.422,5.371 5.449,3.582 8.91,9.16 10.375,16.73 1.465,7.559 2.196,25.18 2.196,52.852 v 162.358 c 0,26.36 -0.731,43.37 -2.196,51.02 -1.465,7.65 -4.722,12.94 -9.765,15.87 -5.047,2.93 -15.954,4.4 -32.715,4.4 h -7.078"
         style="fill:#114631;fill-opacity:1;fill-rule:evenodd;stroke:none"
         id="path3744"
         inkscape:connector-curvature="0" /><path
         d="m 1428.69,2199.74 c -38.86,16.5 -80.57,40.25 -124.11,72.77 -42.49,-33.3 -81.93,-84.49 -116.38,-143.11 18.37,-28.05 37.17,-60.07 56.21,-96.61 60.27,93.28 122.46,135.86 170.19,144.68 4.63,7.6 9.32,15.03 14.09,22.27 z m -29.55,-48.67 c -16.82,-6.44 -32.49,-16.62 -47.1,-29.73 0.66,-18.24 1.85,-36.87 3.56,-55.65 13.64,29.26 28.17,58.1 43.54,85.38 z m -103.19,-227.56 c 7.45,19.42 15.39,39.56 23.79,60.03 -5.82,30.42 -10.17,58.84 -13.46,82.92 -15.01,-22.95 -28.5,-48.89 -40.56,-76.3 10.04,-20.9 20.12,-43.09 30.23,-66.65 z m 44.17,-27.81 c -21.03,-62.91 -35.26,-113.81 -40.1,-134.66 -1.01,-4.38 -3.64,-8.14 -8.15,-8.14 -4.5,0 -7.64,3.67 -8.16,8.14 -5.22,44.81 -19.85,104.61 -41.83,168.32 -45.24,-129 -63.37,-265.49 -64.08,-271.52 -0.52,-4.47 -3.6,-8.15 -8.1,-8.15 -4.5,0 -7.67,3.68 -8.19,8.15 -0.71,6.03 -18.85,142.52 -64.08,271.52 -21.98,-63.71 -36.61,-123.51 -41.83,-168.32 -0.52,-4.47 -3.67,-8.14 -8.17,-8.14 -4.5,0 -7.13,3.76 -8.14,8.14 -4.84,20.85 -19.07,71.75 -40.099,134.66 -12.496,-44.78 -28.679,-89.26 -49.753,-127.14 43.742,-28.25 86.152,-61.99 119.042,-82.48 30.38,-18.92 65.37,-38.95 101.17,-56.3 35.81,17.35 70.8,37.38 101.18,56.3 32.89,20.49 75.3,54.23 119.04,82.47 -21.07,37.89 -37.26,82.37 -49.75,127.15 z m -170.47,-281.61 c -9.79,-4.7 -19.54,-9.15 -29.21,-13.3 9.67,-4.41 19.44,-8.9 29.21,-13.33 9.78,4.43 19.55,8.92 29.21,13.33 -9.66,4.15 -19.42,8.6 -29.21,13.3 z m -185.939,451.6 c 1.707,18.78 2.894,37.41 3.555,55.66 -14.602,13.1 -30.282,23.28 -47.098,29.72 15.367,-27.28 29.902,-56.12 43.543,-85.38 z m 49.319,0.77 c -3.3,-24.08 -7.64,-52.5 -13.47,-82.92 8.41,-20.46 16.35,-40.6 23.8,-60.03 10.11,23.56 20.19,45.75 30.23,66.65 -12.07,27.41 -25.55,53.35 -40.56,76.3 z m -108.319,111.01 c 47.727,-8.82 109.919,-51.4 170.189,-144.68 19.04,36.55 37.83,68.56 56.21,96.61 -34.45,58.62 -73.9,109.81 -116.39,143.11 -43.532,-32.52 -85.247,-56.27 -124.103,-72.77 4.77,-7.24 9.465,-14.67 14.094,-22.27 z m 244.939,-81.2 c -18.26,-34.25 -34.84,-70.22 -49.39,-106.06 16.94,-30.78 33.53,-65.84 49.39,-105.64 15.87,39.8 32.46,74.86 49.39,105.64 -14.54,35.84 -31.12,71.81 -49.39,106.06 z m 263.07,-324.52 c 27.24,-49.72 60.88,-82.82 100.2,-86.75 47.53,-4.76 83.69,70.82 22.41,105.92 -32.28,18.49 -76.36,5.28 -122.61,-19.17 z m -195.39,-170.62 c 32.46,-11.47 63.61,-18.67 90.53,-18.67 15.23,0 29.52,9.91 29.88,25.13 0.38,16.21 -16.38,25.54 -32.6,25.8 -15.03,0.25 -48.07,-14.01 -87.81,-32.26 z m -135.36,0 c -39.74,18.25 -72.77,32.51 -87.81,32.26 -16.207,-0.26 -32.976,-9.59 -32.59,-25.8 0.36,-15.22 14.653,-25.13 29.88,-25.13 26.91,0 58.06,7.2 90.52,18.67 z m -195.384,170.62 c -46.246,24.45 -90.328,37.66 -122.606,19.17 -61.281,-35.1 -25.125,-110.68 22.407,-105.92 39.324,3.93 72.957,37.03 100.199,86.75 z m -40.512,429.35 c -40.519,65.84 -84.765,111.97 -128.945,111.97 -39.383,0 -63.149,-27.16 -63.149,-63.14 0,-37.61 70.969,-84.66 192.094,-48.83 z m 123.469,99.13 c -18.367,8.13 -37.141,12.57 -56.184,12.57 -26.132,0 -41.007,-7.52 -41.007,-18.89 0,-10.63 21.226,-14.86 35.578,-14.86 18.304,0 37.187,7.02 61.613,21.18 z m 360.217,0 c 24.43,-14.16 43.31,-21.18 61.62,-21.18 14.35,0 35.58,4.23 35.58,14.86 0,11.37 -14.88,18.89 -41.01,18.89 -19.04,0 -37.82,-4.44 -56.19,-12.57 z m 123.47,-99.13 c 121.13,-35.83 192.1,11.22 192.1,48.83 0,35.98 -23.77,63.14 -63.15,63.14 -44.18,0 -88.42,-46.13 -128.95,-111.97 z m -8.85,-14.8 c -1.91,-3.28 -3.82,-6.6 -5.71,-9.96 37.05,-8.64 66.1,-35.95 66.1,-73.76 0,-74.16 -51.6,-90.3 -98.45,-90.3 -4.5,0 -8.15,3.65 -8.15,8.15 0,4.49 3.65,8.14 8.15,8.14 38.78,0 76.05,19.69 76.05,72.65 0,36.19 -32.14,53.62 -53.6,57.06 -30.31,-56.83 -57.88,-122.37 -80.9,-184.03 12.23,-68.41 31.1,-133.91 55.98,-185.26 31.16,17.15 61.93,29.09 89.38,29.09 51.7,0 104.21,-37.89 96.42,-88.27 -6.09,-39.34 -37.61,-67.53 -77.41,-66.54 -57.3,1.42 -100.4,37.53 -132.93,89.31 -43.35,-26.57 -86.58,-58.6 -122.01,-79.75 -29.72,-17.76 -60.61,-35.26 -91.35,-50.73 10.26,-4.7 20.54,-9.12 30.76,-13.2 44.46,20.03 85.12,36.71 111.15,36.71 24.9,0 51.47,-10.07 54.2,-35.11 3.07,-28.13 -21.61,-42.97 -58.95,-42.29 -31.32,0.57 -66.93,9.87 -104.25,24.38 -9.74,-4.5 -19.75,-9.15 -29.9,-13.79 46.4,-20.49 91.29,-37.75 123.29,-37.75 4.49,0 8.14,-3.65 8.14,-8.15 0,-4.5 -3.67,-8.15 -8.17,-8.15 -34.89,0 -89.24,21.47 -142.57,45.31 -53.32,-23.84 -107.68,-45.31 -142.57,-45.31 -4.5,0 -8.17,3.65 -8.17,8.15 0,4.5 3.65,8.15 8.15,8.15 32,0 76.89,17.26 123.28,37.75 -10.14,4.64 -20.15,9.29 -29.89,13.79 -37.32,-14.51 -72.93,-23.81 -104.25,-24.38 -37.345,-0.68 -62.02,14.16 -58.95,42.29 2.73,25.04 29.297,35.11 54.2,35.11 26.03,0 66.69,-16.68 111.15,-36.71 10.21,4.08 20.49,8.5 30.76,13.2 -30.74,15.47 -61.63,32.97 -91.36,50.73 -35.42,21.15 -78.656,53.18 -122.008,79.75 -32.523,-51.78 -75.621,-87.89 -132.926,-89.31 -39.796,-0.99 -71.324,27.2 -77.406,66.54 -7.793,50.38 44.715,88.27 96.418,88.27 27.453,0 58.223,-11.94 89.383,-29.09 24.879,51.35 43.746,116.85 55.977,185.26 -23.024,61.66 -50.59,127.2 -80.903,184.03 -21.461,-3.44 -53.594,-20.87 -53.594,-57.06 0,-52.96 37.27,-72.65 76.051,-72.65 4.496,0 8.149,-3.65 8.149,-8.14 0,-4.5 -3.653,-8.15 -8.149,-8.15 -46.851,0 -98.457,16.14 -98.457,90.3 0,37.81 29.059,65.12 66.102,73.76 -1.895,3.36 -3.793,6.68 -5.707,9.96 -134.469,-44.03 -226.75,1.58 -226.75,63.63 0,65.18 59.05,82.16 88.949,82.16 60.59,0 115.773,-48.88 164.254,-118.68 36.746,14.71 77.328,36.69 121.277,68.01 -6.13,4.25 -12.32,8.11 -18.56,11.56 -21.948,-14.31 -49.155,-28.48 -76.213,-28.48 -37.328,0 -50.762,19.22 -50.762,29.05 0,10.22 5.297,32.15 56.234,32.15 14.985,0 39.368,-2.77 70.481,-16.79 6.65,4.2 13.69,8.83 21.23,13.92 1.08,0.69 2.21,1.1 3.52,1.1 3.43,0 6.2,-2.79 6.2,-6.22 0,-2.09 -1.04,-3.94 -2.63,-5.06 -4.27,-3.06 -9.17,-6.65 -14.56,-10.47 6.02,-3.17 12.25,-6.77 18.67,-10.82 6.31,4.69 12.68,9.57 19.12,14.66 1.13,0.89 2.65,1.49 4.27,1.49 3.75,0 6.79,-3.05 6.79,-6.8 0,-2.01 -0.82,-3.88 -2.26,-5.07 -5.21,-4.29 -10.4,-8.46 -15.57,-12.51 35.83,-25.08 77.01,-64.59 121.03,-126.53 44.03,61.94 85.21,101.45 121.04,126.53 -5.17,4.05 -10.36,8.22 -15.57,12.51 -1.44,1.19 -2.26,3.06 -2.26,5.07 0,3.75 3.04,6.8 6.79,6.8 1.62,0 3.14,-0.6 4.27,-1.49 6.44,-5.09 12.81,-9.97 19.11,-14.66 6.43,4.05 12.66,7.65 18.68,10.82 -5.39,3.82 -10.29,7.41 -14.56,10.47 -1.6,1.12 -2.64,2.97 -2.64,5.06 0,3.43 2.78,6.22 6.21,6.22 1.31,0 2.44,-0.41 3.52,-1.1 7.53,-5.09 14.58,-9.72 21.23,-13.92 31.11,14.02 55.49,16.79 70.48,16.79 50.93,0 56.23,-21.93 56.23,-32.15 0,-9.83 -13.43,-29.05 -50.76,-29.05 -27.06,0 -54.27,14.17 -76.21,28.48 -6.24,-3.45 -12.43,-7.31 -18.56,-11.56 43.95,-31.32 84.53,-53.3 121.28,-68.01 48.48,69.8 103.66,118.68 164.25,118.68 29.9,0 88.95,-16.98 88.95,-82.16 0,-62.05 -92.28,-107.66 -226.75,-63.63 z m -303.55,346.09 c 0,-4.86 3.96,-8.82 8.82,-8.82 4.87,0 8.83,3.96 8.83,8.82 0,4.87 -3.96,8.83 -8.83,8.83 -4.86,0 -8.82,-3.96 -8.82,-8.83 z m -16.62,-12.9 c -1.96,3.87 -3.07,8.26 -3.07,12.9 0,4.65 1.11,9.03 3.07,12.91 l 15.05,-5.29 2.78,2.78 -5.29,15.04 c 3.88,1.97 8.26,3.08 12.9,3.08 4.65,0 9.03,-1.11 12.91,-3.08 l -5.29,-15.04 2.78,-2.78 15.04,5.29 c 1.97,-3.88 3.08,-8.26 3.08,-12.91 0,-4.64 -1.11,-9.03 -3.08,-12.9 l -15.04,5.29 -2.78,-2.78 5.29,-15.05 c -3.88,-1.97 -8.26,-3.07 -12.91,-3.07 -4.64,0 -9.02,1.1 -12.9,3.07 l 5.29,15.05 -2.78,2.78 z m -100.1,-82.95 c -1.4,-23.13 11.61,-48.31 37.65,-72.96 4.61,0.47 8.24,1.59 11.24,2.98 -35.56,27.83 -43.68,52.07 -44.06,67.76 -0.31,12.81 4.49,24.52 12.84,31.34 6.91,5.64 18.17,7.66 30.12,5.39 14.34,-2.71 42.08,-14.17 68.61,-59.94 l 1.56,1.33 -5.32,15.02 c 3.88,1.97 8.26,3.08 12.9,3.08 4.65,0 9.03,-1.11 12.91,-3.08 l -5.29,-15.05 1.53,-1.3 c 26.53,45.77 54.26,57.23 68.61,59.94 11.95,2.27 23.21,0.25 30.12,-5.39 8.35,-6.82 13.15,-18.53 12.84,-31.34 -0.38,-15.69 -8.5,-39.93 -44.06,-67.76 3,-1.39 6.63,-2.51 11.23,-2.98 26.05,24.65 39.06,49.83 37.65,72.96 -1.08,17.86 -10.7,30.26 -15.19,33.46 -23.2,16.58 -53.47,-0.51 -77.8,-14.25 -13.53,-7.63 -24.21,-13.66 -32.55,-13.66 -8.33,0 -19.01,6.03 -32.54,13.66 -24.33,13.74 -54.6,30.83 -77.8,14.25 -4.49,-3.2 -14.11,-15.6 -15.2,-33.46 z m 134.37,-34.52 c 0,4.87 -3.96,8.83 -8.83,8.83 -4.86,0 -8.82,-3.96 -8.82,-8.83 0,-4.86 3.96,-8.82 8.82,-8.82 4.87,0 8.83,3.96 8.83,8.82 z m 19.69,0 c 0,-4.64 -1.11,-9.02 -3.08,-12.9 l -15.04,5.29 -2.83,-2.82 h 0.07 c 0,0 12.05,-23.52 29.03,-23.52 12.88,0 12.47,6.65 19.27,7.94 -2.53,0.98 -4.33,3.44 -4.33,6.32 0,2.3 1.14,4.33 2.88,5.55 -2,3.12 -4.61,4.98 -6.97,4.98 -3.46,0 -5.91,-3.82 -6.71,-10.47 l -0.57,-0.59 -0.72,0.37 c -4.74,9.71 -3.5,15.31 -1.63,18.3 1.82,2.92 5.05,4.6 8.86,4.6 1.96,0 3.9,-0.45 5.66,-1.3 -3.63,7.8 -6.75,17.28 5.53,28.43 h 0.91 c 12.29,-11.16 9.17,-20.63 5.54,-28.43 1.75,0.85 3.7,1.3 5.66,1.3 3.81,0 7.03,-1.68 8.86,-4.6 1.87,-2.99 3.1,-8.59 -1.63,-18.3 l -0.73,-0.37 -0.56,0.59 c -0.8,6.65 -3.25,10.47 -6.72,10.47 -2.35,0 -4.97,-1.86 -6.97,-4.98 1.75,-1.22 2.89,-3.25 2.89,-5.55 0,-2.94 -1.87,-5.43 -4.48,-6.38 3,-0.69 5.5,-2.66 8.51,-4.85 35.12,26.68 43.01,49.15 43.35,63.42 0.3,12.14 -4.89,20.78 -9.84,24.83 -3.92,3.19 -12.13,5.85 -23.45,3.7 -12.36,-2.34 -35.83,-12.07 -59.55,-50.14 l 5.71,2.02 c 1.97,-3.88 3.08,-8.26 3.08,-12.91 z m -57.03,0 c 0,4.65 1.11,9.03 3.07,12.91 l 5.72,-2.01 c -23.72,38.06 -47.19,47.79 -59.55,50.13 -11.32,2.15 -19.54,-0.51 -23.45,-3.7 -4.95,-4.05 -10.14,-12.69 -9.84,-24.83 0.34,-14.27 8.23,-36.74 43.35,-63.42 3.01,2.19 5.51,4.16 8.51,4.85 -2.61,0.95 -4.48,3.44 -4.48,6.38 0,2.3 1.14,4.33 2.89,5.55 -2,3.12 -4.62,4.98 -6.98,4.98 -3.46,0 -5.91,-3.82 -6.71,-10.47 l -0.56,-0.59 -0.73,0.37 c -4.74,9.71 -3.5,15.31 -1.63,18.3 1.82,2.92 5.05,4.6 8.86,4.6 1.96,0 3.9,-0.45 5.66,-1.3 -3.63,7.8 -6.75,17.28 5.53,28.43 h 0.92 c 12.28,-11.15 9.16,-20.63 5.53,-28.43 1.75,0.85 3.7,1.3 5.66,1.3 3.81,0 7.04,-1.68 8.86,-4.6 1.87,-2.99 3.1,-8.59 -1.63,-18.3 l -0.73,-0.37 -0.56,0.59 c -0.8,6.65 -3.25,10.47 -6.72,10.47 -2.35,0 -4.97,-1.86 -6.97,-4.98 1.75,-1.22 2.89,-3.25 2.89,-5.55 0,-2.88 -1.8,-5.34 -4.34,-6.32 6.81,-1.29 6.4,-7.94 19.28,-7.94 16.97,0 29.03,23.52 29.03,23.52 h 0.07 l -2.82,2.81 -15.06,-5.28 c -1.96,3.88 -3.07,8.26 -3.07,12.9 z m 111.42,-69.25 -0.54,4.13 -0.89,-0.06 c -3.74,0 -6.78,3.04 -6.78,6.79 0,3.45 2.57,6.29 5.9,6.73 l -0.54,4.14 h -80.06 -0.24 -79.81 l -0.54,-4.14 c 3.33,-0.44 5.9,-3.28 5.9,-6.73 0,-3.75 -3.04,-6.79 -6.79,-6.79 l -0.88,0.06 -0.54,-4.13 h 78.04 v 0 h 8.56 v 0 z m -216.58,104.27 c 0.15,2.49 0.45,4.87 0.84,7.14 -1.56,-2.07 -4.24,-3.14 -6.93,-2.52 -3.66,0.84 -5.94,4.49 -5.09,8.14 0.84,3.66 4.49,5.93 8.14,5.09 2.65,-0.61 4.57,-2.7 5.11,-5.2 1.25,4.62 2.94,8.69 4.78,12.19 -2.13,-1.5 -5.03,-1.7 -7.41,-0.27 -3.21,1.93 -4.25,6.1 -2.32,9.32 1.93,3.21 6.1,4.25 9.32,2.32 2.35,-1.41 3.53,-4.02 3.24,-6.58 3.13,4.72 6.3,7.94 8.37,9.56 -2.65,-0.41 -5.4,0.77 -6.87,3.21 -1.93,3.21 -0.89,7.38 2.32,9.32 3.22,1.93 7.39,0.89 9.32,-2.33 1.39,-2.31 1.24,-5.11 -0.15,-7.22 3.87,2.19 7.85,3.71 11.9,4.62 -2.5,0.71 -4.48,2.84 -4.87,5.58 -0.52,3.72 2.07,7.15 5.78,7.67 3.72,0.53 7.15,-2.06 7.67,-5.78 0.38,-2.66 -0.85,-5.17 -2.94,-6.57 4.28,0.41 8.62,0.23 12.96,-0.37 -2.21,1.48 -3.43,4.18 -2.9,6.95 0.72,3.68 4.28,6.08 7.97,5.37 3.68,-0.72 6.08,-4.28 5.36,-7.97 -0.52,-2.69 -2.58,-4.7 -5.09,-5.3 4.28,-0.93 8.56,-2.23 12.78,-3.8 -1.71,1.87 -2.31,4.63 -1.3,7.14 1.41,3.47 5.36,5.15 8.84,3.75 3.48,-1.41 5.16,-5.36 3.75,-8.84 -1,-2.49 -3.31,-4.05 -5.81,-4.23 4.12,-1.74 8.17,-3.69 12.1,-5.7 -1.46,2.03 -1.74,4.79 -0.49,7.15 1.76,3.32 5.87,4.57 9.18,2.81 3.32,-1.76 4.57,-5.87 2.81,-9.18 -1.24,-2.35 -3.66,-3.65 -6.15,-3.6 3.79,-2.04 7.44,-4.1 10.92,-6.06 11.49,-6.49 22.34,-12.61 28.53,-12.61 6.2,0 17.05,6.12 28.54,12.61 3.48,1.96 7.13,4.02 10.92,6.06 -2.51,-0.08 -4.97,1.23 -6.22,3.6 -1.77,3.31 -0.51,7.42 2.8,9.18 3.31,1.76 7.43,0.51 9.19,-2.81 1.26,-2.38 0.96,-5.17 -0.54,-7.21 3.97,2.03 8.05,4 12.21,5.76 -2.53,0.16 -4.86,1.73 -5.88,4.23 -1.4,3.48 0.28,7.43 3.76,8.84 3.47,1.4 7.43,-0.28 8.84,-3.75 1.02,-2.53 0.4,-5.31 -1.34,-7.18 4.24,1.58 8.54,2.89 12.85,3.83 -2.53,0.59 -4.6,2.6 -5.13,5.31 -0.71,3.69 1.69,7.25 5.37,7.97 3.68,0.71 7.25,-1.69 7.96,-5.37 0.54,-2.78 -0.69,-5.49 -2.91,-6.96 4.35,0.61 8.69,0.79 12.97,0.38 -2.08,1.41 -3.31,3.92 -2.93,6.57 0.52,3.72 3.95,6.31 7.66,5.78 3.72,-0.52 6.31,-3.95 5.78,-7.67 -0.38,-2.73 -2.34,-4.85 -4.83,-5.57 4.03,-0.9 7.98,-2.4 11.83,-4.56 -1.35,2.1 -1.49,4.86 -0.11,7.15 1.93,3.22 6.1,4.26 9.31,2.33 3.22,-1.94 4.26,-6.11 2.33,-9.32 -1.45,-2.41 -4.16,-3.6 -6.78,-3.23 2.05,-1.61 5.18,-4.78 8.27,-9.42 -0.24,2.51 0.94,5.07 3.25,6.46 3.21,1.93 7.39,0.89 9.32,-2.32 1.93,-3.22 0.89,-7.39 -2.32,-9.32 -2.34,-1.41 -5.19,-1.23 -7.31,0.2 1.82,-3.45 3.47,-7.45 4.71,-11.98 0.58,2.44 2.47,4.46 5.08,5.06 3.65,0.84 7.3,-1.43 8.14,-5.09 0.84,-3.65 -1.43,-7.3 -5.09,-8.14 -2.64,-0.61 -5.27,0.42 -6.85,2.41 0.39,-2.24 0.68,-4.58 0.83,-7.03 0.11,-1.84 0.14,-3.79 0.07,-5.84 1.23,2.17 3.61,3.58 6.26,3.44 3.75,-0.2 6.63,-3.39 6.43,-7.14 -0.2,-3.74 -3.39,-6.62 -7.14,-6.42 -2.76,0.14 -5.04,1.92 -5.98,4.34 -2.06,-17.55 -11.61,-41.1 -39.98,-67.9 2.06,-21.92 7.43,-29.06 7.43,-33.58 0,-3.75 -3.04,-6.79 -6.79,-6.79 -3.64,0 -88.81,0 -93.98,0 h -0.24 c -5.17,0 -90.09,0 -93.73,0 -3.75,0 -6.79,3.04 -6.79,6.79 0,4.52 5.37,11.66 7.43,33.58 -28.43,26.87 -37.97,50.46 -40,68.03 -0.9,-2.49 -3.22,-4.32 -6.03,-4.47 -3.75,-0.2 -6.94,2.68 -7.14,6.42 -0.2,3.75 2.68,6.94 6.43,7.14 2.71,0.14 5.12,-1.33 6.33,-3.58 -0.07,2.1 -0.04,4.1 0.07,5.98 z m 136.39,62.59 v -18.84 h 18.84 c -1.22,9.83 -9.01,17.62 -18.84,18.84 z m -2.72,-43.29 c 11.08,0 20.23,8.3 21.56,19.02 h -43.12 c 1.34,-10.72 10.48,-19.02 21.56,-19.02 z m -21.56,24.45 h 18.85 v 18.84 c -9.83,-1.22 -17.62,-9.01 -18.85,-18.84 z m 70.45,-130.37 c -3.75,0 -6.79,-3.04 -6.79,-6.79 0,-3.75 3.04,-6.79 6.79,-6.79 3.75,0 6.79,3.04 6.79,6.79 0,3.75 -3.04,6.79 -6.79,6.79 z m -32.59,0 c -3.75,0 -6.79,-3.04 -6.79,-6.79 0,-3.75 3.04,-6.79 6.79,-6.79 3.75,0 6.79,3.04 6.79,6.79 0,3.75 -3.04,6.79 -6.79,6.79 z m -32.59,0 c -3.75,0 -6.79,-3.04 -6.79,-6.79 0,-3.75 3.04,-6.79 6.79,-6.79 3.75,0 6.79,3.04 6.79,6.79 0,3.75 -3.04,6.79 -6.79,6.79 z m -25.8,-6.79 c 0,-3.75 -3.04,-6.79 -6.79,-6.79 -3.75,0 -6.79,3.04 -6.79,6.79 0,3.75 3.04,6.79 6.79,6.79 3.75,0 6.79,-3.04 6.79,-6.79"
         style="fill:#b58a43;fill-opacity:1;fill-rule:evenodd;stroke:none"
         id="path3746"
         inkscape:connector-curvature="0" /></g></g></svg>