<?xml version="1.0" encoding="UTF-8" standalone="no"?>
<svg xmlns:dc="http://purl.org/dc/elements/1.1/" xmlns:cc="http://creativecommons.org/ns#" xmlns:rdf="http://www.w3.org/1999/02/22-rdf-syntax-ns#" xmlns:svg="http://www.w3.org/2000/svg" xmlns="http://www.w3.org/2000/svg" xmlns:sodipodi="http://sodipodi.sourceforge.net/DTD/sodipodi-0.dtd" xmlns:inkscape="http://www.inkscape.org/namespaces/inkscape" width="346" height="37" viewBox="0 0 346 37" class="svg-symbol header__logo" preserveAspectRatio="xMinYMin meet" role="img" aria-label="ZEIT ONLINE" version="1.1" style="border-bottom-color:rgb(29, 29, 27);border-left-color:rgb(29, 29, 27);border-right-color:rgb(29, 29, 27);border-top-color:rgb(29, 29, 27);color:rgb(29, 29, 27);height:38px;outline-color:rgb(29, 29, 27);text-decoration:none solid rgb(29, 29, 27);text-decoration-color:rgb(29, 29, 27);vertical-align:middle;width:347px;column-rule-color:rgb(29, 29, 27);perspective-origin:173.5px 19px;-webkit-text-emphasis-color:rgb(29, 29, 27);-webkit-text-fill-color:rgb(29, 29, 27);-webkit-text-stroke-color:rgb(29, 29, 27);transform-origin:173.5px 19px;fill:rgb(29, 29, 27);caret-color:rgb(29, 29, 27);" id="svg20" sodipodi:docname="svg-symbol header__logo.svg" inkscape:version="0.92.1 r15371">
  <metadata id="metadata26">
    <rdf:RDF>
      <cc:Work rdf:about="">
        <dc:format>image/svg+xml</dc:format>
        <dc:type rdf:resource="http://purl.org/dc/dcmitype/StillImage"/>
      </cc:Work>
    </rdf:RDF>
  </metadata>
  <defs id="defs24"/>
  <sodipodi:namedview pagecolor="#ffffff" bordercolor="#666666" borderopacity="1" objecttolerance="10" gridtolerance="10" guidetolerance="10" inkscape:pageopacity="0" inkscape:pageshadow="2" inkscape:window-width="640" inkscape:window-height="480" id="namedview22" showgrid="false" inkscape:zoom="1.3352601" inkscape:cx="173" inkscape:cy="18.5" inkscape:window-x="0" inkscape:window-y="0" inkscape:window-maximized="0" inkscape:current-layer="svg20"/>
  <title style="border-bottom-color:rgb(29, 29, 27);border-left-color:rgb(29, 29, 27);border-right-color:rgb(29, 29, 27);border-top-color:rgb(29, 29, 27);color:rgb(29, 29, 27);height:auto;outline-color:rgb(29, 29, 27);overflow-x:visible;overflow-y:visible;text-decoration:none solid rgb(29, 29, 27);text-decoration-color:rgb(29, 29, 27);width:auto;column-rule-color:rgb(29, 29, 27);perspective-origin:50% 50%;-webkit-text-emphasis-color:rgb(29, 29, 27);-webkit-text-fill-color:rgb(29, 29, 27);-webkit-text-stroke-color:rgb(29, 29, 27);transform-origin:0px 0px;fill:rgb(29, 29, 27);caret-color:rgb(29, 29, 27);" id="title2">ZEIT ONLINE</title>
  <desc style="border-bottom-color:rgb(29, 29, 27);border-left-color:rgb(29, 29, 27);border-right-color:rgb(29, 29, 27);border-top-color:rgb(29, 29, 27);color:rgb(29, 29, 27);height:auto;outline-color:rgb(29, 29, 27);overflow-x:visible;overflow-y:visible;text-decoration:none solid rgb(29, 29, 27);text-decoration-color:rgb(29, 29, 27);width:auto;column-rule-color:rgb(29, 29, 27);perspective-origin:50% 50%;-webkit-text-emphasis-color:rgb(29, 29, 27);-webkit-text-fill-color:rgb(29, 29, 27);-webkit-text-stroke-color:rgb(29, 29, 27);transform-origin:0px 0px;fill:rgb(29, 29, 27);caret-color:rgb(29, 29, 27);" id="desc4">Nachrichten auf ZEIT ONLINE</desc>
  <path inkscape:connector-curvature="0" id="path6" style="color:#1d1d1b;text-decoration:none;text-decoration-line:none;text-decoration-style:solid;text-decoration-color:#1d1d1b;fill:#1d1d1b" d="m 71.91,32.94 c -1.06,0 -2.82,-1.02 -2.82,-2.61 L 69.1,4.61 c 0,-1.59 1.84,-2.6 2.65,-2.6 0.29,0 0.32,-0.72 0,-0.72 H 60.3 c -0.32,0 -0.28,0.72 0,0.72 0.81,0 2.65,1 2.65,2.6 v 25.71 c 0,1.59 -1.59,2.61 -2.65,2.61 -0.28,0 -0.4,0.81 0,0.81 h 11.61 c 0.4,0.01 0.28,-0.8 0,-0.8 z m -5.19,-1.11 c 0,0.12 -0.1,0.22 -0.21,0.22 h -0.8 c -0.12,0 -0.22,-0.1 -0.22,-0.22 V 3.26 c 0,-0.12 0.1,-0.21 0.22,-0.21 h 0.8 c 0.12,0 0.21,0.1 0.21,0.21 z M 42.13,3.04 c 5.92,0 10.65,2.23 13.71,6.93 0.18,0.27 0.63,0.13 0.53,-0.13 C 56.22,9.46 52.8,1.3 52.8,1.3 H 29.1 c -0.32,0 -0.28,0.72 0,0.72 1.27,0 3.27,1.39 3.27,2.98 v 24.1 c 0,2.31 -1.52,3.84 -3.27,3.84 -0.28,0 -0.32,0.81 0,0.81 h 23.77 l 3.42,-8.12 c 0.12,-0.31 -0.33,-0.62 -0.53,-0.23 -1.34,2.57 -6.38,6.65 -13.01,6.65 H 38.17 V 18.47 h 6.04 c 3.96,0 5.96,2.77 6.51,3.54 0.26,0.36 0.81,0.22 0.6,-0.22 -0.2,-0.44 -2.1,-4.21 -2.1,-4.21 0,0 1.9,-3.77 2.1,-4.21 0.2,-0.44 -0.23,-0.65 -0.46,-0.26 -0.23,0.39 -3.16,3.46 -7.29,3.46 H 38.16 V 3.04 Z m -6.22,28.79 c 0,0.12 -0.1,0.22 -0.21,0.22 h -0.8 c -0.12,0 -0.21,-0.1 -0.21,-0.22 V 3.26 c 0,-0.12 0.1,-0.21 0.21,-0.21 h 0.8 c 0.12,0 0.21,0.1 0.21,0.21 z M 25.79,25.32 c -0.93,1.76 -6.25,6.73 -13.19,6.73 H 7.88 L 26.52,1.3 H 8.96 c -2.1,0 -4.11,-0.17 -4.11,-0.17 0,0 -3.26,7.46 -3.56,8.1 -0.21,0.46 0.26,0.68 0.55,0.19 0.89,-1.5 4.79,-6.38 12.6,-6.38 h 3.98 L 0,33.75 h 22.43 c 0,0 3.6,-7.88 3.77,-8.28 0.17,-0.4 -0.22,-0.51 -0.41,-0.15 z M 4.78,32.05 H 3.8 c -0.12,0 -0.15,-0.1 -0.08,-0.22 L 21.02,3.25 c 0.07,-0.12 0.23,-0.21 0.34,-0.21 h 0.98 c 0.12,0 0.15,0.1 0.08,0.21 L 5.12,31.83 C 5.05,31.95 4.9,32.05 4.78,32.05 Z M 102.05,9.48 C 101.88,9.1 98.62,2.45 98.3,1.62 98,0.82 97.39,1.3 96.84,1.3 H 78.65 c -0.55,0 -1.16,-0.47 -1.46,0.32 -0.32,0.84 -3.2,7.73 -3.37,8.11 -0.17,0.38 0.41,0.7 0.7,0.17 C 75.77,7.64 80,3.04 84.64,3.04 v 27.28 c 0,1.59 -1.59,2.61 -2.65,2.61 -0.28,0 -0.4,0.81 0,0.81 H 93.6 c 0.4,0 0.28,-0.81 0,-0.81 -1.06,0 -2.82,-1.02 -2.82,-2.61 V 3.04 c 4.49,0 9.06,4.42 10.56,6.61 0.34,0.5 0.88,0.21 0.71,-0.17 z M 88.42,31.83 c 0,0.12 -0.1,0.22 -0.21,0.22 h -0.8 c -0.12,0 -0.21,-0.1 -0.21,-0.22 V 3.26 c 0,-0.12 0.1,-0.21 0.21,-0.21 h 0.8 c 0.12,0 0.21,0.1 0.21,0.21 z M 331.74,3.04 c 5.92,0 10.65,2.23 13.71,6.93 0.18,0.27 0.64,0.13 0.53,-0.13 -0.15,-0.38 -3.57,-8.54 -3.57,-8.54 h -23.7 c -0.32,0 -0.28,0.72 0,0.72 1.27,0 3.27,1.39 3.27,2.98 v 24.1 c 0,2.31 -1.52,3.84 -3.27,3.84 -0.28,0 -0.32,0.81 0,0.81 h 23.77 l 3.42,-8.12 c 0.13,-0.31 -0.33,-0.62 -0.53,-0.23 -1.34,2.57 -6.39,6.65 -13.01,6.65 h -4.58 V 18.47 h 6.04 c 3.96,0 5.96,2.77 6.51,3.54 0.26,0.36 0.81,0.22 0.6,-0.22 -0.2,-0.44 -2.1,-4.21 -2.1,-4.21 0,0 1.9,-3.77 2.1,-4.21 0.2,-0.44 -0.23,-0.65 -0.46,-0.26 -0.23,0.39 -3.16,3.46 -7.29,3.46 h -5.41 V 3.04 Z m -6.22,28.79 c 0,0.12 -0.09,0.22 -0.21,0.22 h -0.8 c -0.12,0 -0.21,-0.1 -0.21,-0.22 V 3.26 c 0,-0.12 0.09,-0.21 0.21,-0.21 h 0.8 c 0.12,0 0.21,0.1 0.21,0.21 z m -47.2,1.11 c -1.06,0 -2.82,-1.02 -2.82,-2.61 l 0.01,-25.71 c 0,-1.59 1.84,-2.6 2.65,-2.6 0.28,0 0.32,-0.72 0,-0.72 H 266.7 c -0.32,0 -0.28,0.72 0,0.72 0.82,0 2.65,1 2.65,2.6 v 25.71 c 0,1.59 -1.59,2.61 -2.65,2.61 -0.28,0 -0.4,0.81 0,0.81 h 11.61 c 0.4,0 0.29,-0.81 0.01,-0.81 z m -5.19,-1.11 c 0,0.12 -0.1,0.22 -0.22,0.22 h -0.8 c -0.12,0 -0.21,-0.1 -0.21,-0.22 V 3.26 c 0,-0.12 0.1,-0.21 0.21,-0.21 h 0.8 c 0.12,0 0.22,0.1 0.22,0.21 z M 315.63,1.3 h -9.94 c -0.32,0 -0.28,0.72 0,0.72 2.32,0 3.86,1.09 3.86,6.54 V 23.83 L 290.67,1.3 h -9.01 c -0.32,0 -0.28,0.72 0,0.72 1.6,0 5.08,1.83 5.08,4.54 v 18.31 c 0,6.73 -1.13,8.07 -3.56,8.07 -0.28,0 -0.4,0.81 0,0.81 h 9.49 c 0.4,0 0.28,-0.81 0,-0.81 -2.66,0 -3.73,-1.34 -3.73,-8.07 l 0.01,-16.64 22.82,26.55 -0.01,-26.22 c 0,-5.38 1.66,-6.54 3.87,-6.54 0.28,0 0.32,-0.72 0,-0.72 z m -5.91,26.67 c 0,0.3 -0.9,0.19 -1.01,0.07 L 287.54,3.18 c -0.1,-0.12 -0.09,-0.17 0.03,-0.17 h 1.13 c 0.16,0 0.33,0.19 0.43,0.31 l 20.48,24.02 c 0.1,0.12 0.12,0.25 0.12,0.43 z M 235.45,1.3 h -9.94 c -0.32,0 -0.28,0.72 0,0.72 2.32,0 3.87,1.09 3.87,6.54 V 23.83 L 210.49,1.3 h -9.01 c -0.32,0 -0.28,0.72 0,0.72 1.6,0 5.08,1.83 5.08,4.54 v 18.31 c 0,6.73 -1.12,8.07 -3.56,8.07 -0.28,0 -0.4,0.81 0,0.81 h 9.49 c 0.4,0 0.28,-0.81 0,-0.81 -2.66,0 -3.73,-1.34 -3.73,-8.07 l 0.01,-16.64 22.82,26.55 V 8.56 c 0,-5.38 1.66,-6.54 3.86,-6.54 0.28,0 0.32,-0.72 0,-0.72 z m -5.95,26.74 c 0,0.3 -0.9,0.19 -1.01,0.07 L 207.36,3.18 c -0.1,-0.12 -0.09,-0.17 0.03,-0.17 h 1.13 c 0.16,0 0.33,0.19 0.43,0.31 l 20.43,24.09 c 0.1,0.12 0.12,0.25 0.12,0.43 z M 184,0.51 c -7.59,0 -16.93,5.73 -16.93,17.28 0,10.12 6.4,16.4 16.7,16.4 13.36,0 17.24,-9.84 17.24,-16.68 0,-9.61 -7.36,-17 -17.01,-17 z m -13.9,17.52 c 0,-8.2 5.18,-14.44 8.18,-15.06 -2.66,1.53 -6.99,7.24 -6.83,15.06 0.15,7.32 2.39,10.67 5.66,13.65 -3.27,-2.04 -7.01,-5.48 -7.01,-13.65 z m 3.92,-0.45 c 0,-10.3 5.04,-15.43 9.96,-15.43 5.91,0 10.18,4.84 10.18,14.89 0,10.29 -4.94,15.28 -10.11,15.28 -5.26,0 -10.03,-3.24 -10.03,-14.74 z m 15.79,14.1 c 2.66,-1.53 6.9,-6.76 6.83,-14.58 -0.07,-7.49 -2.38,-11.15 -5.65,-14.13 3.27,2.04 7.01,5.96 7.01,14.13 0,8.2 -5.19,13.95 -8.19,14.58 z m 74.91,-6.64 c -1.34,2.57 -6.2,7.01 -12.82,7.01 h -3.8 l 0.01,-27.44 c 0,-1.59 2.14,-2.6 2.95,-2.6 0.28,0 0.32,-0.72 0,-0.72 h -12.2 c -0.32,0 -0.28,0.72 0,0.72 1.27,0 3.27,1.39 3.27,2.98 v 23.65 c 0,3.07 -1.82,4.3 -3.57,4.3 -0.28,0 -0.32,0.81 0,0.81 h 23.46 c 0,0 3.1,-8.17 3.23,-8.48 0.13,-0.31 -0.33,-0.62 -0.53,-0.23 z m -18.97,6.79 c 0,0.12 -0.1,0.22 -0.21,0.22 h -0.8 c -0.12,0 -0.21,-0.1 -0.21,-0.22 V 3.26 c 0,-0.12 0.1,-0.21 0.21,-0.21 h 0.8 c 0.12,0 0.21,0.1 0.21,0.21 z"/>
  <path inkscape:connector-curvature="0" id="path10" style="color:#1d1d1b;text-decoration:none;text-decoration-line:none;text-decoration-style:solid;text-decoration-color:#1d1d1b;fill:#1d1d1b" d="m 136.35,24.16 c -1.63,0 -2.95,1.29 -2.95,2.88 0,1.59 1.32,2.88 2.95,2.88 1.63,0 2.95,-1.29 2.95,-2.88 -0.01,-1.6 -1.33,-2.88 -2.95,-2.88 z M 133.99,28 c 0,0 -0.42,-1.04 0,-1.94 0.5,1.02 0,1.94 0,1.94 z m 3.33,-3.25 c -1.02,0.49 -1.94,0 -1.94,0 0,0 1.04,-0.42 1.94,0 z m -1.95,4.57 c 0,0 0.92,-0.49 1.94,0 -0.89,0.41 -1.94,0 -1.94,0 z m 2.72,-0.53 c -0.36,0.41 -0.91,-0.16 -1.75,-0.16 -0.84,0 -1.4,0.55 -1.76,0.14 -0.41,-0.36 0.15,-0.89 0.15,-1.74 0,-0.85 -0.55,-1.39 -0.14,-1.75 0.36,-0.41 0.91,0.16 1.75,0.16 0.84,0 1.4,-0.55 1.76,-0.14 0.41,0.36 -0.15,0.89 -0.15,1.74 0,0.85 0.55,1.39 0.14,1.75 z m 0.6,-2.73 c 0.42,0.9 0,1.94 0,1.94 0,0 -0.49,-0.92 0,-1.94 z"/>
  <path inkscape:connector-curvature="0" id="path12" style="color:#1d1d1b;text-decoration:none;text-decoration-line:none;text-decoration-style:solid;text-decoration-color:#1d1d1b;fill:#1d1d1b" d="m 136.35,22.98 c -0.6,0 -1.16,0.12 -1.68,0.34 a 0.94,0.94 0 0 1 -0.2,-0.22 c -0.13,-0.29 -0.36,-0.13 -0.36,-0.13 0,0 -0.15,-0.32 -0.18,-0.56 -0.04,-0.23 -0.27,-0.25 -0.46,-0.06 -0.18,0.19 -0.34,0.25 -0.34,0.25 l -2.7,-2.6 0.84,-0.87 0.37,0.35 -0.6,0.62 1.08,1.04 2.97,-3.08 -1.73,-1.67 -1.15,1.18 0.76,0.74 0.35,-0.37 0.23,0.22 -0.61,0.63 -2.29,-2.21 0.61,-0.63 0.23,0.22 -0.35,0.37 0.65,0.62 1.15,-1.19 -1.73,-1.67 -2.97,3.08 1.08,1.04 0.6,-0.62 0.37,0.35 -0.84,0.86 -1.96,-1.89 c -0.29,-0.28 -0.72,-0.02 -0.95,0.23 -0.23,0.25 -0.46,0.7 -0.17,0.99 l 5.63,5.43 c 0,0 -0.06,0.16 -0.24,0.35 -0.18,0.19 -0.16,0.43 0.07,0.45 0.24,0.03 0.57,0.17 0.57,0.17 0,0 -0.15,0.24 0.14,0.36 0.04,0.01 0.08,0.05 0.12,0.09 -0.29,0.55 -0.45,1.17 -0.45,1.83 0,2.24 1.86,4.05 4.15,4.05 2.29,0 4.15,-1.81 4.15,-4.05 -0.02,-2.22 -1.87,-4.04 -4.16,-4.04 z m -9.58,-4.76 c -0.18,-0.17 -0.16,-0.3 0.07,-0.53 0.11,-0.12 0.26,-0.33 0.51,-0.08 l 2.05,1.98 1.43,-1.49 -0.91,-0.88 -0.64,0.66 -0.52,-0.5 2.38,-2.47 1.2,1.16 -0.55,0.57 -0.19,-0.18 0.32,-0.33 -0.68,-0.65 -1.1,1.14 2.77,2.68 1.1,-1.14 -0.71,-0.68 -0.32,0.33 -0.23,-0.22 0.55,-0.57 1.11,1.07 -2.35,2.44 -0.43,-0.42 0.61,-0.64 -1,-0.97 -1.43,1.49 3.02,2.92 -0.59,0.61 z m 5.99,6.17 c -0.13,-0.16 -0.25,-0.03 -0.35,-0.14 -0.07,-0.07 -0.05,-0.18 0.09,-0.32 0.17,-0.19 0.55,-0.59 0.76,-0.79 0.21,-0.21 0.37,-0.34 0.49,-0.22 0.12,0.12 0.03,0.24 0.19,0.4 0.16,0.16 0.3,-0.08 0.44,0.28 -0.95,0.65 -1.39,1.34 -1.39,1.34 -0.41,-0.24 -0.09,-0.38 -0.23,-0.55 z m 3.59,6.11 c -1.96,0 -3.55,-1.55 -3.55,-3.47 0,-1.91 1.59,-3.47 3.55,-3.47 1.96,0 3.55,1.55 3.55,3.47 -0.01,1.92 -1.6,3.47 -3.55,3.47 z"/>
  <path inkscape:connector-curvature="0" id="path14" style="color:#1d1d1b;text-decoration:none;text-decoration-line:none;text-decoration-style:solid;text-decoration-color:#1d1d1b;fill:#1d1d1b" d="m 160.09,32.24 c 1.04,-0.68 0.81,-1.97 0.81,-1.97 0,0 -0.57,0.4 -1.36,0.55 -0.5,0.1 -0.87,0.85 -0.62,1.46 -0.28,0.21 -0.34,0.55 -0.34,0.55 -0.59,0.25 -1.17,0.25 -1.17,0.25 0.98,-1.88 0.95,-1.95 0.66,-3.18 -0.19,-0.83 -0.27,-1.07 -0.62,-0.99 -0.59,0.13 -0.62,-1.1 -0.1,-1.84 0,0 1.84,1.48 3.73,-0.08 1.83,-1.5 1.31,-4.02 -0.85,-6.23 -2.16,-2.22 -2.33,-3.11 -2.29,-4.47 1.42,0.06 1.59,-1.04 1.46,-1.21 0.99,-0.42 0.55,-1.32 0.55,-1.32 0.36,-0.55 0.17,-1.46 0.17,-1.46 -0.93,-0.06 -1.48,0.28 -1.48,0.28 -0.61,-0.19 -1.08,0.66 -1.08,0.66 -1.17,0.02 -0.78,2.23 -0.78,2.23 0,0 -0.52,1.31 -0.17,2.39 0.93,2.9 2.6,3.68 3.66,5.53 0.43,0.75 0.42,2.18 -0.53,2.54 -0.89,0.34 -1.65,-0.34 -2.12,-2.24 -0.47,-1.9 -0.64,-1.95 -1.76,-3.45 -1.12,-1.5 -1.17,-2.25 -1.25,-3.81 -0.08,-1.55 -0.23,-3.18 -0.23,-3.18 0.25,0.06 0.32,-0.13 0.32,-0.13 -0.47,-0.62 -0.51,-1.36 -0.51,-1.36 0.19,0 0.26,-0.15 0.26,-0.15 -0.57,-0.59 -0.3,-0.76 -0.57,-1.27 0.32,0.02 0.38,-0.23 0.38,-0.23 -0.68,-0.51 -0.61,-0.97 -1.27,-1.72 0.19,0.02 0.3,-0.11 0.3,-0.11 -0.53,-0.64 -0.74,-1.19 -1.76,-1 l -0.28,-0.32 c 0,0 0.82,-0.06 1.21,-0.57 0.4,-0.51 -0.32,-1.02 -0.32,-1.02 0,0 -0.17,0.2 -0.26,0.17 -0.23,-0.08 0.02,-0.34 -0.3,-0.49 -0.26,-0.12 -0.11,-0.62 0.28,-0.55 0.4,0.08 0.1,0.59 0.38,0.68 0.28,0.1 0.39,-0.47 0.65,-0.38 0.15,0.06 0.19,-0.07 0.59,-0.76 0.25,-0.42 -0.15,-0.4 0.1,-0.93 0.18,-0.38 0.23,-0.95 -1.42,-1.19 -0.04,-1.37 -1.31,-0.89 -1.76,-0.93 -0.25,-0.89 -1.06,-1.06 -2.22,-0.96 l -0.09,0.19 c -0.78,-0.04 -1.27,0.15 -1.27,0.15 l 0.06,0.32 c -0.78,-0.08 -1.08,0.45 -1.57,0.55 l 0.1,0.23 c -0.72,0.44 -0.61,0.98 -1.31,1.36 l 0.28,0.29 -0.17,0.3 c -0.76,-0.02 -1.23,0.34 -1.23,0.34 -0.91,-0.13 -1.14,0.76 -1.14,0.76 -0.97,0.17 -1.23,1.25 -1.14,1.69 -0.79,0.25 -0.62,1.19 -0.62,1.19 -0.51,0.23 -0.74,0.97 0.02,1.38 0,0 -0.34,0.87 -1.34,0.46 -1,-0.41 -0.74,-1.14 -0.57,-1.29 0.7,0.57 1.21,0.07 1.14,-0.57 1.04,-0.3 0.76,-1.33 0.76,-1.33 1.27,-0.68 0.47,-2.1 0.47,-2.1 0.57,-0.55 0.02,-1.23 0.02,-1.23 0.02,-0.89 -0.57,-1.71 -0.57,-1.71 -0.91,0.15 -1.25,0.74 -1.25,0.74 -0.97,0.02 -1.17,0.98 -1.17,0.98 -1,0.04 -1.35,0.95 -1.21,1.7 -0.61,0.34 -0.7,1.21 -0.36,1.82 -0.53,0.61 -0.08,1.35 0.51,1.36 0,0 -0.11,0.91 -1.16,0.91 -1.05,0 -1.44,-1.02 -1.17,-1.46 0.78,0.32 1.14,-0.36 0.99,-0.97 0.95,-0.72 0.11,-1.72 0.11,-1.72 0.59,-0.87 0.06,-1.53 -0.53,-2.08 0,-0.57 -0.44,-0.62 -0.44,-0.62 -0.38,-1.04 -1.14,-1.46 -1.14,-1.46 0,0 -0.76,0.42 -1.14,1.46 0,0 -0.44,0.06 -0.44,0.62 -0.59,0.55 -1.12,1.21 -0.53,2.08 0,0 -0.83,1 0.11,1.72 -0.15,0.61 0.21,1.29 0.99,0.97 0.26,0.44 -0.13,1.46 -1.17,1.46 -1.04,0 -1.16,-0.91 -1.16,-0.91 0.59,-0.02 1.04,-0.76 0.51,-1.36 0.34,-0.61 0.25,-1.48 -0.36,-1.82 0.13,-0.76 -0.21,-1.67 -1.21,-1.7 0,0 -0.21,-0.97 -1.17,-0.99 0,0 -0.34,-0.59 -1.25,-0.74 0,0 -0.59,0.81 -0.57,1.7 0,0 -0.55,0.68 0.02,1.23 0,0 -0.8,1.42 0.47,2.1 0,0 -0.28,1.02 0.76,1.33 -0.08,0.64 0.44,1.14 1.14,0.57 0.17,0.15 0.43,0.87 -0.57,1.29 -1,0.42 -1.34,-0.46 -1.34,-0.46 0.76,-0.42 0.53,-1.15 0.02,-1.38 0,0 0.17,-0.95 -0.62,-1.19 0.1,-0.44 -0.17,-1.51 -1.14,-1.69 0,0 -0.23,-0.89 -1.14,-0.76 0,0 -0.47,-0.36 -1.23,-0.34 L 122,3.1 122.28,2.81 c -0.7,-0.38 -0.59,-0.93 -1.31,-1.36 l 0.1,-0.23 C 120.58,1.13 120.27,0.6 119.5,0.67 l 0.06,-0.32 c 0,0 -0.49,-0.19 -1.27,-0.15 L 118.2,0.01 c -1.16,-0.1 -1.97,0.08 -2.22,0.96 -0.46,0.04 -1.72,-0.44 -1.76,0.93 -1.65,0.25 -1.6,0.82 -1.42,1.19 0.25,0.53 -0.15,0.5 0.1,0.93 0.4,0.68 0.44,0.82 0.59,0.76 0.26,-0.1 0.36,0.47 0.64,0.38 0.28,-0.09 -0.02,-0.61 0.38,-0.68 0.4,-0.07 0.54,0.43 0.29,0.55 -0.32,0.15 -0.08,0.42 -0.3,0.49 -0.1,0.03 -0.27,-0.17 -0.27,-0.17 0,0 -0.72,0.51 -0.32,1.02 0.4,0.51 1.21,0.57 1.21,0.57 l -0.28,0.32 c -1.02,-0.19 -1.23,0.36 -1.76,1 0,0 0.11,0.13 0.3,0.11 -0.66,0.76 -0.59,1.21 -1.27,1.72 0,0 0.06,0.25 0.38,0.23 -0.26,0.51 0,0.68 -0.57,1.27 0,0 0.08,0.15 0.27,0.15 0,0 -0.04,0.74 -0.51,1.36 0,0 0.08,0.19 0.32,0.13 0,0 -0.15,1.63 -0.23,3.18 -0.08,1.55 -0.13,2.31 -1.25,3.81 -1.12,1.5 -1.29,1.55 -1.76,3.45 -0.47,1.89 -1.23,2.57 -2.12,2.24 -0.95,-0.36 -0.96,-1.79 -0.53,-2.54 1.06,-1.85 2.73,-2.63 3.66,-5.53 0.35,-1.08 -0.17,-2.39 -0.17,-2.39 0,0 0.4,-2.22 -0.78,-2.23 0,0 -0.47,-0.85 -1.08,-0.66 0,0 -0.55,-0.34 -1.48,-0.28 0,0 -0.19,0.91 0.17,1.46 0,0 -0.44,0.91 0.55,1.32 -0.13,0.17 0.04,1.27 1.46,1.21 0.04,1.36 -0.13,2.25 -2.29,4.47 -2.16,2.22 -2.68,4.73 -0.85,6.23 1.89,1.55 3.73,0.08 3.73,0.08 0.53,0.74 0.49,1.97 -0.1,1.84 -0.35,-0.08 -0.43,0.16 -0.62,0.99 -0.28,1.23 -0.32,1.31 0.66,3.18 0,0 -0.59,0 -1.18,-0.25 0,0 -0.06,-0.34 -0.34,-0.55 0.25,-0.61 -0.12,-1.36 -0.62,-1.46 -0.8,-0.15 -1.36,-0.55 -1.36,-0.55 0,0 -0.23,1.29 0.82,1.97 0,0 -1.21,-0.27 -1.88,0.62 0.78,0.27 0.79,0.82 1.52,1 0.81,0.21 1.21,-0.6 1.21,-0.6 0,0 0.25,0.16 -0.06,0.57 -0.23,0.3 -0.22,0.44 0.15,0.55 2.99,0.89 6.08,0.65 6.08,0.65 0,0 -0.62,0.34 -0.87,1.15 1.29,-0.32 3.62,0.61 5.04,-1.42 0,0 1.65,-0.45 3.94,-0.85 0,0 -0.51,0.3 -0.81,0.83 0,0 2.01,0.99 4.6,-0.51 0.12,-0.07 0.3,0.13 0.11,0.21 -1.1,0.44 -1.35,1.1 -1.35,1.1 0,0 2.24,1.19 4.45,-0.26 0,0 -0.34,1.1 0.79,1.48 0,0 1.08,-0.4 2.24,-0.65 0,0 -0.11,0.28 0.13,0.4 0,0 0.93,-0.15 1.63,-0.98 0.71,0.83 1.64,0.98 1.64,0.98 0.25,-0.11 0.13,-0.4 0.13,-0.4 1.16,0.25 2.24,0.65 2.24,0.65 1.14,-0.38 0.79,-1.48 0.79,-1.48 2.22,1.46 4.45,0.26 4.45,0.26 0,0 -0.25,-0.66 -1.35,-1.1 -0.19,-0.08 -0.01,-0.28 0.11,-0.21 2.6,1.5 4.6,0.51 4.6,0.51 -0.3,-0.53 -0.81,-0.83 -0.81,-0.83 2.29,0.4 3.94,0.85 3.94,0.85 1.42,2.03 3.75,1.1 5.04,1.42 -0.25,-0.81 -0.87,-1.15 -0.87,-1.15 0,0 3.09,0.25 6.08,-0.65 0.37,-0.11 0.38,-0.24 0.15,-0.55 -0.3,-0.4 -0.06,-0.57 -0.06,-0.57 0,0 0.4,0.81 1.21,0.6 0.73,-0.19 0.74,-0.74 1.51,-1 -0.71,-0.86 -1.92,-0.6 -1.92,-0.6 z m -53.98,1.14 c -0.49,-0.06 -0.89,-0.49 -0.89,-0.49 0,0 0.36,-0.32 0.95,-0.27 0.59,0.06 0.61,0.84 -0.06,0.76 z m 0.55,-1.42 c -0.75,-0.31 -0.7,-0.93 -0.7,-0.93 0,0 0.19,0.11 0.59,0.21 0.7,0.17 0.62,0.93 0.11,0.72 z m 0.57,0.91 c -0.13,0.21 -0.42,-0.13 -0.44,-0.3 0,0 0.62,0.01 0.44,0.3 z M 152.56,8.14 c 0,0 -0.27,0.07 -0.47,0.04 -0.2,-0.03 -0.28,0.12 -0.01,0.27 0.81,0.45 1.05,1.13 1.05,1.13 0,0 -0.41,-0.06 -0.87,-0.45 -0.2,-0.17 -0.31,0.02 -0.16,0.27 0.26,0.43 1.25,0.52 1.39,1.56 0,0 -0.58,-0.21 -0.99,-0.61 -0.19,-0.19 -0.32,-0.05 -0.2,0.18 0.33,0.65 1.4,0.75 1.45,1.93 0,0 -0.43,-0.14 -0.84,-0.57 -0.2,-0.21 -0.37,0 -0.14,0.3 0.23,0.3 0.81,0.58 0.88,1.22 0.07,0.64 0.26,3.53 0.4,4.38 0.14,0.85 0.38,1.83 1.39,3.05 1.01,1.22 1.15,1.49 1.49,2.67 0.75,2.62 1.69,3.29 2.88,2.95 1.19,-0.34 1.65,-2.22 0.74,-3.56 -1.22,-1.8 -4.52,-4.44 -3.29,-7.42 0,0 -0.41,-0.68 0.1,-1.32 0,0 0.16,0.1 0.21,0.3 0.33,-0.28 0,-0.69 0.48,-1.08 0,0 0.17,0.17 0.14,0.43 0.38,-0.1 0.27,-1.01 1.46,-0.98 0.13,1.05 -0.51,0.82 -0.75,1.39 0,0 0.37,-0.1 0.52,0.02 -0.18,0.71 -0.68,0.48 -0.89,0.79 0,0 0.24,0.01 0.4,0.21 0,0 -0.24,0.88 -1.29,0.54 0,0 -0.3,0.31 -0.21,1.32 0.08,0.95 0.31,1.83 2.11,3.87 0.63,0.72 2.01,2.14 2.01,3.59 0,1.35 -0.95,2.55 -2.21,2.55 -1.59,0 -2.28,-1.15 -2.49,-2.23 -0.09,-0.45 -0.6,-0.28 -0.51,0.24 0.13,0.78 0.43,1.52 0.43,1.52 0,0 -0.21,0.43 -0.38,0.96 -0.17,0.54 -0.14,0.73 0.01,0.98 0.27,0.42 0.07,0.99 0.57,0.92 0.3,-0.04 0.3,0.09 0.43,0.52 0.27,0.93 0.21,0.98 0.03,1.5 -0.18,0.53 -0.5,1.36 -0.62,1.58 -0.23,0.41 -0.45,-0.07 -0.89,0.17 -0.36,0.2 -0.78,0.04 -0.5,-0.31 0,0 -0.2,-0.14 -0.35,0.06 0,0 -0.27,-0.85 -0.98,-0.47 0,0 -0.34,-0.37 -0.65,-0.27 0,0 0.35,-0.57 2.21,0.01 0.3,0.09 0.54,-0.4 0.14,-0.54 0,0 0.3,-0.98 0.34,-1.16 0.04,-0.18 0.13,-0.24 -0.2,-0.51 -2.07,-1.74 -2.24,-1.65 -2.51,-2.72 -0.27,-1.08 -0.4,-1.26 -0.74,-2.09 -0.87,-2.14 -0.65,-2.87 -1.26,-3.56 -1.26,-1.4 -1.72,-2.24 -1.72,-2.24 0,0 -0.11,-0.01 -0.14,0.11 -0.44,-0.33 -0.24,-0.68 -0.65,-1.01 0,0 -0.14,0.08 -0.17,0.35 -0.64,-0.47 -0.48,-1.28 -0.72,-1.59 0,0 -0.16,0.07 -0.23,0.3 0,0 -0.21,-0.37 -0.21,-0.52 0,-0.16 -0.08,-0.26 0.18,-0.47 0.27,-0.21 0.37,-0.13 0.44,0.11 0.4,-0.33 0.58,-0.78 0.99,-1.19 0,0 0.2,0.09 0.34,0.34 0,0 0.37,-0.5 0.6,-1.33 0.38,0.07 0.58,0 0.54,-0.51 -0.09,-0.96 0.38,-1.19 0.33,-2.34 -0.02,-0.41 -0.41,-0.27 -0.4,0.06 0.04,0.92 -0.26,0.94 -0.35,1.74 -0.57,-0.71 -0.5,0.28 -0.74,1.36 0,0 -0.15,-0.06 -0.23,-0.31 -0.14,-0.47 -0.33,0.26 -0.84,1.13 -0.13,-0.33 -0.16,-0.54 -0.55,-0.07 -0.4,0.47 -1.82,1.68 -3.19,2.68 -0.52,0.38 -0.18,0.7 -0.41,1.18 -0.16,0.33 -0.45,0.58 -0.45,0.58 0,0 -0.18,-0.33 -0.54,-0.31 0,0 0.09,-0.64 -0.45,-0.89 0,0 0.68,-0.86 -0.13,-1.49 0.5,-0.17 0.67,-0.11 0.26,-0.84 0,0 0.45,-0.44 -0.04,-1.02 0.47,-0.33 0.61,0.12 0.65,0.55 0.06,0.62 0.37,1.2 0.71,0.89 0.37,-0.34 2.06,-2.09 2.52,-2.88 0.47,-0.79 0.23,-1.4 1.43,-2.82 0.22,-0.26 0,-0.51 -0.23,-0.3 -0.14,0.13 -0.44,0.25 -0.44,0.25 0,0 -0.04,-0.74 0.44,-1.4 0.2,-0.27 0.03,-0.43 -0.37,-0.06 0,0 -0.06,-0.6 0.89,-1.4 0.26,-0.22 0.09,-0.34 -0.35,-0.18 0,0 0.18,-0.54 0.78,-0.67 0.6,-0.13 0.78,0.1 0.81,0.21 0.03,0.11 0.24,0.14 0.26,0 0.02,-0.14 0.18,-0.47 0.61,-0.4 0.43,0.07 0.4,0.35 0.4,0.48 0,0.13 0.09,0.25 0.21,0.1 0.18,-0.22 0.86,-0.4 1.3,0.25 z m 2.02,24.88 c -0.25,0.28 -0.57,0.46 -0.57,0.46 -0.06,-0.38 0.25,-0.66 0.25,-0.66 0.32,0.01 0.32,0.2 0.32,0.2 z m -1.57,-1.76 c 0,0 -1.7,-0.1 -2.39,1.94 0,0 -0.5,0.03 -0.8,-0.1 0,0 0.4,-0.19 0.65,-0.97 0.25,-0.78 0.49,-1.63 0.64,-2.15 0.2,-0.7 -0.59,-0.45 -0.39,-1.1 0.35,-1.15 0.27,-1.27 0.69,-1.41 0.42,-0.13 0.55,-0.1 1.05,-0.9 0,0 0.25,0.57 0.35,1.22 0.1,0.65 0.65,1.14 2.69,2.73 0,0 -0.1,0.6 -0.3,1.1 -2.14,-0.4 -1.99,0.25 -2.79,1.79 0,0 -0.35,0.03 -0.7,-0.05 0,-0.01 1.31,-0.64 1.3,-2.1 z m -2,2.02 c 0.14,-0.62 0.85,-1.3 1.5,-1.47 -0.17,0.69 -0.85,1.31 -1.5,1.47 z m 2.24,-0.52 c 0.32,0.02 0.36,0.17 0.36,0.17 -0.45,0.38 -0.7,0.61 -0.7,0.61 -0.09,-0.52 0.34,-0.78 0.34,-0.78 z M 142.42,21.08 c 0,0 -0.04,2.47 -0.08,4.27 -0.06,3.04 -1.16,6.87 -9.2,6.87 -8.04,0 -9.13,-3.83 -9.19,-6.87 -0.04,-1.81 -0.08,-4.27 -0.08,-4.27 0.21,-0.1 0.33,-0.25 0.33,-0.25 -0.39,-0.35 -0.51,-0.64 -0.51,-0.64 0.81,0.13 1.09,-0.3 1.09,-0.3 -0.58,-0.62 -0.79,-1.03 -0.79,-1.03 0.52,0.06 0.98,-0.11 0.98,-0.11 0.1,-0.97 -0.91,-1.01 -0.96,-1.78 0.24,0.02 0.45,0.17 0.45,0.17 0.6,-1.25 -0.71,-1.25 -0.44,-2.32 0.4,-0.13 0.58,-0.43 0.58,-0.43 a 0.722,0.722 0 0 1 -0.25,-0.1 c 0.45,-0.19 0.57,-0.51 0.57,-0.51 0.13,0.33 0.13,0.61 0.13,0.61 0.64,-0.11 0.83,-0.56 0.83,-0.56 0.07,0.29 0.3,0.58 0.3,0.58 0.51,-0.18 0.69,-0.55 0.69,-0.55 0,0 3.4,0.07 6.25,0.07 2.85,0 6.25,-0.07 6.25,-0.07 0,0 0.18,0.36 0.69,0.55 0,0 0.23,-0.29 0.3,-0.58 0,0 0.19,0.45 0.83,0.56 0,0 0,-0.28 0.13,-0.61 0,0 0.12,0.32 0.57,0.51 0,0 -0.09,0.06 -0.26,0.1 0,0 0.18,0.29 0.58,0.43 0.27,1.07 -1.03,1.07 -0.44,2.32 0,0 0.21,-0.15 0.45,-0.17 -0.05,0.76 -1.06,0.81 -0.96,1.78 0,0 0.46,0.17 0.98,0.11 0,0 -0.21,0.41 -0.79,1.03 0,0 0.28,0.43 1.09,0.3 0,0 -0.12,0.29 -0.51,0.64 0.06,-0.01 0.19,0.15 0.39,0.25 z m -19,-1.41 c 0,0 -0.1,-0.4 0.31,-0.54 0,0 0.22,0.34 0.57,0.65 0,0 -0.37,0.24 -0.88,-0.11 z m 0.17,1.11 c 0,0 -0.46,0.01 -0.79,-0.28 0,0 0.01,-0.27 0.26,-0.31 0.01,0 0.31,0.17 0.53,0.59 z m -4.27,-9.12 c 1.5,1.41 0.91,2.46 0.91,2.46 0,0 -0.42,-0.44 -0.44,-0.93 -0.02,-0.49 -0.58,-1.2 -0.58,-1.2 0.13,-0.1 0.11,-0.33 0.11,-0.33 z m -0.23,-1.08 c 0.33,-0.02 0.28,-0.41 0.28,-0.41 0,0 0.49,0.33 0.82,0.83 0.43,0.64 0.22,0.75 0.34,1.44 -0.97,-0.76 -1.44,-1.86 -1.44,-1.86 z M 118.6,7.41 c 0,0 0.68,0.43 0.7,1.5 0.01,0.4 -0.38,0.58 -0.55,-0.04 l 0.15,-0.21 c 0,0 -0.56,-0.59 -0.3,-1.25 z m -1.17,-1.69 c 0,0 0.25,0.22 0.61,0.42 0.57,0.32 0.18,1.05 0.18,1.05 0,0 -0.1,-0.17 -0.66,-0.49 -0.42,-0.24 -0.28,-0.89 -0.13,-0.98 z m -0.06,1.31 c 0,0 -0.16,0.04 -0.38,-0.04 l 0.2,-0.18 c 0,0 0.04,0.13 0.18,0.22 z m 0.59,-4 c -0.75,0.02 -0.92,-0.51 -0.7,-0.8 0.22,-0.29 0.68,-0.13 0.64,0.15 -0.04,0.27 0.06,0.65 0.06,0.65 z m -0.31,2.32 c -0.27,-0.15 -0.14,-1.18 0.43,-0.62 0.38,0.38 0.31,1.08 0.31,1.08 0,0 -0.28,-0.21 -0.74,-0.46 z m 0.12,-1.31 c -0.32,-0.52 0.06,-0.86 0.43,-0.44 0.37,0.43 0.25,0.91 0.25,0.91 0,0 -0.45,-0.11 -0.68,-0.47 z m 0.64,-0.97 c 0,0 -0.28,-0.28 -0.17,-0.94 0,0 0.86,0.04 1.15,0.96 0,0 -0.47,-0.12 -0.98,-0.02 z m 0.4,1.48 c 0.57,0.51 1.24,0.72 1.11,1.82 -0.91,-0.6 -1.17,-0.84 -1.11,-1.82 z m 0.88,3.46 c -0.6,-0.9 -1.28,-1 -0.9,-1.96 0,0 1.13,0.47 0.9,1.96 z M 118.6,3.5 c 0.85,-0.19 1.3,0.43 1.3,1.19 0,-0.01 -1.06,-0.22 -1.3,-1.19 z m 0.96,6.3 c 0,0 -0.05,-0.38 0.18,-0.72 1.5,0.89 1.14,2.23 1.14,2.23 -0.43,-0.47 -0.42,-0.93 -1.32,-1.51 z m 0.87,-5.03 c 0,0 1.66,0.46 1.38,2.13 -0.51,-0.96 -1.51,-0.84 -1.67,-1.64 0,0 0.24,0.09 0.41,0.05 0,0.01 -0.12,-0.26 -0.12,-0.54 z m -0.02,1.5 c 1.24,0.54 1.09,1.99 1.09,1.99 -0.42,-0.64 -1.27,-0.69 -1.41,-1.36 0.16,0 0.31,-0.14 0.31,-0.14 -0.1,-0.23 0.01,-0.49 0.01,-0.49 z m -0.18,1.45 c 0.58,0.65 1.13,0.74 0.95,2.02 0,0 -0.68,-0.54 -1.09,-1.12 0,0 0.19,-0.29 0.14,-0.9 z m 0.66,5.93 c 0,0 0.34,0.1 0.85,0.16 0,0 0.21,0.81 1.25,0.74 0.07,0.31 -0.02,0.32 -0.28,0.41 -0.26,0.09 -0.5,0.29 -0.56,1.09 -0.01,0.21 -0.13,0.21 -0.32,-0.01 l -1.09,-1.25 c 0,-0.01 0.19,-0.58 0.15,-1.14 z m 1.82,0.41 c -0.66,-0.16 -0.43,-0.92 -0.29,-1.06 0.13,-0.13 0.17,-0.42 -0.15,-0.3 -0.57,0.22 -0.32,0.6 -0.69,0.53 -0.37,-0.07 -0.6,-0.16 -0.6,-0.16 0.18,-0.37 0.22,-0.76 0.22,-0.76 0.09,0.09 0.28,-0.02 0.28,-0.02 -0.28,-0.56 0.06,-0.79 0.06,-0.79 0,0 0.52,0.5 0.85,0.72 0.26,0.18 0.41,0.06 0.46,-0.03 0.38,-0.75 1.04,-0.38 1.04,-0.38 0.81,-0.5 1.28,-0.06 1.28,-0.06 0.82,-0.4 1.29,0.1 1.29,0.1 l 0.31,0.68 c -0.49,-0.16 -0.93,0.03 -0.93,0.03 -0.4,-0.25 -0.99,-0.09 -0.99,-0.09 -0.66,-0.26 -1.01,0.18 -1.01,0.18 -0.22,-0.31 -0.54,-0.47 -0.38,-0.06 0.1,0.26 0.13,0.66 -0.12,0.62 -0.25,-0.04 -0.37,0.1 -0.16,0.35 -0.35,0.12 -0.47,0.5 -0.47,0.5 z m 23.45,-8.8 C 146,6.06 145,5.93 144.49,6.9 c -0.28,-1.67 1.38,-2.13 1.38,-2.13 0,0.28 -0.12,0.54 -0.12,0.54 0.17,0.04 0.41,-0.05 0.41,-0.05 z m 2.24,-2.88 c -0.04,-0.27 0.42,-0.44 0.64,-0.15 0.22,0.29 0.05,0.82 -0.7,0.8 0,0 0.1,-0.38 0.06,-0.65 z m 0.34,4.32 c -0.56,0.32 -0.66,0.49 -0.66,0.49 0,0 -0.38,-0.73 0.18,-1.05 0.35,-0.2 0.61,-0.42 0.61,-0.42 0.15,0.09 0.29,0.74 -0.13,0.98 z m 0.37,0.11 0.2,0.18 c -0.22,0.07 -0.38,0.04 -0.38,0.04 0.14,-0.09 0.18,-0.22 0.18,-0.22 z m -1.19,-1 c 0,0 -0.07,-0.7 0.31,-1.08 0.57,-0.56 0.7,0.47 0.43,0.62 -0.47,0.25 -0.74,0.46 -0.74,0.46 z m 0.6,-1.77 c -0.23,0.36 -0.68,0.47 -0.68,0.47 0,0 -0.12,-0.48 0.25,-0.91 0.38,-0.42 0.76,-0.08 0.43,0.44 z m -0.63,-0.97 c -0.51,-0.1 -0.98,0.02 -0.98,0.02 0.28,-0.92 1.15,-0.96 1.15,-0.96 0.11,0.65 -0.17,0.94 -0.17,0.94 z m -0.34,5.8 C 147.38,9.49 147,9.31 147,8.91 c 0.02,-1.07 0.7,-1.5 0.7,-1.5 0.26,0.66 -0.3,1.26 -0.3,1.26 z m -0.46,3.12 c 0,0 -0.56,0.71 -0.58,1.2 -0.02,0.49 -0.44,0.93 -0.44,0.93 0,0 -0.59,-1.05 0.91,-2.46 0,0 -0.02,0.23 0.11,0.33 z m -1.33,0.44 c 0.12,-0.68 -0.09,-0.79 0.34,-1.44 0.33,-0.5 0.82,-0.83 0.82,-0.83 0,0 -0.05,0.39 0.28,0.41 0.01,0.01 -0.46,1.11 -1.44,1.86 z m 0.85,-4.42 c -0.23,-1.49 0.9,-1.96 0.9,-1.96 0.38,0.96 -0.3,1.06 -0.9,1.96 z M 147.7,3.5 c -0.24,0.98 -1.3,1.19 -1.3,1.19 0,-0.76 0.45,-1.38 1.3,-1.19 z m -0.21,1.05 c 0.06,0.98 -0.21,1.22 -1.11,1.82 -0.13,-1.11 0.55,-1.31 1.11,-1.82 z m -0.93,4.53 c 0.23,0.33 0.18,0.72 0.18,0.72 -0.9,0.58 -0.88,1.04 -1.32,1.52 0,-0.01 -0.36,-1.35 1.14,-2.24 z m -1,5.7 -1.09,1.25 c -0.19,0.22 -0.31,0.22 -0.32,0.01 -0.06,-0.79 -0.29,-1 -0.56,-1.09 -0.27,-0.09 -0.35,-0.1 -0.28,-0.41 1.04,0.07 1.25,-0.74 1.25,-0.74 0.51,-0.06 0.85,-0.16 0.85,-0.16 -0.04,0.57 0.15,1.14 0.15,1.14 z m 0.65,-6.16 c -0.41,0.58 -1.09,1.12 -1.09,1.12 -0.18,-1.28 0.37,-1.37 0.95,-2.02 -0.05,0.61 0.14,0.9 0.14,0.9 z M 144.8,8.26 c 0,0 -0.16,-1.44 1.09,-1.99 0,0 0.11,0.26 0.02,0.49 0,0 0.15,0.14 0.31,0.14 -0.15,0.67 -1,0.72 -1.42,1.36 z m -0.04,3.24 c 0,0 0.34,0.23 0.06,0.79 0,0 0.19,0.1 0.28,0.02 0,0 0.04,0.4 0.22,0.76 0,0 -0.24,0.09 -0.6,0.16 -0.37,0.07 -0.12,-0.31 -0.69,-0.53 -0.32,-0.12 -0.28,0.16 -0.15,0.3 0.13,0.13 0.37,0.9 -0.29,1.06 0,0 -0.12,-0.38 -0.47,-0.5 0.21,-0.25 0.09,-0.4 -0.16,-0.35 -0.25,0.05 -0.22,-0.35 -0.12,-0.62 0.16,-0.41 -0.16,-0.25 -0.38,0.06 0,0 -0.35,-0.44 -1.01,-0.18 0,0 -0.59,-0.16 -0.99,0.09 0,0 -0.44,-0.19 -0.93,-0.03 l 0.31,-0.68 c 0,0 0.47,-0.5 1.29,-0.1 0,0 0.47,-0.44 1.28,0.06 0,0 0.66,-0.37 1.04,0.38 0.05,0.1 0.19,0.21 0.46,0.03 0.33,-0.22 0.85,-0.72 0.85,-0.72 z m -2.67,5.13 c -0.03,-0.54 0.41,-0.84 0.41,-0.84 0.32,0 0.28,0.4 0.28,0.4 -0.4,0.16 -0.69,0.44 -0.69,0.44 z m 0.53,1.63 c -0.51,0.35 -0.93,0.13 -0.93,0.13 0.32,-0.47 0.76,-0.59 0.76,-0.59 0.3,0.12 0.17,0.46 0.17,0.46 z m -0.38,-3.92 c 0.49,-0.23 0.63,-0.53 0.63,-0.53 0.37,0.1 0.32,0.34 0.32,0.34 -0.51,0.45 -0.95,0.19 -0.95,0.19 z m -0.2,-0.52 c -0.71,-0.18 -0.46,-0.94 -0.46,-0.94 0.26,-0.22 0.62,0.04 0.62,0.04 -0.2,0.48 -0.16,0.9 -0.16,0.9 z m -0.85,-0.97 c -0.13,0.38 -0.22,1.02 -0.22,1.02 -0.62,-0.47 -0.29,-0.99 -0.29,-0.99 0.2,-0.13 0.51,-0.03 0.51,-0.03 z m -0.98,0.11 c -0.21,0.44 -0.26,0.94 -0.26,0.94 -0.37,-0.43 -0.18,-0.94 -0.18,-0.94 0.2,-0.14 0.44,0 0.44,0 z m -7.06,-0.92 c -3.5,0 -5.47,0.79 -5.87,0.92 -0.4,0.13 -0.44,-0.17 -0.16,-0.3 0.28,-0.13 2.61,-1.05 6.03,-1.05 3.42,0 5.74,0.92 6.02,1.05 0.28,0.13 0.24,0.43 -0.16,0.3 -0.39,-0.13 -2.36,-0.92 -5.86,-0.92 z m 4.21,0.98 c 0,0 -0.93,0.09 -4.21,0.09 -3.29,0 -4.21,-0.09 -4.21,-0.09 0,0 0.94,-0.57 4.21,-0.57 3.28,0 4.21,0.57 4.21,0.57 z m -10.5,-1.15 c 0.02,-0.01 0.04,-0.01 0.07,-0.01 0.17,0 0.3,0.13 0.3,0.3 0,0.08 -0.03,0.16 -0.09,0.21 z m 0.69,-0.06 c 0,-0.16 0.13,-0.3 0.3,-0.3 0.17,0 0.3,0.13 0.3,0.3 a 0.3,0.3 0 0 1 -0.3,0.3 0.3,0.3 0 0 1 -0.3,-0.3 z m 1.02,-0.26 c 0,-0.16 0.13,-0.3 0.3,-0.3 0.16,0 0.3,0.13 0.3,0.3 a 0.3,0.3 0 0 1 -0.3,0.3 c -0.17,0 -0.3,-0.13 -0.3,-0.3 z m 1.08,-0.25 c 0,-0.16 0.13,-0.3 0.3,-0.3 0.16,0 0.3,0.13 0.3,0.3 a 0.3,0.3 0 0 1 -0.3,0.3 0.3,0.3 0 0 1 -0.3,-0.3 z m 1.06,-0.16 c 0,-0.16 0.13,-0.3 0.3,-0.3 0.17,0 0.3,0.13 0.3,0.3 0,0.16 -0.13,0.3 -0.3,0.3 -0.17,0 -0.3,-0.13 -0.3,-0.3 z m 1.08,-0.08 c 0,-0.16 0.13,-0.3 0.3,-0.3 0.16,0 0.3,0.13 0.3,0.3 0,0.17 -0.13,0.3 -0.3,0.3 -0.17,-0.01 -0.3,-0.14 -0.3,-0.3 z m 1.06,-0.03 c 0,-0.16 0.13,-0.3 0.3,-0.3 0.17,0 0.3,0.13 0.3,0.3 0,0.17 -0.13,0.3 -0.3,0.3 -0.17,0 -0.3,-0.14 -0.3,-0.3 z m 1.06,0.03 c 0,-0.16 0.13,-0.3 0.3,-0.3 0.17,0 0.3,0.13 0.3,0.3 0,0.17 -0.13,0.3 -0.3,0.3 -0.17,0 -0.3,-0.14 -0.3,-0.3 z m 1.08,0.08 c 0,-0.16 0.13,-0.3 0.3,-0.3 0.16,0 0.3,0.13 0.3,0.3 a 0.3,0.3 0 0 1 -0.3,0.3 0.3,0.3 0 0 1 -0.3,-0.3 z m 1.07,0.16 c 0,-0.16 0.13,-0.3 0.3,-0.3 0.17,0 0.3,0.13 0.3,0.3 0,0.16 -0.13,0.3 -0.3,0.3 -0.17,0 -0.3,-0.14 -0.3,-0.3 z m 1.07,0.25 c 0,-0.16 0.13,-0.3 0.3,-0.3 0.17,0 0.3,0.13 0.3,0.3 0,0.16 -0.13,0.3 -0.3,0.3 -0.17,0 -0.3,-0.13 -0.3,-0.3 z m 1.02,0.26 c 0,-0.16 0.13,-0.3 0.3,-0.3 0.17,0 0.3,0.13 0.3,0.3 0,0.16 -0.13,0.3 -0.3,0.3 -0.17,0 -0.3,-0.14 -0.3,-0.3 z m 1.02,0.57 a 0.272,0.272 0 0 1 -0.09,-0.21 c 0,-0.16 0.13,-0.3 0.3,-0.3 0.02,0 0.05,0 0.07,0.01 z m -6.02,-1.95 c -3.25,0 -6.41,1.21 -6.41,1.21 l -0.5,-0.74 c 0,0 0.87,0.44 1.9,0.13 1.13,-0.34 1.38,-1.1 1.38,-1.1 0,0 0.78,0.59 1.96,0.44 0.94,-0.12 1.67,-0.89 1.67,-0.89 0,0 0.74,0.77 1.67,0.89 1.18,0.15 1.96,-0.44 1.96,-0.44 0,0 0.24,0.77 1.38,1.1 1.03,0.31 1.9,-0.13 1.9,-0.13 l -0.5,0.74 c 0,0 -3.16,-1.21 -6.41,-1.21 z m 7.05,0.02 c -0.79,0.47 -2.64,0.57 -3.29,-1.02 0,0 -0.76,0.72 -1.96,0.58 -1.01,-0.11 -1.8,-1.11 -1.8,-1.11 0,0 -0.79,0.99 -1.8,1.1 -1.19,0.13 -1.96,-0.58 -1.96,-0.58 -0.65,1.59 -2.5,1.49 -3.29,1.02 -0.2,-0.12 -0.11,-0.35 0.1,-0.26 0.21,0.09 0.79,0.41 1.64,0.23 1.14,-0.25 1.46,-1.43 1.46,-1.43 0,0 0.88,0.98 2.17,0.71 1.09,-0.23 1.67,-1.32 1.67,-1.32 0,0 0.59,1.09 1.67,1.32 1.29,0.27 2.17,-0.71 2.17,-0.71 0,0 0.32,1.19 1.46,1.43 0.85,0.19 1.43,-0.13 1.65,-0.23 0.22,-0.09 0.31,0.15 0.11,0.27 z m -13.84,3.45 c 0,0 -0.06,-0.5 -0.26,-0.94 0,0 0.24,-0.13 0.44,0 -0.01,0 0.18,0.51 -0.18,0.94 z m -1.03,-0.03 c 0,0 -0.09,-0.63 -0.22,-1.02 0,0 0.31,-0.1 0.51,0.03 0,0 0.32,0.52 -0.29,0.99 z m -1.24,-0.94 c 0,0 0.35,-0.26 0.62,-0.04 0,0 0.25,0.77 -0.46,0.94 0,-0.01 0.05,-0.43 -0.16,-0.9 z m -0.66,0.88 c 0,0 0.15,0.3 0.63,0.53 0,0 -0.44,0.27 -0.96,-0.19 0.01,0 -0.03,-0.24 0.33,-0.34 z m 0.37,1.98 c 0,0 0.44,0.29 0.41,0.84 0,0 -0.29,-0.28 -0.69,-0.44 0,0 -0.04,-0.4 0.28,-0.4 z m 0.04,2.02 c 0,0 0.44,0.12 0.76,0.59 0,0 -0.41,0.22 -0.93,-0.13 0.01,-0.01 -0.12,-0.35 0.17,-0.46 z M 142,19.78 c 0.35,-0.31 0.57,-0.65 0.57,-0.65 0.41,0.15 0.31,0.54 0.31,0.54 -0.51,0.35 -0.88,0.11 -0.88,0.11 z m 1.23,0.41 c 0.25,0.04 0.26,0.31 0.26,0.31 -0.34,0.29 -0.79,0.28 -0.79,0.28 0.23,-0.42 0.53,-0.59 0.53,-0.59 z M 151.49,5.7 c -0.24,0.09 -0.54,-0.12 -0.2,-0.37 0.26,0.16 0.2,0.37 0.2,0.37 z m -0.63,-4.07 c 0.45,-0.04 0.56,0.2 0.49,0.6 -0.04,0.2 -0.06,0.34 0.42,0.33 1.15,-0.04 1.38,0.25 1.13,0.49 -0.18,0.17 -0.29,0.3 -0.05,0.48 0.29,0.22 -0.01,0.83 -0.33,0.71 -0.96,-0.36 -1.25,-0.33 -1.62,0.51 -0.37,0.84 -0.46,1.55 1.16,1.35 0,0 -0.03,0.42 -1.07,0.36 -1.04,-0.05 -1.23,-1.68 0.04,-3.01 0.3,-0.31 0.25,-0.48 0.05,-0.68 -0.02,-0.38 -0.02,-0.73 -0.75,-0.38 -0.65,0.31 -0.6,0.53 -0.22,0.51 0.38,-0.02 0.65,0.27 0.65,0.27 0,0 -0.63,0.6 -0.89,1.66 -0.36,1.5 0.51,1.97 0.51,1.97 0,0 -0.53,0.4 -1.07,-0.31 0,0 0.25,-0.62 -0.11,-1.03 0,0 0.2,-0.58 -0.27,-1.27 0,0 0.35,-0.35 0.11,-1.06 0,0 0.69,-0.29 0.36,-1.09 0,0.01 0.66,-0.34 1.46,-0.41 z m -1.05,-0.51 -0.35,0.17 A 1.19,1.19 0 0 1 149,0.62 c 0.56,-0.21 0.81,0.5 0.81,0.5 z m -0.7,0.39 c -0.58,0.32 -1.29,-0.35 -1.32,-0.65 0.78,-0.35 0.95,0.35 1.32,0.65 z m -1.1,0.23 c 0,0 -0.63,0.44 -1.61,-0.37 0,0 0.91,-0.62 1.61,0.37 z m -0.92,0.38 c -0.35,0.73 -1.29,0.21 -1.95,0.33 0.66,-1.19 1.54,-0.22 1.95,-0.33 z m -0.67,0.74 c -0.23,0.73 -1.18,0.35 -1.76,0.76 0.33,-0.97 1.05,-0.64 1.76,-0.76 z m -0.23,0.81 c 0.02,0.75 -1.22,0.86 -1.83,1.52 0.02,-1.55 1.83,-1.52 1.83,-1.52 z m -2.25,4.12 c 0,0 0.12,0.09 0.3,0.03 -0.09,0.53 0.1,0.85 -0.09,1.55 0,0 0.16,0.1 0.35,0.07 0.12,0.66 -0.28,0.88 0,1.53 0,0 -0.24,0.33 -0.77,0.63 0,0 -0.69,-0.65 -1.36,-0.33 0,0 -0.72,-0.44 -1.3,0 0,0 -0.21,-0.18 -0.58,-0.09 0,0 0.47,-0.61 0.33,-1.44 0,0 0.88,-0.85 1.58,-1.9 0.7,-1.05 0.89,-1.89 1.3,-2.43 0,0 0.14,0.34 -0.09,0.67 0,0 0.1,0.14 0.28,0.16 -0.12,0.85 0.16,1.08 0.05,1.55 z m -2.08,-2.25 c 0.14,0.2 0.18,0.64 0.04,0.77 -0.18,-0.11 -0.27,-0.56 -0.04,-0.77 z m -0.84,1.11 c 0.17,0.04 0.28,-0.06 0.15,-0.26 -0.21,-0.32 -0.17,-1.07 0.49,-1.38 0,0 -0.55,1.26 0.21,2 0,0 0.42,-0.09 0.41,-0.83 -0.01,-0.92 -0.37,-1.82 0.4,-2.04 0,0 -0.16,0.35 -0.06,0.79 0.04,0.15 0.21,0.12 0.2,-0.15 -0.01,-0.27 0.3,-0.85 1.05,-0.75 0,0 -0.5,0.72 -0.9,1.49 -0.4,0.78 -0.46,1.32 -1.49,2.81 0,0 -0.11,-1.06 -0.91,-1.04 -0.2,-0.39 0.09,-0.73 0.45,-0.64 z m -2.2,0.98 c -0.15,0.29 -0.49,0.1 -0.31,-0.1 0.12,-0.14 0,-0.43 -0.29,-0.18 -0.76,0.68 -0.83,2.01 0.29,2.38 1.11,0.36 2.09,-0.54 2.14,-1.54 0.01,-0.23 -0.27,-0.33 -0.27,-0.01 0,0.31 -0.57,0.22 -0.4,-0.18 0.24,-0.56 1.11,-0.25 1.01,0.45 -0.16,1.14 -1.35,1.97 -2.59,1.61 -1.24,-0.36 -1.57,-1.95 -0.46,-2.95 0.44,-0.39 1.14,0.03 0.88,0.52 z m -1.06,-4.05 c 0.2,0.14 0.24,0.54 0.07,0.86 -0.23,-0.3 -0.23,-0.68 -0.07,-0.86 z m -0.77,1.18 c -0.4,-0.6 -0.24,-1.41 0.4,-1.5 0,0 -0.25,1.24 0.54,1.86 0,0 0.68,-0.9 0.06,-2.06 0,0 -0.04,-0.61 0.44,-0.75 0,0 0.05,0.54 0.25,0.8 0.06,0.08 0.13,-0.06 0.09,-0.3 -0.06,-0.33 0.3,-1 0.95,-1.11 0,0 0.75,0.92 -0.04,1.5 -0.13,0.1 -0.05,0.3 0.12,0.23 0.29,-0.12 0.44,-0.31 0.44,-0.31 0,0 0.28,0.51 -0.19,0.7 -1.64,0.66 -1.56,1.49 -1.56,1.49 0,0 1.02,0.2 1.73,-0.89 0.2,0.64 0.04,1.15 -0.61,1.32 -0.19,0.05 -0.23,0.22 -0.05,0.34 0.27,0.17 0.26,0.87 -0.36,0.96 0,0 -0.61,-0.82 -1.61,-0.11 0,0 -0.23,-0.94 -1.12,-0.86 C 136,5.66 136.22,4.7 136.99,4.76 Z m 2.92,-0.48 c -0.09,0.3 -0.64,0.69 -1,0.7 0.16,-0.35 0.63,-0.69 1,-0.7 z m -5.25,2.41 c -0.16,0.2 -0.46,0.04 -0.35,-0.15 0.19,-0.34 -0.09,-0.45 -0.32,-0.15 -0.59,0.77 -0.3,2.26 0.84,2.59 1.08,0.31 1.8,-0.54 1.96,-0.98 0.16,-0.44 0.15,-1.27 -0.14,-1.2 -0.2,0.05 0,0.27 -0.16,0.32 -0.34,0.11 -0.52,-0.5 -0.07,-0.64 0.45,-0.14 0.71,0.18 0.81,0.47 0.29,0.85 -0.51,2.7 -2.31,2.36 -1.68,-0.31 -1.81,-2.27 -1.26,-2.99 0.61,-0.8 1.4,-0.23 1,0.37 z m -3.01,-2.07 c 0.21,-0.05 0.12,-0.19 0.02,-0.25 -0.61,-0.39 -0.36,-1.22 0.09,-1.53 -0.19,1.5 1.13,1.62 1.13,1.62 0,0 0.31,-0.79 -0.5,-1.49 -0.4,-0.35 -0.47,-0.65 -0.26,-0.8 0.12,-0.09 0.32,0.14 0.45,0.25 0.15,0.14 0.27,0.06 0.15,-0.1 -0.61,-0.8 0.43,-1.44 0.43,-1.44 0,0 1.03,0.64 0.42,1.44 -0.12,0.16 0,0.23 0.15,0.1 0.12,-0.11 0.33,-0.34 0.45,-0.25 0.21,0.15 0.14,0.45 -0.26,0.8 -0.81,0.7 -0.5,1.49 -0.5,1.49 0,0 1.31,-0.12 1.12,-1.62 0.45,0.3 0.7,1.14 0.09,1.53 -0.1,0.06 -0.19,0.2 0.02,0.25 0.46,0.1 0.69,0.8 0.25,1.12 -0.48,-0.29 -1.23,-0.27 -1.75,0.61 -0.51,-0.89 -1.27,-0.9 -1.75,-0.61 -0.44,-0.32 -0.21,-1.02 0.25,-1.12 z m 0.45,-1.31 c 0.23,0.03 0.56,0.4 0.52,0.76 -0.4,-0.03 -0.6,-0.6 -0.52,-0.76 z m 1.57,0.76 c -0.04,-0.36 0.3,-0.74 0.52,-0.76 0.08,0.16 -0.12,0.73 -0.52,0.76 z m -3.86,3.06 c -0.16,-0.05 0.04,-0.28 -0.16,-0.32 -0.28,-0.07 -0.3,0.76 -0.14,1.2 0.16,0.44 0.88,1.28 1.96,0.98 1.14,-0.32 1.43,-1.81 0.84,-2.59 -0.23,-0.3 -0.51,-0.19 -0.32,0.15 0.11,0.19 -0.19,0.35 -0.35,0.15 -0.4,-0.6 0.39,-1.18 1.01,-0.35 0.55,0.72 0.42,2.67 -1.26,2.99 -1.8,0.34 -2.6,-1.51 -2.31,-2.36 0.1,-0.3 0.36,-0.61 0.81,-0.47 0.45,0.12 0.26,0.73 -0.08,0.62 z m -1.27,-3.55 c 0.16,0.18 0.16,0.56 -0.07,0.86 -0.17,-0.32 -0.13,-0.72 0.07,-0.86 z m -1.43,3.45 c -0.62,-0.09 -0.64,-0.79 -0.36,-0.96 0.18,-0.12 0.14,-0.28 -0.05,-0.34 -0.65,-0.18 -0.81,-0.69 -0.61,-1.33 0.7,1.09 1.73,0.89 1.73,0.89 0,0 0.07,-0.82 -1.56,-1.49 -0.47,-0.19 -0.19,-0.7 -0.19,-0.7 0,0 0.15,0.19 0.44,0.31 0.18,0.08 0.25,-0.13 0.12,-0.23 -0.79,-0.57 -0.04,-1.5 -0.04,-1.5 0.65,0.11 1.01,0.79 0.95,1.11 -0.05,0.25 0.03,0.38 0.09,0.3 0.2,-0.26 0.25,-0.8 0.25,-0.8 0.47,0.14 0.44,0.75 0.44,0.75 -0.61,1.16 0.06,2.06 0.06,2.06 0.79,-0.63 0.54,-1.86 0.54,-1.86 0.64,0.09 0.8,0.9 0.4,1.5 0.76,-0.05 0.99,0.9 0.54,1.3 -0.9,-0.07 -1.12,0.86 -1.12,0.86 -1.02,-0.69 -1.63,0.13 -1.63,0.13 z m -0.72,-2.75 c 0.38,0.01 0.85,0.35 1,0.7 -0.37,-0.01 -0.92,-0.4 -1,-0.7 z M 126.32,8 c 0.17,0.4 -0.4,0.49 -0.4,0.18 0,-0.31 -0.29,-0.22 -0.28,0.01 0.05,1 1.02,1.9 2.14,1.54 1.11,-0.36 1.05,-1.7 0.29,-2.38 -0.29,-0.25 -0.41,0.04 -0.29,0.18 0.18,0.2 -0.16,0.39 -0.31,0.1 -0.25,-0.49 0.45,-0.91 0.89,-0.51 1.11,1 0.78,2.59 -0.46,2.95 -1.24,0.36 -2.43,-0.48 -2.59,-1.61 -0.1,-0.71 0.78,-1.02 1.01,-0.46 z m -1.88,-2.46 c 0.24,0.21 0.14,0.66 -0.04,0.77 -0.14,-0.12 -0.11,-0.57 0.04,-0.77 z m -0.95,-0.76 c -0.01,0.27 0.16,0.3 0.2,0.15 0.1,-0.44 -0.06,-0.79 -0.06,-0.79 0.77,0.22 0.41,1.12 0.4,2.04 -0.01,0.74 0.41,0.83 0.41,0.83 0.76,-0.75 0.21,-2 0.21,-2 0.66,0.32 0.7,1.06 0.49,1.38 -0.13,0.2 -0.02,0.31 0.15,0.26 0.36,-0.09 0.64,0.25 0.46,0.64 -0.8,-0.02 -0.91,1.04 -0.91,1.04 -1.04,-1.49 -1.1,-2.03 -1.5,-2.81 -0.4,-0.78 -0.89,-1.49 -0.89,-1.49 0.73,-0.1 1.05,0.49 1.04,0.75 z m -1.43,3.05 c 0.18,0.05 0.3,-0.03 0.3,-0.03 -0.11,-0.47 0.18,-0.7 0.04,-1.54 0.18,-0.02 0.28,-0.16 0.28,-0.16 -0.23,-0.33 -0.09,-0.67 -0.09,-0.67 0.41,0.53 0.6,1.37 1.3,2.42 0.7,1.05 1.58,1.9 1.58,1.9 -0.14,0.83 0.33,1.44 0.33,1.44 -0.37,-0.09 -0.58,0.09 -0.58,0.09 -0.58,-0.44 -1.3,0 -1.3,0 -0.67,-0.31 -1.36,0.33 -1.36,0.33 -0.53,-0.3 -0.77,-0.63 -0.77,-0.63 0.28,-0.65 -0.12,-0.87 0,-1.53 0.19,0.03 0.35,-0.07 0.35,-0.07 -0.19,-0.7 0.01,-1.02 -0.08,-1.55 z m -0.12,-2.64 c -0.61,-0.67 -1.85,-0.77 -1.83,-1.52 0,0 1.81,-0.03 1.83,1.52 z m -0.3,-1.57 c -0.58,-0.41 -1.53,-0.04 -1.76,-0.76 0.71,0.12 1.43,-0.21 1.76,0.76 z m -0.47,-1.17 c -0.67,-0.12 -1.6,0.4 -1.95,-0.33 0.4,0.11 1.28,-0.86 1.95,0.33 z M 119.9,1.37 c -0.98,0.81 -1.61,0.37 -1.61,0.37 0.7,-0.99 1.61,-0.37 1.61,-0.37 z m -1.39,-0.51 c -0.03,0.3 -0.74,0.96 -1.32,0.65 0.37,-0.3 0.53,-1 1.32,-0.65 z M 117.3,0.62 c 0,0 -0.07,0.38 -0.46,0.67 l -0.35,-0.17 c 0,0 0.25,-0.71 0.81,-0.5 z M 115,5.33 c 0.35,0.26 0.04,0.46 -0.2,0.37 0,0 -0.05,-0.21 0.2,-0.37 z m -0.76,0.77 c 1.62,0.2 1.53,-0.52 1.16,-1.35 -0.37,-0.83 -0.65,-0.87 -1.62,-0.51 -0.32,0.12 -0.62,-0.49 -0.33,-0.71 0.24,-0.18 0.12,-0.31 -0.05,-0.48 -0.25,-0.24 -0.02,-0.53 1.13,-0.49 0.47,0.02 0.45,-0.13 0.42,-0.33 -0.07,-0.4 0.04,-0.64 0.49,-0.6 0.8,0.06 1.46,0.42 1.46,0.42 -0.33,0.8 0.36,1.09 0.36,1.09 -0.24,0.72 0.11,1.06 0.11,1.06 -0.47,0.69 -0.27,1.27 -0.27,1.27 -0.36,0.41 -0.11,1.03 -0.11,1.03 -0.54,0.71 -1.07,0.31 -1.07,0.31 0,0 0.87,-0.47 0.51,-1.97 -0.26,-1.06 -0.89,-1.66 -0.89,-1.66 0,0 0.27,-0.29 0.65,-0.27 0.38,0.02 0.44,-0.2 -0.22,-0.51 -0.74,-0.35 -0.74,0 -0.75,0.38 -0.2,0.2 -0.24,0.37 0.05,0.68 1.26,1.33 1.08,2.95 0.04,3.01 -1.04,0.05 -1.07,-0.37 -1.07,-0.37 z m -5.35,25.43 c -0.18,-0.52 -0.24,-0.57 0.03,-1.5 0.13,-0.44 0.13,-0.57 0.43,-0.52 0.49,0.07 0.3,-0.5 0.57,-0.92 0.16,-0.25 0.18,-0.44 0.01,-0.98 -0.17,-0.54 -0.38,-0.96 -0.38,-0.96 0,0 0.3,-0.74 0.43,-1.52 0.08,-0.52 -0.42,-0.69 -0.51,-0.24 -0.21,1.08 -0.91,2.23 -2.5,2.23 -1.26,0 -2.21,-1.2 -2.21,-2.55 0,-1.45 1.38,-2.87 2.01,-3.59 1.8,-2.04 2.03,-2.92 2.11,-3.87 0.08,-1.01 -0.21,-1.32 -0.21,-1.32 -1.05,0.34 -1.29,-0.54 -1.29,-0.54 0.16,-0.2 0.4,-0.21 0.4,-0.21 -0.21,-0.31 -0.71,-0.09 -0.89,-0.79 0.16,-0.11 0.53,-0.02 0.53,-0.02 -0.24,-0.57 -0.88,-0.34 -0.75,-1.39 1.19,-0.03 1.08,0.88 1.46,0.98 -0.03,-0.26 0.14,-0.43 0.14,-0.43 0.48,0.38 0.16,0.79 0.48,1.08 0.06,-0.2 0.21,-0.3 0.21,-0.3 0.51,0.64 0.1,1.32 0.1,1.32 1.23,2.98 -2.07,5.62 -3.29,7.42 -0.91,1.34 -0.45,3.22 0.74,3.56 1.19,0.34 2.13,-0.33 2.88,-2.95 0.34,-1.18 0.48,-1.45 1.49,-2.67 1.01,-1.22 1.25,-2.2 1.39,-3.05 0.14,-0.85 0.33,-3.74 0.4,-4.38 0.07,-0.64 0.65,-0.92 0.88,-1.22 0.23,-0.3 0.06,-0.51 -0.14,-0.3 -0.41,0.43 -0.84,0.57 -0.84,0.57 0.04,-1.18 1.12,-1.28 1.45,-1.93 0.12,-0.24 -0.01,-0.37 -0.2,-0.18 -0.41,0.4 -0.99,0.61 -0.99,0.61 0.14,-1.03 1.13,-1.13 1.39,-1.56 0.15,-0.25 0.04,-0.44 -0.16,-0.27 -0.46,0.39 -0.86,0.45 -0.86,0.45 0,0 0.24,-0.68 1.05,-1.13 0.27,-0.15 0.18,-0.3 -0.01,-0.27 -0.2,0.03 -0.47,-0.04 -0.47,-0.04 0.44,-0.65 1.12,-0.47 1.33,-0.21 0.12,0.15 0.21,0.03 0.21,-0.1 0,-0.13 -0.03,-0.41 0.4,-0.48 0.43,-0.07 0.6,0.26 0.61,0.4 0.01,0.14 0.23,0.11 0.25,0 0.03,-0.11 0.21,-0.34 0.81,-0.21 0.6,0.13 0.78,0.67 0.78,0.67 -0.44,-0.16 -0.61,-0.04 -0.36,0.18 0.95,0.81 0.89,1.4 0.89,1.4 -0.4,-0.37 -0.56,-0.22 -0.37,0.06 0.48,0.66 0.44,1.4 0.44,1.4 0,0 -0.3,-0.13 -0.44,-0.25 -0.23,-0.21 -0.45,0.04 -0.23,0.3 1.21,1.42 0.96,2.03 1.43,2.82 0.47,0.79 2.15,2.54 2.52,2.88 0.34,0.31 0.65,-0.27 0.71,-0.89 0.04,-0.44 0.18,-0.88 0.65,-0.55 -0.5,0.58 -0.04,1.02 -0.04,1.02 -0.41,0.72 -0.24,0.67 0.25,0.84 -0.81,0.62 -0.13,1.49 -0.13,1.49 -0.54,0.26 -0.45,0.89 -0.45,0.89 -0.36,-0.01 -0.54,0.31 -0.54,0.31 0,0 -0.3,-0.25 -0.45,-0.58 -0.23,-0.48 0.11,-0.79 -0.41,-1.18 -1.37,-1 -2.79,-2.21 -3.19,-2.68 -0.4,-0.47 -0.43,-0.26 -0.55,0.07 -0.51,-0.88 -0.69,-1.6 -0.84,-1.13 -0.07,0.25 -0.23,0.31 -0.23,0.31 -0.24,-1.08 -0.17,-2.07 -0.74,-1.36 -0.1,-0.81 -0.4,-0.82 -0.35,-1.74 0.01,-0.33 -0.38,-0.47 -0.4,-0.06 -0.06,1.15 0.41,1.38 0.33,2.34 -0.04,0.51 0.16,0.58 0.54,0.51 0.23,0.84 0.6,1.33 0.6,1.33 0.14,-0.26 0.34,-0.34 0.34,-0.34 0.41,0.41 0.6,0.87 0.99,1.19 0.07,-0.24 0.17,-0.33 0.44,-0.11 0.27,0.21 0.18,0.31 0.18,0.47 0,0.16 -0.21,0.52 -0.21,0.52 a 0.475,0.475 0 0 0 -0.23,-0.3 c -0.24,0.31 -0.08,1.12 -0.72,1.59 -0.03,-0.27 -0.17,-0.35 -0.17,-0.35 -0.41,0.33 -0.21,0.68 -0.65,1.01 -0.03,-0.13 -0.14,-0.11 -0.14,-0.11 0,0 -0.45,0.84 -1.72,2.24 -0.62,0.69 -0.4,1.42 -1.26,3.56 -0.33,0.82 -0.47,1.01 -0.74,2.09 -0.27,1.08 -0.44,0.98 -2.51,2.72 -0.33,0.27 -0.24,0.33 -0.2,0.51 0.04,0.18 0.34,1.16 0.34,1.16 -0.4,0.14 -0.15,0.63 0.14,0.54 1.86,-0.58 2.21,-0.01 2.21,-0.01 -0.31,-0.1 -0.65,0.27 -0.65,0.27 -0.71,-0.38 -0.98,0.47 -0.98,0.47 -0.16,-0.2 -0.35,-0.06 -0.35,-0.06 0.28,0.35 -0.13,0.51 -0.5,0.31 -0.44,-0.24 -0.67,0.24 -0.89,-0.17 -0.13,-0.26 -0.45,-1.09 -0.63,-1.62 z m 6.3,-1.55 c 0.15,0.52 0.39,1.37 0.64,2.15 0.25,0.78 0.65,0.97 0.65,0.97 -0.3,0.13 -0.8,0.1 -0.8,0.1 -0.69,-2.04 -2.39,-1.94 -2.39,-1.94 -0.02,1.46 1.3,2.09 1.3,2.09 -0.35,0.08 -0.7,0.05 -0.7,0.05 -0.8,-1.54 -0.65,-2.19 -2.79,-1.79 -0.2,-0.5 -0.3,-1.1 -0.3,-1.1 2.04,-1.59 2.59,-2.07 2.69,-2.73 0.1,-0.65 0.35,-1.22 0.35,-1.22 0.5,0.8 0.63,0.77 1.05,0.9 0.42,0.13 0.33,0.25 0.69,1.41 0.2,0.65 -0.58,0.4 -0.39,1.11 z m 0.1,3.3 c -0.65,-0.16 -1.33,-0.78 -1.5,-1.47 0.65,0.17 1.36,0.85 1.5,1.47 z m -1.9,0.25 c 0,0 -0.25,-0.23 -0.7,-0.61 0,0 0.04,-0.15 0.36,-0.17 -0.01,0.01 0.43,0.27 0.34,0.78 z m -1.1,-0.06 c 0,0 -0.32,-0.17 -0.57,-0.46 0,0 0,-0.19 0.32,-0.21 0,0.01 0.31,0.3 0.25,0.67 z m 1.31,2.01 c 0.36,-0.49 2.39,-1.25 3.02,-0.75 -0.2,0.26 -1.23,0.94 -3.02,0.75 z m 0.28,-1.13 c -4.55,0.19 -6.33,-0.63 -6.33,-0.63 l 0.21,-0.3 c 1.02,0.25 1.4,0.11 1.82,0.3 0.42,0.19 0.49,-0.25 1.31,0.06 0.29,0.11 0.42,0 0.59,-0.25 0.19,0 0.57,0.17 0.74,0.36 0.16,0.18 0.47,0.19 0.4,0.06 -0.08,-0.13 0.08,-0.32 0.08,-0.32 0,0 0.38,0.06 0.79,0.42 0.28,0.24 0.25,-0.06 0.53,-0.25 1.97,0 3.05,-0.23 3.05,-0.23 0.81,0.25 1.12,-0.36 1.12,-0.36 0.3,0.17 0.55,0.15 0.55,0.15 0.4,0.23 0.89,0.25 0.89,0.25 0,0 -2.04,0.58 -5.75,0.74 z m 4.83,-1.63 c 0,0 0.1,-0.21 0.32,-0.21 0,0 0.47,0.28 0.44,0.66 0,0 -0.51,-0.11 -0.76,-0.45 z m 0.62,-0.55 c -0.84,-0.24 -1.13,0.23 -0.89,0.72 -0.89,-0.36 -0.72,0.25 -0.72,0.25 0,0 -0.17,0.25 -0.49,0.08 -0.18,-0.09 -0.68,-0.62 -0.89,-1.14 -0.21,-0.51 -0.34,-1.31 -0.53,-1.89 -0.19,-0.59 0.46,-0.34 0.34,-1.04 -0.08,-0.48 -0.29,-1.25 -0.49,-1.76 -0.21,-0.51 -0.55,-0.3 -0.93,-0.68 -0.27,-0.27 -0.64,-0.78 -0.64,-0.78 0,0 0.51,-0.83 0.91,-2.67 0.22,-1.01 0.66,-1.25 0.66,-1.25 0,0 0.36,0.83 1.27,1.76 0.3,0.31 0.42,0.55 0.47,1.25 0.06,0.7 0.34,1.59 0.44,2.59 0.04,0.46 0.14,0.65 -0.26,1.29 -0.47,0.76 -0.55,0.87 -0.1,2.46 0.13,0.45 0.34,0.58 0.66,0.49 0.82,-0.21 1.21,-0.25 1.51,-0.02 -0.24,0.07 -0.32,0.34 -0.32,0.34 z m 0.4,1.44 c 0,0 0.13,-0.23 0.11,-0.47 0,0 0.47,0 0.81,0.28 0.01,0 -0.58,0.15 -0.92,0.19 z m -0.02,-1.19 c 0,0 0.04,-0.3 0.36,-0.32 0,0 0.55,0.38 0.55,0.85 0,-0.01 -0.4,-0.27 -0.91,-0.53 z m -1.36,-1.19 c -0.35,0.07 -0.35,0.03 -0.51,-0.7 -0.17,-0.73 -0.03,-0.8 0.29,-1.37 0.26,-0.46 0.45,-0.75 0.38,-1.18 -0.06,-0.43 -0.27,-2.26 -0.44,-3.13 -0.18,-0.86 -0.21,-1 -1.18,-2.22 -0.51,-0.63 -0.76,-1.24 -0.76,-1.24 l 0.46,-0.57 c 0.1,0.14 0.29,0.18 0.29,0.18 0.24,-0.29 0.18,-0.77 0.56,-0.98 0.16,-0.05 0.33,0.08 0.33,0.08 0.31,-0.43 0.02,-0.51 0.75,-1.34 0.16,0.02 0.24,0.22 0.24,0.22 0.32,-0.4 0.05,-0.68 0.59,-1.69 0.45,0.32 1.09,0.85 1.57,1.15 0.48,0.3 0.44,0.37 0.64,1.16 0.27,1.1 0.86,1.04 0.86,1.04 0.16,0.26 0.66,0.45 0.66,0.45 l 0.12,4.45 c 0.15,5.63 4.03,7.08 8.8,7.55 -0.19,0.32 -0.09,0.61 -0.09,0.61 0,0 -0.89,-0.2 -1.61,0.34 -0.28,0.21 -0.48,0.11 -0.48,0.11 -1.08,-1.8 -2.65,-1.95 -2.65,-1.95 -0.33,0.24 0.32,1.26 0.32,1.26 -1.07,-2.03 -2.85,-2.54 -2.85,-2.54 -0.05,1.29 0.83,1.92 0.83,1.92 l -0.63,-0.21 c -0.43,-2.2 -1.96,-2.52 -1.96,-2.52 -0.29,1.43 0.81,2.33 0.81,2.33 l -0.44,-0.08 c -0.29,-0.76 -0.91,-1.56 -0.91,-1.56 1.45,-2.5 0.14,-4.29 0.14,-4.29 -0.56,0.76 -0.81,1.52 -0.81,1.52 -0.22,-0.56 -0.29,-1.1 -0.29,-1.1 1.93,-2.58 0.89,-4.69 0.89,-4.69 -0.76,0.51 -1.11,1.44 -1.11,1.44 l -0.03,-0.7 c 1.19,-2.54 -0.61,-4.18 -0.61,-4.18 -1.45,2.58 0.27,4.18 0.27,4.18 l 0.03,0.67 c -0.61,-1.58 -1.82,-1.9 -1.82,-1.9 -0.4,2.73 1.77,3.98 1.77,3.98 0.02,0.49 0.1,0.92 0.1,0.92 -0.59,-0.64 -1.33,-0.92 -1.33,-0.92 -0.18,3.19 2.03,4.02 2.03,4.02 0.14,0.35 0.19,0.67 0.19,0.67 -0.99,-0.66 -1.82,-0.61 -1.82,-0.61 0.22,1.76 1.72,2.57 1.72,2.57 -0.43,0.02 -0.75,0.15 -0.75,0.15 -0.77,-1.35 -1.15,-1.59 -2.56,-1.3 z m 10.73,2.83 c -0.67,-0.1 -1.19,-0.68 -1.35,-1.19 0.38,0.11 1.03,0.38 1.35,1.19 z m -2.44,-0.79 c -0.67,-0.1 -1.31,-1.06 -1.32,-1.45 0.57,0.14 1.29,0.94 1.32,1.45 z m -2.33,-0.75 c -0.67,-0.26 -1.11,-1.37 -1.05,-1.72 0.6,0.24 1.02,1.21 1.05,1.72 z m -1.63,-0.21 c -0.65,-0.16 -1.81,-0.97 -1.97,-1.85 0.84,0.19 1.83,1.23 1.97,1.85 z m -0.33,-4.62 c 0.43,0.75 0.1,2.01 -0.21,2.09 -0.37,-0.63 -0.02,-1.85 0.21,-2.09 z m -0.99,1.34 C 120.47,28.6 119.94,27 120,26.65 c 0.98,0.63 1.33,1.87 1.36,2.38 z m -0.46,-6.54 c -0.61,-0.56 -0.59,-2.21 -0.32,-2.66 0.64,0.7 0.54,2.16 0.32,2.66 z m 0.35,3.57 c -0.37,-0.62 0.25,-2.27 0.67,-2.63 0.3,0.7 -0.24,2.39 -0.67,2.63 z M 120.71,25 c -0.94,-0.51 -1.26,-1.93 -1.2,-2.28 0.94,0.55 1.17,1.78 1.2,2.28 z m 0.9,9.42 c 0.36,-0.44 2.22,-1.08 2.85,-0.58 -0.2,0.26 -1.32,0.92 -2.85,0.58 z m 3.45,0.8 c 0.45,-0.49 2.01,-0.91 2.75,-0.3 -0.27,0.22 -1.62,0.83 -2.75,0.3 z m 0.07,-1.57 c -2.25,-0.79 -4.22,-0.26 -4.22,-0.26 l 0.3,-0.42 c 1.84,-0.26 2.99,-0.08 5.19,0.68 1.81,0.63 4.05,1.1 4.05,1.1 l -0.93,0.23 c 0,-0.01 -1.47,-0.31 -4.39,-1.33 z m 4.32,2.4 c -0.38,-0.17 -0.32,-0.57 -0.32,-0.57 1.1,-0.3 2.24,-0.53 2.24,-0.53 0.36,0.1 0.36,0.49 0.36,0.49 0,0 -1.05,0.19 -2.28,0.61 z m 2.75,-0.49 c -0.04,-1.17 -1.46,-1.17 -1.46,-1.17 1.5,-0.72 2.14,0.57 2.14,0.57 z m 0.95,-2.46 c 1.01,0 0.87,0.87 0,1.31 -0.87,-0.44 -1.01,-1.31 0,-1.31 z m 0.95,2.46 -0.68,-0.61 c 0,0 0.64,-1.29 2.14,-0.57 0,0 -1.42,0 -1.46,1.18 z m 2.75,0.49 c -1.23,-0.42 -2.27,-0.61 -2.27,-0.61 0,0 0,-0.4 0.36,-0.49 0,0 1.14,0.23 2.23,0.53 0,0 0.06,0.4 -0.32,0.57 z m 4.39,-0.83 c -1.14,0.53 -2.48,-0.08 -2.76,-0.3 0.76,-0.61 2.31,-0.2 2.76,0.3 z m 0.6,-1.38 c 0.63,-0.5 2.49,0.15 2.85,0.58 -1.53,0.34 -2.65,-0.32 -2.85,-0.58 z m -0.67,-0.19 c -2.92,1.02 -4.4,1.33 -4.4,1.33 l -0.93,-0.23 c 0,0 2.24,-0.47 4.05,-1.1 2.2,-0.76 3.35,-0.95 5.19,-0.68 l 0.3,0.42 c 0.01,-0.01 -1.96,-0.53 -4.21,0.26 z m -3.95,0.41 c 0.32,-0.81 0.97,-1.08 1.35,-1.19 -0.16,0.51 -0.68,1.1 -1.35,1.19 z m 2.44,-0.79 c 0.03,-0.51 0.75,-1.31 1.32,-1.45 -0.02,0.4 -0.65,1.35 -1.32,1.45 z m 2.33,-0.75 c 0.03,-0.51 0.45,-1.48 1.05,-1.72 0.06,0.35 -0.38,1.46 -1.05,1.72 z m 3.6,-2.06 c -0.16,0.88 -1.32,1.69 -1.97,1.85 0.14,-0.62 1.13,-1.66 1.97,-1.85 z m -1.64,-2.77 c 0.22,0.24 0.57,1.47 0.21,2.09 -0.3,-0.09 -0.64,-1.34 -0.21,-2.09 z m 0.7,4.67 c 0,0 1.5,-0.81 1.72,-2.57 0,0 -0.83,-0.05 -1.82,0.61 0,0 0.05,-0.32 0.19,-0.67 0,0 2.2,-0.83 2.03,-4.02 0,0 -0.73,0.29 -1.33,0.92 0,0 0.08,-0.43 0.1,-0.92 0,0 2.17,-1.25 1.77,-3.98 0,0 -1.21,0.32 -1.82,1.9 l 0.03,-0.67 c 0,0 1.72,-1.6 0.27,-4.18 0,0 -1.8,1.65 -0.6,4.18 l -0.03,0.7 c 0,0 -0.35,-0.92 -1.11,-1.44 0,0 -1.04,2.1 0.89,4.69 0,0 -0.06,0.54 -0.29,1.1 0,0 -0.26,-0.75 -0.81,-1.52 0,0 -1.31,1.79 0.14,4.29 0,0 -0.63,0.8 -0.91,1.56 l -0.45,0.08 c 0,0 1.1,-0.9 0.81,-2.33 0,0 -1.53,0.32 -1.96,2.52 l -0.62,0.21 c 0,0 0.88,-0.63 0.83,-1.92 0,0 -1.79,0.51 -2.85,2.54 0,0 0.65,-1.02 0.32,-1.26 0,0 -1.56,0.14 -2.65,1.95 0,0 -0.2,0.1 -0.48,-0.11 -0.72,-0.54 -1.61,-0.34 -1.61,-0.34 0,0 0.11,-0.3 -0.08,-0.61 4.76,-0.47 8.65,-1.92 8.8,-7.55 l 0.12,-4.45 c 0,0 0.5,-0.19 0.66,-0.45 0,0 0.59,0.06 0.86,-1.04 0.19,-0.79 0.16,-0.86 0.64,-1.16 0.48,-0.3 1.12,-0.83 1.57,-1.15 0.54,1.01 0.27,1.3 0.59,1.69 0,0 0.08,-0.21 0.24,-0.22 0.74,0.83 0.45,0.91 0.75,1.34 0,0 0.18,-0.13 0.33,-0.08 0.38,0.21 0.32,0.69 0.56,0.98 0,0 0.19,-0.03 0.29,-0.18 l 0.46,0.57 c 0,0 -0.26,0.61 -0.76,1.24 -0.97,1.21 -1.01,1.35 -1.18,2.22 -0.18,0.87 -0.38,2.7 -0.45,3.13 -0.06,0.43 0.12,0.72 0.38,1.18 0.32,0.57 0.46,0.64 0.29,1.37 -0.16,0.73 -0.17,0.77 -0.51,0.7 -1.42,-0.29 -1.8,-0.05 -2.55,1.28 -0.02,0.02 -0.34,-0.11 -0.77,-0.13 z m 1.65,-5.71 c 0.06,0.35 -0.47,1.95 -1.36,2.38 0.03,-0.51 0.38,-1.75 1.36,-2.38 z m -1.25,-0.59 c -0.43,-0.24 -0.97,-1.93 -0.67,-2.63 0.42,0.36 1.04,2.01 0.67,2.63 z m 0.67,-6.24 c 0.27,0.45 0.29,2.11 -0.32,2.66 -0.22,-0.49 -0.32,-1.95 0.32,-2.66 z M 145.59,25 c 0.03,-0.51 0.26,-1.74 1.2,-2.28 0.06,0.36 -0.25,1.78 -1.2,2.28 z m 0.05,8.42 c 0.34,-0.28 0.81,-0.28 0.81,-0.28 -0.02,0.25 0.11,0.47 0.11,0.47 -0.33,-0.04 -0.92,-0.19 -0.92,-0.19 z m 0.04,-0.48 c 0,-0.47 0.55,-0.85 0.55,-0.85 0.32,0.02 0.36,0.32 0.36,0.32 -0.52,0.27 -0.91,0.53 -0.91,0.53 z m 2.48,-1.09 c 0.32,0.08 0.54,-0.04 0.66,-0.49 0.46,-1.59 0.38,-1.7 -0.1,-2.46 -0.4,-0.64 -0.31,-0.83 -0.26,-1.29 0.1,-1 0.38,-1.9 0.44,-2.59 0.06,-0.7 0.17,-0.94 0.47,-1.25 0.91,-0.93 1.27,-1.76 1.27,-1.76 0,0 0.44,0.24 0.66,1.25 0.4,1.84 0.91,2.67 0.91,2.67 0,0 -0.38,0.51 -0.64,0.78 -0.38,0.38 -0.72,0.17 -0.93,0.68 a 9.51,9.51 0 0 0 -0.49,1.76 c -0.11,0.7 0.53,0.45 0.34,1.04 -0.19,0.59 -0.32,1.38 -0.53,1.89 -0.21,0.51 -0.72,1.04 -0.89,1.14 -0.32,0.17 -0.49,-0.08 -0.49,-0.08 0,0 0.17,-0.61 -0.72,-0.25 0.24,-0.49 -0.05,-0.96 -0.89,-0.72 0,0 -0.08,-0.27 -0.32,-0.34 0.3,-0.23 0.69,-0.19 1.51,0.02 z m -0.57,0.87 c -0.25,0.34 -0.76,0.46 -0.76,0.46 -0.04,-0.38 0.43,-0.66 0.43,-0.66 0.23,-0.01 0.33,0.2 0.33,0.2 z m 2.09,2.01 c 0.63,-0.5 2.66,0.26 3.02,0.75 -1.8,0.19 -2.82,-0.49 -3.02,-0.75 z m 2.74,-0.38 c -3.71,-0.15 -5.74,-0.74 -5.74,-0.74 0,0 0.49,-0.02 0.89,-0.25 0,0 0.25,0.02 0.55,-0.15 0,0 0.3,0.61 1.12,0.36 0,0 1.08,0.23 3.05,0.23 0.28,0.19 0.26,0.48 0.53,0.25 0.42,-0.36 0.79,-0.42 0.79,-0.42 0,0 0.15,0.19 0.08,0.32 -0.08,0.13 0.24,0.12 0.4,-0.06 0.17,-0.19 0.55,-0.36 0.74,-0.36 0.17,0.25 0.29,0.35 0.59,0.25 0.81,-0.3 0.89,0.13 1.31,-0.06 0.42,-0.19 0.8,-0.06 1.82,-0.3 l 0.21,0.3 c -0.01,0 -1.79,0.81 -6.34,0.63 z m 6.65,-1.48 c -0.18,-0.28 0.44,-0.3 0.44,-0.3 -0.02,0.17 -0.31,0.51 -0.44,0.3 z m 0.68,-1.63 c 0.4,-0.1 0.59,-0.21 0.59,-0.21 0,0 0.05,0.62 -0.7,0.93 -0.52,0.21 -0.59,-0.55 0.11,-0.72 z m 0.44,2.14 c -0.66,0.08 -0.64,-0.7 -0.06,-0.76 0.59,-0.06 0.95,0.27 0.95,0.27 0,0 -0.4,0.43 -0.89,0.49 z"/>
  <path inkscape:connector-curvature="0" id="path16" style="color:#1d1d1b;text-decoration:none;text-decoration-line:none;text-decoration-style:solid;text-decoration-color:#1d1d1b;fill:#1d1d1b" d="m 136.35,25.91 c -0.64,0 -1.16,0.5 -1.16,1.13 0,0.62 0.52,1.13 1.16,1.13 0.64,0 1.16,-0.51 1.16,-1.13 -0.01,-0.63 -0.53,-1.13 -1.16,-1.13 z m 0,1.79 c -0.38,0 -0.68,-0.3 -0.68,-0.67 0,-0.37 0.31,-0.67 0.68,-0.67 0.38,0 0.68,0.3 0.68,0.67 0,0.37 -0.31,0.67 -0.68,0.67 z"/>
</svg>