<svg width="246" height="73" viewBox="0 0 246 73" fill="none" xmlns="http://www.w3.org/2000/svg">
<path d="M128.513 17.0078H132.881L140.449 35.6153H140.722L148.306 17.0078H152.75V40.9579H149.231V23.6326H149.004L141.966 40.9274H139.13L132.168 23.6174H131.941V40.9579H128.513V17.0078Z" fill="#29D1C9"/>
<path d="M161.502 41.338C160.379 41.338 159.348 41.1243 158.438 40.6969C157.528 40.2695 156.8 39.6589 156.269 38.8346C155.738 38.0256 155.465 37.0334 155.465 35.858C155.465 34.8353 155.662 34.011 156.042 33.3546C156.436 32.7135 156.952 32.1945 157.619 31.7976C158.286 31.416 159.014 31.126 159.818 30.9276C160.622 30.7291 161.456 30.5917 162.306 30.4849C163.383 30.3628 164.247 30.2712 164.914 30.1796C165.582 30.088 166.052 29.9506 166.355 29.7674C166.659 29.5843 166.81 29.279 166.81 28.8668V28.7905C166.81 27.7678 166.522 26.9893 165.961 26.4245C165.385 25.875 164.55 25.5849 163.428 25.5849C162.306 25.5849 161.35 25.8444 160.668 26.3482C159.985 26.8519 159.53 27.432 159.272 28.0731L155.996 27.3098C156.39 26.2108 156.967 25.3407 157.71 24.6691C158.468 23.9974 159.318 23.509 160.304 23.2037C161.289 22.8984 162.291 22.7305 163.367 22.7305C164.08 22.7305 164.839 22.8068 165.643 22.9747C166.446 23.1426 167.19 23.4479 167.902 23.8906C168.615 24.3333 169.192 24.9744 169.632 25.7986C170.071 26.6229 170.299 27.6915 170.299 28.9889V40.9106H166.901V38.453H166.78C166.568 38.8957 166.234 39.3383 165.779 39.7657C165.324 40.2084 164.748 40.5748 164.05 40.8648C163.352 41.1548 162.503 41.2922 161.517 41.2922L161.502 41.338ZM162.26 38.5446C163.231 38.5446 164.05 38.3614 164.732 37.9798C165.415 37.5982 165.931 37.0944 166.295 36.4839C166.659 35.858 166.841 35.2016 166.841 34.5147V32.1792C166.719 32.3014 166.477 32.4082 166.128 32.5151C165.779 32.6219 165.37 32.7135 164.93 32.7898C164.475 32.8662 164.05 32.9272 163.625 32.9883C163.201 33.0493 162.837 33.0951 162.548 33.1257C161.881 33.2172 161.259 33.3699 160.713 33.5683C160.152 33.7668 159.712 34.0568 159.378 34.4384C159.045 34.82 158.878 35.3238 158.878 35.9343C158.878 36.8044 159.196 37.4608 159.833 37.8882C160.47 38.3309 161.274 38.5446 162.26 38.5446Z" fill="#29D1C9"/>
<path d="M174.349 40.9564V22.99H177.685V25.8597H177.883C178.216 24.898 178.793 24.1348 179.612 23.57C180.431 23.0052 181.371 22.7305 182.418 22.7305C182.63 22.7305 182.888 22.7305 183.176 22.761C183.464 22.7763 183.707 22.7915 183.889 22.8221V26.165C183.752 26.1192 183.51 26.0734 183.146 26.0429C182.782 25.9971 182.433 25.9818 182.069 25.9818C181.25 25.9818 180.522 26.1497 179.869 26.5008C179.217 26.8519 178.717 27.3251 178.353 27.9357C177.989 28.5463 177.807 29.2332 177.807 30.0269V40.9716H174.364L174.349 40.9564Z" fill="#29D1C9"/>
<path d="M186.24 40.9579V17.0078H189.683V40.9579H186.24ZM189.44 34.8674L189.395 30.6086H190.016L197.115 22.9915H201.271L193.171 31.6771H192.595L189.44 34.8674ZM197.494 40.9579L191.108 32.4403L193.505 29.9827L201.771 40.9579H197.494Z" fill="#29D1C9"/>
<path d="M210.371 41.3238C208.627 41.3238 207.11 40.9422 205.836 40.179C204.562 39.4157 203.576 38.3472 202.894 36.9581C202.211 35.5691 201.862 33.951 201.862 32.104C201.862 30.257 202.196 28.6389 202.878 27.2346C203.561 25.8303 204.501 24.7312 205.73 23.9527C206.958 23.159 208.399 22.7773 210.068 22.7773C211.084 22.7773 212.055 22.9453 213.01 23.2811C213.951 23.6169 214.815 24.1359 215.558 24.8533C216.317 25.5708 216.908 26.5019 217.348 27.6467C217.788 28.7916 218.015 30.1807 218.015 31.7987V33.0504H203.819V30.4249H216.226L214.618 31.295C214.618 30.1959 214.451 29.219 214.102 28.3642C213.769 27.5246 213.253 26.853 212.57 26.3798C211.888 25.9066 211.054 25.6623 210.053 25.6623C209.052 25.6623 208.202 25.9066 207.489 26.3798C206.776 26.853 206.246 27.4941 205.866 28.2879C205.487 29.0816 205.305 29.9517 205.305 30.8981V32.6841C205.305 33.9205 205.518 34.9585 205.942 35.8133C206.367 36.6681 206.958 37.3245 207.717 37.7672C208.475 38.2098 209.37 38.4388 210.371 38.4388C211.038 38.4388 211.63 38.3472 212.161 38.1488C212.692 37.9503 213.162 37.6603 213.556 37.2787C213.951 36.8971 214.254 36.4239 214.451 35.8438L217.742 36.4697C217.469 37.4313 217.014 38.2862 216.332 39.0036C215.665 39.7363 214.815 40.3011 213.799 40.698C212.783 41.0948 211.63 41.2933 210.326 41.2933L210.371 41.3238Z" fill="#29D1C9"/>
<path d="M229.088 22.9772V25.7859H219.35V22.9772H229.088ZM221.944 18.7031H225.402V35.6773C225.402 36.5016 225.569 37.097 225.918 37.4786C226.251 37.8602 226.813 38.0434 227.556 38.0434C227.738 38.0434 227.935 38.0434 228.132 38.0128C228.344 37.9976 228.542 37.967 228.769 37.9212L229.421 40.8215C229.073 40.9436 228.693 41.0352 228.269 41.0963C227.844 41.1573 227.434 41.1879 227.025 41.1879C225.478 41.1879 224.249 40.7452 223.324 39.8751C222.399 39.005 221.929 37.8297 221.929 36.3795V18.7031H221.944Z" fill="#29D1C9"/>
<path d="M245.302 27.3869L242.162 27.9364C241.965 27.3411 241.586 26.7916 241.04 26.2878C240.494 25.7841 239.675 25.5399 238.582 25.5399C237.597 25.5399 236.793 25.7688 236.125 26.2115C235.458 26.6542 235.139 27.219 235.139 27.9059C235.139 28.5012 235.367 28.9897 235.807 29.3713C236.247 29.7529 236.96 30.0429 237.93 30.2719L240.782 30.913C242.405 31.2946 243.633 31.8747 244.437 32.6837C245.241 33.4927 245.65 34.5155 245.65 35.7671C245.65 36.8509 245.347 37.8126 244.725 38.6522C244.103 39.4917 243.254 40.1481 242.147 40.6213C241.055 41.0945 239.781 41.3387 238.34 41.3387C236.338 41.3387 234.715 40.9113 233.456 40.0412C232.197 39.1711 231.423 37.95 231.135 36.3777L234.472 35.8587C234.684 36.7441 235.124 37.4005 235.776 37.8584C236.429 38.3163 237.278 38.53 238.325 38.53C239.447 38.53 240.357 38.2858 241.04 37.8126C241.722 37.3394 242.071 36.7441 242.071 36.0572C242.071 34.9276 241.237 34.1491 239.553 33.7522L236.535 33.0806C234.866 32.699 233.638 32.0884 232.834 31.2488C232.045 30.4245 231.651 29.3713 231.651 28.1043C231.651 27.0511 231.939 26.1047 232.531 25.3109C233.122 24.5019 233.941 23.8913 234.973 23.4334C236.004 22.9907 237.202 22.7617 238.522 22.7617C240.463 22.7617 241.98 23.1891 243.087 24.0287C244.194 24.8682 244.922 25.9978 245.286 27.3869H245.302Z" fill="#29D1C9"/>
<path d="M44.0758 40.6804V38.0396L56.0277 20.7754H44V17.2188H61.2757V19.8748L49.3238 37.1238H61.3515V40.6804H44.0758Z" fill="white"/>
<path d="M70.9525 41.032C69.2386 41.032 67.7522 40.6504 66.5084 39.9025C65.2495 39.1392 64.294 38.086 63.6115 36.7274C62.9289 35.3689 62.5801 33.7814 62.5801 31.9649C62.5801 30.1484 62.9289 28.5609 63.6115 27.1871C64.294 25.8133 65.2647 24.76 66.5084 23.9968C67.7673 23.2335 69.2386 22.8672 70.9525 22.8672C72.6664 22.8672 74.1528 23.2488 75.3965 23.9968C76.6402 24.7447 77.6261 25.8133 78.3087 27.1871C78.9912 28.5609 79.34 30.1484 79.34 31.9649C79.34 33.7814 78.9912 35.3536 78.3087 36.7274C77.6261 38.086 76.6554 39.1545 75.3965 39.9025C74.1376 40.6657 72.6664 41.032 70.9525 41.032ZM70.9525 37.6891C71.908 37.6891 72.6816 37.4296 73.3034 36.9259C73.9253 36.4221 74.3803 35.72 74.6837 34.8499C74.987 33.9798 75.1387 33.0181 75.1387 31.9496C75.1387 30.8811 74.987 29.8889 74.6837 29.0188C74.3803 28.1487 73.9101 27.4618 73.3034 26.9428C72.6816 26.4391 71.908 26.1796 70.9525 26.1796C69.9969 26.1796 69.2537 26.4391 68.6167 26.9428C67.9948 27.4466 67.5246 28.1487 67.2213 29.0188C66.9179 29.8889 66.7663 30.8658 66.7663 31.9496C66.7663 33.0334 66.9179 33.9798 67.2213 34.8499C67.5246 35.72 67.9948 36.4069 68.6167 36.9259C69.2386 37.4296 70.0273 37.6891 70.9525 37.6891Z" fill="white"/>
<path d="M88.3798 41.0006C87.0147 41.0006 85.7862 40.6495 84.6941 39.9321C83.6021 39.2299 82.7527 38.1919 82.1157 36.8334C81.4938 35.4748 81.1753 33.8415 81.1753 31.9029C81.1753 29.9643 81.4938 28.2852 82.1308 26.9419C82.7679 25.5986 83.6324 24.5759 84.7245 23.889C85.8165 23.2021 87.0299 22.851 88.3646 22.851C89.396 22.851 90.2454 23.0189 90.8976 23.37C91.5498 23.7211 92.0807 24.1332 92.475 24.6217C92.8694 25.1102 93.1727 25.5681 93.3699 25.9803H93.5367V17.2031H97.6319V40.6801H93.6126V37.8866H93.3547C93.1424 38.314 92.8239 38.772 92.4295 39.2452C92.0351 39.7184 91.5043 40.1305 90.8521 40.4664C90.1999 40.8022 89.3657 40.9853 88.3495 40.9853L88.3798 41.0006ZM89.5174 37.5966C90.3971 37.5966 91.1403 37.3524 91.747 36.8792C92.3537 36.406 92.8239 35.7343 93.1424 34.8795C93.4609 34.0247 93.6277 33.0325 93.6277 31.8877C93.6277 30.7428 93.4761 29.7506 93.1575 28.8958C92.839 28.0562 92.3688 27.3999 91.7621 26.9419C91.1554 26.484 90.3971 26.255 89.5174 26.255C88.6377 26.255 87.849 26.4993 87.2271 26.9725C86.6052 27.4609 86.1502 28.1173 85.8469 28.9721C85.5435 29.8269 85.3918 30.7886 85.3918 31.8877C85.3918 32.9867 85.5435 33.9636 85.862 34.8185C86.1805 35.6733 86.6356 36.3602 87.2423 36.8486C87.8489 37.3371 88.6073 37.5813 89.5174 37.5813V37.5966Z" fill="white"/>
<path d="M102.789 20.6085C102.137 20.6085 101.575 20.3948 101.105 19.9521C100.635 19.5095 100.408 18.9752 100.408 18.3646C100.408 17.754 100.65 17.2045 101.105 16.7618C101.56 16.3192 102.137 16.1055 102.789 16.1055C103.441 16.1055 103.987 16.3192 104.457 16.7618C104.927 17.2045 105.155 17.7388 105.155 18.3494C105.155 18.9599 104.927 19.5095 104.457 19.9521C103.987 20.3948 103.426 20.6085 102.789 20.6085ZM100.726 40.6967V23.0814H104.836V40.6967H100.726Z" fill="white"/>
<path d="M112.814 41.0469C111.692 41.0469 110.691 40.8485 109.811 40.4364C108.932 40.0242 108.219 39.4289 107.718 38.6504C107.203 37.8567 106.945 36.895 106.945 35.7349C106.945 34.7427 107.127 33.9337 107.491 33.2773C107.855 32.6209 108.355 32.1019 108.992 31.7203C109.629 31.3387 110.342 31.0334 111.131 30.8349C111.92 30.6365 112.739 30.4839 113.588 30.4075C114.619 30.2854 115.454 30.1938 116.091 30.1022C116.728 30.0259 117.183 29.8885 117.471 29.6901C117.759 29.5069 117.896 29.2016 117.896 28.8048V28.7284C117.896 27.8736 117.638 27.2172 117.137 26.744C116.637 26.2708 115.909 26.0419 114.953 26.0419C113.937 26.0419 113.133 26.2556 112.557 26.6982C111.98 27.1409 111.571 27.6599 111.358 28.2552L107.521 27.7057C107.824 26.6372 108.325 25.7366 109.023 25.0191C109.72 24.3017 110.57 23.7522 111.586 23.4011C112.587 23.0347 113.709 22.8516 114.923 22.8516C115.757 22.8516 116.591 22.9431 117.425 23.1416C118.26 23.34 119.033 23.6606 119.731 24.1185C120.429 24.5765 120.99 25.2023 121.399 25.9808C121.809 26.7593 122.021 27.7362 122.021 28.8963V40.6806H118.062V38.2535H117.941C117.683 38.742 117.334 39.1847 116.879 39.6121C116.424 40.0395 115.863 40.3753 115.196 40.6501C114.528 40.9248 113.725 41.0469 112.814 41.0469ZM113.861 37.994C114.695 37.994 115.408 37.8261 116.015 37.5056C116.622 37.1697 117.092 36.7271 117.425 36.1775C117.759 35.628 117.926 35.0327 117.926 34.3763V32.3156C117.789 32.4225 117.577 32.514 117.274 32.6056C116.97 32.6972 116.622 32.7735 116.242 32.8499C115.863 32.9262 115.484 32.9872 115.105 33.033C114.741 33.0788 114.407 33.1246 114.149 33.1552C113.527 33.2467 112.981 33.3841 112.496 33.5673C112.011 33.7657 111.631 34.0252 111.343 34.3611C111.055 34.6969 110.919 35.1396 110.919 35.6738C110.919 36.437 111.192 37.0171 111.753 37.414C112.299 37.7956 113.012 37.994 113.861 37.994Z" fill="white"/>
<path d="M39.7229 0.0152646C38.3427 0.0152646 37.1444 0.763229 36.4922 1.89281H16.6684C16.0314 0.778494 14.818 0.0152646 13.4378 0.0152646C11.375 0.0152646 9.70661 1.69437 9.70661 3.77035C9.70661 5.55631 10.9352 7.03697 12.5884 7.41859L14.4085 13.4634L17.6695 11.3569L16.1528 6.3348C16.3499 6.1211 16.5168 5.89213 16.6533 5.6479H33.3677L5.92993 23.4006C5.41424 23.1411 4.83788 22.9885 4.23118 22.9885C2.16841 22.9885 0.5 24.6676 0.5 26.7436C0.5 28.8195 2.16841 30.4986 4.23118 30.4986C4.79237 30.4986 5.32323 30.3765 5.80859 30.1476L21.0518 40.9091C21.0518 41.0159 21.0367 41.1228 21.0367 41.2449C21.0367 43.3209 22.7051 45 24.7678 45C26.8306 45 28.499 43.3209 28.499 41.2449C28.499 39.459 27.2705 37.9783 25.6172 37.5967L21.0822 22.5458L17.8212 24.6523L21.4158 36.5892L7.96236 27.0794C7.96236 26.9725 7.97753 26.8657 7.97753 26.7436C7.97753 26.6825 7.97753 26.6214 7.97753 26.5604L38.009 7.09803C38.5247 7.35753 39.101 7.51018 39.7077 7.51018C41.7705 7.51018 43.4389 5.83107 43.4389 3.75509C43.4389 1.6791 41.7705 0 39.7077 0L39.7229 0.0152646Z" fill="#29D1C9"/>
<path d="M45.0568 70V61.2727H48.108C48.7159 61.2727 49.2173 61.3778 49.6122 61.5881C50.0071 61.7955 50.3011 62.0753 50.4943 62.4276C50.6875 62.777 50.7841 63.1648 50.7841 63.5909C50.7841 63.9659 50.7173 64.2756 50.5838 64.5199C50.4531 64.7642 50.2798 64.9574 50.0639 65.0994C49.8509 65.2415 49.6193 65.3466 49.3693 65.4148V65.5C49.6364 65.517 49.9048 65.6108 50.1747 65.7812C50.4446 65.9517 50.6705 66.196 50.8523 66.5142C51.0341 66.8324 51.125 67.2216 51.125 67.6818C51.125 68.1193 51.0256 68.5128 50.8267 68.8622C50.6278 69.2116 50.3139 69.4886 49.8849 69.6932C49.456 69.8977 48.8977 70 48.2102 70H45.0568ZM46.1136 69.0625H48.2102C48.9006 69.0625 49.3906 68.929 49.6804 68.6619C49.973 68.392 50.1193 68.0653 50.1193 67.6818C50.1193 67.3864 50.044 67.1136 49.8935 66.8636C49.7429 66.6108 49.5284 66.4091 49.25 66.2585C48.9716 66.1051 48.642 66.0284 48.2614 66.0284H46.1136V69.0625ZM46.1136 65.108H48.0739C48.392 65.108 48.679 65.0455 48.9347 64.9205C49.1932 64.7955 49.3977 64.6193 49.5483 64.392C49.7017 64.1648 49.7784 63.8977 49.7784 63.5909C49.7784 63.2074 49.6449 62.8821 49.3778 62.6151C49.1108 62.3452 48.6875 62.2102 48.108 62.2102H46.1136V65.108ZM54.6329 72.4545C54.4624 72.4545 54.3104 72.4403 54.1769 72.4119C54.0434 72.3864 53.9511 72.3608 53.8999 72.3352L54.1556 71.4489C54.3999 71.5114 54.6158 71.5341 54.8033 71.517C54.9908 71.5 55.157 71.4162 55.3019 71.2656C55.4496 71.1179 55.5846 70.8778 55.7067 70.5455L55.8942 70.0341L53.4738 63.4545H54.5647L56.3715 68.6705H56.4397L58.2465 63.4545H59.3374L56.559 70.9545C56.434 71.2926 56.2792 71.5724 56.0945 71.794C55.9099 72.0185 55.6954 72.1847 55.4511 72.2926C55.2096 72.4006 54.9368 72.4545 54.6329 72.4545ZM71.4689 63.4545C71.4178 63.0227 71.2104 62.6875 70.8468 62.4489C70.4831 62.2102 70.0371 62.0909 69.5087 62.0909C69.1223 62.0909 68.7843 62.1534 68.4945 62.2784C68.2076 62.4034 67.9831 62.5753 67.8212 62.794C67.6621 63.0128 67.5826 63.2614 67.5826 63.5398C67.5826 63.7727 67.638 63.973 67.7488 64.1406C67.8624 64.3054 68.0073 64.4432 68.1834 64.554C68.3595 64.6619 68.5442 64.7514 68.7374 64.8224C68.9306 64.8906 69.1081 64.946 69.2701 64.9886L70.1564 65.2273C70.3837 65.2869 70.6365 65.3693 70.9149 65.4744C71.1962 65.5795 71.4647 65.723 71.7203 65.9048C71.9789 66.0838 72.1919 66.3139 72.3595 66.5952C72.5272 66.8764 72.611 67.2216 72.611 67.6307C72.611 68.1023 72.4874 68.5284 72.2402 68.9091C71.9959 69.2898 71.638 69.5923 71.1664 69.8168C70.6976 70.0412 70.128 70.1534 69.4576 70.1534C68.8326 70.1534 68.2914 70.0526 67.834 69.8509C67.3794 69.6491 67.0215 69.3679 66.7601 69.0071C66.5016 68.6463 66.3553 68.2273 66.3212 67.75H67.4121C67.4405 68.0795 67.5513 68.3523 67.7445 68.5682C67.9405 68.7812 68.1877 68.9403 68.486 69.0455C68.7871 69.1477 69.111 69.1989 69.4576 69.1989C69.861 69.1989 70.2232 69.1335 70.5442 69.0028C70.8652 68.8693 71.1195 68.6847 71.307 68.4489C71.4945 68.2102 71.5882 67.9318 71.5882 67.6136C71.5882 67.3239 71.5073 67.0881 71.3453 66.9062C71.1834 66.7244 70.9703 66.5767 70.7061 66.4631C70.4419 66.3494 70.1564 66.25 69.8496 66.1648L68.7757 65.858C68.0939 65.6619 67.5541 65.3821 67.1564 65.0185C66.7587 64.6548 66.5598 64.179 66.5598 63.5909C66.5598 63.1023 66.6919 62.6761 66.9561 62.3125C67.2232 61.946 67.5811 61.6619 68.03 61.4602C68.4817 61.2557 68.986 61.1534 69.5428 61.1534C70.1053 61.1534 70.6053 61.2543 71.0428 61.456C71.4803 61.6548 71.8269 61.9276 72.0826 62.2741C72.3411 62.6207 72.4774 63.0142 72.4916 63.4545H71.4689ZM78.3188 63.4545V64.3068H74.9267V63.4545H78.3188ZM75.9154 61.8864H76.921V68.125C76.921 68.4091 76.9622 68.6222 77.0446 68.7642C77.1298 68.9034 77.2378 68.9972 77.3685 69.0455C77.502 69.0909 77.6426 69.1136 77.7904 69.1136C77.9012 69.1136 77.9921 69.108 78.0631 69.0966C78.1341 69.0824 78.1909 69.071 78.2335 69.0625L78.4381 69.9659C78.3699 69.9915 78.2747 70.017 78.1526 70.0426C78.0304 70.071 77.8756 70.0852 77.6881 70.0852C77.404 70.0852 77.1256 70.0241 76.8529 69.902C76.583 69.7798 76.3585 69.5938 76.1796 69.3438C76.0034 69.0938 75.9154 68.7784 75.9154 68.3977V61.8864ZM83.0177 70.1534C82.6029 70.1534 82.2265 70.0753 81.8884 69.919C81.5504 69.7599 81.2819 69.5312 81.083 69.233C80.8842 68.9318 80.7847 68.5682 80.7847 68.142C80.7847 67.767 80.8586 67.4631 81.0063 67.2301C81.154 66.9943 81.3515 66.8097 81.5986 66.6761C81.8458 66.5426 82.1185 66.4432 82.4168 66.3778C82.718 66.3097 83.0205 66.2557 83.3245 66.2159C83.7222 66.1648 84.0447 66.1264 84.2918 66.1009C84.5418 66.0724 84.7236 66.0256 84.8373 65.9602C84.9538 65.8949 85.012 65.7812 85.012 65.6193V65.5852C85.012 65.1648 84.8969 64.8381 84.6668 64.6051C84.4396 64.3722 84.0944 64.2557 83.6313 64.2557C83.1512 64.2557 82.7748 64.3608 82.5021 64.571C82.2293 64.7812 82.0376 65.0057 81.9268 65.2443L80.9722 64.9034C81.1427 64.5057 81.37 64.196 81.654 63.9744C81.941 63.75 82.2535 63.5937 82.5915 63.5057C82.9325 63.4148 83.2677 63.3693 83.5972 63.3693C83.8075 63.3693 84.0489 63.3949 84.3217 63.446C84.5972 63.4943 84.8629 63.5952 85.1185 63.7486C85.3771 63.902 85.5915 64.1335 85.762 64.4432C85.9325 64.7528 86.0177 65.1676 86.0177 65.6875V70H85.012V69.1136H84.9609C84.8927 69.2557 84.779 69.4077 84.62 69.5696C84.4609 69.7315 84.2492 69.8693 83.985 69.983C83.7208 70.0966 83.3984 70.1534 83.0177 70.1534ZM83.1711 69.25C83.5688 69.25 83.904 69.1719 84.1768 69.0156C84.4523 68.8594 84.6597 68.6577 84.7989 68.4105C84.941 68.1634 85.012 67.9034 85.012 67.6307V66.7102C84.9694 66.7614 84.8756 66.8082 84.7308 66.8509C84.5887 66.8906 84.4239 66.9261 84.2364 66.9574C84.0518 66.9858 83.8714 67.0114 83.6952 67.0341C83.5219 67.054 83.3813 67.071 83.2734 67.0852C83.012 67.1193 82.7677 67.1747 82.5404 67.2514C82.316 67.3253 82.1342 67.4375 81.995 67.5881C81.8586 67.7358 81.7904 67.9375 81.7904 68.1932C81.7904 68.5426 81.9197 68.8068 82.1782 68.9858C82.4396 69.1619 82.7705 69.25 83.1711 69.25ZM90.119 66.0625V70H89.1133V63.4545H90.0849V64.4773H90.1701C90.3235 64.1449 90.5565 63.8778 90.869 63.6761C91.1815 63.4716 91.5849 63.3693 92.0792 63.3693C92.5224 63.3693 92.9101 63.4602 93.2425 63.642C93.5749 63.821 93.8334 64.0938 94.0181 64.4602C94.2028 64.8239 94.2951 65.2841 94.2951 65.8409V70H93.2894V65.9091C93.2894 65.3949 93.1559 64.9943 92.8888 64.7074C92.6218 64.4176 92.2553 64.2727 91.7894 64.2727C91.4684 64.2727 91.1815 64.3423 90.9286 64.4815C90.6786 64.6207 90.4812 64.8239 90.3363 65.0909C90.1914 65.358 90.119 65.6818 90.119 66.0625ZM99.8644 70.1364C99.3189 70.1364 98.8374 69.9986 98.4198 69.723C98.0022 69.4446 97.6755 69.0526 97.4397 68.5469C97.2039 68.0384 97.086 67.4375 97.086 66.7443C97.086 66.0568 97.2039 65.4602 97.4397 64.9545C97.6755 64.4489 98.0036 64.0582 98.424 63.7827C98.8445 63.5071 99.3303 63.3693 99.8814 63.3693C100.308 63.3693 100.644 63.4403 100.891 63.5824C101.141 63.7216 101.332 63.8807 101.462 64.0597C101.596 64.2358 101.7 64.3807 101.773 64.4943H101.859V61.2727H102.864V70H101.893V68.9943H101.773C101.7 69.1136 101.595 69.2642 101.458 69.446C101.322 69.625 101.127 69.7855 100.874 69.9276C100.621 70.0668 100.285 70.1364 99.8644 70.1364ZM100.001 69.233C100.404 69.233 100.745 69.1278 101.023 68.9176C101.302 68.7045 101.514 68.4105 101.658 68.0355C101.803 67.6577 101.876 67.2216 101.876 66.7273C101.876 66.2386 101.805 65.8111 101.663 65.4446C101.521 65.0753 101.31 64.7884 101.032 64.5838C100.754 64.3764 100.41 64.2727 100.001 64.2727C99.5746 64.2727 99.2195 64.3821 98.9354 64.6009C98.6542 64.8168 98.4425 65.1108 98.3005 65.483C98.1613 65.8523 98.0917 66.267 98.0917 66.7273C98.0917 67.1932 98.1627 67.6165 98.3047 67.9972C98.4496 68.375 98.6627 68.6761 98.9439 68.9006C99.228 69.1222 99.5803 69.233 100.001 69.233ZM108.032 70.1534C107.617 70.1534 107.241 70.0753 106.903 69.919C106.565 69.7599 106.296 69.5312 106.097 69.233C105.899 68.9318 105.799 68.5682 105.799 68.142C105.799 67.767 105.873 67.4631 106.021 67.2301C106.168 66.9943 106.366 66.8097 106.613 66.6761C106.86 66.5426 107.133 66.4432 107.431 66.3778C107.732 66.3097 108.035 66.2557 108.339 66.2159C108.737 66.1648 109.059 66.1264 109.306 66.1009C109.556 66.0724 109.738 66.0256 109.852 65.9602C109.968 65.8949 110.026 65.7812 110.026 65.6193V65.5852C110.026 65.1648 109.911 64.8381 109.681 64.6051C109.454 64.3722 109.109 64.2557 108.646 64.2557C108.166 64.2557 107.789 64.3608 107.516 64.571C107.244 64.7812 107.052 65.0057 106.941 65.2443L105.987 64.9034C106.157 64.5057 106.384 64.196 106.668 63.9744C106.955 63.75 107.268 63.5937 107.606 63.5057C107.947 63.4148 108.282 63.3693 108.612 63.3693C108.822 63.3693 109.063 63.3949 109.336 63.446C109.612 63.4943 109.877 63.5952 110.133 63.7486C110.391 63.902 110.606 64.1335 110.776 64.4432C110.947 64.7528 111.032 65.1676 111.032 65.6875V70H110.026V69.1136H109.975C109.907 69.2557 109.793 69.4077 109.634 69.5696C109.475 69.7315 109.264 69.8693 108.999 69.983C108.735 70.0966 108.413 70.1534 108.032 70.1534ZM108.185 69.25C108.583 69.25 108.918 69.1719 109.191 69.0156C109.467 68.8594 109.674 68.6577 109.813 68.4105C109.955 68.1634 110.026 67.9034 110.026 67.6307V66.7102C109.984 66.7614 109.89 66.8082 109.745 66.8509C109.603 66.8906 109.438 66.9261 109.251 66.9574C109.066 66.9858 108.886 67.0114 108.71 67.0341C108.536 67.054 108.396 67.071 108.288 67.0852C108.026 67.1193 107.782 67.1747 107.555 67.2514C107.33 67.3253 107.149 67.4375 107.009 67.5881C106.873 67.7358 106.805 67.9375 106.805 68.1932C106.805 68.5426 106.934 68.8068 107.193 68.9858C107.454 69.1619 107.785 69.25 108.185 69.25ZM114.128 70V63.4545H115.099V64.4432H115.167C115.287 64.1193 115.503 63.8565 115.815 63.6548C116.128 63.4531 116.48 63.3523 116.872 63.3523C116.946 63.3523 117.038 63.3537 117.149 63.3565C117.26 63.3594 117.344 63.3636 117.4 63.3693V64.392C117.366 64.3835 117.288 64.3707 117.166 64.3537C117.047 64.3338 116.92 64.3239 116.787 64.3239C116.469 64.3239 116.184 64.3906 115.934 64.5241C115.687 64.6548 115.491 64.8366 115.346 65.0696C115.204 65.2997 115.133 65.5625 115.133 65.858V70H114.128ZM122.125 70.1364C121.579 70.1364 121.098 69.9986 120.68 69.723C120.263 69.4446 119.936 69.0526 119.7 68.5469C119.464 68.0384 119.346 67.4375 119.346 66.7443C119.346 66.0568 119.464 65.4602 119.7 64.9545C119.936 64.4489 120.264 64.0582 120.685 63.7827C121.105 63.5071 121.591 63.3693 122.142 63.3693C122.568 63.3693 122.905 63.4403 123.152 63.5824C123.402 63.7216 123.592 63.8807 123.723 64.0597C123.856 64.2358 123.96 64.3807 124.034 64.4943H124.119V61.2727H125.125V70H124.153V68.9943H124.034C123.96 69.1136 123.855 69.2642 123.719 69.446C123.582 69.625 123.388 69.7855 123.135 69.9276C122.882 70.0668 122.545 70.1364 122.125 70.1364ZM122.261 69.233C122.665 69.233 123.006 69.1278 123.284 68.9176C123.562 68.7045 123.774 68.4105 123.919 68.0355C124.064 67.6577 124.136 67.2216 124.136 66.7273C124.136 66.2386 124.065 65.8111 123.923 65.4446C123.781 65.0753 123.571 64.7884 123.292 64.5838C123.014 64.3764 122.67 64.2727 122.261 64.2727C121.835 64.2727 121.48 64.3821 121.196 64.6009C120.915 64.8168 120.703 65.1108 120.561 65.483C120.422 65.8523 120.352 66.267 120.352 66.7273C120.352 67.1932 120.423 67.6165 120.565 67.9972C120.71 68.375 120.923 68.6761 121.204 68.9006C121.488 69.1222 121.841 69.233 122.261 69.233ZM140.16 64H139.104C139.041 63.696 138.932 63.429 138.776 63.1989C138.622 62.9688 138.435 62.7756 138.213 62.6193C137.994 62.4602 137.751 62.3409 137.484 62.2614C137.217 62.1818 136.939 62.142 136.649 62.142C136.121 62.142 135.642 62.2756 135.213 62.5426C134.787 62.8097 134.447 63.2031 134.195 63.723C133.945 64.2429 133.82 64.8807 133.82 65.6364C133.82 66.392 133.945 67.0298 134.195 67.5497C134.447 68.0696 134.787 68.4631 135.213 68.7301C135.642 68.9972 136.121 69.1307 136.649 69.1307C136.939 69.1307 137.217 69.0909 137.484 69.0114C137.751 68.9318 137.994 68.8139 138.213 68.6577C138.435 68.4986 138.622 68.304 138.776 68.0739C138.932 67.8409 139.041 67.5739 139.104 67.2727H140.16C140.081 67.7187 139.936 68.1179 139.726 68.4702C139.516 68.8224 139.254 69.1222 138.942 69.3693C138.629 69.6136 138.278 69.7997 137.889 69.9276C137.503 70.0554 137.089 70.1193 136.649 70.1193C135.905 70.1193 135.243 69.9375 134.663 69.5739C134.084 69.2102 133.628 68.6932 133.295 68.0227C132.963 67.3523 132.797 66.5568 132.797 65.6364C132.797 64.7159 132.963 63.9205 133.295 63.25C133.628 62.5795 134.084 62.0625 134.663 61.6989C135.243 61.3352 135.905 61.1534 136.649 61.1534C137.089 61.1534 137.503 61.2173 137.889 61.3452C138.278 61.473 138.629 61.6605 138.942 61.9077C139.254 62.152 139.516 62.4503 139.726 62.8026C139.936 63.152 140.081 63.5511 140.16 64ZM143.998 66.0625V70H142.992V61.2727H143.998V64.4773H144.083C144.236 64.1392 144.466 63.8707 144.773 63.6719C145.083 63.4702 145.495 63.3693 146.009 63.3693C146.455 63.3693 146.846 63.4588 147.181 63.6378C147.516 63.8139 147.776 64.0852 147.961 64.4517C148.148 64.8153 148.242 65.2784 148.242 65.8409V70H147.236V65.9091C147.236 65.3892 147.101 64.9872 146.831 64.7031C146.564 64.4162 146.194 64.2727 145.719 64.2727C145.39 64.2727 145.094 64.3423 144.833 64.4815C144.574 64.6207 144.37 64.8239 144.219 65.0909C144.071 65.358 143.998 65.6818 143.998 66.0625ZM153.268 70.1534C152.853 70.1534 152.477 70.0753 152.139 69.919C151.801 69.7599 151.532 69.5312 151.333 69.233C151.134 68.9318 151.035 68.5682 151.035 68.142C151.035 67.767 151.109 67.4631 151.256 67.2301C151.404 66.9943 151.602 66.8097 151.849 66.6761C152.096 66.5426 152.369 66.4432 152.667 66.3778C152.968 66.3097 153.271 66.2557 153.575 66.2159C153.972 66.1648 154.295 66.1264 154.542 66.1009C154.792 66.0724 154.974 66.0256 155.087 65.9602C155.204 65.8949 155.262 65.7812 155.262 65.6193V65.5852C155.262 65.1648 155.147 64.8381 154.917 64.6051C154.69 64.3722 154.345 64.2557 153.881 64.2557C153.401 64.2557 153.025 64.3608 152.752 64.571C152.479 64.7812 152.288 65.0057 152.177 65.2443L151.222 64.9034C151.393 64.5057 151.62 64.196 151.904 63.9744C152.191 63.75 152.504 63.5937 152.842 63.5057C153.183 63.4148 153.518 63.3693 153.847 63.3693C154.058 63.3693 154.299 63.3949 154.572 63.446C154.847 63.4943 155.113 63.5952 155.369 63.7486C155.627 63.902 155.842 64.1335 156.012 64.4432C156.183 64.7528 156.268 65.1676 156.268 65.6875V70H155.262V69.1136H155.211C155.143 69.2557 155.029 69.4077 154.87 69.5696C154.711 69.7315 154.499 69.8693 154.235 69.983C153.971 70.0966 153.649 70.1534 153.268 70.1534ZM153.421 69.25C153.819 69.25 154.154 69.1719 154.427 69.0156C154.702 68.8594 154.91 68.6577 155.049 68.4105C155.191 68.1634 155.262 67.9034 155.262 67.6307V66.7102C155.22 66.7614 155.126 66.8082 154.981 66.8509C154.839 66.8906 154.674 66.9261 154.487 66.9574C154.302 66.9858 154.122 67.0114 153.945 67.0341C153.772 67.054 153.631 67.071 153.524 67.0852C153.262 67.1193 153.018 67.1747 152.791 67.2514C152.566 67.3253 152.384 67.4375 152.245 67.5881C152.109 67.7358 152.041 67.9375 152.041 68.1932C152.041 68.5426 152.17 68.8068 152.428 68.9858C152.69 69.1619 153.021 69.25 153.421 69.25ZM159.363 70V63.4545H160.335V64.4432H160.403C160.523 64.1193 160.738 63.8565 161.051 63.6548C161.363 63.4531 161.716 63.3523 162.108 63.3523C162.182 63.3523 162.274 63.3537 162.385 63.3565C162.496 63.3594 162.579 63.3636 162.636 63.3693V64.392C162.602 64.3835 162.524 64.3707 162.402 64.3537C162.282 64.3338 162.156 64.3239 162.023 64.3239C161.704 64.3239 161.42 64.3906 161.17 64.5241C160.923 64.6548 160.727 64.8366 160.582 65.0696C160.44 65.2997 160.369 65.5625 160.369 65.858V70H159.363ZM168.345 63.4545V64.3068H164.953V63.4545H168.345ZM165.942 61.8864H166.947V68.125C166.947 68.4091 166.988 68.6222 167.071 68.7642C167.156 68.9034 167.264 68.9972 167.395 69.0455C167.528 69.0909 167.669 69.1136 167.817 69.1136C167.927 69.1136 168.018 69.108 168.089 69.0966C168.16 69.0824 168.217 69.071 168.26 69.0625L168.464 69.9659C168.396 69.9915 168.301 70.017 168.179 70.0426C168.057 70.071 167.902 70.0852 167.714 70.0852C167.43 70.0852 167.152 70.0241 166.879 69.902C166.609 69.7798 166.385 69.5938 166.206 69.3438C166.03 69.0938 165.942 68.7784 165.942 68.3977V61.8864ZM173.792 70.1364C173.161 70.1364 172.617 69.9972 172.16 69.7188C171.705 69.4375 171.354 69.0455 171.107 68.5426C170.863 68.0369 170.741 67.4489 170.741 66.7784C170.741 66.108 170.863 65.517 171.107 65.0057C171.354 64.4915 171.698 64.0909 172.138 63.804C172.582 63.5142 173.099 63.3693 173.69 63.3693C174.03 63.3693 174.367 63.4261 174.699 63.5398C175.032 63.6534 175.334 63.8381 175.607 64.0938C175.88 64.3466 176.097 64.6818 176.259 65.0994C176.421 65.517 176.502 66.0312 176.502 66.642V67.0682H171.457V66.1989H175.479C175.479 65.8295 175.405 65.5 175.258 65.2102C175.113 64.9205 174.905 64.6918 174.636 64.5241C174.369 64.3565 174.053 64.2727 173.69 64.2727C173.289 64.2727 172.942 64.3722 172.65 64.571C172.36 64.767 172.137 65.0227 171.981 65.3381C171.824 65.6534 171.746 65.9915 171.746 66.3523V66.9318C171.746 67.4261 171.832 67.8452 172.002 68.1889C172.175 68.5298 172.415 68.7898 172.722 68.9688C173.029 69.1449 173.386 69.233 173.792 69.233C174.056 69.233 174.295 69.196 174.508 69.1222C174.724 69.0455 174.91 68.9318 175.066 68.7812C175.222 68.6278 175.343 68.4375 175.428 68.2102L176.4 68.483C176.297 68.8125 176.126 69.1023 175.884 69.3523C175.643 69.5994 175.344 69.7926 174.989 69.9318C174.634 70.0682 174.235 70.1364 173.792 70.1364ZM179.292 70V63.4545H180.263V64.4432H180.332C180.451 64.1193 180.667 63.8565 180.979 63.6548C181.292 63.4531 181.644 63.3523 182.036 63.3523C182.11 63.3523 182.202 63.3537 182.313 63.3565C182.424 63.3594 182.508 63.3636 182.565 63.3693V64.392C182.53 64.3835 182.452 64.3707 182.33 64.3537C182.211 64.3338 182.084 64.3239 181.951 64.3239C181.633 64.3239 181.349 64.3906 181.099 64.5241C180.852 64.6548 180.655 64.8366 180.511 65.0696C180.369 65.2997 180.298 65.5625 180.298 65.858V70H179.292ZM187.562 70.1364C186.931 70.1364 186.387 69.9972 185.93 69.7188C185.475 69.4375 185.124 69.0455 184.877 68.5426C184.633 68.0369 184.511 67.4489 184.511 66.7784C184.511 66.108 184.633 65.517 184.877 65.0057C185.124 64.4915 185.468 64.0909 185.908 63.804C186.352 63.5142 186.869 63.3693 187.46 63.3693C187.8 63.3693 188.137 63.4261 188.469 63.5398C188.802 63.6534 189.104 63.8381 189.377 64.0938C189.65 64.3466 189.867 64.6818 190.029 65.0994C190.191 65.517 190.272 66.0312 190.272 66.642V67.0682H185.227V66.1989H189.249C189.249 65.8295 189.175 65.5 189.028 65.2102C188.883 64.9205 188.675 64.6918 188.406 64.5241C188.139 64.3565 187.823 64.2727 187.46 64.2727C187.059 64.2727 186.712 64.3722 186.42 64.571C186.13 64.767 185.907 65.0227 185.751 65.3381C185.594 65.6534 185.516 65.9915 185.516 66.3523V66.9318C185.516 67.4261 185.602 67.8452 185.772 68.1889C185.945 68.5298 186.185 68.7898 186.492 68.9688C186.799 69.1449 187.156 69.233 187.562 69.233C187.826 69.233 188.065 69.196 188.278 69.1222C188.494 69.0455 188.68 68.9318 188.836 68.7812C188.992 68.6278 189.113 68.4375 189.198 68.2102L190.17 68.483C190.067 68.8125 189.896 69.1023 189.654 69.3523C189.413 69.5994 189.114 69.7926 188.759 69.9318C188.404 70.0682 188.005 70.1364 187.562 70.1364ZM195.533 70.1364C194.988 70.1364 194.506 69.9986 194.089 69.723C193.671 69.4446 193.345 69.0526 193.109 68.5469C192.873 68.0384 192.755 67.4375 192.755 66.7443C192.755 66.0568 192.873 65.4602 193.109 64.9545C193.345 64.4489 193.673 64.0582 194.093 63.7827C194.514 63.5071 194.999 63.3693 195.55 63.3693C195.977 63.3693 196.313 63.4403 196.56 63.5824C196.81 63.7216 197.001 63.8807 197.131 64.0597C197.265 64.2358 197.369 64.3807 197.443 64.4943H197.528V61.2727H198.533V70H197.562V68.9943H197.443C197.369 69.1136 197.264 69.2642 197.127 69.446C196.991 69.625 196.796 69.7855 196.543 69.9276C196.291 70.0668 195.954 70.1364 195.533 70.1364ZM195.67 69.233C196.073 69.233 196.414 69.1278 196.693 68.9176C196.971 68.7045 197.183 68.4105 197.327 68.0355C197.472 67.6577 197.545 67.2216 197.545 66.7273C197.545 66.2386 197.474 65.8111 197.332 65.4446C197.19 65.0753 196.979 64.7884 196.701 64.5838C196.423 64.3764 196.079 64.2727 195.67 64.2727C195.244 64.2727 194.889 64.3821 194.604 64.6009C194.323 64.8168 194.112 65.1108 193.97 65.483C193.83 65.8523 193.761 66.267 193.761 66.7273C193.761 67.1932 193.832 67.6165 193.974 67.9972C194.119 68.375 194.332 68.6761 194.613 68.9006C194.897 69.1222 195.249 69.233 195.67 69.233ZM208.882 70.1193C208.308 70.1193 207.813 70.0142 207.399 69.804C206.984 69.5937 206.664 69.3054 206.44 68.9389C206.215 68.5724 206.103 68.1534 206.103 67.6818C206.103 67.3182 206.18 66.9957 206.333 66.7145C206.49 66.4304 206.704 66.1676 206.977 65.9261C207.252 65.6818 207.569 65.4375 207.927 65.1932L209.188 64.2557C209.436 64.0937 209.633 63.9205 209.781 63.7358C209.931 63.5511 210.007 63.3097 210.007 63.0114C210.007 62.7898 209.909 62.5753 209.713 62.3679C209.519 62.1605 209.265 62.0568 208.95 62.0568C208.728 62.0568 208.532 62.1136 208.362 62.2273C208.194 62.3381 208.062 62.4801 207.965 62.6534C207.872 62.8239 207.825 63 207.825 63.1818C207.825 63.3864 207.88 63.5938 207.991 63.804C208.105 64.0114 208.248 64.2244 208.421 64.4432C208.597 64.6591 208.779 64.8807 208.967 65.108L212.972 70H211.762L208.455 66.0114C208.149 65.642 207.87 65.3068 207.62 65.0057C207.37 64.7045 207.171 64.4077 207.024 64.1151C206.876 63.8224 206.802 63.5057 206.802 63.1648C206.802 62.7727 206.889 62.429 207.062 62.1335C207.238 61.8352 207.484 61.6037 207.799 61.4389C208.117 61.2713 208.49 61.1875 208.916 61.1875C209.353 61.1875 209.73 61.2727 210.045 61.4432C210.36 61.6108 210.603 61.8338 210.774 62.1122C210.944 62.3878 211.029 62.6875 211.029 63.0114C211.029 63.429 210.926 63.7912 210.718 64.098C210.511 64.4048 210.228 64.6903 209.87 64.9545L208.132 66.25C207.74 66.5398 207.474 66.821 207.335 67.0938C207.195 67.3665 207.126 67.5625 207.126 67.6818C207.126 67.9545 207.197 68.2088 207.339 68.4446C207.481 68.6804 207.681 68.8707 207.94 69.0156C208.198 69.1605 208.501 69.233 208.847 69.233C209.177 69.233 209.498 69.1634 209.811 69.0241C210.123 68.8821 210.406 68.6776 210.659 68.4105C210.914 68.1435 211.116 67.8224 211.264 67.4474C211.414 67.0724 211.49 66.6506 211.49 66.1818H212.461C212.461 66.7614 212.394 67.2344 212.261 67.6009C212.127 67.9673 211.977 68.2543 211.809 68.4616C211.642 68.669 211.507 68.8239 211.404 68.9261C211.37 68.9687 211.339 69.0114 211.311 69.054C211.282 69.0966 211.251 69.1392 211.217 69.1818C210.936 69.4972 210.58 69.733 210.151 69.8892C209.722 70.0426 209.299 70.1193 208.882 70.1193ZM227.481 65.6364C227.481 66.5568 227.315 67.3523 226.982 68.0227C226.65 68.6932 226.194 69.2102 225.614 69.5739C225.035 69.9375 224.373 70.1193 223.629 70.1193C222.884 70.1193 222.222 69.9375 221.643 69.5739C221.063 69.2102 220.607 68.6932 220.275 68.0227C219.942 67.3523 219.776 66.5568 219.776 65.6364C219.776 64.7159 219.942 63.9205 220.275 63.25C220.607 62.5795 221.063 62.0625 221.643 61.6989C222.222 61.3352 222.884 61.1534 223.629 61.1534C224.373 61.1534 225.035 61.3352 225.614 61.6989C226.194 62.0625 226.65 62.5795 226.982 63.25C227.315 63.9205 227.481 64.7159 227.481 65.6364ZM226.458 65.6364C226.458 64.8807 226.332 64.2429 226.079 63.723C225.829 63.2031 225.489 62.8097 225.06 62.5426C224.634 62.2756 224.157 62.142 223.629 62.142C223.1 62.142 222.621 62.2756 222.192 62.5426C221.766 62.8097 221.427 63.2031 221.174 63.723C220.924 64.2429 220.799 64.8807 220.799 65.6364C220.799 66.392 220.924 67.0298 221.174 67.5497C221.427 68.0696 221.766 68.4631 222.192 68.7301C222.621 68.9972 223.1 69.1307 223.629 69.1307C224.157 69.1307 224.634 68.9972 225.06 68.7301C225.489 68.4631 225.829 68.0696 226.079 67.5497C226.332 67.0298 226.458 66.392 226.458 65.6364ZM235.29 63.4545C235.239 63.0227 235.032 62.6875 234.668 62.4489C234.305 62.2102 233.859 62.0909 233.33 62.0909C232.944 62.0909 232.606 62.1534 232.316 62.2784C232.029 62.4034 231.805 62.5753 231.643 62.794C231.484 63.0128 231.404 63.2614 231.404 63.5398C231.404 63.7727 231.46 63.973 231.57 64.1406C231.684 64.3054 231.829 64.4432 232.005 64.554C232.181 64.6619 232.366 64.7514 232.559 64.8224C232.752 64.8906 232.93 64.946 233.092 64.9886L233.978 65.2273C234.205 65.2869 234.458 65.3693 234.737 65.4744C235.018 65.5795 235.286 65.723 235.542 65.9048C235.8 66.0838 236.013 66.3139 236.181 66.5952C236.349 66.8764 236.433 67.2216 236.433 67.6307C236.433 68.1023 236.309 68.5284 236.062 68.9091C235.817 69.2898 235.46 69.5923 234.988 69.8168C234.519 70.0412 233.95 70.1534 233.279 70.1534C232.654 70.1534 232.113 70.0526 231.656 69.8509C231.201 69.6491 230.843 69.3679 230.582 69.0071C230.323 68.6463 230.177 68.2273 230.143 67.75H231.234C231.262 68.0795 231.373 68.3523 231.566 68.5682C231.762 68.7812 232.009 68.9403 232.308 69.0455C232.609 69.1477 232.933 69.1989 233.279 69.1989C233.683 69.1989 234.045 69.1335 234.366 69.0028C234.687 68.8693 234.941 68.6847 235.129 68.4489C235.316 68.2102 235.41 67.9318 235.41 67.6136C235.41 67.3239 235.329 67.0881 235.167 66.9062C235.005 66.7244 234.792 66.5767 234.528 66.4631C234.263 66.3494 233.978 66.25 233.671 66.1648L232.597 65.858C231.915 65.6619 231.376 65.3821 230.978 65.0185C230.58 64.6548 230.381 64.179 230.381 63.5909C230.381 63.1023 230.513 62.6761 230.778 62.3125C231.045 61.946 231.403 61.6619 231.852 61.4602C232.303 61.2557 232.808 61.1534 233.364 61.1534C233.927 61.1534 234.427 61.2543 234.864 61.456C235.302 61.6548 235.648 61.9276 235.904 62.2741C236.163 62.6207 236.299 63.0142 236.313 63.4545H235.29ZM239.43 70V61.2727H240.487V69.0625H244.544V70H239.43Z" fill="white"/>
</svg>
