<svg xmlns="http://www.w3.org/2000/svg" width="64" height="64"><svg width="64" height="64" viewBox="0 0 64 64" xmlns="http://www.w3.org/2000/svg" xmlns:xlink="http://www.w3.org/1999/xlink"><g id="SvgjsG1013" stroke="none" stroke-width="1" fill="none" fill-rule="evenodd"><g id="SvgjsG1012" transform="translate(11 2)"><path d="M.803 15.78a1.73 1.73 0 0 1 0-2.902L20.182.28a1.73 1.73 0 0 1 1.886 0l19.38 12.598a1.73 1.73 0 0 1 0 2.901l-19.38 12.599a1.73 1.73 0 0 1-1.886 0L.803 15.779Z" id="SvgjsPath1011" fill="#326CE5"/><path d="M24.185 18.002h1.344c.786 0 1.277-.85.884-1.53l-4.405-7.628a1.02 1.02 0 0 0-1.766 0l-4.404 7.629a1.02 1.02 0 0 0 .883 1.53h1.345c.563 0 1.02.456 1.02 1.02v8.707l.901.587c.692.45 1.584.45 2.276 0l.902-.587v-8.708c0-.563.456-1.02 1.02-1.02" id="SvgjsPath1010" fill="#C1D2F7"/><path d="m27.84 34.838-4.675-3.04v1.44c1.525.654 3.094 1.163 4.674 1.6" id="SvgjsPath1009" fill="#326CE5"/><path d="M23.165 35.828v2.022c1.544.47 3.107.858 4.654 1.24 5.052 1.245 9.823 2.42 13.66 6.258.194.194.377.393.558.592a1.731 1.731 0 0 0-.59-2.255l-7.591-4.936c-1.843-.608-3.72-1.073-5.575-1.53-1.75-.432-3.461-.862-5.116-1.391" id="SvgjsPath1008" fill="#326CE5"/><path d="M19.085 34.17c-.655-.338-1.3-.701-1.922-1.121l-1.736 1.128c1.17.861 2.397 1.56 3.658 2.144V34.17Z" id="SvgjsPath1007" fill="#326CE5"/><path d="M24.894 40.605c-.58-.143-1.157-.285-1.729-.431v1.986c.424.107.846.212 1.268.316 5.051 1.245 9.822 2.42 13.66 6.258l.018.02 1.641-1.067c-.1-.105-.194-.212-.297-.315-4.217-4.217-9.476-5.513-14.56-6.767" id="SvgjsPath1006" fill="#326CE5"/><path d="M19.085 38.99c-2.195-.751-4.275-1.719-6.173-3.178l-1.7 1.106c2.417 1.993 5.107 3.202 7.873 4.099V38.99Z" id="SvgjsPath1005" fill="#326CE5"/><path d="M19.085 43.381c-3.778-.99-7.331-2.2-10.367-4.842l-1.67 1.086c3.565 3.285 7.806 4.658 12.037 5.746v-1.99Z" id="SvgjsPath1004" fill="#326CE5"/><path d="M23.165 46.394c3.953 1.02 7.67 2.24 10.817 5.044l1.662-1.08c-3.679-3.458-8.093-4.839-12.479-5.953v1.989Z" id="SvgjsPath1003" fill="#326CE5"/><path d="m4.579 41.23-1.65 1.072c.059.06.111.121.17.18 4.217 4.217 9.475 5.513 14.56 6.767 4.405 1.085 8.595 2.12 12.14 4.91l1.69-1.1c-3.993-3.362-8.75-4.543-13.368-5.68-5-1.234-9.725-2.403-13.542-6.15" id="SvgjsPath1002" fill="#326CE5"/><path d="M1.076 44.506a16.795 16.795 0 0 1-.552-.584c-.752.753-.663 2.05.28 2.663l5.706 3.71c2.525 1.046 5.167 1.7 7.764 2.34 4.054 1 7.928 1.957 11.284 4.28l1.725-1.122c-3.815-2.868-8.243-3.967-12.548-5.029-5.051-1.245-9.822-2.42-13.66-6.258" id="SvgjsPath1001" fill="#326CE5"/><path d="M19.644 58.834c.38.185.756.38 1.125.588.44.093.908.016 1.3-.238l.957-.623c-3.077-2.057-6.497-3.1-9.906-3.968l6.524 4.241Z" id="SvgjsPath1000" fill="#326CE5"/></g></g></svg><style>@media (prefers-color-scheme:light){:root{filter:none}}</style></svg>