<svg version="1.0" xmlns="http://www.w3.org/2000/svg" width="933.333" height="933.333" viewBox="0 0 700 700"><path d="M340.6 25.5c-2.8 1.7-10.5 6.6-17.1 10.9-27.1 17.6-53 34.4-69.5 45.1-9.6 6.3-26.5 17.3-37.5 24.4-32.1 20.8-57.4 37.3-64.3 41.8-3.5 2.4-6.5 4.3-6.6 4.3-.7 0-17.4 11.4-19.4 13.3-7.1 6.6-7.3 19-.5 26.2 1.1 1.1 10.5 7.6 20.9 14.3 10.4 6.8 27.9 18.1 38.9 25.3 11 7.1 26.3 17.1 34 22.1 7.7 5 20.3 13.2 28 18.2 26 17 58.4 38.1 69.6 45.3 6.2 3.9 11.5 7.6 11.8 8 .3.5 3.7 2.8 7.4 5.1 11.9 7.5 19.3 7.3 31.5-1 9.7-6.5 73.9-48.5 118.2-77.3 21.7-14.1 50.7-33 64.4-41.9 15.6-10.1 26.1-17.6 28-20 2.8-3.4 3.1-4.4 3.1-10.9 0-11.9 6.3-6.9-74.5-59.3-6.3-4.1-16.2-10.6-22-14.3-22.9-15-38.7-25.2-65.5-42.6-15.4-10-34.7-22.6-43-28-8.2-5.4-16.5-10.4-18.3-11.2-5.2-2.2-11.7-1.4-17.6 2.2zM373.7 376.2c0 3.5.2 7 .2 7.9.1 1.7 3.9 3.4 20.1 9.1 9.6 3.4 30 9.7 30 9.3 0-.2-6.9-4.7-15.2-10.1-8.4-5.3-19.2-12.4-24.1-15.6-4.8-3.2-9.3-6.1-10-6.4-.9-.3-1.2 1.2-1 5.8zM298.5 389.5l-9.7 6.3 9.8 6.4c5.5 3.6 11.3 7.1 12.9 8 1.7.8 5.6 2.9 8.8 4.6 9.5 5 8.7 5.6 8.7-7.6v-11.7l-6.3-3.4c-3.4-1.9-8.1-4.6-10.3-6.1l-4.2-2.8-9.7 6.3zM251.7 420l-8.9 5.9 8.9 6.5c18.9 13.9 39.8 24.6 67.7 34.7 4.4 1.6 8.3 2.9 8.8 2.9.4 0 .8-4.9.8-10.9v-10.8l-6.2-2.3c-6.8-2.4-28.7-11.8-30.3-13-.5-.4-4.1-2.4-8-4.5-3.8-2.1-10.5-6.2-14.7-9.1-4.3-3-8.1-5.4-8.5-5.4-.4.1-4.8 2.7-9.6 6zM373.8 414.7c-.7 1.4-.1 20.3.6 21 .4.4 2.6 1.2 4.9 1.9 14.7 4 24.4 6.6 25.7 6.9 3.3.7 52.9 13.4 58.5 14.9 13.6 3.8 34.1 10.7 45 15.4 5.1 2.2 24.4 11.8 27 13.4 19.2 12.4 29.3 20.3 39.2 30.6 4.8 5.1 5.2 5.3 6.2 3.4 1.8-3.3 1.3-10.9-.9-15.2-1.7-3.4-7.8-8.7-14.3-12.5-.9-.6-13.1-8.4-26.9-17.5-13.9-9-30.2-19.7-36.3-23.6-6-3.9-13.7-8.1-17-9.2-9.2-3.2-48.2-13.8-57.6-15.7-6-1.2-33.9-8.7-45.2-12.1-8.9-2.7-8.5-2.6-8.9-1.7zM206.2 449.5c-4.5 3.1-8.2 5.9-8.2 6.3.1 1.2 14.8 12.6 26 20 23.2 15.5 50 27 86.8 37.2 8.1 2.3 15.5 4.4 16.5 4.6 1.5.5 1.7-.5 1.7-10.4v-11l-8.2-2.2c-29.7-7.9-56.8-18.6-76.7-30.3-7.7-4.5-22.4-15-25.9-18.4-2.1-2-3.2-1.7-12 4.2zM373.9 462.3c-.5 7.6-.2 19.3.6 20.2.6.7 3.3 1.7 6 2.3 2.8.6 6.8 1.5 9 2.1 2.2.6 5.8 1.5 8 2 7.1 1.6 23.7 6.1 36 9.7 46.1 13.6 75.5 29.5 102.1 55.2 1.1 1 3 .2 10.4-4.4 8.8-5.6 9-5.8 7.3-7.7-6.7-7.7-23.8-21.6-36.3-29.7-23.8-15.3-60.4-30.1-94.7-38.5-1-.3-6.3-1.6-11.8-3-5.5-1.5-11.1-2.8-12.5-3.1-1.4-.3-3.9-.9-5.6-1.5-1.7-.5-4-1.1-5-1.3-1-.2-4.5-1.1-7.6-1.9-4.2-1.1-5.8-1.2-5.9-.4zM161.5 478.6c-4.4 3-8.1 5.8-8.3 6.2-.3.9 9.1 9.6 18.8 17.5 19.7 15.9 46.9 30.1 78 40.6 6 2.1 24 7.5 28 8.5 69.5 17.6 84.5 21.7 102 27.9 26 9.3 42.5 17.9 65.3 34 1.1.8 11.1-4.9 17.2-9.8l2-1.6-2-1.5c-1.1-.8-3.1-2.4-4.4-3.6-4.8-4.1-24.9-16.7-35.1-22-18.4-9.5-43.8-18.8-72-26.4-3-.8-6.8-1.9-8.5-2.4-2.7-.7-38.3-9.6-42.4-10.5-6.2-1.4-32.9-9-41.3-11.9-35.5-11.8-62.3-26.7-84.1-46.9-2.3-2-4.4-3.7-4.7-3.6-.3 0-4.1 2.5-8.5 5.5zM124 504.6c-2.3 2.7-3.8 10.5-2.8 14.9 1.6 7 4.5 9.8 21.7 20.9 9.1 5.9 23.8 15.4 32.6 21.2 9.4 6.1 19.3 11.6 23.9 13.4 16.3 6.3 48 15.8 66.6 19.9 8.5 1.9 41.6 10.5 52.9 13.8 21.5 6.1 44.5 14.8 57.6 21.8 10.1 5.4 13 7 14 7.8 4.4 3.3 9 5.7 10.1 5.3 2.3-.9 17.4-11 17.4-11.7 0-.7-14.3-10.4-22.5-15-20.5-11.8-48.9-22.8-81-31.4-7.3-2-37.2-9.5-40-10.1-10.7-2.2-49.3-13.4-60.6-17.5-4.6-1.7-9.6-3.4-11.1-3.9-4.8-1.5-28-13.1-36-18-11-6.9-23-16.2-32.4-25.2-4.5-4.3-8.3-7.8-8.6-7.8-.3 0-1.1.7-1.8 1.6zM373.8 509.2c-.3 1.1-.3 11.2.1 18.3.1 1.7 1.6 2.4 9.4 4.4 10.9 2.7 42.4 13 48.8 15.9 16 7.3 21.2 9.8 29.3 14.6 8.6 5.1 22 14.5 27.5 19.5 1.3 1.1 2.8 2.1 3.3 2.1.4 0 4.7-2.6 9.4-5.7l8.6-5.7-4.4-3.9c-28.5-25.3-64.4-42.9-115.4-56.7-16.9-4.5-16.1-4.4-16.6-2.8zM265 619.5c0 .2 14.7 10 18.1 12 .9.5 2.7 1.7 4 2.6 10.6 7.4 49.7 32.1 54.6 34.7 9.7 5 14.4 4.3 26.1-3.6l4.3-2.9-7.3-4.6c-10.6-6.5-30.7-16.4-41.2-20.3-9.5-3.5-27.5-9.6-32.1-10.9-13.7-3.8-26.5-7.2-26.5-7z"/></svg>